M48
; DRILL file {KiCad 8.0.8} date 2025-02-12T13:54:17+0100
; FORMAT={-:-/ absolute / inch / decimal}
; #@! TF.CreationDate,2025-02-12T13:54:17+01:00
; #@! TF.GenerationSoftware,Kicad,Pcbnew,8.0.8
; #@! TF.FileFunction,Plated,1,2,PTH
FMAT,2
INCH
; #@! TA.AperFunction,Plated,PTH,ViaDrill
T1C0.0118
; #@! TA.AperFunction,Plated,PTH,ComponentDrill
T2C0.0402
; #@! TA.AperFunction,Plated,PTH,ComponentDrill
T3C0.0433
%
G90
G05
T1
X4.9508Y-4.391
X4.9508Y-4.4697
X4.9508Y-4.5485
X4.9606Y-2.8556
X4.9606Y-2.9343
X4.9606Y-3.013
X4.9606Y-3.4067
X4.9606Y-3.4855
X4.9606Y-3.5642
X4.9606Y-3.8398
X4.9606Y-3.9186
X4.9606Y-3.9973
X4.9705Y-4.3516
X4.9705Y-4.4304
X4.9705Y-4.5091
X4.9803Y-2.8162
X4.9803Y-2.8949
X4.9803Y-2.9737
X4.9803Y-3.3674
X4.9803Y-3.4461
X4.9803Y-3.5249
X4.9803Y-3.8004
X4.9803Y-3.8792
X4.9803Y-3.9579
X4.9902Y-4.391
X4.9902Y-4.4697
X4.9902Y-4.5485
X5.0Y-2.8556
X5.0Y-2.9343
X5.0Y-3.013
X5.0Y-3.4067
X5.0Y-3.4855
X5.0Y-3.5642
X5.0Y-3.8398
X5.0Y-3.9186
X5.0Y-3.9973
X5.0098Y-4.3516
X5.0098Y-4.4304
X5.0098Y-4.5091
X5.0197Y-2.8162
X5.0197Y-2.8949
X5.0197Y-2.9737
X5.0197Y-3.3674
X5.0197Y-3.4461
X5.0197Y-3.5249
X5.0197Y-3.8004
X5.0197Y-3.8792
X5.0197Y-3.9579
X5.0295Y-4.391
X5.0295Y-4.5485
X5.0394Y-2.8556
X5.0394Y-3.013
X5.0394Y-3.4067
X5.0394Y-3.5642
X5.0394Y-3.8398
X5.0394Y-3.9973
X5.0492Y-4.3516
X5.0492Y-4.5091
X5.0591Y-2.8162
X5.0591Y-2.9737
X5.0591Y-3.3674
X5.0591Y-3.5249
X5.0591Y-3.8004
X5.0591Y-3.9579
X5.0689Y-4.391
X5.0689Y-4.5485
X5.0787Y-2.8556
X5.0787Y-3.013
X5.0787Y-3.4067
X5.0787Y-3.5642
X5.0787Y-3.8398
X5.0787Y-3.9973
X5.0886Y-4.3516
X5.0886Y-4.5091
X5.0984Y-2.8162
X5.0984Y-2.9737
X5.0984Y-3.3674
X5.0984Y-3.5249
X5.0984Y-3.8004
X5.0984Y-3.9579
X5.1083Y-4.391
X5.1083Y-4.5485
X5.1181Y-2.8556
X5.1181Y-3.013
X5.1181Y-3.4067
X5.1181Y-3.5642
X5.1181Y-3.8398
X5.1181Y-3.9973
X5.128Y-4.3516
X5.128Y-4.5091
X5.1378Y-2.8162
X5.1378Y-2.9737
X5.1378Y-3.3674
X5.1378Y-3.5249
X5.1378Y-3.8004
X5.1378Y-3.9579
X5.1476Y-4.5485
X5.1575Y-3.013
X5.1575Y-3.5642
X5.1575Y-3.9973
X5.3445Y-2.6083
X5.3543Y-3.2493
X5.3543Y-3.702
X5.3543Y-4.263
X5.4134Y-2.6193
X5.4134Y-2.6981
X5.4134Y-2.7768
X5.4134Y-2.8556
X5.4134Y-2.9343
X5.4134Y-3.013
X5.4134Y-3.0918
X5.4134Y-3.2493
X5.4134Y-3.328
X5.4134Y-3.4067
X5.4134Y-3.4855
X5.4134Y-3.5642
X5.4134Y-3.643
X5.4134Y-3.7217
X5.4134Y-3.8004
X5.4134Y-3.8792
X5.4134Y-3.9579
X5.4134Y-4.1351
X5.4134Y-4.2138
X5.4134Y-4.2926
X5.4134Y-4.3713
X5.4134Y-4.45
X5.4181Y-4.5241
X5.4331Y-2.6587
X5.4331Y-2.7375
X5.4331Y-2.8162
X5.4331Y-2.8949
X5.4331Y-2.9737
X5.4331Y-3.0524
X5.4331Y-3.2099
X5.4331Y-3.2886
X5.4331Y-3.3674
X5.4331Y-3.4461
X5.4331Y-3.5249
X5.4331Y-3.6036
X5.4331Y-3.6823
X5.4331Y-3.7611
X5.4331Y-3.8398
X5.4331Y-3.9186
X5.4331Y-3.9973
X5.4331Y-4.1745
X5.4331Y-4.2532
X5.4331Y-4.3319
X5.4331Y-4.4107
X5.4331Y-4.4894
X5.4476Y-4.5536
X5.4528Y-2.6193
X5.4528Y-2.6981
X5.4528Y-2.7768
X5.4528Y-2.8556
X5.4528Y-2.9343
X5.4528Y-3.013
X5.4528Y-3.0918
X5.4528Y-3.2493
X5.4528Y-3.328
X5.4528Y-3.4067
X5.4528Y-3.4855
X5.4528Y-3.5642
X5.4528Y-3.643
X5.4528Y-3.7217
X5.4528Y-3.8004
X5.4528Y-3.8792
X5.4528Y-3.9579
X5.4528Y-4.1351
X5.4528Y-4.2138
X5.4528Y-4.2926
X5.4528Y-4.3713
X5.4528Y-4.45
X5.4528Y-4.5288
X5.4724Y-2.6587
X5.4724Y-2.7375
X5.4724Y-2.8162
X5.4724Y-2.8949
X5.4724Y-2.9737
X5.4724Y-3.0524
X5.4724Y-3.2099
X5.4724Y-3.2886
X5.4724Y-3.3674
X5.4724Y-3.4461
X5.4724Y-3.5249
X5.4724Y-3.6036
X5.4724Y-3.6823
X5.4724Y-3.7611
X5.4724Y-3.8398
X5.4724Y-3.9186
X5.4724Y-3.9973
X5.4724Y-4.1745
X5.4724Y-4.2532
X5.4724Y-4.3319
X5.4724Y-4.4107
X5.4724Y-4.4894
X5.4724Y-4.5682
X5.4921Y-2.6193
X5.4921Y-2.6981
X5.4921Y-2.7768
X5.4921Y-2.8556
X5.4921Y-2.9343
X5.4921Y-3.013
X5.4921Y-3.0918
X5.4921Y-3.2493
X5.4921Y-3.328
X5.4921Y-3.4067
X5.4921Y-3.4855
X5.4921Y-3.5642
X5.4921Y-3.643
X5.4921Y-3.7217
X5.4921Y-3.8004
X5.4921Y-3.8792
X5.4921Y-3.9579
X5.4921Y-4.1351
X5.4921Y-4.2138
X5.4921Y-4.2926
X5.4921Y-4.3713
X5.4921Y-4.45
X5.4921Y-4.5288
X5.5118Y-2.6587
X5.5118Y-2.7375
X5.5118Y-2.8162
X5.5118Y-2.8949
X5.5118Y-2.9737
X5.5118Y-3.0524
X5.5118Y-3.2099
X5.5118Y-3.2886
X5.5118Y-3.3674
X5.5118Y-3.4461
X5.5118Y-3.5249
X5.5118Y-3.6036
X5.5118Y-3.6823
X5.5118Y-3.7611
X5.5118Y-3.8398
X5.5118Y-3.9186
X5.5118Y-3.9973
X5.5118Y-4.1745
X5.5118Y-4.2532
X5.5118Y-4.3319
X5.5118Y-4.4107
X5.5118Y-4.4894
X5.5118Y-4.5682
X5.5315Y-2.6193
X5.5315Y-2.6981
X5.5315Y-2.7768
X5.5315Y-2.8556
X5.5315Y-2.9343
X5.5315Y-3.013
X5.5315Y-3.0918
X5.5315Y-3.2493
X5.5315Y-3.328
X5.5315Y-3.4067
X5.5315Y-3.4855
X5.5315Y-3.5642
X5.5315Y-3.643
X5.5315Y-3.7217
X5.5315Y-3.8004
X5.5315Y-3.8792
X5.5315Y-3.9579
X5.5315Y-4.1351
X5.5315Y-4.2138
X5.5315Y-4.2926
X5.5315Y-4.3713
X5.5315Y-4.45
X5.5315Y-4.5288
X5.5512Y-2.6587
X5.5512Y-2.7375
X5.5512Y-2.8162
X5.5512Y-2.8949
X5.5512Y-2.9737
X5.5512Y-3.2099
X5.5512Y-3.2886
X5.5512Y-3.3674
X5.5512Y-3.4461
X5.5512Y-3.5249
X5.5512Y-3.6036
X5.5512Y-3.6823
X5.5512Y-3.7611
X5.5512Y-3.8398
X5.5512Y-3.9186
X5.5512Y-3.9973
X5.5512Y-4.1745
X5.5512Y-4.2532
X5.5512Y-4.3319
X5.5512Y-4.4107
X5.5512Y-4.4894
X5.5512Y-4.5682
X5.5709Y-2.6193
X5.5709Y-2.6981
X5.5709Y-2.7768
X5.5709Y-2.8556
X5.5709Y-2.9343
X5.5709Y-3.2493
X5.5709Y-3.328
X5.5709Y-3.4067
X5.5709Y-3.4855
X5.5709Y-3.5642
X5.5709Y-3.643
X5.5709Y-3.7217
X5.5709Y-3.8004
X5.5709Y-3.8792
X5.5709Y-3.9579
X5.5709Y-4.2138
X5.5709Y-4.2926
X5.5709Y-4.3713
X5.5709Y-4.45
X5.5709Y-4.5288
X5.5906Y-2.6587
X5.5906Y-2.7375
X5.5906Y-2.8162
X5.5906Y-2.8949
X5.5906Y-3.2099
X5.5906Y-3.2886
X5.5906Y-3.3674
X5.5906Y-3.4461
X5.5906Y-3.5249
X5.5906Y-3.6036
X5.5906Y-3.6823
X5.5906Y-3.7611
X5.5906Y-3.8398
X5.5906Y-3.9186
X5.5906Y-4.1745
X5.5906Y-4.2532
X5.5906Y-4.3319
X5.5906Y-4.4107
X5.5906Y-4.4894
X5.5906Y-4.5682
X5.6102Y-2.6193
X5.6102Y-2.6981
X5.6102Y-2.7768
X5.6102Y-2.8556
X5.6102Y-2.9343
X5.6102Y-3.2493
X5.6102Y-3.328
X5.6102Y-3.4067
X5.6102Y-3.4855
X5.6102Y-3.5642
X5.6102Y-3.643
X5.6102Y-3.7217
X5.6102Y-3.8004
X5.6102Y-3.8792
X5.6102Y-4.2138
X5.6102Y-4.2926
X5.6102Y-4.3713
X5.6102Y-4.45
X5.6102Y-4.5288
X5.6299Y-2.6587
X5.6299Y-2.7375
X5.6299Y-2.8162
X5.6299Y-2.8949
X5.6299Y-3.2099
X5.6299Y-3.2886
X5.6299Y-3.3674
X5.6299Y-3.4461
X5.6299Y-3.5249
X5.6299Y-3.6036
X5.6299Y-3.6823
X5.6299Y-3.7611
X5.6299Y-3.8398
X5.6299Y-3.9186
X5.6299Y-4.2532
X5.6299Y-4.3319
X5.6299Y-4.4107
X5.6299Y-4.4894
X5.6299Y-4.5682
X5.6496Y-2.6193
X5.6496Y-2.6981
X5.6496Y-2.7768
X5.6496Y-2.8556
X5.6496Y-3.2493
X5.6496Y-3.328
X5.6496Y-3.4067
X5.6496Y-3.4855
X5.6496Y-3.5642
X5.6496Y-3.643
X5.6496Y-3.7217
X5.6496Y-3.8004
X5.6496Y-3.8792
X5.6496Y-4.2138
X5.6496Y-4.2926
X5.6496Y-4.3713
X5.6496Y-4.45
X5.6496Y-4.5288
X5.7087Y-2.6193
X5.7087Y-2.6981
X5.7087Y-2.7768
X5.7087Y-2.8556
X5.7087Y-2.9343
X5.7087Y-3.2493
X5.7087Y-3.328
X5.7087Y-3.4067
X5.7087Y-3.4855
X5.7087Y-3.5642
X5.7087Y-3.643
X5.7087Y-3.7217
X5.7087Y-3.8004
X5.7087Y-3.8792
X5.7087Y-4.2138
X5.7087Y-4.2926
X5.7087Y-4.3713
X5.7087Y-4.45
X5.7087Y-4.5288
X5.7087Y-5.1181
X5.7087Y-5.1969
X5.7087Y-5.2756
X5.7087Y-5.3543
X5.7087Y-5.4331
X5.7087Y-5.5118
X5.7087Y-5.5906
X5.7087Y-5.6693
X5.7087Y-5.748
X5.7087Y-5.8268
X5.7283Y-2.6587
X5.7283Y-2.7375
X5.7283Y-2.8162
X5.7283Y-2.8949
X5.7283Y-3.2099
X5.7283Y-3.2886
X5.7283Y-3.3674
X5.7283Y-3.4461
X5.7283Y-3.5249
X5.7283Y-3.6036
X5.7283Y-3.6823
X5.7283Y-3.7611
X5.7283Y-3.8398
X5.7283Y-3.9186
X5.7283Y-4.2532
X5.7283Y-4.3319
X5.7283Y-4.4107
X5.7283Y-4.4894
X5.7283Y-4.5682
X5.748Y-2.6193
X5.748Y-2.6981
X5.748Y-2.7768
X5.748Y-2.8556
X5.748Y-2.9343
X5.748Y-3.2493
X5.748Y-3.328
X5.748Y-3.4067
X5.748Y-3.4855
X5.748Y-3.5642
X5.748Y-3.643
X5.748Y-3.7217
X5.748Y-3.8004
X5.748Y-3.8792
X5.748Y-4.2138
X5.748Y-4.2926
X5.748Y-4.3713
X5.748Y-4.45
X5.748Y-4.5288
X5.748Y-5.1575
X5.748Y-5.2362
X5.748Y-5.315
X5.748Y-5.3937
X5.748Y-5.4724
X5.748Y-5.5512
X5.748Y-5.6299
X5.748Y-5.7087
X5.748Y-5.7874
X5.7677Y-2.6587
X5.7677Y-2.7375
X5.7677Y-2.8162
X5.7677Y-2.8949
X5.7677Y-2.9737
X5.7677Y-3.2099
X5.7677Y-3.2886
X5.7677Y-3.3674
X5.7677Y-3.4461
X5.7677Y-3.5249
X5.7677Y-3.6036
X5.7677Y-3.6823
X5.7677Y-3.7611
X5.7677Y-3.8398
X5.7677Y-3.9186
X5.7677Y-4.2532
X5.7677Y-4.3319
X5.7677Y-4.4107
X5.7677Y-4.4894
X5.7677Y-4.5682
X5.7874Y-2.6193
X5.7874Y-2.6981
X5.7874Y-2.7768
X5.7874Y-2.8556
X5.7874Y-2.9343
X5.7874Y-3.2493
X5.7874Y-3.328
X5.7874Y-3.4067
X5.7874Y-3.4855
X5.7874Y-3.5642
X5.7874Y-3.643
X5.7874Y-3.7217
X5.7874Y-3.8004
X5.7874Y-3.8792
X5.7874Y-3.9579
X5.7874Y-4.2138
X5.7874Y-4.2926
X5.7874Y-4.3713
X5.7874Y-4.45
X5.7874Y-4.5288
X5.7874Y-5.1181
X5.7874Y-5.1969
X5.7874Y-5.2756
X5.7874Y-5.3543
X5.7874Y-5.4331
X5.7874Y-5.5118
X5.7874Y-5.5906
X5.7874Y-5.6693
X5.7874Y-5.748
X5.7874Y-5.8268
X5.8071Y-2.6587
X5.8071Y-2.7375
X5.8071Y-2.8162
X5.8071Y-2.8949
X5.8071Y-2.9737
X5.8071Y-3.2099
X5.8071Y-3.2886
X5.8071Y-3.3674
X5.8071Y-3.4461
X5.8071Y-3.5249
X5.8071Y-3.6036
X5.8071Y-3.6823
X5.8071Y-3.7611
X5.8071Y-3.8398
X5.8071Y-3.9186
X5.8071Y-3.9973
X5.8071Y-4.1745
X5.8071Y-4.2532
X5.8071Y-4.3319
X5.8071Y-4.4107
X5.8071Y-4.4894
X5.8071Y-4.5682
X5.8268Y-2.6193
X5.8268Y-2.6981
X5.8268Y-2.7768
X5.8268Y-2.8556
X5.8268Y-2.9343
X5.8268Y-3.013
X5.8268Y-3.0918
X5.8268Y-3.2493
X5.8268Y-3.328
X5.8268Y-3.4067
X5.8268Y-3.4855
X5.8268Y-3.5642
X5.8268Y-3.643
X5.8268Y-3.7217
X5.8268Y-3.8004
X5.8268Y-3.8792
X5.8268Y-3.9579
X5.8268Y-4.1351
X5.8268Y-4.2138
X5.8268Y-4.2926
X5.8268Y-4.3713
X5.8268Y-4.45
X5.8268Y-4.5288
X5.8268Y-5.1575
X5.8268Y-5.2362
X5.8268Y-5.315
X5.8268Y-5.3937
X5.8268Y-5.4724
X5.8268Y-5.5512
X5.8268Y-5.6299
X5.8268Y-5.7087
X5.8268Y-5.7874
X5.8465Y-2.6587
X5.8465Y-2.7375
X5.8465Y-2.8162
X5.8465Y-2.8949
X5.8465Y-2.9737
X5.8465Y-3.0524
X5.8465Y-3.2099
X5.8465Y-3.2886
X5.8465Y-3.3674
X5.8465Y-3.4461
X5.8465Y-3.5249
X5.8465Y-3.6036
X5.8465Y-3.6823
X5.8465Y-3.7611
X5.8465Y-3.8398
X5.8465Y-3.9186
X5.8465Y-3.9973
X5.8465Y-4.1745
X5.8465Y-4.2532
X5.8465Y-4.3319
X5.8465Y-4.4107
X5.8465Y-4.4894
X5.8465Y-4.5682
X5.8661Y-2.6193
X5.8661Y-2.6981
X5.8661Y-2.7768
X5.8661Y-2.8556
X5.8661Y-2.9343
X5.8661Y-3.013
X5.8661Y-3.0918
X5.8661Y-3.2493
X5.8661Y-3.328
X5.8661Y-3.4067
X5.8661Y-3.4855
X5.8661Y-3.5642
X5.8661Y-3.643
X5.8661Y-3.7217
X5.8661Y-3.8004
X5.8661Y-3.8792
X5.8661Y-3.9579
X5.8661Y-4.1351
X5.8661Y-4.2138
X5.8661Y-4.2926
X5.8661Y-4.3713
X5.8661Y-4.45
X5.8661Y-4.5288
X5.8661Y-5.1181
X5.8661Y-5.1969
X5.8661Y-5.2756
X5.8661Y-5.3543
X5.8661Y-5.4331
X5.8661Y-5.5118
X5.8661Y-5.5906
X5.8661Y-5.6693
X5.8661Y-5.748
X5.8661Y-5.8268
X5.8858Y-2.6587
X5.8858Y-2.7375
X5.8858Y-2.8162
X5.8858Y-2.8949
X5.8858Y-2.9737
X5.8858Y-3.0524
X5.8858Y-3.2099
X5.8858Y-3.2886
X5.8858Y-3.3674
X5.8858Y-3.4461
X5.8858Y-3.5249
X5.8858Y-3.6036
X5.8858Y-3.6823
X5.8858Y-3.7611
X5.8858Y-3.8398
X5.8858Y-3.9186
X5.8858Y-3.9973
X5.8858Y-4.1745
X5.8858Y-4.2532
X5.8858Y-4.3319
X5.8858Y-4.4107
X5.8858Y-4.4894
X5.8858Y-4.5682
X5.9055Y-2.6193
X5.9055Y-2.6981
X5.9055Y-2.7768
X5.9055Y-2.8556
X5.9055Y-2.9343
X5.9055Y-3.013
X5.9055Y-3.0918
X5.9055Y-3.2493
X5.9055Y-3.328
X5.9055Y-3.4067
X5.9055Y-3.4855
X5.9055Y-3.5642
X5.9055Y-3.643
X5.9055Y-3.7217
X5.9055Y-3.8004
X5.9055Y-3.8792
X5.9055Y-3.9579
X5.9055Y-4.1351
X5.9055Y-4.2138
X5.9055Y-4.2926
X5.9055Y-4.3713
X5.9055Y-4.45
X5.9055Y-4.5288
X5.9252Y-2.6587
X5.9252Y-2.7375
X5.9252Y-2.8162
X5.9252Y-2.8949
X5.9252Y-2.9737
X5.9252Y-3.0524
X5.9252Y-3.2099
X5.9252Y-3.2886
X5.9252Y-3.3674
X5.9252Y-3.4461
X5.9252Y-3.5249
X5.9252Y-3.6036
X5.9252Y-3.6823
X5.9252Y-3.7611
X5.9252Y-3.8398
X5.9252Y-3.9186
X5.9252Y-3.9973
X5.9252Y-4.1745
X5.9252Y-4.2532
X5.9252Y-4.3319
X5.9252Y-4.4107
X5.9252Y-4.4894
X5.9252Y-4.5682
X5.9449Y-2.6193
X5.9449Y-2.6981
X5.9449Y-2.7768
X5.9449Y-2.8556
X5.9449Y-2.9343
X5.9449Y-3.013
X5.9449Y-3.0918
X5.9449Y-3.2493
X5.9449Y-3.328
X5.9449Y-3.4067
X5.9449Y-3.4855
X5.9449Y-3.5642
X5.9449Y-3.643
X5.9449Y-3.7217
X5.9449Y-3.8004
X5.9449Y-3.8792
X5.9449Y-3.9579
X5.9449Y-4.1351
X5.9449Y-4.2138
X5.9449Y-4.2926
X5.9449Y-4.3713
X5.9449Y-4.45
X5.9449Y-4.5288
X6.0433Y-3.2689
X6.0433Y-3.7217
X6.0433Y-4.2729
X6.063Y-2.7375
X6.063Y-3.2296
X6.063Y-3.3083
X6.063Y-3.6823
X6.063Y-3.7611
X6.063Y-4.2335
X6.063Y-4.3123
X6.0827Y-2.6981
X6.0827Y-2.7768
X6.0827Y-3.1115
X6.0827Y-3.2689
X6.0827Y-3.3477
X6.0827Y-3.643
X6.0827Y-3.7217
X6.0827Y-3.8004
X6.0827Y-4.1941
X6.0827Y-4.2729
X6.0827Y-4.3516
X6.1024Y-2.6587
X6.1024Y-2.7375
X6.1024Y-2.8162
X6.1024Y-3.0721
X6.1024Y-3.2296
X6.1024Y-3.3083
X6.1024Y-3.6036
X6.1024Y-3.6823
X6.1024Y-3.7611
X6.1024Y-4.1548
X6.1024Y-4.2335
X6.1024Y-4.3123
X6.122Y-2.6193
X6.122Y-2.6981
X6.122Y-2.7768
X6.122Y-3.1115
X6.122Y-3.2689
X6.122Y-3.3477
X6.122Y-3.643
X6.122Y-3.7217
X6.122Y-3.8004
X6.122Y-4.1941
X6.122Y-4.2729
X6.122Y-4.3516
X6.1417Y-2.6587
X6.1417Y-2.7375
X6.1417Y-2.8162
X6.1417Y-3.0721
X6.1417Y-3.2296
X6.1417Y-3.3083
X6.1417Y-3.6036
X6.1417Y-3.6823
X6.1417Y-3.7611
X6.1417Y-4.1548
X6.1417Y-4.2335
X6.1417Y-4.3123
X6.1614Y-2.6193
X6.1614Y-2.6981
X6.1614Y-2.7768
X6.1614Y-3.1115
X6.1614Y-3.3477
X6.1614Y-3.643
X6.1614Y-3.8004
X6.1614Y-4.1941
X6.1614Y-4.3516
X6.1811Y-2.6587
X6.1811Y-2.8162
X6.1811Y-3.0721
X6.1811Y-3.3083
X6.1811Y-3.6036
X6.1811Y-3.7611
X6.1811Y-4.1548
X6.1811Y-4.3123
X6.2008Y-2.6193
X6.2008Y-2.7768
X6.2008Y-3.1115
X6.2008Y-3.3477
X6.2008Y-3.643
X6.2008Y-3.8004
X6.2008Y-4.1941
X6.2008Y-4.3516
X6.2205Y-2.6587
X6.2205Y-2.8162
X6.2205Y-3.0721
X6.2205Y-3.3083
X6.2205Y-3.6036
X6.2205Y-3.7611
X6.2205Y-4.1548
X6.2205Y-4.3123
X6.2402Y-2.6193
X6.2402Y-2.7768
X6.2402Y-3.1115
X6.2402Y-3.3477
X6.2402Y-3.643
X6.2402Y-3.8004
X6.2402Y-4.1941
X6.2402Y-4.3516
X6.2598Y-2.6587
X6.2598Y-2.8162
X6.2598Y-3.0721
X6.2598Y-3.3083
X6.2598Y-3.6036
X6.2598Y-3.7611
X6.2598Y-4.1548
X6.2598Y-4.3123
X6.2795Y-2.6193
X6.2795Y-2.7768
X6.2795Y-3.3477
X6.2795Y-3.8004
X6.2795Y-4.3516
X6.2992Y-2.8162
X6.3386Y-3.4756
X6.3386Y-3.9284
X6.3386Y-4.4796
X6.3583Y-2.9331
T2
X5.1398Y-4.7847
X5.1398Y-4.8847
X5.2398Y-4.7847
X5.2398Y-4.8847
X5.3398Y-4.7847
X5.3398Y-4.8847
X5.423Y-5.3148
X5.423Y-5.4148
X5.423Y-5.5148
X5.423Y-5.6148
X5.423Y-5.7148
X5.4398Y-4.7847
X5.4398Y-4.8847
X5.523Y-5.3148
X5.523Y-5.4148
X5.523Y-5.5148
X5.523Y-5.6148
X5.523Y-5.7148
X5.5398Y-4.7847
X5.5398Y-4.8847
T3
X5.1331Y-5.6941
X5.2331Y-5.6941
M30
