%TF.GenerationSoftware,KiCad,Pcbnew,8.0.3*%
%TF.CreationDate,2024-11-12T13:20:17+01:00*%
%TF.ProjectId,BMU v1,424d5520-7631-42e6-9b69-6361645f7063,rev?*%
%TF.SameCoordinates,Original*%
%TF.FileFunction,Legend,Bot*%
%TF.FilePolarity,Positive*%
%FSLAX46Y46*%
G04 Gerber Fmt 4.6, Leading zero omitted, Abs format (unit mm)*
G04 Created by KiCad (PCBNEW 8.0.3) date 2024-11-12 13:20:17*
%MOMM*%
%LPD*%
G01*
G04 APERTURE LIST*
%ADD10C,0.150000*%
%ADD11C,0.120000*%
%ADD12C,1.400000*%
%ADD13O,1.400000X1.400000*%
%ADD14C,10.000000*%
%ADD15C,5.200000*%
%ADD16C,0.800000*%
%ADD17C,6.400000*%
%ADD18C,3.200000*%
%ADD19R,1.700000X1.700000*%
%ADD20O,1.700000X1.700000*%
%ADD21C,3.250000*%
%ADD22C,1.600000*%
%ADD23C,2.350000*%
%ADD24O,3.500000X3.500000*%
%ADD25R,1.905000X2.000000*%
%ADD26O,1.905000X2.000000*%
G04 APERTURE END LIST*
D10*
X71215238Y-126454057D02*
X71310476Y-126406438D01*
X71310476Y-126406438D02*
X71405714Y-126311200D01*
X71405714Y-126311200D02*
X71548571Y-126168342D01*
X71548571Y-126168342D02*
X71643809Y-126120723D01*
X71643809Y-126120723D02*
X71739047Y-126120723D01*
X71691428Y-126358819D02*
X71786666Y-126311200D01*
X71786666Y-126311200D02*
X71881904Y-126215961D01*
X71881904Y-126215961D02*
X71929523Y-126025485D01*
X71929523Y-126025485D02*
X71929523Y-125692152D01*
X71929523Y-125692152D02*
X71881904Y-125501676D01*
X71881904Y-125501676D02*
X71786666Y-125406438D01*
X71786666Y-125406438D02*
X71691428Y-125358819D01*
X71691428Y-125358819D02*
X71500952Y-125358819D01*
X71500952Y-125358819D02*
X71405714Y-125406438D01*
X71405714Y-125406438D02*
X71310476Y-125501676D01*
X71310476Y-125501676D02*
X71262857Y-125692152D01*
X71262857Y-125692152D02*
X71262857Y-126025485D01*
X71262857Y-126025485D02*
X71310476Y-126215961D01*
X71310476Y-126215961D02*
X71405714Y-126311200D01*
X71405714Y-126311200D02*
X71500952Y-126358819D01*
X71500952Y-126358819D02*
X71691428Y-126358819D01*
X70358095Y-125358819D02*
X70834285Y-125358819D01*
X70834285Y-125358819D02*
X70881904Y-125835009D01*
X70881904Y-125835009D02*
X70834285Y-125787390D01*
X70834285Y-125787390D02*
X70739047Y-125739771D01*
X70739047Y-125739771D02*
X70500952Y-125739771D01*
X70500952Y-125739771D02*
X70405714Y-125787390D01*
X70405714Y-125787390D02*
X70358095Y-125835009D01*
X70358095Y-125835009D02*
X70310476Y-125930247D01*
X70310476Y-125930247D02*
X70310476Y-126168342D01*
X70310476Y-126168342D02*
X70358095Y-126263580D01*
X70358095Y-126263580D02*
X70405714Y-126311200D01*
X70405714Y-126311200D02*
X70500952Y-126358819D01*
X70500952Y-126358819D02*
X70739047Y-126358819D01*
X70739047Y-126358819D02*
X70834285Y-126311200D01*
X70834285Y-126311200D02*
X70881904Y-126263580D01*
X151225238Y-126708057D02*
X151320476Y-126660438D01*
X151320476Y-126660438D02*
X151415714Y-126565200D01*
X151415714Y-126565200D02*
X151558571Y-126422342D01*
X151558571Y-126422342D02*
X151653809Y-126374723D01*
X151653809Y-126374723D02*
X151749047Y-126374723D01*
X151701428Y-126612819D02*
X151796666Y-126565200D01*
X151796666Y-126565200D02*
X151891904Y-126469961D01*
X151891904Y-126469961D02*
X151939523Y-126279485D01*
X151939523Y-126279485D02*
X151939523Y-125946152D01*
X151939523Y-125946152D02*
X151891904Y-125755676D01*
X151891904Y-125755676D02*
X151796666Y-125660438D01*
X151796666Y-125660438D02*
X151701428Y-125612819D01*
X151701428Y-125612819D02*
X151510952Y-125612819D01*
X151510952Y-125612819D02*
X151415714Y-125660438D01*
X151415714Y-125660438D02*
X151320476Y-125755676D01*
X151320476Y-125755676D02*
X151272857Y-125946152D01*
X151272857Y-125946152D02*
X151272857Y-126279485D01*
X151272857Y-126279485D02*
X151320476Y-126469961D01*
X151320476Y-126469961D02*
X151415714Y-126565200D01*
X151415714Y-126565200D02*
X151510952Y-126612819D01*
X151510952Y-126612819D02*
X151701428Y-126612819D01*
X150939523Y-125612819D02*
X150272857Y-125612819D01*
X150272857Y-125612819D02*
X150701428Y-126612819D01*
X112077238Y-126708057D02*
X112172476Y-126660438D01*
X112172476Y-126660438D02*
X112267714Y-126565200D01*
X112267714Y-126565200D02*
X112410571Y-126422342D01*
X112410571Y-126422342D02*
X112505809Y-126374723D01*
X112505809Y-126374723D02*
X112601047Y-126374723D01*
X112553428Y-126612819D02*
X112648666Y-126565200D01*
X112648666Y-126565200D02*
X112743904Y-126469961D01*
X112743904Y-126469961D02*
X112791523Y-126279485D01*
X112791523Y-126279485D02*
X112791523Y-125946152D01*
X112791523Y-125946152D02*
X112743904Y-125755676D01*
X112743904Y-125755676D02*
X112648666Y-125660438D01*
X112648666Y-125660438D02*
X112553428Y-125612819D01*
X112553428Y-125612819D02*
X112362952Y-125612819D01*
X112362952Y-125612819D02*
X112267714Y-125660438D01*
X112267714Y-125660438D02*
X112172476Y-125755676D01*
X112172476Y-125755676D02*
X112124857Y-125946152D01*
X112124857Y-125946152D02*
X112124857Y-126279485D01*
X112124857Y-126279485D02*
X112172476Y-126469961D01*
X112172476Y-126469961D02*
X112267714Y-126565200D01*
X112267714Y-126565200D02*
X112362952Y-126612819D01*
X112362952Y-126612819D02*
X112553428Y-126612819D01*
X111267714Y-125612819D02*
X111458190Y-125612819D01*
X111458190Y-125612819D02*
X111553428Y-125660438D01*
X111553428Y-125660438D02*
X111601047Y-125708057D01*
X111601047Y-125708057D02*
X111696285Y-125850914D01*
X111696285Y-125850914D02*
X111743904Y-126041390D01*
X111743904Y-126041390D02*
X111743904Y-126422342D01*
X111743904Y-126422342D02*
X111696285Y-126517580D01*
X111696285Y-126517580D02*
X111648666Y-126565200D01*
X111648666Y-126565200D02*
X111553428Y-126612819D01*
X111553428Y-126612819D02*
X111362952Y-126612819D01*
X111362952Y-126612819D02*
X111267714Y-126565200D01*
X111267714Y-126565200D02*
X111220095Y-126517580D01*
X111220095Y-126517580D02*
X111172476Y-126422342D01*
X111172476Y-126422342D02*
X111172476Y-126184247D01*
X111172476Y-126184247D02*
X111220095Y-126089009D01*
X111220095Y-126089009D02*
X111267714Y-126041390D01*
X111267714Y-126041390D02*
X111362952Y-125993771D01*
X111362952Y-125993771D02*
X111553428Y-125993771D01*
X111553428Y-125993771D02*
X111648666Y-126041390D01*
X111648666Y-126041390D02*
X111696285Y-126089009D01*
X111696285Y-126089009D02*
X111743904Y-126184247D01*
X190595238Y-126708057D02*
X190690476Y-126660438D01*
X190690476Y-126660438D02*
X190785714Y-126565200D01*
X190785714Y-126565200D02*
X190928571Y-126422342D01*
X190928571Y-126422342D02*
X191023809Y-126374723D01*
X191023809Y-126374723D02*
X191119047Y-126374723D01*
X191071428Y-126612819D02*
X191166666Y-126565200D01*
X191166666Y-126565200D02*
X191261904Y-126469961D01*
X191261904Y-126469961D02*
X191309523Y-126279485D01*
X191309523Y-126279485D02*
X191309523Y-125946152D01*
X191309523Y-125946152D02*
X191261904Y-125755676D01*
X191261904Y-125755676D02*
X191166666Y-125660438D01*
X191166666Y-125660438D02*
X191071428Y-125612819D01*
X191071428Y-125612819D02*
X190880952Y-125612819D01*
X190880952Y-125612819D02*
X190785714Y-125660438D01*
X190785714Y-125660438D02*
X190690476Y-125755676D01*
X190690476Y-125755676D02*
X190642857Y-125946152D01*
X190642857Y-125946152D02*
X190642857Y-126279485D01*
X190642857Y-126279485D02*
X190690476Y-126469961D01*
X190690476Y-126469961D02*
X190785714Y-126565200D01*
X190785714Y-126565200D02*
X190880952Y-126612819D01*
X190880952Y-126612819D02*
X191071428Y-126612819D01*
X190071428Y-126041390D02*
X190166666Y-125993771D01*
X190166666Y-125993771D02*
X190214285Y-125946152D01*
X190214285Y-125946152D02*
X190261904Y-125850914D01*
X190261904Y-125850914D02*
X190261904Y-125803295D01*
X190261904Y-125803295D02*
X190214285Y-125708057D01*
X190214285Y-125708057D02*
X190166666Y-125660438D01*
X190166666Y-125660438D02*
X190071428Y-125612819D01*
X190071428Y-125612819D02*
X189880952Y-125612819D01*
X189880952Y-125612819D02*
X189785714Y-125660438D01*
X189785714Y-125660438D02*
X189738095Y-125708057D01*
X189738095Y-125708057D02*
X189690476Y-125803295D01*
X189690476Y-125803295D02*
X189690476Y-125850914D01*
X189690476Y-125850914D02*
X189738095Y-125946152D01*
X189738095Y-125946152D02*
X189785714Y-125993771D01*
X189785714Y-125993771D02*
X189880952Y-126041390D01*
X189880952Y-126041390D02*
X190071428Y-126041390D01*
X190071428Y-126041390D02*
X190166666Y-126089009D01*
X190166666Y-126089009D02*
X190214285Y-126136628D01*
X190214285Y-126136628D02*
X190261904Y-126231866D01*
X190261904Y-126231866D02*
X190261904Y-126422342D01*
X190261904Y-126422342D02*
X190214285Y-126517580D01*
X190214285Y-126517580D02*
X190166666Y-126565200D01*
X190166666Y-126565200D02*
X190071428Y-126612819D01*
X190071428Y-126612819D02*
X189880952Y-126612819D01*
X189880952Y-126612819D02*
X189785714Y-126565200D01*
X189785714Y-126565200D02*
X189738095Y-126517580D01*
X189738095Y-126517580D02*
X189690476Y-126422342D01*
X189690476Y-126422342D02*
X189690476Y-126231866D01*
X189690476Y-126231866D02*
X189738095Y-126136628D01*
X189738095Y-126136628D02*
X189785714Y-126089009D01*
X189785714Y-126089009D02*
X189880952Y-126041390D01*
D11*
%TO.C,Q5*%
X66000000Y-109014000D02*
X76240000Y-109014000D01*
X66000000Y-118504000D02*
X66000000Y-109014000D01*
X66000000Y-118504000D02*
X76240000Y-118504000D01*
X66000000Y-119944000D02*
X66000000Y-118744000D01*
X66000000Y-122344000D02*
X66000000Y-121144000D01*
X66000000Y-124744000D02*
X66000000Y-123544000D01*
X66000000Y-124904000D02*
X66640000Y-124904000D01*
X67840000Y-124904000D02*
X69040000Y-124904000D01*
X68580000Y-109014000D02*
X68580000Y-106474000D01*
X70240000Y-124904000D02*
X71440000Y-124904000D01*
X71120000Y-109014000D02*
X71120000Y-106474000D01*
X72640000Y-124904000D02*
X73841000Y-124904000D01*
X73660000Y-109014000D02*
X73660000Y-106474000D01*
X75040000Y-124904000D02*
X76240000Y-124904000D01*
X76240000Y-118504000D02*
X76240000Y-109014000D01*
X76240000Y-119944000D02*
X76240000Y-118744000D01*
X76240000Y-122344000D02*
X76240000Y-121144000D01*
X76240000Y-124744000D02*
X76240000Y-123544000D01*
%TO.C,Q7*%
X146010000Y-109268000D02*
X156250000Y-109268000D01*
X146010000Y-118758000D02*
X146010000Y-109268000D01*
X146010000Y-118758000D02*
X156250000Y-118758000D01*
X146010000Y-120198000D02*
X146010000Y-118998000D01*
X146010000Y-122598000D02*
X146010000Y-121398000D01*
X146010000Y-124998000D02*
X146010000Y-123798000D01*
X146010000Y-125158000D02*
X146650000Y-125158000D01*
X147850000Y-125158000D02*
X149050000Y-125158000D01*
X148590000Y-109268000D02*
X148590000Y-106728000D01*
X150250000Y-125158000D02*
X151450000Y-125158000D01*
X151130000Y-109268000D02*
X151130000Y-106728000D01*
X152650000Y-125158000D02*
X153851000Y-125158000D01*
X153670000Y-109268000D02*
X153670000Y-106728000D01*
X155050000Y-125158000D02*
X156250000Y-125158000D01*
X156250000Y-118758000D02*
X156250000Y-109268000D01*
X156250000Y-120198000D02*
X156250000Y-118998000D01*
X156250000Y-122598000D02*
X156250000Y-121398000D01*
X156250000Y-124998000D02*
X156250000Y-123798000D01*
%TO.C,Q6*%
X106862000Y-109268000D02*
X117102000Y-109268000D01*
X106862000Y-118758000D02*
X106862000Y-109268000D01*
X106862000Y-118758000D02*
X117102000Y-118758000D01*
X106862000Y-120198000D02*
X106862000Y-118998000D01*
X106862000Y-122598000D02*
X106862000Y-121398000D01*
X106862000Y-124998000D02*
X106862000Y-123798000D01*
X106862000Y-125158000D02*
X107502000Y-125158000D01*
X108702000Y-125158000D02*
X109902000Y-125158000D01*
X109442000Y-109268000D02*
X109442000Y-106728000D01*
X111102000Y-125158000D02*
X112302000Y-125158000D01*
X111982000Y-109268000D02*
X111982000Y-106728000D01*
X113502000Y-125158000D02*
X114703000Y-125158000D01*
X114522000Y-109268000D02*
X114522000Y-106728000D01*
X115902000Y-125158000D02*
X117102000Y-125158000D01*
X117102000Y-118758000D02*
X117102000Y-109268000D01*
X117102000Y-120198000D02*
X117102000Y-118998000D01*
X117102000Y-122598000D02*
X117102000Y-121398000D01*
X117102000Y-124998000D02*
X117102000Y-123798000D01*
%TO.C,Q8*%
X185380000Y-109268000D02*
X195620000Y-109268000D01*
X185380000Y-118758000D02*
X185380000Y-109268000D01*
X185380000Y-118758000D02*
X195620000Y-118758000D01*
X185380000Y-120198000D02*
X185380000Y-118998000D01*
X185380000Y-122598000D02*
X185380000Y-121398000D01*
X185380000Y-124998000D02*
X185380000Y-123798000D01*
X185380000Y-125158000D02*
X186020000Y-125158000D01*
X187220000Y-125158000D02*
X188420000Y-125158000D01*
X187960000Y-109268000D02*
X187960000Y-106728000D01*
X189620000Y-125158000D02*
X190820000Y-125158000D01*
X190500000Y-109268000D02*
X190500000Y-106728000D01*
X192020000Y-125158000D02*
X193221000Y-125158000D01*
X193040000Y-109268000D02*
X193040000Y-106728000D01*
X194420000Y-125158000D02*
X195620000Y-125158000D01*
X195620000Y-118758000D02*
X195620000Y-109268000D01*
X195620000Y-120198000D02*
X195620000Y-118998000D01*
X195620000Y-122598000D02*
X195620000Y-121398000D01*
X195620000Y-124998000D02*
X195620000Y-123798000D01*
%TD*%
%LPC*%
D12*
%TO.C,R7*%
X78333600Y-101752400D03*
D13*
X78333600Y-106832400D03*
%TD*%
D14*
%TO.C,H8*%
X177280000Y-94029000D03*
%TD*%
D15*
%TO.C,J12*%
X20692000Y-106680000D03*
X20692000Y-120680000D03*
X26292000Y-106680000D03*
X26292000Y-120680000D03*
X31992000Y-106680000D03*
X31992000Y-120680000D03*
X37592000Y-106680000D03*
X37592000Y-120680000D03*
%TD*%
D16*
%TO.C,H11*%
X172200000Y-122000000D03*
X172902944Y-120302944D03*
X172902944Y-123697056D03*
X174600000Y-119600000D03*
D17*
X174600000Y-122000000D03*
D16*
X174600000Y-124400000D03*
X176297056Y-120302944D03*
X176297056Y-123697056D03*
X177000000Y-122000000D03*
%TD*%
D14*
%TO.C,H4*%
X177280000Y-109754000D03*
%TD*%
D18*
%TO.C,H14*%
X165000000Y-122000000D03*
%TD*%
D19*
%TO.C,J3*%
X202500000Y-43500000D03*
D20*
X202500000Y-40960000D03*
%TD*%
D12*
%TO.C,R6*%
X78333600Y-109339400D03*
D13*
X78333600Y-114419400D03*
%TD*%
D14*
%TO.C,H1*%
X57900000Y-109500000D03*
%TD*%
D12*
%TO.C,R20*%
X158343600Y-109593400D03*
D13*
X158343600Y-114673400D03*
%TD*%
D18*
%TO.C,H9*%
X25000000Y-94000000D03*
%TD*%
D21*
%TO.C,J1*%
X17426000Y-30988000D03*
X30226000Y-30988000D03*
D22*
X20256000Y-33638000D03*
X21276000Y-35418000D03*
X22296000Y-33638000D03*
X23316000Y-35418000D03*
X24336000Y-33638000D03*
X25356000Y-35418000D03*
X26376000Y-33638000D03*
X27396000Y-35418000D03*
X16966000Y-40198000D03*
X19256000Y-40198000D03*
X28396000Y-40198000D03*
X30686000Y-40198000D03*
D23*
X15766000Y-34528000D03*
X31866000Y-34538000D03*
%TD*%
D15*
%TO.C,J11*%
X20500000Y-67500000D03*
X20500000Y-81500000D03*
X26100000Y-67500000D03*
X26100000Y-81500000D03*
X31800000Y-67500000D03*
X31800000Y-81500000D03*
X37400000Y-67500000D03*
X37400000Y-81500000D03*
%TD*%
D12*
%TO.C,R14*%
X119195600Y-102006400D03*
D13*
X119195600Y-107086400D03*
%TD*%
D18*
%TO.C,H13*%
X165000000Y-57000000D03*
%TD*%
D12*
%TO.C,R13*%
X119195600Y-109593400D03*
D13*
X119195600Y-114673400D03*
%TD*%
D18*
%TO.C,H10*%
X25000000Y-57000000D03*
%TD*%
D21*
%TO.C,J2*%
X36797000Y-30988000D03*
X49597000Y-30988000D03*
D22*
X39627000Y-33638000D03*
X40647000Y-35418000D03*
X41667000Y-33638000D03*
X42687000Y-35418000D03*
X43707000Y-33638000D03*
X44727000Y-35418000D03*
X45747000Y-33638000D03*
X46767000Y-35418000D03*
X36337000Y-40198000D03*
X38627000Y-40198000D03*
X47767000Y-40198000D03*
X50057000Y-40198000D03*
D23*
X35137000Y-34528000D03*
X51237000Y-34538000D03*
%TD*%
D14*
%TO.C,H3*%
X137910000Y-109754000D03*
%TD*%
D18*
%TO.C,H13*%
X165000000Y-30000000D03*
%TD*%
D12*
%TO.C,R40*%
X197713600Y-109593400D03*
D13*
X197713600Y-114673400D03*
%TD*%
D14*
%TO.C,H5*%
X57900000Y-93775000D03*
%TD*%
D12*
%TO.C,R21*%
X158343600Y-102006400D03*
D13*
X158343600Y-107086400D03*
%TD*%
D16*
%TO.C,H12*%
X172200000Y-65000000D03*
X172902944Y-63302944D03*
X172902944Y-66697056D03*
X174600000Y-62600000D03*
D17*
X174600000Y-65000000D03*
D16*
X174600000Y-67400000D03*
X176297056Y-63302944D03*
X176297056Y-66697056D03*
X177000000Y-65000000D03*
%TD*%
D12*
%TO.C,R41*%
X197713600Y-102006400D03*
D13*
X197713600Y-107086400D03*
%TD*%
D14*
%TO.C,H7*%
X137910000Y-94029000D03*
%TD*%
%TO.C,H6*%
X98762000Y-94029000D03*
%TD*%
%TO.C,H2*%
X98762000Y-109754000D03*
%TD*%
D24*
%TO.C,Q5*%
X71120000Y-121984000D03*
D25*
X73660000Y-105324000D03*
D26*
X71120000Y-105324000D03*
X68580000Y-105324000D03*
%TD*%
D24*
%TO.C,Q7*%
X151130000Y-122238000D03*
D25*
X153670000Y-105578000D03*
D26*
X151130000Y-105578000D03*
X148590000Y-105578000D03*
%TD*%
D24*
%TO.C,Q6*%
X111982000Y-122238000D03*
D25*
X114522000Y-105578000D03*
D26*
X111982000Y-105578000D03*
X109442000Y-105578000D03*
%TD*%
D24*
%TO.C,Q8*%
X190500000Y-122238000D03*
D25*
X193040000Y-105578000D03*
D26*
X190500000Y-105578000D03*
X187960000Y-105578000D03*
%TD*%
G36*
X192983039Y-59709685D02*
G01*
X193028794Y-59762489D01*
X193040000Y-59814000D01*
X193040000Y-77344926D01*
X193020315Y-77411965D01*
X192967511Y-77457720D01*
X192914931Y-77468921D01*
X45720000Y-76199999D01*
X45720000Y-88776000D01*
X45700315Y-88843039D01*
X45647511Y-88888794D01*
X45596000Y-88900000D01*
X15364000Y-88900000D01*
X15296961Y-88880315D01*
X15251206Y-88827511D01*
X15240000Y-88776000D01*
X15240000Y-59814000D01*
X15259685Y-59746961D01*
X15312489Y-59701206D01*
X15364000Y-59690000D01*
X192916000Y-59690000D01*
X192983039Y-59709685D01*
G37*
G36*
X188665039Y-102889685D02*
G01*
X188710794Y-102942489D01*
X188722000Y-102994000D01*
X188722000Y-115446000D01*
X188702315Y-115513039D01*
X188649511Y-115558794D01*
X188598000Y-115570000D01*
X168272000Y-115570000D01*
X168204961Y-115550315D01*
X168159206Y-115497511D01*
X168148000Y-115446000D01*
X168148000Y-102994000D01*
X168167685Y-102926961D01*
X168220489Y-102881206D01*
X168272000Y-102870000D01*
X188598000Y-102870000D01*
X188665039Y-102889685D01*
G37*
G36*
X149295039Y-102889685D02*
G01*
X149340794Y-102942489D01*
X149352000Y-102994000D01*
X149352000Y-115446000D01*
X149332315Y-115513039D01*
X149279511Y-115558794D01*
X149228000Y-115570000D01*
X128902000Y-115570000D01*
X128834961Y-115550315D01*
X128789206Y-115497511D01*
X128778000Y-115446000D01*
X128778000Y-102994000D01*
X128797685Y-102926961D01*
X128850489Y-102881206D01*
X128902000Y-102870000D01*
X149228000Y-102870000D01*
X149295039Y-102889685D01*
G37*
G36*
X110179039Y-102889685D02*
G01*
X110224794Y-102942489D01*
X110236000Y-102994000D01*
X110236000Y-115446000D01*
X110216315Y-115513039D01*
X110163511Y-115558794D01*
X110112000Y-115570000D01*
X89786000Y-115570000D01*
X89718961Y-115550315D01*
X89673206Y-115497511D01*
X89662000Y-115446000D01*
X89662000Y-102994000D01*
X89681685Y-102926961D01*
X89734489Y-102881206D01*
X89786000Y-102870000D01*
X110112000Y-102870000D01*
X110179039Y-102889685D01*
G37*
G36*
X74091039Y-79775685D02*
G01*
X74136794Y-79828489D01*
X74148000Y-79880000D01*
X74148000Y-99952000D01*
X74128315Y-100019039D01*
X74075511Y-100064794D01*
X74024000Y-100076000D01*
X48872000Y-100076000D01*
X48804961Y-100056315D01*
X48759206Y-100003511D01*
X48748000Y-99952000D01*
X48748000Y-79880000D01*
X48767685Y-79812961D01*
X48820489Y-79767206D01*
X48872000Y-79756000D01*
X74024000Y-79756000D01*
X74091039Y-79775685D01*
G37*
G36*
X69265039Y-102635685D02*
G01*
X69310794Y-102688489D01*
X69322000Y-102740000D01*
X69322000Y-115192000D01*
X69302315Y-115259039D01*
X69249511Y-115304794D01*
X69198000Y-115316000D01*
X48872000Y-115316000D01*
X48804961Y-115296315D01*
X48759206Y-115243511D01*
X48748000Y-115192000D01*
X48748000Y-102740000D01*
X48767685Y-102672961D01*
X48820489Y-102627206D01*
X48872000Y-102616000D01*
X69198000Y-102616000D01*
X69265039Y-102635685D01*
G37*
G36*
X45661579Y-99079685D02*
G01*
X45707334Y-99132489D01*
X45718531Y-99185452D01*
X45519999Y-116139998D01*
X45520000Y-116140000D01*
X204147837Y-116140000D01*
X204214876Y-116159685D01*
X204260631Y-116212489D01*
X204271823Y-116262149D01*
X204467525Y-129374149D01*
X204448843Y-129441475D01*
X204396728Y-129488013D01*
X204343539Y-129500000D01*
X198550394Y-129500000D01*
X198549556Y-129499997D01*
X16633162Y-128270832D01*
X16566257Y-128250695D01*
X16520860Y-128197583D01*
X16510000Y-128146835D01*
X16510000Y-99184000D01*
X16529685Y-99116961D01*
X16582489Y-99071206D01*
X16634000Y-99060000D01*
X45594540Y-99060000D01*
X45661579Y-99079685D01*
G37*
%LPD*%
M02*
