%TF.GenerationSoftware,KiCad,Pcbnew,8.0.7*%
%TF.CreationDate,2025-01-13T17:35:06+01:00*%
%TF.ProjectId,BMU v2,424d5520-7632-42e6-9b69-6361645f7063,rev?*%
%TF.SameCoordinates,Original*%
%TF.FileFunction,Other,Comment*%
%FSLAX46Y46*%
G04 Gerber Fmt 4.6, Leading zero omitted, Abs format (unit mm)*
G04 Created by KiCad (PCBNEW 8.0.7) date 2025-01-13 17:35:06*
%MOMM*%
%LPD*%
G01*
G04 APERTURE LIST*
%ADD10C,0.600000*%
%ADD11C,0.150000*%
%ADD12C,0.200000*%
%ADD13C,1.600000*%
%ADD14C,0.400000*%
G04 APERTURE END LIST*
D10*
%TO.C,R47*%
X179480000Y-97710000D02*
G75*
G02*
X178880000Y-97710000I-300000J0D01*
G01*
X178880000Y-97710000D02*
G75*
G02*
X179480000Y-97710000I300000J0D01*
G01*
D11*
%TO.C,H7*%
X152500000Y-95445000D02*
G75*
G02*
X142500000Y-95445000I-5000000J0D01*
G01*
X142500000Y-95445000D02*
G75*
G02*
X152500000Y-95445000I5000000J0D01*
G01*
D12*
%TO.C,U4*%
X40500000Y-50950000D02*
G75*
G02*
X40300000Y-50950000I-100000J0D01*
G01*
X40300000Y-50950000D02*
G75*
G02*
X40500000Y-50950000I100000J0D01*
G01*
D11*
%TO.C,H3*%
X140250000Y-111995000D02*
G75*
G02*
X130250000Y-111995000I-5000000J0D01*
G01*
X130250000Y-111995000D02*
G75*
G02*
X140250000Y-111995000I5000000J0D01*
G01*
%TO.C,H6*%
X113550000Y-95470000D02*
G75*
G02*
X103550000Y-95470000I-5000000J0D01*
G01*
X103550000Y-95470000D02*
G75*
G02*
X113550000Y-95470000I5000000J0D01*
G01*
%TO.C,H4*%
X165000000Y-112000000D02*
G75*
G02*
X155000000Y-112000000I-5000000J0D01*
G01*
X155000000Y-112000000D02*
G75*
G02*
X165000000Y-112000000I5000000J0D01*
G01*
%TO.C,H8*%
X184275000Y-106700000D02*
G75*
G02*
X174275000Y-106700000I-5000000J0D01*
G01*
X174275000Y-106700000D02*
G75*
G02*
X184275000Y-106700000I5000000J0D01*
G01*
%TO.C,H1*%
X62250000Y-112000000D02*
G75*
G02*
X52250000Y-112000000I-5000000J0D01*
G01*
X52250000Y-112000000D02*
G75*
G02*
X62250000Y-112000000I5000000J0D01*
G01*
D13*
%TO.C,J2*%
X37840000Y-27740000D02*
G75*
G02*
X36240000Y-27740000I-800000J0D01*
G01*
X36240000Y-27740000D02*
G75*
G02*
X37840000Y-27740000I800000J0D01*
G01*
D10*
X39940000Y-29390000D02*
G75*
G02*
X39340000Y-29390000I-300000J0D01*
G01*
X39340000Y-29390000D02*
G75*
G02*
X39940000Y-29390000I300000J0D01*
G01*
D13*
X50440000Y-27740000D02*
G75*
G02*
X48840000Y-27740000I-800000J0D01*
G01*
X48840000Y-27740000D02*
G75*
G02*
X50440000Y-27740000I800000J0D01*
G01*
%TO.C,J4*%
X56990000Y-27790000D02*
G75*
G02*
X55390000Y-27790000I-800000J0D01*
G01*
X55390000Y-27790000D02*
G75*
G02*
X56990000Y-27790000I800000J0D01*
G01*
D10*
X59090000Y-29440000D02*
G75*
G02*
X58490000Y-29440000I-300000J0D01*
G01*
X58490000Y-29440000D02*
G75*
G02*
X59090000Y-29440000I300000J0D01*
G01*
D13*
X69590000Y-27790000D02*
G75*
G02*
X67990000Y-27790000I-800000J0D01*
G01*
X67990000Y-27790000D02*
G75*
G02*
X69590000Y-27790000I800000J0D01*
G01*
D10*
%TO.C,R8*%
X101240000Y-97870000D02*
G75*
G02*
X100640000Y-97870000I-300000J0D01*
G01*
X100640000Y-97870000D02*
G75*
G02*
X101240000Y-97870000I300000J0D01*
G01*
D14*
%TO.C,TR1*%
X49040000Y-47460000D02*
G75*
G02*
X48640000Y-47460000I-200000J0D01*
G01*
X48640000Y-47460000D02*
G75*
G02*
X49040000Y-47460000I200000J0D01*
G01*
D10*
%TO.C,R1*%
X62190000Y-97850000D02*
G75*
G02*
X61590000Y-97850000I-300000J0D01*
G01*
X61590000Y-97850000D02*
G75*
G02*
X62190000Y-97850000I300000J0D01*
G01*
D11*
%TO.C,H5*%
X74500000Y-95450000D02*
G75*
G02*
X64500000Y-95450000I-5000000J0D01*
G01*
X64500000Y-95450000D02*
G75*
G02*
X74500000Y-95450000I5000000J0D01*
G01*
D10*
%TO.C,R46*%
X140190000Y-97845000D02*
G75*
G02*
X139590000Y-97845000I-300000J0D01*
G01*
X139590000Y-97845000D02*
G75*
G02*
X140190000Y-97845000I300000J0D01*
G01*
D11*
%TO.C,H2*%
X101300000Y-112020000D02*
G75*
G02*
X91300000Y-112020000I-5000000J0D01*
G01*
X91300000Y-112020000D02*
G75*
G02*
X101300000Y-112020000I5000000J0D01*
G01*
%TO.C,HM4*%
X182700000Y-116000000D02*
G75*
G02*
X177300000Y-116000000I-2700000J0D01*
G01*
X177300000Y-116000000D02*
G75*
G02*
X182700000Y-116000000I2700000J0D01*
G01*
%TO.C,HM3*%
X142274400Y-79498300D02*
G75*
G02*
X136874400Y-79498300I-2700000J0D01*
G01*
X136874400Y-79498300D02*
G75*
G02*
X142274400Y-79498300I2700000J0D01*
G01*
%TO.C,HM4*%
X32700000Y-116000000D02*
G75*
G02*
X27300000Y-116000000I-2700000J0D01*
G01*
X27300000Y-116000000D02*
G75*
G02*
X32700000Y-116000000I2700000J0D01*
G01*
X32700000Y-26000000D02*
G75*
G02*
X27300000Y-26000000I-2700000J0D01*
G01*
X27300000Y-26000000D02*
G75*
G02*
X32700000Y-26000000I2700000J0D01*
G01*
%TO.C,HM1*%
X64200000Y-79500000D02*
G75*
G02*
X58800000Y-79500000I-2700000J0D01*
G01*
X58800000Y-79500000D02*
G75*
G02*
X64200000Y-79500000I2700000J0D01*
G01*
%TO.C,HM2*%
X103200000Y-79600000D02*
G75*
G02*
X97800000Y-79600000I-2700000J0D01*
G01*
X97800000Y-79600000D02*
G75*
G02*
X103200000Y-79600000I2700000J0D01*
G01*
%TO.C,HM4*%
X181200000Y-79498300D02*
G75*
G02*
X175800000Y-79498300I-2700000J0D01*
G01*
X175800000Y-79498300D02*
G75*
G02*
X181200000Y-79498300I2700000J0D01*
G01*
X182700000Y-26000000D02*
G75*
G02*
X177300000Y-26000000I-2700000J0D01*
G01*
X177300000Y-26000000D02*
G75*
G02*
X182700000Y-26000000I2700000J0D01*
G01*
%TD*%
M02*
