%TF.GenerationSoftware,KiCad,Pcbnew,8.0.7*%
%TF.CreationDate,2025-01-06T13:09:21+01:00*%
%TF.ProjectId,BMU_switch_mosfet,424d555f-7377-4697-9463-685f6d6f7366,rev?*%
%TF.SameCoordinates,Original*%
%TF.FileFunction,Copper,L1,Top*%
%TF.FilePolarity,Positive*%
%FSLAX46Y46*%
G04 Gerber Fmt 4.6, Leading zero omitted, Abs format (unit mm)*
G04 Created by KiCad (PCBNEW 8.0.7) date 2025-01-06 13:09:21*
%MOMM*%
%LPD*%
G01*
G04 APERTURE LIST*
G04 Aperture macros list*
%AMRoundRect*
0 Rectangle with rounded corners*
0 $1 Rounding radius*
0 $2 $3 $4 $5 $6 $7 $8 $9 X,Y pos of 4 corners*
0 Add a 4 corners polygon primitive as box body*
4,1,4,$2,$3,$4,$5,$6,$7,$8,$9,$2,$3,0*
0 Add four circle primitives for the rounded corners*
1,1,$1+$1,$2,$3*
1,1,$1+$1,$4,$5*
1,1,$1+$1,$6,$7*
1,1,$1+$1,$8,$9*
0 Add four rect primitives between the rounded corners*
20,1,$1+$1,$2,$3,$4,$5,0*
20,1,$1+$1,$4,$5,$6,$7,0*
20,1,$1+$1,$6,$7,$8,$9,0*
20,1,$1+$1,$8,$9,$2,$3,0*%
G04 Aperture macros list end*
%TA.AperFunction,SMDPad,CuDef*%
%ADD10R,3.360000X1.130000*%
%TD*%
%TA.AperFunction,SMDPad,CuDef*%
%ADD11R,7.180000X10.570000*%
%TD*%
%TA.AperFunction,SMDPad,CuDef*%
%ADD12RoundRect,0.200000X0.275000X-0.200000X0.275000X0.200000X-0.275000X0.200000X-0.275000X-0.200000X0*%
%TD*%
%TA.AperFunction,SMDPad,CuDef*%
%ADD13RoundRect,0.150000X-0.150000X0.512500X-0.150000X-0.512500X0.150000X-0.512500X0.150000X0.512500X0*%
%TD*%
%TA.AperFunction,SMDPad,CuDef*%
%ADD14RoundRect,0.200000X0.200000X0.275000X-0.200000X0.275000X-0.200000X-0.275000X0.200000X-0.275000X0*%
%TD*%
%TA.AperFunction,SMDPad,CuDef*%
%ADD15RoundRect,0.200000X-0.200000X-0.275000X0.200000X-0.275000X0.200000X0.275000X-0.200000X0.275000X0*%
%TD*%
%TA.AperFunction,ComponentPad*%
%ADD16R,1.800000X1.800000*%
%TD*%
%TA.AperFunction,ComponentPad*%
%ADD17C,1.800000*%
%TD*%
%TA.AperFunction,ComponentPad*%
%ADD18R,1.500000X1.500000*%
%TD*%
%TA.AperFunction,ComponentPad*%
%ADD19C,1.500000*%
%TD*%
%TA.AperFunction,ViaPad*%
%ADD20C,0.600000*%
%TD*%
%TA.AperFunction,Conductor*%
%ADD21C,0.200000*%
%TD*%
G04 APERTURE END LIST*
D10*
%TO.P,Q7,1,G*%
%TO.N,Net-(Q10-G)*%
X129630000Y-68991250D03*
%TO.P,Q7,3,S*%
%TO.N,/+BATT OUT*%
X129630000Y-74071250D03*
D11*
%TO.P,Q7,4,D*%
%TO.N,/Drain*%
X140210000Y-71531250D03*
%TD*%
D10*
%TO.P,Q5,1,G*%
%TO.N,Net-(Q1-C)*%
X158790000Y-74071250D03*
%TO.P,Q5,3,S*%
%TO.N,/+BATT_IN*%
X158790000Y-68991250D03*
D11*
%TO.P,Q5,4,D*%
%TO.N,/Drain*%
X148210000Y-71531250D03*
%TD*%
D12*
%TO.P,R1,1*%
%TO.N,/CMD_Switch_bat*%
X157000000Y-149106250D03*
%TO.P,R1,2*%
%TO.N,GND*%
X157000000Y-147456250D03*
%TD*%
D10*
%TO.P,Q9,1,G*%
%TO.N,Net-(Q10-G)*%
X129630000Y-94131250D03*
%TO.P,Q9,3,S*%
%TO.N,/+BATT OUT*%
X129630000Y-99211250D03*
D11*
%TO.P,Q9,4,D*%
%TO.N,/Drain*%
X140210000Y-96671250D03*
%TD*%
D13*
%TO.P,Q1,1,C*%
%TO.N,Net-(Q1-C)*%
X160700000Y-145893750D03*
%TO.P,Q1,2,B*%
%TO.N,Net-(Q1-B)*%
X158800000Y-145893750D03*
%TO.P,Q1,3,E*%
%TO.N,GND*%
X159750000Y-148168750D03*
%TD*%
D14*
%TO.P,R2,1*%
%TO.N,Net-(Q1-C)*%
X161575000Y-116781250D03*
%TO.P,R2,2*%
%TO.N,/+BATT_IN*%
X159925000Y-116781250D03*
%TD*%
D10*
%TO.P,Q2,1,G*%
%TO.N,Net-(Q1-C)*%
X158790000Y-113281250D03*
%TO.P,Q2,3,S*%
%TO.N,/+BATT_IN*%
X158790000Y-108201250D03*
D11*
%TO.P,Q2,4,D*%
%TO.N,/Drain*%
X148210000Y-110741250D03*
%TD*%
D13*
%TO.P,Q6,1,C*%
%TO.N,Net-(Q10-G)*%
X154950000Y-145893750D03*
%TO.P,Q6,2,B*%
%TO.N,Net-(Q6-B)*%
X153050000Y-145893750D03*
%TO.P,Q6,3,E*%
%TO.N,GND*%
X154000000Y-148168750D03*
%TD*%
D12*
%TO.P,R5,1*%
%TO.N,Net-(Q10-G)*%
X126200000Y-128681250D03*
%TO.P,R5,2*%
%TO.N,/+BATT OUT*%
X126200000Y-127031250D03*
%TD*%
D10*
%TO.P,Q8,1,G*%
%TO.N,Net-(Q10-G)*%
X129630000Y-82561250D03*
%TO.P,Q8,3,S*%
%TO.N,/+BATT OUT*%
X129630000Y-87641250D03*
D11*
%TO.P,Q8,4,D*%
%TO.N,/Drain*%
X140210000Y-85101250D03*
%TD*%
D10*
%TO.P,Q3,1,G*%
%TO.N,Net-(Q1-C)*%
X158790000Y-99211250D03*
%TO.P,Q3,3,S*%
%TO.N,/+BATT_IN*%
X158790000Y-94131250D03*
D11*
%TO.P,Q3,4,D*%
%TO.N,/Drain*%
X148210000Y-96671250D03*
%TD*%
D15*
%TO.P,R3,1*%
%TO.N,Net-(Q1-B)*%
X158675000Y-141781250D03*
%TO.P,R3,2*%
%TO.N,/CMD_Switch_bat*%
X160325000Y-141781250D03*
%TD*%
D10*
%TO.P,Q4,1,G*%
%TO.N,Net-(Q1-C)*%
X158790000Y-87641250D03*
%TO.P,Q4,3,S*%
%TO.N,/+BATT_IN*%
X158790000Y-82561250D03*
D11*
%TO.P,Q4,4,D*%
%TO.N,/Drain*%
X148210000Y-85101250D03*
%TD*%
D15*
%TO.P,R4,1*%
%TO.N,Net-(Q6-B)*%
X158675000Y-143781250D03*
%TO.P,R4,2*%
%TO.N,/CMD_Switch_bat*%
X160325000Y-143781250D03*
%TD*%
D10*
%TO.P,Q10,1,G*%
%TO.N,Net-(Q10-G)*%
X129630000Y-108201250D03*
%TO.P,Q10,3,S*%
%TO.N,/+BATT OUT*%
X129630000Y-113281250D03*
D11*
%TO.P,Q10,4,D*%
%TO.N,/Drain*%
X140210000Y-110741250D03*
%TD*%
D16*
%TO.P,U1,1,1*%
%TO.N,GND*%
X132920000Y-144631250D03*
D17*
%TO.P,U1,2,2*%
%TO.N,/CMD_Switch_bat*%
X130380000Y-144631250D03*
%TD*%
D18*
%TO.P,U3,1,1*%
%TO.N,/+BATT OUT*%
X140710000Y-124071250D03*
D19*
%TO.P,U3,2,2*%
X140710000Y-121531250D03*
%TO.P,U3,3,3*%
X138170000Y-124071250D03*
%TO.P,U3,4,4*%
X138170000Y-121531250D03*
%TO.P,U3,5,5*%
X135630000Y-124071250D03*
%TO.P,U3,6,6*%
X135630000Y-121531250D03*
%TO.P,U3,7,7*%
X133090000Y-124071250D03*
%TO.P,U3,8,8*%
X133090000Y-121531250D03*
%TO.P,U3,9,9*%
X130550000Y-124071250D03*
%TO.P,U3,10,10*%
X130550000Y-121531250D03*
%TD*%
D18*
%TO.P,U2,1,1*%
%TO.N,/+BATT_IN*%
X137742941Y-145154944D03*
D19*
%TO.P,U2,2,2*%
X140282941Y-145154944D03*
%TO.P,U2,3,3*%
X137742941Y-142614944D03*
%TO.P,U2,4,4*%
X140282941Y-142614944D03*
%TO.P,U2,5,5*%
X137742941Y-140074944D03*
%TO.P,U2,6,6*%
X140282941Y-140074944D03*
%TO.P,U2,7,7*%
X137742941Y-137534944D03*
%TO.P,U2,8,8*%
X140282941Y-137534944D03*
%TO.P,U2,9,9*%
X137742941Y-134994944D03*
%TO.P,U2,10,10*%
X140282941Y-134994944D03*
%TD*%
D20*
%TO.N,/+BATT_IN*%
X149000000Y-148000000D03*
X145000000Y-148000000D03*
X147000000Y-148000000D03*
X149000000Y-146000000D03*
X145000000Y-146000000D03*
X148000000Y-147000000D03*
X147000000Y-146000000D03*
X146000000Y-147000000D03*
X149000000Y-144000000D03*
X145000000Y-144000000D03*
X148000000Y-145000000D03*
X147000000Y-144000000D03*
X146000000Y-145000000D03*
X149000000Y-142000000D03*
X145000000Y-142000000D03*
X148000000Y-143000000D03*
X147000000Y-142000000D03*
X146000000Y-143000000D03*
X149000000Y-140000000D03*
X145000000Y-140000000D03*
X148000000Y-141000000D03*
X147000000Y-140000000D03*
X146000000Y-141000000D03*
X149000000Y-138000000D03*
X145000000Y-138000000D03*
X148000000Y-139000000D03*
X147000000Y-138000000D03*
X146000000Y-139000000D03*
X149000000Y-136000000D03*
X145000000Y-136000000D03*
X148000000Y-137000000D03*
X147000000Y-136000000D03*
X146000000Y-137000000D03*
X149000000Y-134000000D03*
X145000000Y-134000000D03*
X148000000Y-135000000D03*
X147000000Y-134000000D03*
X146000000Y-135000000D03*
X149000000Y-132000000D03*
X145000000Y-132000000D03*
X148000000Y-133000000D03*
X147000000Y-132000000D03*
X146000000Y-133000000D03*
X148000000Y-131000000D03*
X146000000Y-131000000D03*
X149000000Y-130000000D03*
X147000000Y-130000000D03*
X145000000Y-130000000D03*
%TO.N,Net-(Q1-C)*%
X161000000Y-99781250D03*
X161000000Y-113781250D03*
X161000000Y-88281250D03*
X161500000Y-74500000D03*
%TO.N,/+BATT_IN*%
X159000000Y-95531250D03*
X159500000Y-96531250D03*
X155500000Y-94531250D03*
X154000000Y-69531250D03*
X158500000Y-110531250D03*
X159000000Y-78031250D03*
X157500000Y-110531250D03*
X158000000Y-67531250D03*
X157000000Y-71531250D03*
X155500000Y-96531250D03*
X156500000Y-110531250D03*
X156500000Y-92531250D03*
X157000000Y-109531250D03*
X158500000Y-92531250D03*
X156000000Y-69531250D03*
X157500000Y-85031250D03*
X159000000Y-91531250D03*
X154500000Y-106531250D03*
X153500000Y-108531250D03*
X158500000Y-96531250D03*
X159000000Y-71531250D03*
X156000000Y-95531250D03*
X155500000Y-68531250D03*
X157500000Y-96531250D03*
X154500000Y-83031250D03*
X155500000Y-92531250D03*
X156500000Y-70531250D03*
X156000000Y-109531250D03*
X155000000Y-109531250D03*
X154000000Y-95531250D03*
X156000000Y-67531250D03*
X159000000Y-105531250D03*
X158000000Y-84031250D03*
X156000000Y-91531250D03*
X157000000Y-95531250D03*
X155000000Y-69531250D03*
X157500000Y-79031250D03*
X154500000Y-79031250D03*
X158500000Y-106531250D03*
X156000000Y-84031250D03*
X154000000Y-107531250D03*
X155000000Y-95531250D03*
X159500000Y-110531250D03*
X159500000Y-66531250D03*
X156000000Y-78031250D03*
X157500000Y-92531250D03*
X159000000Y-84031250D03*
X158000000Y-109531250D03*
X155000000Y-67531250D03*
X160000000Y-71531250D03*
X157500000Y-70531250D03*
X157000000Y-91531250D03*
X154500000Y-94531250D03*
X156000000Y-82031250D03*
X157500000Y-106531250D03*
X154500000Y-68531250D03*
X156500000Y-66531250D03*
X158000000Y-95531250D03*
X154500000Y-70531250D03*
X158000000Y-105531250D03*
X159500000Y-70531250D03*
X154000000Y-109531250D03*
X156500000Y-96531250D03*
X159000000Y-67531250D03*
X154500000Y-85031250D03*
X159500000Y-85031250D03*
X153500000Y-94531250D03*
X155500000Y-70531250D03*
X154000000Y-82031250D03*
X158000000Y-78031250D03*
X155000000Y-71531250D03*
X155500000Y-108531250D03*
X156500000Y-68531250D03*
X158500000Y-70531250D03*
X154000000Y-84031250D03*
X155000000Y-107531250D03*
X156000000Y-71531250D03*
X155500000Y-85031250D03*
X156500000Y-106531250D03*
X157000000Y-105531250D03*
X156000000Y-107531250D03*
X155500000Y-110531250D03*
X154500000Y-96531250D03*
X157000000Y-67531250D03*
X154500000Y-110531250D03*
X157000000Y-84031250D03*
X155000000Y-105531250D03*
X154000000Y-93531250D03*
X158000000Y-91531250D03*
X156000000Y-93531250D03*
X154500000Y-92531250D03*
X156500000Y-79031250D03*
X153500000Y-83031250D03*
X157000000Y-78031250D03*
X155500000Y-79031250D03*
X155000000Y-93531250D03*
X156000000Y-105531250D03*
X155000000Y-84031250D03*
X158000000Y-71531250D03*
X155500000Y-83031250D03*
X158500000Y-79031250D03*
X159000000Y-109531250D03*
X155000000Y-82031250D03*
X155500000Y-106531250D03*
X154500000Y-108531250D03*
X155500000Y-66531250D03*
X155000000Y-91531250D03*
X157500000Y-66531250D03*
X156500000Y-85031250D03*
X158500000Y-85031250D03*
X155000000Y-78031250D03*
X158500000Y-66531250D03*
%TO.N,/Drain*%
X140500000Y-90531250D03*
X150000000Y-111031250D03*
X138500000Y-70531250D03*
X148000000Y-68531250D03*
X140000000Y-75531250D03*
X146500000Y-83531250D03*
X145000000Y-109031250D03*
X145000000Y-68531250D03*
X141000000Y-81531250D03*
X142000000Y-112031250D03*
X140500000Y-88531250D03*
X149500000Y-114031250D03*
X150000000Y-76531250D03*
X140500000Y-86531250D03*
X138000000Y-87531250D03*
X142000000Y-110031250D03*
X138500000Y-98531250D03*
X143000000Y-87531250D03*
X139500000Y-84531250D03*
X151000000Y-66531250D03*
X137619976Y-114911275D03*
X137500000Y-70531250D03*
X138000000Y-73531250D03*
X143000000Y-69531250D03*
X145500000Y-89531250D03*
X149500000Y-83531250D03*
X149000000Y-94531250D03*
X147000000Y-68531250D03*
X151000000Y-84531250D03*
X143500000Y-68531250D03*
X149500000Y-87531250D03*
X138000000Y-69531250D03*
X147000000Y-107031250D03*
X143500000Y-115031250D03*
X137500000Y-98531250D03*
X146500000Y-73531250D03*
X139500000Y-94531250D03*
X147000000Y-74531250D03*
X142000000Y-71531250D03*
X150500000Y-93531250D03*
X147500000Y-81531250D03*
X148500000Y-97531250D03*
X147000000Y-92531250D03*
X139500000Y-70531250D03*
X150000000Y-98531250D03*
X139000000Y-85531250D03*
X146000000Y-96531250D03*
X142500000Y-109031250D03*
X147000000Y-72531250D03*
X138000000Y-95531250D03*
X141000000Y-97531250D03*
X147500000Y-85531250D03*
X142500000Y-84531250D03*
X148000000Y-98531250D03*
X151000000Y-107031250D03*
X148000000Y-100531250D03*
X149500000Y-93531250D03*
X138500000Y-78531250D03*
X151000000Y-76531250D03*
X149500000Y-91531250D03*
X147500000Y-99531250D03*
X145500000Y-73531250D03*
X149000000Y-88531250D03*
X145500000Y-112031250D03*
X149000000Y-68531250D03*
X139500000Y-96531250D03*
X142500000Y-90531250D03*
X150000000Y-92531250D03*
X139000000Y-97531250D03*
X149500000Y-97531250D03*
X140500000Y-84531250D03*
X146500000Y-81531250D03*
X143000000Y-95531250D03*
X148500000Y-81531250D03*
X150500000Y-91531250D03*
X150500000Y-108031250D03*
X139000000Y-112031250D03*
X141500000Y-98531250D03*
X151000000Y-90531250D03*
X147000000Y-98531250D03*
X140500000Y-109031250D03*
X151000000Y-74531250D03*
X147500000Y-93531250D03*
X142000000Y-99531250D03*
X138500000Y-107031250D03*
X151000000Y-82531250D03*
X140000000Y-87531250D03*
X141000000Y-116031250D03*
X138500000Y-113031250D03*
X138000000Y-85531250D03*
X145000000Y-115031250D03*
X138500000Y-105031250D03*
X150500000Y-89531250D03*
X139500000Y-105031250D03*
X142500000Y-74531250D03*
X137500000Y-109031250D03*
X139500000Y-92531250D03*
X141500000Y-100531250D03*
X142500000Y-66531250D03*
X138500000Y-94531250D03*
X143500000Y-72531250D03*
X150500000Y-106031250D03*
X146500000Y-112031250D03*
X149000000Y-107031250D03*
X139500000Y-111031250D03*
X150500000Y-69531250D03*
X139000000Y-71531250D03*
X142000000Y-97531250D03*
X140000000Y-97531250D03*
X142000000Y-106031250D03*
X148000000Y-74531250D03*
X138500000Y-74531250D03*
X138000000Y-91531250D03*
X147500000Y-116031250D03*
X145000000Y-96531250D03*
X147000000Y-86531250D03*
X151000000Y-100531250D03*
X147000000Y-66531250D03*
X150000000Y-68531250D03*
X149500000Y-108031250D03*
X150000000Y-96531250D03*
X146500000Y-89531250D03*
X149000000Y-98531250D03*
X150500000Y-101531250D03*
X142500000Y-115031250D03*
X146000000Y-90531250D03*
X145500000Y-69531250D03*
X149500000Y-71531250D03*
X151000000Y-92531250D03*
X149500000Y-85531250D03*
X147500000Y-67531250D03*
X141000000Y-99531250D03*
X137500000Y-92531250D03*
X146500000Y-116031250D03*
X147500000Y-95531250D03*
X147500000Y-75531250D03*
X140000000Y-83531250D03*
X149000000Y-82531250D03*
X146000000Y-88531250D03*
X145500000Y-83531250D03*
X137500000Y-90531250D03*
X146500000Y-99531250D03*
X147500000Y-71531250D03*
X141500000Y-113031250D03*
X142000000Y-87531250D03*
X143000000Y-110031250D03*
X145000000Y-90531250D03*
X140500000Y-70531250D03*
X139000000Y-99531250D03*
X142000000Y-116031250D03*
X147500000Y-114031250D03*
X140000000Y-81531250D03*
X146500000Y-110031250D03*
X138000000Y-112031250D03*
X141000000Y-85531250D03*
X142000000Y-81531250D03*
X149500000Y-69531250D03*
X149000000Y-86531250D03*
X138000000Y-101531250D03*
X137500000Y-72531250D03*
X148500000Y-85531250D03*
X148500000Y-91531250D03*
X149000000Y-74531250D03*
X140500000Y-96531250D03*
X149500000Y-81531250D03*
X143500000Y-94531250D03*
X137500000Y-78531250D03*
X149500000Y-110031250D03*
X140500000Y-72531250D03*
X145500000Y-93531250D03*
X139500000Y-78531250D03*
X141500000Y-88531250D03*
X150500000Y-81531250D03*
X147500000Y-112031250D03*
X138000000Y-83531250D03*
X147000000Y-100531250D03*
X141500000Y-82531250D03*
X140500000Y-92531250D03*
X147000000Y-70531250D03*
X149000000Y-96531250D03*
X139000000Y-108031250D03*
X139000000Y-110031250D03*
X138000000Y-75531250D03*
X138500000Y-88531250D03*
X142500000Y-82531250D03*
X138500000Y-92531250D03*
X140000000Y-77531250D03*
X148500000Y-95531250D03*
X143500000Y-90531250D03*
X138000000Y-67531250D03*
X141500000Y-84531250D03*
X139000000Y-93531250D03*
X141000000Y-73531250D03*
X137500000Y-100531250D03*
X149500000Y-95531250D03*
X150000000Y-107031250D03*
X137500000Y-74531250D03*
X139500000Y-74531250D03*
X147000000Y-90531250D03*
X141500000Y-68531250D03*
X149500000Y-67531250D03*
X147500000Y-106031250D03*
X150000000Y-105031250D03*
X148500000Y-77531250D03*
X137500000Y-86531250D03*
X138000000Y-97531250D03*
X148500000Y-116031250D03*
X145000000Y-84531250D03*
X142000000Y-73531250D03*
X139500000Y-100531250D03*
X137500000Y-82531250D03*
X143500000Y-107031250D03*
X149000000Y-90531250D03*
X137500000Y-113031250D03*
X145500000Y-95531250D03*
X142000000Y-89531250D03*
X151000000Y-94531250D03*
X148500000Y-71531250D03*
X141000000Y-89531250D03*
X146000000Y-107031250D03*
X147000000Y-113031250D03*
X138500000Y-68531250D03*
X140500000Y-74531250D03*
X143000000Y-112031250D03*
X150000000Y-66531250D03*
X141000000Y-110031250D03*
X141000000Y-93531250D03*
X140500000Y-115031250D03*
X148500000Y-83531250D03*
X139000000Y-83531250D03*
X146000000Y-115031250D03*
X141500000Y-90531250D03*
X141000000Y-101531250D03*
X145000000Y-86531250D03*
X145000000Y-94531250D03*
X146500000Y-114031250D03*
X150000000Y-90531250D03*
X139000000Y-73531250D03*
X151000000Y-98531250D03*
X145000000Y-98531250D03*
X145500000Y-116031250D03*
X145000000Y-72531250D03*
X138500000Y-90531250D03*
X143000000Y-116031250D03*
X148000000Y-115031250D03*
X138000000Y-106031250D03*
X141000000Y-83531250D03*
X140000000Y-67531250D03*
X146000000Y-94531250D03*
X149500000Y-99531250D03*
X137500000Y-111031250D03*
X141500000Y-115031250D03*
X138500000Y-96531250D03*
X140500000Y-82531250D03*
X139000000Y-91531250D03*
X143500000Y-98531250D03*
X145500000Y-91531250D03*
X145000000Y-88531250D03*
X151000000Y-86531250D03*
X143500000Y-82531250D03*
X149000000Y-105031250D03*
X139500000Y-72531250D03*
X150000000Y-109031250D03*
X143500000Y-96531250D03*
X141000000Y-112031250D03*
X149000000Y-92531250D03*
X143000000Y-91531250D03*
X138000000Y-81531250D03*
X149000000Y-84531250D03*
X143500000Y-70531250D03*
X143000000Y-83531250D03*
X142500000Y-92531250D03*
X149500000Y-73531250D03*
X145500000Y-114031250D03*
X148000000Y-111031250D03*
X147500000Y-108031250D03*
X142500000Y-111031250D03*
X143500000Y-88531250D03*
X150500000Y-67531250D03*
X149500000Y-106031250D03*
X146500000Y-69531250D03*
X149000000Y-115031250D03*
X142000000Y-83531250D03*
X142000000Y-108031250D03*
X139500000Y-109031250D03*
X140000000Y-99531250D03*
X141000000Y-95531250D03*
X148000000Y-94531250D03*
X148500000Y-110031250D03*
X150500000Y-97531250D03*
X150500000Y-114031250D03*
X145500000Y-108031250D03*
X146000000Y-86531250D03*
X147000000Y-111031250D03*
X142000000Y-67531250D03*
X150000000Y-86531250D03*
X138000000Y-114031250D03*
X139000000Y-89531250D03*
X150500000Y-71531250D03*
X151000000Y-78531250D03*
X139500000Y-76531250D03*
X143000000Y-81531250D03*
X143000000Y-73531250D03*
X137500000Y-76531250D03*
X140000000Y-95531250D03*
X147000000Y-82531250D03*
X141500000Y-72531250D03*
X150500000Y-85531250D03*
X148500000Y-114031250D03*
X139000000Y-75531250D03*
X143000000Y-71531250D03*
X146500000Y-71531250D03*
X150500000Y-110031250D03*
X140500000Y-113031250D03*
X142500000Y-94531250D03*
X140000000Y-91531250D03*
X139500000Y-98531250D03*
X145000000Y-92531250D03*
X142000000Y-93531250D03*
X138500000Y-66531250D03*
X140000000Y-112031250D03*
X150000000Y-88531250D03*
X147000000Y-115031250D03*
X138500000Y-86531250D03*
X143000000Y-85531250D03*
X150500000Y-87531250D03*
X150500000Y-112031250D03*
X139500000Y-90531250D03*
X143000000Y-89531250D03*
X150500000Y-116031250D03*
X146000000Y-111031250D03*
X140000000Y-110031250D03*
X143500000Y-84531250D03*
X148000000Y-86531250D03*
X143000000Y-67531250D03*
X138500000Y-84531250D03*
X149000000Y-109031250D03*
X137500000Y-88531250D03*
X147500000Y-89531250D03*
X148000000Y-82531250D03*
X151000000Y-88531250D03*
X148000000Y-105031250D03*
X150000000Y-72531250D03*
X140000000Y-114031250D03*
X146500000Y-95531250D03*
X140500000Y-105031250D03*
X149500000Y-116031250D03*
X143500000Y-86531250D03*
X140500000Y-94531250D03*
X137500000Y-105031250D03*
X148500000Y-87531250D03*
X151000000Y-96531250D03*
X148500000Y-93531250D03*
X145000000Y-82531250D03*
X138000000Y-108031250D03*
X138500000Y-115031250D03*
X148500000Y-75531250D03*
X148500000Y-73531250D03*
X145500000Y-85531250D03*
X148000000Y-90531250D03*
X150000000Y-113031250D03*
X138000000Y-89531250D03*
X141500000Y-92531250D03*
X143500000Y-66531250D03*
X140000000Y-106031250D03*
X150500000Y-99531250D03*
X146000000Y-74531250D03*
X142500000Y-88531250D03*
X141500000Y-74531250D03*
X146000000Y-72531250D03*
X138500000Y-76531250D03*
X151000000Y-109031250D03*
X146500000Y-75531250D03*
X141000000Y-71531250D03*
X143000000Y-99531250D03*
X140500000Y-107031250D03*
X141000000Y-91531250D03*
X139500000Y-86531250D03*
X147500000Y-91531250D03*
X141500000Y-70531250D03*
X140000000Y-85531250D03*
X142500000Y-70531250D03*
X149500000Y-75531250D03*
X145000000Y-70531250D03*
X151000000Y-105031250D03*
X138500000Y-100531250D03*
X149000000Y-111031250D03*
X141500000Y-96531250D03*
X141000000Y-114031250D03*
X142000000Y-114031250D03*
X150000000Y-84531250D03*
X146000000Y-92531250D03*
X147000000Y-109031250D03*
X145500000Y-81531250D03*
X149500000Y-101531250D03*
X138000000Y-77531250D03*
X151000000Y-115031250D03*
X148000000Y-92531250D03*
X151000000Y-72531250D03*
X141500000Y-109031250D03*
X138000000Y-93531250D03*
X139500000Y-88531250D03*
X142000000Y-85531250D03*
X146500000Y-91531250D03*
X141000000Y-106031250D03*
X140000000Y-108031250D03*
X140000000Y-73531250D03*
X146500000Y-85531250D03*
X145500000Y-67531250D03*
X140000000Y-89531250D03*
X140000000Y-71531250D03*
X140000000Y-93531250D03*
X142500000Y-107031250D03*
X140500000Y-100531250D03*
X137500000Y-94531250D03*
X148000000Y-107031250D03*
X141500000Y-86531250D03*
X145500000Y-87531250D03*
X139500000Y-107031250D03*
X142500000Y-98531250D03*
X140500000Y-68531250D03*
X150500000Y-77531250D03*
X138000000Y-99531250D03*
X149000000Y-72531250D03*
X142500000Y-86531250D03*
X147000000Y-96531250D03*
X139000000Y-67531250D03*
X141000000Y-87531250D03*
X139500000Y-68531250D03*
X148000000Y-66531250D03*
X150000000Y-70531250D03*
X140000000Y-101531250D03*
X150000000Y-78531250D03*
X145000000Y-66531250D03*
X149000000Y-66531250D03*
X148000000Y-96531250D03*
X149000000Y-70531250D03*
X145500000Y-99531250D03*
X146000000Y-66531250D03*
X149000000Y-113031250D03*
X139000000Y-106031250D03*
X148500000Y-108031250D03*
X151000000Y-68531250D03*
X145500000Y-97531250D03*
X148500000Y-101531250D03*
X148500000Y-106031250D03*
X146000000Y-68531250D03*
X137500000Y-84531250D03*
X142000000Y-95531250D03*
X147000000Y-84531250D03*
X145500000Y-110031250D03*
X139000000Y-101531250D03*
X142500000Y-72531250D03*
X146500000Y-67531250D03*
X139000000Y-69531250D03*
X139500000Y-115031250D03*
X149500000Y-112031250D03*
X146000000Y-113031250D03*
X142000000Y-69531250D03*
X138500000Y-111031250D03*
X141500000Y-66531250D03*
X137500000Y-107031250D03*
X148500000Y-69531250D03*
X143500000Y-92531250D03*
X148000000Y-113031250D03*
X137500000Y-66531250D03*
X145000000Y-107031250D03*
X146500000Y-87531250D03*
X146000000Y-70531250D03*
X148000000Y-109031250D03*
X150000000Y-82531250D03*
X142500000Y-113031250D03*
X151000000Y-113031250D03*
X150000000Y-100531250D03*
X139500000Y-66531250D03*
X149000000Y-76531250D03*
X140000000Y-69531250D03*
X141000000Y-69531250D03*
X148000000Y-72531250D03*
X148500000Y-67531250D03*
X147500000Y-83531250D03*
X151000000Y-70531250D03*
X138000000Y-110031250D03*
X138000000Y-71531250D03*
X150000000Y-115031250D03*
X147500000Y-101531250D03*
X143500000Y-113031250D03*
X150500000Y-75531250D03*
X140500000Y-78531250D03*
X139500000Y-82531250D03*
X148500000Y-89531250D03*
X141000000Y-75531250D03*
X138500000Y-82531250D03*
X146500000Y-108031250D03*
X147500000Y-87531250D03*
X148500000Y-99531250D03*
X139000000Y-77531250D03*
X148000000Y-88531250D03*
X139000000Y-114031250D03*
X142000000Y-91531250D03*
X138500000Y-72531250D03*
X146000000Y-84531250D03*
X140500000Y-76531250D03*
X137500000Y-68531250D03*
X146000000Y-98531250D03*
X142500000Y-96531250D03*
X148000000Y-84531250D03*
X138369976Y-115661275D03*
X140500000Y-98531250D03*
X147500000Y-73531250D03*
X148000000Y-76531250D03*
X141500000Y-111031250D03*
X147500000Y-97531250D03*
X140500000Y-66531250D03*
X145000000Y-113031250D03*
X150000000Y-74531250D03*
X139000000Y-81531250D03*
X141500000Y-94531250D03*
X150000000Y-94531250D03*
X143500000Y-109031250D03*
X141000000Y-108031250D03*
X137500000Y-96531250D03*
X151000000Y-111031250D03*
X149000000Y-78531250D03*
X147000000Y-94531250D03*
X147000000Y-88531250D03*
X146500000Y-93531250D03*
X139500000Y-113031250D03*
X143500000Y-111031250D03*
X148000000Y-70531250D03*
X139000000Y-95531250D03*
X149500000Y-89531250D03*
X141000000Y-67531250D03*
X147500000Y-110031250D03*
X145000000Y-111031250D03*
X145000000Y-74531250D03*
X139000000Y-116031250D03*
X141500000Y-107031250D03*
X150500000Y-83531250D03*
X145500000Y-71531250D03*
X143000000Y-114031250D03*
X146000000Y-109031250D03*
X138500000Y-109031250D03*
X143000000Y-97531250D03*
X150500000Y-95531250D03*
X146500000Y-97531250D03*
X150500000Y-73531250D03*
X140500000Y-111031250D03*
X147500000Y-69531250D03*
X143000000Y-108031250D03*
X149000000Y-100531250D03*
X143000000Y-93531250D03*
X148000000Y-78531250D03*
X140000000Y-116031250D03*
X139000000Y-87531250D03*
X148500000Y-112031250D03*
X146000000Y-82531250D03*
X142500000Y-68531250D03*
X149500000Y-77531250D03*
%TO.N,Net-(Q10-G)*%
X155529243Y-149431250D03*
X156250000Y-146031250D03*
X136000000Y-108281250D03*
X136000000Y-82531250D03*
X135750000Y-66250000D03*
X136000000Y-94031250D03*
%TO.N,/+BATT OUT*%
X130000000Y-97531250D03*
X127000000Y-101531250D03*
X128250000Y-110531250D03*
X126500000Y-73531250D03*
X126000000Y-90531250D03*
X126000000Y-76531250D03*
X129500000Y-96531250D03*
X130500000Y-71531250D03*
X130750000Y-115531250D03*
X128500000Y-85531250D03*
X127500000Y-75531250D03*
X127000000Y-90531250D03*
X129250000Y-110531250D03*
X126000000Y-72531250D03*
X128500000Y-96531250D03*
X127500000Y-87531250D03*
X127500000Y-71531250D03*
X131000000Y-76531250D03*
X129000000Y-101531250D03*
X126000000Y-86531250D03*
X126500000Y-75531250D03*
X126250000Y-110531250D03*
X126000000Y-74531250D03*
X126000000Y-97531250D03*
X126750000Y-113531250D03*
X128500000Y-100531250D03*
X126500000Y-89531250D03*
X128000000Y-76531250D03*
X126500000Y-71531250D03*
X128000000Y-72531250D03*
X125750000Y-115531250D03*
X129500000Y-89531250D03*
X130000000Y-72531250D03*
X130500000Y-89531250D03*
X127500000Y-73531250D03*
X125750000Y-111531250D03*
X129000000Y-76531250D03*
X128000000Y-86531250D03*
X130500000Y-75531250D03*
X130000000Y-90531250D03*
X130500000Y-85531250D03*
X126750000Y-111531250D03*
X127000000Y-88531250D03*
X127000000Y-97531250D03*
X129250000Y-114531250D03*
X131000000Y-101531250D03*
X128500000Y-71531250D03*
X128500000Y-75531250D03*
X131000000Y-90531250D03*
X128750000Y-115531250D03*
X127000000Y-86531250D03*
X128750000Y-111531250D03*
X127500000Y-89531250D03*
X126250000Y-114531250D03*
X130000000Y-101531250D03*
X128000000Y-97531250D03*
X130500000Y-100531250D03*
X126500000Y-100531250D03*
X129750000Y-111531250D03*
X127500000Y-98531250D03*
X130250000Y-110531250D03*
X129000000Y-90531250D03*
X126250000Y-112531250D03*
X126000000Y-101531250D03*
X126500000Y-87531250D03*
X128500000Y-89531250D03*
X125750000Y-113531250D03*
X126000000Y-88531250D03*
X130250000Y-114531250D03*
X127500000Y-85531250D03*
X127250000Y-112531250D03*
X127000000Y-74531250D03*
X127000000Y-76531250D03*
X127000000Y-72531250D03*
X129750000Y-115531250D03*
X129000000Y-72531250D03*
X126500000Y-96531250D03*
X127750000Y-115531250D03*
X128250000Y-114531250D03*
X130500000Y-96531250D03*
X127750000Y-111531250D03*
X127500000Y-96531250D03*
X127000000Y-99531250D03*
X126500000Y-85531250D03*
X129500000Y-75531250D03*
X126000000Y-99531250D03*
X128000000Y-101531250D03*
X127250000Y-114531250D03*
X127500000Y-100531250D03*
X129500000Y-85531250D03*
X129000000Y-86531250D03*
X128000000Y-90531250D03*
X127250000Y-110531250D03*
X130000000Y-86531250D03*
X126750000Y-115531250D03*
X129000000Y-97531250D03*
X126500000Y-98531250D03*
X129500000Y-100531250D03*
X129500000Y-71531250D03*
X130000000Y-76531250D03*
%TD*%
D21*
%TO.N,Net-(Q1-C)*%
X161468750Y-74531250D02*
X161500000Y-74500000D01*
X160500000Y-74531250D02*
X161468750Y-74531250D01*
%TO.N,Net-(Q1-B)*%
X159625000Y-145068750D02*
X158800000Y-145893750D01*
X159625000Y-142731250D02*
X159625000Y-145068750D01*
X158675000Y-141781250D02*
X159625000Y-142731250D01*
%TO.N,GND*%
X153137500Y-149031250D02*
X154000000Y-148168750D01*
X154712500Y-147456250D02*
X157000000Y-147456250D01*
X132910000Y-144671250D02*
X132910000Y-147691250D01*
X132910000Y-147691250D02*
X134250000Y-149031250D01*
X157000000Y-147456250D02*
X159037500Y-147456250D01*
X159037500Y-147456250D02*
X159750000Y-148168750D01*
X134250000Y-149031250D02*
X153137500Y-149031250D01*
X154000000Y-148168750D02*
X154712500Y-147456250D01*
%TO.N,Net-(Q1-C)*%
X160820000Y-88101250D02*
X161000000Y-88281250D01*
X160500000Y-99531250D02*
X160750000Y-99781250D01*
X161575000Y-114356250D02*
X161575000Y-116781250D01*
X160540000Y-113781250D02*
X161000000Y-113781250D01*
X162000000Y-117206250D02*
X162000000Y-144593750D01*
X160500000Y-113741250D02*
X160540000Y-113781250D01*
X161000000Y-113781250D02*
X161575000Y-114356250D01*
X160750000Y-99781250D02*
X161000000Y-99781250D01*
X161575000Y-116781250D02*
X162000000Y-117206250D01*
X160500000Y-88101250D02*
X160820000Y-88101250D01*
X162000000Y-144593750D02*
X160700000Y-145893750D01*
%TO.N,Net-(Q6-B)*%
X157675000Y-144781250D02*
X154162500Y-144781250D01*
X154162500Y-144781250D02*
X153050000Y-145893750D01*
X158675000Y-143781250D02*
X157675000Y-144781250D01*
%TO.N,Net-(Q10-G)*%
X129630000Y-94131250D02*
X135900000Y-94131250D01*
X129630000Y-108201250D02*
X135920000Y-108201250D01*
X135970000Y-82561250D02*
X136000000Y-82531250D01*
X146000000Y-118131250D02*
X145650000Y-117781250D01*
X130031250Y-66250000D02*
X129630000Y-66651250D01*
X155129243Y-149831250D02*
X155529243Y-149431250D01*
X136000000Y-117031250D02*
X136000000Y-108281250D01*
X145650000Y-127981250D02*
X146000000Y-127631250D01*
X126033359Y-149314609D02*
X126550000Y-149831250D01*
X156250000Y-146031250D02*
X155087500Y-146031250D01*
X135900000Y-94131250D02*
X136000000Y-94031250D01*
X126200000Y-128681250D02*
X126900000Y-127981250D01*
X126033359Y-128972891D02*
X126033359Y-149314609D01*
X129630000Y-82561250D02*
X135970000Y-82561250D01*
X136750000Y-117781250D02*
X136000000Y-117031250D01*
X135750000Y-66250000D02*
X130031250Y-66250000D01*
X129630000Y-66651250D02*
X129630000Y-68991250D01*
X146000000Y-127631250D02*
X146000000Y-118131250D01*
X126550000Y-149831250D02*
X155129243Y-149831250D01*
X126900000Y-127981250D02*
X145650000Y-127981250D01*
X135920000Y-108201250D02*
X136000000Y-108281250D01*
X145650000Y-117781250D02*
X136750000Y-117781250D01*
%TO.N,/CMD_Switch_bat*%
X154100000Y-149431250D02*
X154962500Y-148568750D01*
X160090552Y-149131250D02*
X160350000Y-148871802D01*
X157000000Y-149106250D02*
X158000000Y-149106250D01*
X158025000Y-149131250D02*
X160090552Y-149131250D01*
X160350000Y-148871802D02*
X160350000Y-146846802D01*
X160350000Y-146846802D02*
X160100000Y-146596802D01*
X130370000Y-145716936D02*
X134084314Y-149431250D01*
X130370000Y-144671250D02*
X130370000Y-145716936D01*
X160100000Y-146596802D02*
X160100000Y-144006250D01*
X158000000Y-149106250D02*
X158025000Y-149131250D01*
X134084314Y-149431250D02*
X154100000Y-149431250D01*
X156462500Y-148568750D02*
X157000000Y-149106250D01*
X160325000Y-143781250D02*
X160325000Y-141781250D01*
X154962500Y-148568750D02*
X156462500Y-148568750D01*
%TD*%
%TA.AperFunction,Conductor*%
%TO.N,/Drain*%
G36*
X144578426Y-100449366D02*
G01*
X144900822Y-100487049D01*
X144915007Y-100489550D01*
X145230849Y-100564406D01*
X145244654Y-100568539D01*
X145476805Y-100653035D01*
X145549669Y-100679556D01*
X145562897Y-100685261D01*
X145852980Y-100830946D01*
X145865438Y-100838140D01*
X146000725Y-100927120D01*
X146136619Y-101016499D01*
X146148186Y-101025110D01*
X146396840Y-101233756D01*
X146407328Y-101243651D01*
X146630061Y-101479734D01*
X146639330Y-101490780D01*
X146833157Y-101751134D01*
X146841081Y-101763182D01*
X147003368Y-102044272D01*
X147009840Y-102057158D01*
X147138399Y-102355193D01*
X147143331Y-102368743D01*
X147236424Y-102679692D01*
X147239749Y-102693724D01*
X147296110Y-103013366D01*
X147297784Y-103027688D01*
X147316657Y-103351718D01*
X147316657Y-103366138D01*
X147297784Y-103690167D01*
X147296110Y-103704489D01*
X147239749Y-104024131D01*
X147236424Y-104038163D01*
X147143331Y-104349112D01*
X147138399Y-104362662D01*
X147009840Y-104660697D01*
X147003368Y-104673583D01*
X146841081Y-104954673D01*
X146833157Y-104966721D01*
X146639330Y-105227075D01*
X146630061Y-105238121D01*
X146407328Y-105474204D01*
X146396840Y-105484099D01*
X146148186Y-105692745D01*
X146136619Y-105701356D01*
X145865446Y-105879710D01*
X145852967Y-105886915D01*
X145642578Y-105992577D01*
X145562909Y-106032588D01*
X145549669Y-106038299D01*
X145244659Y-106149314D01*
X145230844Y-106153450D01*
X144915015Y-106228303D01*
X144900815Y-106230807D01*
X144672838Y-106257453D01*
X144578425Y-106268489D01*
X144564032Y-106269327D01*
X144239460Y-106269327D01*
X144225066Y-106268489D01*
X144105986Y-106254570D01*
X143902676Y-106230807D01*
X143888476Y-106228303D01*
X143572647Y-106153450D01*
X143558832Y-106149314D01*
X143253822Y-106038299D01*
X143240586Y-106032590D01*
X142950517Y-105886911D01*
X142938045Y-105879710D01*
X142666872Y-105701356D01*
X142655305Y-105692745D01*
X142406651Y-105484099D01*
X142396163Y-105474204D01*
X142173430Y-105238121D01*
X142164161Y-105227075D01*
X141970334Y-104966721D01*
X141962410Y-104954673D01*
X141942402Y-104920018D01*
X141800119Y-104673576D01*
X141793654Y-104660704D01*
X141665092Y-104362662D01*
X141660160Y-104349112D01*
X141645247Y-104299300D01*
X141567064Y-104038153D01*
X141563744Y-104024142D01*
X141507380Y-103704488D01*
X141505707Y-103690167D01*
X141493751Y-103484889D01*
X141486834Y-103366122D01*
X141486834Y-103351733D01*
X141493751Y-103232966D01*
X142801246Y-103232966D01*
X142801246Y-103484889D01*
X142840656Y-103733713D01*
X142918506Y-103973311D01*
X143032878Y-104197776D01*
X143180947Y-104401577D01*
X143180951Y-104401582D01*
X143359091Y-104579722D01*
X143359096Y-104579726D01*
X143470544Y-104660697D01*
X143562901Y-104727798D01*
X143705930Y-104800675D01*
X143787362Y-104842167D01*
X143787364Y-104842167D01*
X143787367Y-104842169D01*
X144026961Y-104920018D01*
X144275784Y-104959428D01*
X144275785Y-104959428D01*
X144527707Y-104959428D01*
X144527708Y-104959428D01*
X144776531Y-104920018D01*
X145016125Y-104842169D01*
X145240591Y-104727798D01*
X145444402Y-104579721D01*
X145622539Y-104401584D01*
X145770616Y-104197773D01*
X145884987Y-103973307D01*
X145962836Y-103733713D01*
X146002246Y-103484890D01*
X146002246Y-103232966D01*
X145962836Y-102984143D01*
X145884987Y-102744549D01*
X145884985Y-102744546D01*
X145884985Y-102744544D01*
X145843493Y-102663112D01*
X145770616Y-102520083D01*
X145751698Y-102494045D01*
X145622544Y-102316278D01*
X145622540Y-102316273D01*
X145444400Y-102138133D01*
X145444395Y-102138129D01*
X145240594Y-101990060D01*
X145240593Y-101990059D01*
X145240591Y-101990058D01*
X145170493Y-101954341D01*
X145016129Y-101875688D01*
X144776531Y-101797838D01*
X144527708Y-101758428D01*
X144275784Y-101758428D01*
X144245769Y-101763182D01*
X144026960Y-101797838D01*
X143787362Y-101875688D01*
X143562897Y-101990060D01*
X143359096Y-102138129D01*
X143359091Y-102138133D01*
X143180951Y-102316273D01*
X143180947Y-102316278D01*
X143032878Y-102520079D01*
X142918506Y-102744544D01*
X142840656Y-102984142D01*
X142801246Y-103232966D01*
X141493751Y-103232966D01*
X141505707Y-103027685D01*
X141507381Y-103013366D01*
X141512534Y-102984142D01*
X141563745Y-102693709D01*
X141567063Y-102679706D01*
X141660161Y-102368740D01*
X141665092Y-102355193D01*
X141681878Y-102316278D01*
X141793657Y-102057144D01*
X141800116Y-102044285D01*
X141962415Y-101763173D01*
X141970328Y-101751142D01*
X142164167Y-101490772D01*
X142173423Y-101479741D01*
X142396166Y-101243648D01*
X142406651Y-101233756D01*
X142655305Y-101025110D01*
X142666863Y-101016505D01*
X142938061Y-100838135D01*
X142950503Y-100830950D01*
X143240600Y-100685258D01*
X143253817Y-100679557D01*
X143558841Y-100568538D01*
X143572637Y-100564407D01*
X143888487Y-100489550D01*
X143902666Y-100487049D01*
X144225065Y-100449366D01*
X144239460Y-100448529D01*
X144564032Y-100448529D01*
X144578426Y-100449366D01*
G37*
%TD.AperFunction*%
%TA.AperFunction,Conductor*%
G36*
X144335839Y-75273434D02*
G01*
X144658235Y-75311117D01*
X144672420Y-75313618D01*
X144988262Y-75388474D01*
X145002067Y-75392607D01*
X145234218Y-75477103D01*
X145307082Y-75503624D01*
X145320310Y-75509329D01*
X145610393Y-75655014D01*
X145622851Y-75662208D01*
X145758138Y-75751188D01*
X145894032Y-75840567D01*
X145905599Y-75849178D01*
X146154253Y-76057824D01*
X146164741Y-76067719D01*
X146387474Y-76303802D01*
X146396743Y-76314848D01*
X146590570Y-76575202D01*
X146598494Y-76587250D01*
X146760781Y-76868340D01*
X146767253Y-76881226D01*
X146895812Y-77179261D01*
X146900744Y-77192811D01*
X146993837Y-77503760D01*
X146997162Y-77517792D01*
X147053523Y-77837434D01*
X147055197Y-77851756D01*
X147074070Y-78175786D01*
X147074070Y-78190206D01*
X147055197Y-78514235D01*
X147053523Y-78528557D01*
X146997162Y-78848199D01*
X146993837Y-78862231D01*
X146900744Y-79173180D01*
X146895812Y-79186730D01*
X146767253Y-79484765D01*
X146760781Y-79497651D01*
X146598494Y-79778741D01*
X146590570Y-79790789D01*
X146396743Y-80051143D01*
X146387474Y-80062189D01*
X146164741Y-80298272D01*
X146154253Y-80308167D01*
X145905599Y-80516813D01*
X145894032Y-80525424D01*
X145622859Y-80703778D01*
X145610380Y-80710983D01*
X145399991Y-80816645D01*
X145320322Y-80856656D01*
X145307082Y-80862367D01*
X145002072Y-80973382D01*
X144988257Y-80977518D01*
X144672428Y-81052371D01*
X144658228Y-81054875D01*
X144430251Y-81081521D01*
X144335838Y-81092557D01*
X144321445Y-81093395D01*
X143996873Y-81093395D01*
X143982479Y-81092557D01*
X143863399Y-81078638D01*
X143660089Y-81054875D01*
X143645889Y-81052371D01*
X143330060Y-80977518D01*
X143316245Y-80973382D01*
X143011235Y-80862367D01*
X142997999Y-80856658D01*
X142707930Y-80710979D01*
X142695458Y-80703778D01*
X142424285Y-80525424D01*
X142412718Y-80516813D01*
X142164064Y-80308167D01*
X142153576Y-80298272D01*
X141930843Y-80062189D01*
X141921574Y-80051143D01*
X141727747Y-79790789D01*
X141719823Y-79778741D01*
X141699815Y-79744086D01*
X141557532Y-79497644D01*
X141551067Y-79484772D01*
X141422505Y-79186730D01*
X141417573Y-79173180D01*
X141402660Y-79123368D01*
X141324477Y-78862221D01*
X141321157Y-78848210D01*
X141264793Y-78528556D01*
X141263120Y-78514235D01*
X141251164Y-78308957D01*
X141244247Y-78190190D01*
X141244247Y-78175801D01*
X141251164Y-78057034D01*
X142558659Y-78057034D01*
X142558659Y-78308957D01*
X142598069Y-78557781D01*
X142675919Y-78797379D01*
X142790291Y-79021844D01*
X142938360Y-79225645D01*
X142938364Y-79225650D01*
X143116504Y-79403790D01*
X143116509Y-79403794D01*
X143227957Y-79484765D01*
X143320314Y-79551866D01*
X143463343Y-79624743D01*
X143544775Y-79666235D01*
X143544777Y-79666235D01*
X143544780Y-79666237D01*
X143784374Y-79744086D01*
X144033197Y-79783496D01*
X144033198Y-79783496D01*
X144285120Y-79783496D01*
X144285121Y-79783496D01*
X144533944Y-79744086D01*
X144773538Y-79666237D01*
X144998004Y-79551866D01*
X145201815Y-79403789D01*
X145379952Y-79225652D01*
X145528029Y-79021841D01*
X145642400Y-78797375D01*
X145720249Y-78557781D01*
X145759659Y-78308958D01*
X145759659Y-78057034D01*
X145720249Y-77808211D01*
X145642400Y-77568617D01*
X145642398Y-77568614D01*
X145642398Y-77568612D01*
X145600906Y-77487180D01*
X145528029Y-77344151D01*
X145509111Y-77318113D01*
X145379957Y-77140346D01*
X145379953Y-77140341D01*
X145201813Y-76962201D01*
X145201808Y-76962197D01*
X144998007Y-76814128D01*
X144998006Y-76814127D01*
X144998004Y-76814126D01*
X144927906Y-76778409D01*
X144773542Y-76699756D01*
X144533944Y-76621906D01*
X144285121Y-76582496D01*
X144033197Y-76582496D01*
X144003182Y-76587250D01*
X143784373Y-76621906D01*
X143544775Y-76699756D01*
X143320310Y-76814128D01*
X143116509Y-76962197D01*
X143116504Y-76962201D01*
X142938364Y-77140341D01*
X142938360Y-77140346D01*
X142790291Y-77344147D01*
X142675919Y-77568612D01*
X142598069Y-77808210D01*
X142558659Y-78057034D01*
X141251164Y-78057034D01*
X141263120Y-77851753D01*
X141264794Y-77837434D01*
X141269947Y-77808210D01*
X141321158Y-77517777D01*
X141324476Y-77503774D01*
X141417574Y-77192808D01*
X141422505Y-77179261D01*
X141439291Y-77140346D01*
X141551070Y-76881212D01*
X141557529Y-76868353D01*
X141719828Y-76587241D01*
X141727741Y-76575210D01*
X141921580Y-76314840D01*
X141930836Y-76303809D01*
X142153579Y-76067716D01*
X142164064Y-76057824D01*
X142412718Y-75849178D01*
X142424276Y-75840573D01*
X142695474Y-75662203D01*
X142707916Y-75655018D01*
X142998013Y-75509326D01*
X143011230Y-75503625D01*
X143316254Y-75392606D01*
X143330050Y-75388475D01*
X143645900Y-75313618D01*
X143660079Y-75311117D01*
X143982478Y-75273434D01*
X143996873Y-75272597D01*
X144321445Y-75272597D01*
X144335839Y-75273434D01*
G37*
%TD.AperFunction*%
%TA.AperFunction,Conductor*%
G36*
X152443039Y-65551435D02*
G01*
X152488794Y-65604239D01*
X152500000Y-65655750D01*
X152500000Y-117407250D01*
X152480315Y-117474289D01*
X152427511Y-117520044D01*
X152376000Y-117531250D01*
X146300598Y-117531250D01*
X146233559Y-117511565D01*
X146212917Y-117494931D01*
X146018717Y-117300731D01*
X146018716Y-117300730D01*
X145931904Y-117250610D01*
X145931904Y-117250609D01*
X145931900Y-117250608D01*
X145881785Y-117221673D01*
X145729057Y-117180749D01*
X145570943Y-117180749D01*
X145563347Y-117180749D01*
X145563331Y-117180750D01*
X137050097Y-117180750D01*
X136983058Y-117161065D01*
X136962416Y-117144431D01*
X136636819Y-116818834D01*
X136603334Y-116757511D01*
X136600500Y-116731153D01*
X136600500Y-108863662D01*
X136620185Y-108796623D01*
X136627555Y-108786347D01*
X136629810Y-108783517D01*
X136629816Y-108783512D01*
X136725789Y-108630772D01*
X136785368Y-108460505D01*
X136785369Y-108460499D01*
X136805565Y-108281253D01*
X136805565Y-108281246D01*
X136785369Y-108102000D01*
X136785368Y-108101995D01*
X136725788Y-107931726D01*
X136629815Y-107778987D01*
X136536319Y-107685491D01*
X136502834Y-107624168D01*
X136500000Y-107597810D01*
X136500000Y-103358928D01*
X141291347Y-103358928D01*
X141310904Y-103707177D01*
X141310906Y-103707189D01*
X141369330Y-104051053D01*
X141369332Y-104051062D01*
X141465890Y-104386222D01*
X141599369Y-104708473D01*
X141599371Y-104708477D01*
X141768096Y-105013760D01*
X141969942Y-105298236D01*
X142202360Y-105558310D01*
X142202363Y-105558313D01*
X142462437Y-105790731D01*
X142462443Y-105790735D01*
X142462444Y-105790736D01*
X142746914Y-105992578D01*
X142829640Y-106038299D01*
X143052196Y-106161302D01*
X143052200Y-106161304D01*
X143156797Y-106204629D01*
X143374446Y-106294782D01*
X143709617Y-106391343D01*
X144053492Y-106449769D01*
X144401746Y-106469327D01*
X144750000Y-106449769D01*
X145093875Y-106391343D01*
X145429046Y-106294782D01*
X145751298Y-106161301D01*
X146056578Y-105992578D01*
X146341048Y-105790736D01*
X146601130Y-105558312D01*
X146833554Y-105298230D01*
X147035396Y-105013760D01*
X147204119Y-104708480D01*
X147337600Y-104386228D01*
X147434161Y-104051057D01*
X147492587Y-103707182D01*
X147512145Y-103358928D01*
X147492587Y-103010674D01*
X147434161Y-102666799D01*
X147337600Y-102331628D01*
X147221166Y-102050530D01*
X147204122Y-102009382D01*
X147204120Y-102009378D01*
X147130231Y-101875687D01*
X147035396Y-101704096D01*
X146833554Y-101419626D01*
X146833553Y-101419625D01*
X146833549Y-101419619D01*
X146601131Y-101159545D01*
X146601128Y-101159542D01*
X146341054Y-100927124D01*
X146056578Y-100725278D01*
X145751295Y-100556553D01*
X145751291Y-100556551D01*
X145492523Y-100449367D01*
X145429046Y-100423074D01*
X145429042Y-100423072D01*
X145429040Y-100423072D01*
X145093880Y-100326514D01*
X145093871Y-100326512D01*
X144750007Y-100268088D01*
X144749995Y-100268086D01*
X144401746Y-100248529D01*
X144053496Y-100268086D01*
X144053484Y-100268088D01*
X143709620Y-100326512D01*
X143709611Y-100326514D01*
X143374451Y-100423072D01*
X143052200Y-100556551D01*
X143052196Y-100556553D01*
X142746913Y-100725278D01*
X142462437Y-100927124D01*
X142202363Y-101159542D01*
X142202360Y-101159545D01*
X141969942Y-101419619D01*
X141768096Y-101704095D01*
X141599371Y-102009378D01*
X141599369Y-102009382D01*
X141465890Y-102331633D01*
X141369332Y-102666793D01*
X141369330Y-102666802D01*
X141310906Y-103010666D01*
X141310904Y-103010678D01*
X141291347Y-103358928D01*
X136500000Y-103358928D01*
X136500000Y-94714690D01*
X136519685Y-94647651D01*
X136536319Y-94627009D01*
X136551558Y-94611770D01*
X136629816Y-94533512D01*
X136725789Y-94380772D01*
X136785368Y-94210505D01*
X136785369Y-94210499D01*
X136805565Y-94031253D01*
X136805565Y-94031246D01*
X136785369Y-93852000D01*
X136785368Y-93851995D01*
X136725788Y-93681726D01*
X136629815Y-93528987D01*
X136536319Y-93435491D01*
X136502834Y-93374168D01*
X136500000Y-93347810D01*
X136500000Y-83214690D01*
X136519685Y-83147651D01*
X136536319Y-83127009D01*
X136542501Y-83120827D01*
X136629816Y-83033512D01*
X136725789Y-82880772D01*
X136785368Y-82710505D01*
X136785369Y-82710499D01*
X136805565Y-82531253D01*
X136805565Y-82531246D01*
X136785369Y-82352000D01*
X136785368Y-82351995D01*
X136725788Y-82181726D01*
X136629815Y-82028987D01*
X136536319Y-81935491D01*
X136502834Y-81874168D01*
X136500000Y-81847810D01*
X136500000Y-78182996D01*
X141048760Y-78182996D01*
X141068317Y-78531245D01*
X141068319Y-78531257D01*
X141126743Y-78875121D01*
X141126745Y-78875130D01*
X141223303Y-79210290D01*
X141356782Y-79532541D01*
X141356784Y-79532545D01*
X141525509Y-79837828D01*
X141727355Y-80122304D01*
X141959773Y-80382378D01*
X141959776Y-80382381D01*
X142219850Y-80614799D01*
X142219856Y-80614803D01*
X142219857Y-80614804D01*
X142504327Y-80816646D01*
X142587053Y-80862367D01*
X142809609Y-80985370D01*
X142809613Y-80985372D01*
X142914210Y-81028697D01*
X143131859Y-81118850D01*
X143467030Y-81215411D01*
X143810905Y-81273837D01*
X144159159Y-81293395D01*
X144507413Y-81273837D01*
X144851288Y-81215411D01*
X145186459Y-81118850D01*
X145508711Y-80985369D01*
X145813991Y-80816646D01*
X146098461Y-80614804D01*
X146358543Y-80382380D01*
X146590967Y-80122298D01*
X146792809Y-79837828D01*
X146961532Y-79532548D01*
X147095013Y-79210296D01*
X147191574Y-78875125D01*
X147250000Y-78531250D01*
X147269558Y-78182996D01*
X147250000Y-77834742D01*
X147191574Y-77490867D01*
X147095013Y-77155696D01*
X146978579Y-76874598D01*
X146961535Y-76833450D01*
X146961533Y-76833446D01*
X146887644Y-76699755D01*
X146792809Y-76528164D01*
X146590967Y-76243694D01*
X146590966Y-76243693D01*
X146590962Y-76243687D01*
X146358544Y-75983613D01*
X146358541Y-75983610D01*
X146098467Y-75751192D01*
X145813991Y-75549346D01*
X145508708Y-75380621D01*
X145508704Y-75380619D01*
X145249936Y-75273435D01*
X145186459Y-75247142D01*
X145186455Y-75247140D01*
X145186453Y-75247140D01*
X144851293Y-75150582D01*
X144851284Y-75150580D01*
X144507420Y-75092156D01*
X144507408Y-75092154D01*
X144159159Y-75072597D01*
X143810909Y-75092154D01*
X143810897Y-75092156D01*
X143467033Y-75150580D01*
X143467024Y-75150582D01*
X143131864Y-75247140D01*
X142809613Y-75380619D01*
X142809609Y-75380621D01*
X142504326Y-75549346D01*
X142219850Y-75751192D01*
X141959776Y-75983610D01*
X141959773Y-75983613D01*
X141727355Y-76243687D01*
X141525509Y-76528163D01*
X141356784Y-76833446D01*
X141356782Y-76833450D01*
X141223303Y-77155701D01*
X141126745Y-77490861D01*
X141126743Y-77490870D01*
X141068319Y-77834734D01*
X141068317Y-77834746D01*
X141048760Y-78182996D01*
X136500000Y-78182996D01*
X136500000Y-66551397D01*
X136506959Y-66510442D01*
X136535368Y-66429255D01*
X136555565Y-66250000D01*
X136535368Y-66070745D01*
X136535367Y-66070742D01*
X136506958Y-65989552D01*
X136500000Y-65948598D01*
X136500000Y-65655750D01*
X136519685Y-65588711D01*
X136572489Y-65542956D01*
X136624000Y-65531750D01*
X152376000Y-65531750D01*
X152443039Y-65551435D01*
G37*
%TD.AperFunction*%
%TD*%
%TA.AperFunction,Conductor*%
%TO.N,/+BATT_IN*%
G36*
X159761409Y-65532066D02*
G01*
X160025790Y-65550974D01*
X160043291Y-65553491D01*
X160304803Y-65610379D01*
X160321762Y-65615358D01*
X160572524Y-65708888D01*
X160588616Y-65716237D01*
X160823501Y-65844494D01*
X160838375Y-65854052D01*
X161052624Y-66014438D01*
X161065994Y-66026024D01*
X161255225Y-66215255D01*
X161266811Y-66228625D01*
X161427193Y-66442869D01*
X161436758Y-66457753D01*
X161565011Y-66692632D01*
X161572361Y-66708725D01*
X161665888Y-66959479D01*
X161670872Y-66976455D01*
X161727757Y-67237952D01*
X161730275Y-67255464D01*
X161749684Y-67526831D01*
X161750000Y-67535677D01*
X161750000Y-73583846D01*
X161730315Y-73650885D01*
X161677511Y-73696640D01*
X161612118Y-73707066D01*
X161500005Y-73694435D01*
X161499996Y-73694435D01*
X161320750Y-73714630D01*
X161320745Y-73714631D01*
X161150466Y-73774215D01*
X161148292Y-73775262D01*
X161146748Y-73775516D01*
X161143905Y-73776511D01*
X161143730Y-73776012D01*
X161079350Y-73786609D01*
X161015218Y-73758882D01*
X160976256Y-73700884D01*
X160970499Y-73663538D01*
X160970499Y-73458379D01*
X160970498Y-73458373D01*
X160970497Y-73458366D01*
X160964091Y-73398767D01*
X160913796Y-73263919D01*
X160913795Y-73263918D01*
X160913793Y-73263914D01*
X160827547Y-73148705D01*
X160827544Y-73148702D01*
X160712335Y-73062456D01*
X160712328Y-73062452D01*
X160577482Y-73012158D01*
X160577483Y-73012158D01*
X160517883Y-73005751D01*
X160517881Y-73005750D01*
X160517873Y-73005750D01*
X160517864Y-73005750D01*
X157062129Y-73005750D01*
X157062123Y-73005751D01*
X157002516Y-73012158D01*
X156867671Y-73062452D01*
X156867664Y-73062456D01*
X156752455Y-73148702D01*
X156752452Y-73148705D01*
X156666206Y-73263914D01*
X156666202Y-73263921D01*
X156615908Y-73398767D01*
X156609501Y-73458366D01*
X156609501Y-73458373D01*
X156609500Y-73458385D01*
X156609500Y-74684120D01*
X156609501Y-74684126D01*
X156615908Y-74743733D01*
X156666202Y-74878578D01*
X156666206Y-74878585D01*
X156752452Y-74993794D01*
X156752455Y-74993797D01*
X156867664Y-75080043D01*
X156867671Y-75080047D01*
X157002517Y-75130341D01*
X157002516Y-75130341D01*
X157009444Y-75131085D01*
X157062127Y-75136750D01*
X160517872Y-75136749D01*
X160557772Y-75132459D01*
X160571024Y-75131750D01*
X160965092Y-75131750D01*
X161031063Y-75150755D01*
X161150478Y-75225789D01*
X161320745Y-75285368D01*
X161320750Y-75285369D01*
X161499996Y-75305565D01*
X161500000Y-75305565D01*
X161500004Y-75305565D01*
X161612117Y-75292933D01*
X161680938Y-75304987D01*
X161732318Y-75352337D01*
X161750000Y-75416153D01*
X161750000Y-87599810D01*
X161730315Y-87666849D01*
X161677511Y-87712604D01*
X161608353Y-87722548D01*
X161544797Y-87693523D01*
X161538319Y-87687491D01*
X161502262Y-87651434D01*
X161349523Y-87555461D01*
X161179254Y-87495881D01*
X161179250Y-87495880D01*
X161080615Y-87484767D01*
X161016201Y-87457700D01*
X160976646Y-87400105D01*
X160970499Y-87361547D01*
X160970499Y-87028379D01*
X160970498Y-87028373D01*
X160970497Y-87028366D01*
X160964091Y-86968767D01*
X160913796Y-86833919D01*
X160913795Y-86833918D01*
X160913793Y-86833914D01*
X160827547Y-86718705D01*
X160827544Y-86718702D01*
X160712335Y-86632456D01*
X160712328Y-86632452D01*
X160577482Y-86582158D01*
X160577483Y-86582158D01*
X160517883Y-86575751D01*
X160517881Y-86575750D01*
X160517873Y-86575750D01*
X160517864Y-86575750D01*
X157062129Y-86575750D01*
X157062123Y-86575751D01*
X157002516Y-86582158D01*
X156867671Y-86632452D01*
X156867664Y-86632456D01*
X156752455Y-86718702D01*
X156752452Y-86718705D01*
X156666206Y-86833914D01*
X156666202Y-86833921D01*
X156615908Y-86968767D01*
X156609501Y-87028366D01*
X156609501Y-87028373D01*
X156609500Y-87028385D01*
X156609500Y-88254120D01*
X156609501Y-88254126D01*
X156615908Y-88313733D01*
X156666202Y-88448578D01*
X156666206Y-88448585D01*
X156752452Y-88563794D01*
X156752455Y-88563797D01*
X156867664Y-88650043D01*
X156867671Y-88650047D01*
X157002517Y-88700341D01*
X157002516Y-88700341D01*
X157009444Y-88701085D01*
X157062127Y-88706750D01*
X160253417Y-88706749D01*
X160320456Y-88726434D01*
X160358409Y-88764775D01*
X160370178Y-88783505D01*
X160370182Y-88783510D01*
X160370184Y-88783512D01*
X160497738Y-88911066D01*
X160650478Y-89007039D01*
X160820745Y-89066618D01*
X160820750Y-89066619D01*
X160999996Y-89086815D01*
X161000000Y-89086815D01*
X161000004Y-89086815D01*
X161179249Y-89066619D01*
X161179252Y-89066618D01*
X161179255Y-89066618D01*
X161349522Y-89007039D01*
X161502262Y-88911066D01*
X161538319Y-88875009D01*
X161599642Y-88841524D01*
X161669334Y-88846508D01*
X161725267Y-88888380D01*
X161749684Y-88953844D01*
X161750000Y-88962690D01*
X161750000Y-99099810D01*
X161730315Y-99166849D01*
X161677511Y-99212604D01*
X161608353Y-99222548D01*
X161544797Y-99193523D01*
X161538319Y-99187491D01*
X161502262Y-99151434D01*
X161349523Y-99055461D01*
X161179254Y-98995881D01*
X161179250Y-98995880D01*
X161080615Y-98984767D01*
X161016201Y-98957700D01*
X160976646Y-98900105D01*
X160970499Y-98861547D01*
X160970499Y-98598379D01*
X160970498Y-98598373D01*
X160970497Y-98598366D01*
X160964091Y-98538767D01*
X160913796Y-98403919D01*
X160913795Y-98403918D01*
X160913793Y-98403914D01*
X160827547Y-98288705D01*
X160827544Y-98288702D01*
X160712335Y-98202456D01*
X160712328Y-98202452D01*
X160577482Y-98152158D01*
X160577483Y-98152158D01*
X160517883Y-98145751D01*
X160517881Y-98145750D01*
X160517873Y-98145750D01*
X160517864Y-98145750D01*
X157062129Y-98145750D01*
X157062123Y-98145751D01*
X157002516Y-98152158D01*
X156867671Y-98202452D01*
X156867664Y-98202456D01*
X156752455Y-98288702D01*
X156752452Y-98288705D01*
X156666206Y-98403914D01*
X156666202Y-98403921D01*
X156615908Y-98538767D01*
X156609501Y-98598366D01*
X156609501Y-98598373D01*
X156609500Y-98598385D01*
X156609500Y-99824120D01*
X156609501Y-99824126D01*
X156615908Y-99883733D01*
X156666202Y-100018578D01*
X156666206Y-100018585D01*
X156752452Y-100133794D01*
X156752455Y-100133797D01*
X156867664Y-100220043D01*
X156867671Y-100220047D01*
X157002517Y-100270341D01*
X157002516Y-100270341D01*
X157009444Y-100271085D01*
X157062127Y-100276750D01*
X160312059Y-100276749D01*
X160379098Y-100296434D01*
X160399740Y-100313068D01*
X160497738Y-100411066D01*
X160650478Y-100507039D01*
X160820745Y-100566618D01*
X160820750Y-100566619D01*
X160999996Y-100586815D01*
X161000000Y-100586815D01*
X161000004Y-100586815D01*
X161179249Y-100566619D01*
X161179252Y-100566618D01*
X161179255Y-100566618D01*
X161349522Y-100507039D01*
X161502262Y-100411066D01*
X161538319Y-100375009D01*
X161599642Y-100341524D01*
X161669334Y-100346508D01*
X161725267Y-100388380D01*
X161749684Y-100453844D01*
X161750000Y-100462690D01*
X161750000Y-113099810D01*
X161730315Y-113166849D01*
X161677511Y-113212604D01*
X161608353Y-113222548D01*
X161544797Y-113193523D01*
X161538319Y-113187491D01*
X161502262Y-113151434D01*
X161349523Y-113055461D01*
X161179254Y-112995881D01*
X161179250Y-112995880D01*
X161080615Y-112984767D01*
X161016201Y-112957700D01*
X160976646Y-112900105D01*
X160970499Y-112861547D01*
X160970499Y-112668379D01*
X160970498Y-112668373D01*
X160970497Y-112668366D01*
X160964091Y-112608767D01*
X160913796Y-112473919D01*
X160913795Y-112473918D01*
X160913793Y-112473914D01*
X160827547Y-112358705D01*
X160827544Y-112358702D01*
X160712335Y-112272456D01*
X160712328Y-112272452D01*
X160577482Y-112222158D01*
X160577483Y-112222158D01*
X160517883Y-112215751D01*
X160517881Y-112215750D01*
X160517873Y-112215750D01*
X160517864Y-112215750D01*
X157062129Y-112215750D01*
X157062123Y-112215751D01*
X157002516Y-112222158D01*
X156867671Y-112272452D01*
X156867664Y-112272456D01*
X156752455Y-112358702D01*
X156752452Y-112358705D01*
X156666206Y-112473914D01*
X156666202Y-112473921D01*
X156615908Y-112608767D01*
X156609501Y-112668366D01*
X156609501Y-112668373D01*
X156609500Y-112668385D01*
X156609500Y-113894120D01*
X156609501Y-113894126D01*
X156615908Y-113953733D01*
X156666202Y-114088578D01*
X156666206Y-114088585D01*
X156752452Y-114203794D01*
X156752455Y-114203797D01*
X156867664Y-114290043D01*
X156867671Y-114290047D01*
X157002517Y-114340341D01*
X157002516Y-114340341D01*
X157009444Y-114341085D01*
X157062127Y-114346750D01*
X160313989Y-114346749D01*
X160346082Y-114350974D01*
X160406023Y-114367034D01*
X160439067Y-114375889D01*
X160494655Y-114407983D01*
X160497738Y-114411066D01*
X160650478Y-114507039D01*
X160820745Y-114566618D01*
X160864383Y-114571534D01*
X160928795Y-114598598D01*
X160968351Y-114656192D01*
X160974500Y-114694754D01*
X160974500Y-115864730D01*
X160954815Y-115931769D01*
X160938181Y-115952411D01*
X160819531Y-116071060D01*
X160819530Y-116071061D01*
X160731522Y-116216643D01*
X160680913Y-116379057D01*
X160674500Y-116449636D01*
X160674500Y-117112863D01*
X160680913Y-117183442D01*
X160731522Y-117345856D01*
X160819530Y-117491438D01*
X160939811Y-117611719D01*
X160939813Y-117611720D01*
X160939815Y-117611722D01*
X161085394Y-117699728D01*
X161247804Y-117750336D01*
X161286722Y-117753872D01*
X161351704Y-117779542D01*
X161392493Y-117836270D01*
X161399500Y-117877363D01*
X161399500Y-136256682D01*
X161379815Y-136323721D01*
X161327011Y-136369476D01*
X161257853Y-136379420D01*
X161194297Y-136350395D01*
X161156523Y-136291617D01*
X161156346Y-136291009D01*
X161126082Y-136185961D01*
X161110798Y-136132909D01*
X160994364Y-135851811D01*
X160977320Y-135810663D01*
X160977318Y-135810659D01*
X160973644Y-135804011D01*
X160808594Y-135505377D01*
X160606752Y-135220907D01*
X160606751Y-135220906D01*
X160606747Y-135220900D01*
X160374329Y-134960826D01*
X160374326Y-134960823D01*
X160114252Y-134728405D01*
X159829776Y-134526559D01*
X159524493Y-134357834D01*
X159524489Y-134357832D01*
X159265721Y-134250648D01*
X159202244Y-134224355D01*
X159202240Y-134224353D01*
X159202238Y-134224353D01*
X158867078Y-134127795D01*
X158867069Y-134127793D01*
X158523205Y-134069369D01*
X158523193Y-134069367D01*
X158174944Y-134049810D01*
X157826694Y-134069367D01*
X157826682Y-134069369D01*
X157482818Y-134127793D01*
X157482809Y-134127795D01*
X157147649Y-134224353D01*
X156825398Y-134357832D01*
X156825394Y-134357834D01*
X156520111Y-134526559D01*
X156235635Y-134728405D01*
X155975561Y-134960823D01*
X155975558Y-134960826D01*
X155743140Y-135220900D01*
X155541294Y-135505376D01*
X155372569Y-135810659D01*
X155372567Y-135810663D01*
X155239088Y-136132914D01*
X155142530Y-136468074D01*
X155142528Y-136468083D01*
X155084104Y-136811947D01*
X155084102Y-136811959D01*
X155064545Y-137160209D01*
X155084102Y-137508458D01*
X155084104Y-137508470D01*
X155142528Y-137852334D01*
X155142530Y-137852343D01*
X155239088Y-138187503D01*
X155239090Y-138187509D01*
X155279934Y-138286117D01*
X155372567Y-138509754D01*
X155372569Y-138509758D01*
X155541294Y-138815041D01*
X155743140Y-139099517D01*
X155975558Y-139359591D01*
X155975561Y-139359594D01*
X156235635Y-139592012D01*
X156235641Y-139592016D01*
X156235642Y-139592017D01*
X156520112Y-139793859D01*
X156803703Y-139950595D01*
X156825394Y-139962583D01*
X156825398Y-139962585D01*
X156929995Y-140005910D01*
X157147644Y-140096063D01*
X157250000Y-140125551D01*
X157250000Y-141531247D01*
X157250000Y-141776822D01*
X157249684Y-141785668D01*
X157230275Y-142057035D01*
X157227757Y-142074547D01*
X157170872Y-142336044D01*
X157165888Y-142353020D01*
X157072361Y-142603774D01*
X157065011Y-142619867D01*
X156936758Y-142854746D01*
X156927193Y-142869630D01*
X156766811Y-143083874D01*
X156755225Y-143097244D01*
X156565994Y-143286475D01*
X156552624Y-143298061D01*
X156338380Y-143458443D01*
X156323496Y-143468008D01*
X156088617Y-143596261D01*
X156072524Y-143603611D01*
X155821770Y-143697138D01*
X155804794Y-143702122D01*
X155543297Y-143759007D01*
X155525785Y-143761525D01*
X155254418Y-143780934D01*
X155245572Y-143781250D01*
X150500000Y-143781250D01*
X150500000Y-145781247D01*
X150500000Y-148306750D01*
X150480315Y-148373789D01*
X150427511Y-148419544D01*
X150376000Y-148430750D01*
X134550097Y-148430750D01*
X134483058Y-148411065D01*
X134462416Y-148394431D01*
X133546819Y-147478834D01*
X133513334Y-147417511D01*
X133510500Y-147391153D01*
X133510500Y-146155749D01*
X133530185Y-146088710D01*
X133582989Y-146042955D01*
X133634500Y-146031749D01*
X133867871Y-146031749D01*
X133867872Y-146031749D01*
X133927483Y-146025341D01*
X134062331Y-145975046D01*
X134177546Y-145888796D01*
X134263796Y-145773581D01*
X134314091Y-145638733D01*
X134320500Y-145579123D01*
X134320499Y-143683378D01*
X134314091Y-143623767D01*
X134306573Y-143603611D01*
X134263797Y-143488921D01*
X134263793Y-143488914D01*
X134177547Y-143373705D01*
X134177544Y-143373702D01*
X134062335Y-143287456D01*
X134062328Y-143287452D01*
X133927482Y-143237158D01*
X133927483Y-143237158D01*
X133867883Y-143230751D01*
X133867881Y-143230750D01*
X133867873Y-143230750D01*
X133867864Y-143230750D01*
X131972129Y-143230750D01*
X131972123Y-143230751D01*
X131912516Y-143237158D01*
X131777671Y-143287452D01*
X131777664Y-143287456D01*
X131662455Y-143373702D01*
X131662452Y-143373705D01*
X131576206Y-143488914D01*
X131576203Y-143488920D01*
X131547544Y-143565758D01*
X131505672Y-143621691D01*
X131440208Y-143646108D01*
X131371935Y-143631256D01*
X131340135Y-143606408D01*
X131331784Y-143597337D01*
X131331778Y-143597332D01*
X131331777Y-143597331D01*
X131148634Y-143454785D01*
X131148628Y-143454781D01*
X130944504Y-143344314D01*
X130944495Y-143344311D01*
X130724984Y-143268952D01*
X130534450Y-143237158D01*
X130496049Y-143230750D01*
X130263951Y-143230750D01*
X130225550Y-143237158D01*
X130035015Y-143268952D01*
X129815504Y-143344311D01*
X129815495Y-143344314D01*
X129611371Y-143454781D01*
X129611365Y-143454785D01*
X129428222Y-143597331D01*
X129428219Y-143597334D01*
X129428216Y-143597336D01*
X129428216Y-143597337D01*
X129383319Y-143646108D01*
X129271016Y-143768102D01*
X129144075Y-143962401D01*
X129050842Y-144174949D01*
X128993866Y-144399941D01*
X128993864Y-144399952D01*
X128974700Y-144631243D01*
X128974700Y-144631256D01*
X128993864Y-144862547D01*
X128993866Y-144862558D01*
X129050842Y-145087550D01*
X129144075Y-145300098D01*
X129271016Y-145494397D01*
X129271019Y-145494401D01*
X129271021Y-145494403D01*
X129428216Y-145665163D01*
X129428219Y-145665165D01*
X129428222Y-145665168D01*
X129611365Y-145807714D01*
X129611372Y-145807718D01*
X129611374Y-145807720D01*
X129753950Y-145884878D01*
X129803541Y-145934097D01*
X129809490Y-145946470D01*
X129810422Y-145948720D01*
X129825622Y-145975047D01*
X129889475Y-146085645D01*
X129889481Y-146085653D01*
X130008349Y-146204521D01*
X130008355Y-146204526D01*
X132822898Y-149019069D01*
X132856383Y-149080392D01*
X132851399Y-149150084D01*
X132809527Y-149206017D01*
X132744063Y-149230434D01*
X132735217Y-149230750D01*
X126850098Y-149230750D01*
X126783059Y-149211065D01*
X126762417Y-149194431D01*
X126670178Y-149102192D01*
X126636693Y-149040869D01*
X126633859Y-149014511D01*
X126633859Y-139225072D01*
X126653544Y-139158033D01*
X126706348Y-139112278D01*
X126775506Y-139102334D01*
X126839062Y-139131359D01*
X126850312Y-139142438D01*
X127044374Y-139359593D01*
X127044378Y-139359597D01*
X127304449Y-139592012D01*
X127304455Y-139592016D01*
X127304456Y-139592017D01*
X127588926Y-139793859D01*
X127872517Y-139950595D01*
X127894208Y-139962583D01*
X127894212Y-139962585D01*
X127998809Y-140005910D01*
X128216458Y-140096063D01*
X128551629Y-140192624D01*
X128895504Y-140251050D01*
X129243758Y-140270608D01*
X129592012Y-140251050D01*
X129935887Y-140192624D01*
X130271058Y-140096063D01*
X130593310Y-139962582D01*
X130898590Y-139793859D01*
X131183060Y-139592017D01*
X131443142Y-139359593D01*
X131618540Y-139163323D01*
X131675561Y-139099517D01*
X131675562Y-139099515D01*
X131675566Y-139099511D01*
X131877408Y-138815041D01*
X132046131Y-138509761D01*
X132179612Y-138187509D01*
X132276173Y-137852338D01*
X132334599Y-137508463D01*
X132354157Y-137160209D01*
X132334599Y-136811955D01*
X132276173Y-136468080D01*
X132179612Y-136132909D01*
X132063178Y-135851811D01*
X132046134Y-135810663D01*
X132046132Y-135810659D01*
X132042458Y-135804011D01*
X131877408Y-135505377D01*
X131675566Y-135220907D01*
X131675565Y-135220906D01*
X131675561Y-135220900D01*
X131443143Y-134960826D01*
X131443140Y-134960823D01*
X131183066Y-134728405D01*
X130898590Y-134526559D01*
X130593307Y-134357834D01*
X130593303Y-134357832D01*
X130334535Y-134250648D01*
X130271058Y-134224355D01*
X130271054Y-134224353D01*
X130271052Y-134224353D01*
X129935892Y-134127795D01*
X129935883Y-134127793D01*
X129592019Y-134069369D01*
X129592007Y-134069367D01*
X129243758Y-134049810D01*
X128895508Y-134069367D01*
X128895496Y-134069369D01*
X128551632Y-134127793D01*
X128551623Y-134127795D01*
X128216463Y-134224353D01*
X127894212Y-134357832D01*
X127894208Y-134357834D01*
X127588925Y-134526559D01*
X127304449Y-134728405D01*
X127044375Y-134960823D01*
X127044372Y-134960826D01*
X126850318Y-135177972D01*
X126790969Y-135214843D01*
X126721108Y-135213774D01*
X126662914Y-135175104D01*
X126634865Y-135111112D01*
X126633859Y-135095345D01*
X126633859Y-129656710D01*
X126653544Y-129589671D01*
X126706348Y-129543916D01*
X126720960Y-129538328D01*
X126764606Y-129524728D01*
X126910185Y-129436722D01*
X127030472Y-129316435D01*
X127118478Y-129170856D01*
X127169086Y-129008446D01*
X127175500Y-128937866D01*
X127175500Y-128705750D01*
X127195185Y-128638711D01*
X127247989Y-128592956D01*
X127299500Y-128581750D01*
X145563331Y-128581750D01*
X145563347Y-128581751D01*
X145570943Y-128581751D01*
X145729054Y-128581751D01*
X145729057Y-128581751D01*
X145881785Y-128540827D01*
X145931904Y-128511889D01*
X146018716Y-128461770D01*
X146130520Y-128349966D01*
X146130521Y-128349964D01*
X146480520Y-127999966D01*
X146559577Y-127863034D01*
X146600501Y-127710307D01*
X146600501Y-127552192D01*
X146600501Y-127544597D01*
X146600500Y-127544579D01*
X146600500Y-118220310D01*
X146600501Y-118220297D01*
X146600501Y-118160750D01*
X146620186Y-118093711D01*
X146672990Y-118047956D01*
X146724501Y-118036750D01*
X152375990Y-118036750D01*
X152376000Y-118036750D01*
X152483456Y-118025197D01*
X152534967Y-118013991D01*
X152569197Y-118002597D01*
X152637497Y-117979866D01*
X152637501Y-117979863D01*
X152637504Y-117979863D01*
X152758543Y-117902075D01*
X152811347Y-117856320D01*
X152905567Y-117747586D01*
X152965338Y-117616709D01*
X152985023Y-117549670D01*
X152985024Y-117549666D01*
X153005500Y-117407250D01*
X153005500Y-65655750D01*
X153025185Y-65588711D01*
X153077989Y-65542956D01*
X153129500Y-65531750D01*
X159752563Y-65531750D01*
X159761409Y-65532066D01*
G37*
%TD.AperFunction*%
%TD*%
%TA.AperFunction,Conductor*%
%TO.N,/+BATT OUT*%
G36*
X129678559Y-65551435D02*
G01*
X129724314Y-65604239D01*
X129734258Y-65673397D01*
X129705233Y-65736953D01*
X129673519Y-65763138D01*
X129662535Y-65769479D01*
X129662532Y-65769481D01*
X129149481Y-66282532D01*
X129149477Y-66282537D01*
X129122621Y-66329056D01*
X129122620Y-66329058D01*
X129070423Y-66419465D01*
X129029499Y-66572193D01*
X129029499Y-66572195D01*
X129029499Y-66740296D01*
X129029500Y-66740309D01*
X129029500Y-67801750D01*
X129009815Y-67868789D01*
X128957011Y-67914544D01*
X128905500Y-67925750D01*
X127902129Y-67925750D01*
X127902123Y-67925751D01*
X127842516Y-67932158D01*
X127707671Y-67982452D01*
X127707664Y-67982456D01*
X127592455Y-68068702D01*
X127592452Y-68068705D01*
X127506206Y-68183914D01*
X127506202Y-68183921D01*
X127455908Y-68318767D01*
X127449501Y-68378366D01*
X127449501Y-68378373D01*
X127449500Y-68378385D01*
X127449500Y-69604120D01*
X127449501Y-69604126D01*
X127455908Y-69663733D01*
X127506202Y-69798578D01*
X127506206Y-69798585D01*
X127592452Y-69913794D01*
X127592455Y-69913797D01*
X127707664Y-70000043D01*
X127707671Y-70000047D01*
X127842517Y-70050341D01*
X127842516Y-70050341D01*
X127849444Y-70051085D01*
X127902127Y-70056750D01*
X131357872Y-70056749D01*
X131417483Y-70050341D01*
X131552331Y-70000046D01*
X131667546Y-69913796D01*
X131753796Y-69798581D01*
X131804091Y-69663733D01*
X131810500Y-69604123D01*
X131810499Y-68378378D01*
X131804091Y-68318767D01*
X131753796Y-68183919D01*
X131753795Y-68183918D01*
X131753793Y-68183914D01*
X131667547Y-68068705D01*
X131667544Y-68068702D01*
X131552335Y-67982456D01*
X131552328Y-67982452D01*
X131417482Y-67932158D01*
X131417483Y-67932158D01*
X131357883Y-67925751D01*
X131357881Y-67925750D01*
X131357873Y-67925750D01*
X131357865Y-67925750D01*
X130354500Y-67925750D01*
X130287461Y-67906065D01*
X130241706Y-67853261D01*
X130230500Y-67801750D01*
X130230500Y-66974500D01*
X130250185Y-66907461D01*
X130302989Y-66861706D01*
X130354500Y-66850500D01*
X135167588Y-66850500D01*
X135234627Y-66870185D01*
X135244903Y-66877555D01*
X135247736Y-66879814D01*
X135247738Y-66879816D01*
X135291735Y-66907461D01*
X135398426Y-66974500D01*
X135400478Y-66975789D01*
X135505498Y-67012537D01*
X135570745Y-67035368D01*
X135570750Y-67035369D01*
X135749996Y-67055565D01*
X135750000Y-67055565D01*
X135750002Y-67055565D01*
X135790116Y-67051045D01*
X135856617Y-67043552D01*
X135925438Y-67055606D01*
X135976817Y-67102955D01*
X135994500Y-67166772D01*
X135994500Y-81615490D01*
X135974815Y-81682529D01*
X135922011Y-81728284D01*
X135884385Y-81738710D01*
X135820750Y-81745880D01*
X135650478Y-81805460D01*
X135497737Y-81901434D01*
X135474741Y-81924431D01*
X135413418Y-81957916D01*
X135387060Y-81960750D01*
X131917034Y-81960750D01*
X131849995Y-81941065D01*
X131804240Y-81888261D01*
X131800852Y-81880083D01*
X131753797Y-81753921D01*
X131753793Y-81753914D01*
X131667547Y-81638705D01*
X131667544Y-81638702D01*
X131552335Y-81552456D01*
X131552328Y-81552452D01*
X131417482Y-81502158D01*
X131417483Y-81502158D01*
X131357883Y-81495751D01*
X131357881Y-81495750D01*
X131357873Y-81495750D01*
X131357864Y-81495750D01*
X127902129Y-81495750D01*
X127902123Y-81495751D01*
X127842516Y-81502158D01*
X127707671Y-81552452D01*
X127707664Y-81552456D01*
X127592455Y-81638702D01*
X127592452Y-81638705D01*
X127506206Y-81753914D01*
X127506202Y-81753921D01*
X127455908Y-81888767D01*
X127449501Y-81948366D01*
X127449500Y-81948385D01*
X127449500Y-83174120D01*
X127449501Y-83174126D01*
X127455908Y-83233733D01*
X127506202Y-83368578D01*
X127506206Y-83368585D01*
X127592452Y-83483794D01*
X127592455Y-83483797D01*
X127707664Y-83570043D01*
X127707671Y-83570047D01*
X127842517Y-83620341D01*
X127842516Y-83620341D01*
X127849444Y-83621085D01*
X127902127Y-83626750D01*
X131357872Y-83626749D01*
X131417483Y-83620341D01*
X131552331Y-83570046D01*
X131667546Y-83483796D01*
X131753796Y-83368581D01*
X131800852Y-83242416D01*
X131842723Y-83186483D01*
X131908187Y-83162066D01*
X131917034Y-83161750D01*
X135463103Y-83161750D01*
X135529074Y-83180755D01*
X135650478Y-83257039D01*
X135820745Y-83316618D01*
X135884385Y-83323788D01*
X135948796Y-83350853D01*
X135988352Y-83408448D01*
X135994500Y-83447008D01*
X135994500Y-93115490D01*
X135974815Y-93182529D01*
X135922011Y-93228284D01*
X135884385Y-93238710D01*
X135820750Y-93245880D01*
X135650478Y-93305460D01*
X135497739Y-93401433D01*
X135404740Y-93494432D01*
X135343416Y-93527916D01*
X135317059Y-93530750D01*
X131917034Y-93530750D01*
X131849995Y-93511065D01*
X131804240Y-93458261D01*
X131800852Y-93450083D01*
X131753797Y-93323921D01*
X131753793Y-93323914D01*
X131667547Y-93208705D01*
X131667544Y-93208702D01*
X131552335Y-93122456D01*
X131552328Y-93122452D01*
X131417482Y-93072158D01*
X131417483Y-93072158D01*
X131357883Y-93065751D01*
X131357881Y-93065750D01*
X131357873Y-93065750D01*
X131357864Y-93065750D01*
X127902129Y-93065750D01*
X127902123Y-93065751D01*
X127842516Y-93072158D01*
X127707671Y-93122452D01*
X127707664Y-93122456D01*
X127592455Y-93208702D01*
X127592452Y-93208705D01*
X127506206Y-93323914D01*
X127506202Y-93323921D01*
X127455908Y-93458767D01*
X127449501Y-93518366D01*
X127449500Y-93518385D01*
X127449500Y-94744120D01*
X127449501Y-94744126D01*
X127455908Y-94803733D01*
X127506202Y-94938578D01*
X127506206Y-94938585D01*
X127592452Y-95053794D01*
X127592455Y-95053797D01*
X127707664Y-95140043D01*
X127707671Y-95140047D01*
X127842517Y-95190341D01*
X127842516Y-95190341D01*
X127849444Y-95191085D01*
X127902127Y-95196750D01*
X131357872Y-95196749D01*
X131417483Y-95190341D01*
X131552331Y-95140046D01*
X131667546Y-95053796D01*
X131753796Y-94938581D01*
X131800852Y-94812416D01*
X131842723Y-94756483D01*
X131908187Y-94732066D01*
X131917034Y-94731750D01*
X135574506Y-94731750D01*
X135640477Y-94750756D01*
X135650474Y-94757037D01*
X135650475Y-94757037D01*
X135650478Y-94757039D01*
X135820745Y-94816618D01*
X135884385Y-94823788D01*
X135948796Y-94850853D01*
X135988352Y-94908448D01*
X135994500Y-94947008D01*
X135994500Y-107365490D01*
X135974815Y-107432529D01*
X135922011Y-107478284D01*
X135884385Y-107488710D01*
X135820750Y-107495880D01*
X135650476Y-107555461D01*
X135608650Y-107581743D01*
X135542677Y-107600750D01*
X131917034Y-107600750D01*
X131849995Y-107581065D01*
X131804240Y-107528261D01*
X131800852Y-107520083D01*
X131753797Y-107393921D01*
X131753793Y-107393914D01*
X131667547Y-107278705D01*
X131667544Y-107278702D01*
X131552335Y-107192456D01*
X131552328Y-107192452D01*
X131417482Y-107142158D01*
X131417483Y-107142158D01*
X131357883Y-107135751D01*
X131357881Y-107135750D01*
X131357873Y-107135750D01*
X131357864Y-107135750D01*
X127902129Y-107135750D01*
X127902123Y-107135751D01*
X127842516Y-107142158D01*
X127707671Y-107192452D01*
X127707664Y-107192456D01*
X127592455Y-107278702D01*
X127592452Y-107278705D01*
X127506206Y-107393914D01*
X127506202Y-107393921D01*
X127455908Y-107528767D01*
X127449501Y-107588366D01*
X127449500Y-107588385D01*
X127449500Y-108814120D01*
X127449501Y-108814126D01*
X127455908Y-108873733D01*
X127506202Y-109008578D01*
X127506206Y-109008585D01*
X127592452Y-109123794D01*
X127592455Y-109123797D01*
X127707664Y-109210043D01*
X127707671Y-109210047D01*
X127842517Y-109260341D01*
X127842516Y-109260341D01*
X127849444Y-109261085D01*
X127902127Y-109266750D01*
X131357872Y-109266749D01*
X131417483Y-109260341D01*
X131552331Y-109210046D01*
X131667546Y-109123796D01*
X131753796Y-109008581D01*
X131800852Y-108882416D01*
X131842723Y-108826483D01*
X131908187Y-108802066D01*
X131917034Y-108801750D01*
X135275500Y-108801750D01*
X135342539Y-108821435D01*
X135388294Y-108874239D01*
X135399500Y-108925750D01*
X135399500Y-116944580D01*
X135399499Y-116944598D01*
X135399499Y-117110304D01*
X135399498Y-117110304D01*
X135440424Y-117263039D01*
X135440425Y-117263040D01*
X135462186Y-117300730D01*
X135462187Y-117300732D01*
X135519475Y-117399959D01*
X135519481Y-117399967D01*
X135638349Y-117518835D01*
X135638355Y-117518840D01*
X136265139Y-118145624D01*
X136265149Y-118145635D01*
X136269479Y-118149965D01*
X136269480Y-118149966D01*
X136381284Y-118261770D01*
X136468095Y-118311889D01*
X136468097Y-118311891D01*
X136506151Y-118333861D01*
X136518215Y-118340827D01*
X136670943Y-118381750D01*
X145275500Y-118381750D01*
X145342539Y-118401435D01*
X145388294Y-118454239D01*
X145399500Y-118505750D01*
X145399500Y-127256750D01*
X145379815Y-127323789D01*
X145327011Y-127369544D01*
X145275500Y-127380750D01*
X126820940Y-127380750D01*
X126780019Y-127391714D01*
X126780019Y-127391715D01*
X126742751Y-127401701D01*
X126668214Y-127421673D01*
X126668209Y-127421676D01*
X126531289Y-127500725D01*
X126524908Y-127505623D01*
X126459740Y-127530820D01*
X126449418Y-127531250D01*
X125374500Y-127531250D01*
X125307461Y-127511565D01*
X125261706Y-127458761D01*
X125250500Y-127407250D01*
X125250500Y-65655750D01*
X125270185Y-65588711D01*
X125322989Y-65542956D01*
X125374500Y-65531750D01*
X129611520Y-65531750D01*
X129678559Y-65551435D01*
G37*
%TD.AperFunction*%
%TD*%
M02*
