%TF.GenerationSoftware,KiCad,Pcbnew,8.0.7*%
%TF.CreationDate,2025-01-06T13:09:21+01:00*%
%TF.ProjectId,BMU_switch_mosfet,424d555f-7377-4697-9463-685f6d6f7366,rev?*%
%TF.SameCoordinates,Original*%
%TF.FileFunction,Legend,Top*%
%TF.FilePolarity,Positive*%
%FSLAX46Y46*%
G04 Gerber Fmt 4.6, Leading zero omitted, Abs format (unit mm)*
G04 Created by KiCad (PCBNEW 8.0.7) date 2025-01-06 13:09:21*
%MOMM*%
%LPD*%
G01*
G04 APERTURE LIST*
G04 Aperture macros list*
%AMRoundRect*
0 Rectangle with rounded corners*
0 $1 Rounding radius*
0 $2 $3 $4 $5 $6 $7 $8 $9 X,Y pos of 4 corners*
0 Add a 4 corners polygon primitive as box body*
4,1,4,$2,$3,$4,$5,$6,$7,$8,$9,$2,$3,0*
0 Add four circle primitives for the rounded corners*
1,1,$1+$1,$2,$3*
1,1,$1+$1,$4,$5*
1,1,$1+$1,$6,$7*
1,1,$1+$1,$8,$9*
0 Add four rect primitives between the rounded corners*
20,1,$1+$1,$2,$3,$4,$5,0*
20,1,$1+$1,$4,$5,$6,$7,0*
20,1,$1+$1,$6,$7,$8,$9,0*
20,1,$1+$1,$8,$9,$2,$3,0*%
G04 Aperture macros list end*
%ADD10C,0.150000*%
%ADD11C,0.250000*%
%ADD12C,0.120000*%
%ADD13C,0.100000*%
%ADD14C,0.500000*%
%ADD15R,3.360000X1.130000*%
%ADD16R,7.180000X10.570000*%
%ADD17C,2.700000*%
%ADD18RoundRect,0.200000X0.275000X-0.200000X0.275000X0.200000X-0.275000X0.200000X-0.275000X-0.200000X0*%
%ADD19RoundRect,0.150000X-0.150000X0.512500X-0.150000X-0.512500X0.150000X-0.512500X0.150000X0.512500X0*%
%ADD20RoundRect,0.200000X0.200000X0.275000X-0.200000X0.275000X-0.200000X-0.275000X0.200000X-0.275000X0*%
%ADD21RoundRect,0.200000X-0.200000X-0.275000X0.200000X-0.275000X0.200000X0.275000X-0.200000X0.275000X0*%
%ADD22R,1.800000X1.800000*%
%ADD23C,1.800000*%
%ADD24R,1.500000X1.500000*%
%ADD25C,1.500000*%
G04 APERTURE END LIST*
D10*
X128413661Y-133779629D02*
X128413661Y-132779629D01*
X128413661Y-133255819D02*
X128985089Y-133255819D01*
X128985089Y-133779629D02*
X128985089Y-132779629D01*
X129413661Y-132874867D02*
X129461280Y-132827248D01*
X129461280Y-132827248D02*
X129556518Y-132779629D01*
X129556518Y-132779629D02*
X129794613Y-132779629D01*
X129794613Y-132779629D02*
X129889851Y-132827248D01*
X129889851Y-132827248D02*
X129937470Y-132874867D01*
X129937470Y-132874867D02*
X129985089Y-132970105D01*
X129985089Y-132970105D02*
X129985089Y-133065343D01*
X129985089Y-133065343D02*
X129937470Y-133208200D01*
X129937470Y-133208200D02*
X129366042Y-133779629D01*
X129366042Y-133779629D02*
X129985089Y-133779629D01*
X157344847Y-133779629D02*
X157344847Y-132779629D01*
X157344847Y-133255819D02*
X157916275Y-133255819D01*
X157916275Y-133779629D02*
X157916275Y-132779629D01*
X158344847Y-132874867D02*
X158392466Y-132827248D01*
X158392466Y-132827248D02*
X158487704Y-132779629D01*
X158487704Y-132779629D02*
X158725799Y-132779629D01*
X158725799Y-132779629D02*
X158821037Y-132827248D01*
X158821037Y-132827248D02*
X158868656Y-132874867D01*
X158868656Y-132874867D02*
X158916275Y-132970105D01*
X158916275Y-132970105D02*
X158916275Y-133065343D01*
X158916275Y-133065343D02*
X158868656Y-133208200D01*
X158868656Y-133208200D02*
X158297228Y-133779629D01*
X158297228Y-133779629D02*
X158916275Y-133779629D01*
%TO.C,Q7*%
X133440000Y-66371250D02*
X133440000Y-76691250D01*
X136470000Y-66371250D02*
X133440000Y-66371250D01*
X136470000Y-76691250D02*
X133440000Y-76691250D01*
D11*
X128950000Y-67971250D02*
G75*
G02*
X128690000Y-67971250I-130000J0D01*
G01*
X128690000Y-67971250D02*
G75*
G02*
X128950000Y-67971250I130000J0D01*
G01*
D10*
%TO.C,Q5*%
X151950000Y-66371250D02*
X154980000Y-66371250D01*
X151950000Y-76691250D02*
X154980000Y-76691250D01*
X154980000Y-76691250D02*
X154980000Y-66371250D01*
D11*
X159730000Y-75091250D02*
G75*
G02*
X159470000Y-75091250I-130000J0D01*
G01*
X159470000Y-75091250D02*
G75*
G02*
X159730000Y-75091250I130000J0D01*
G01*
D12*
%TO.C,R1*%
X156477500Y-148518508D02*
X156477500Y-148043992D01*
X157522500Y-148518508D02*
X157522500Y-148043992D01*
D10*
%TO.C,Q9*%
X133440000Y-91511250D02*
X133440000Y-101831250D01*
X136470000Y-91511250D02*
X133440000Y-91511250D01*
X136470000Y-101831250D02*
X133440000Y-101831250D01*
D11*
X128950000Y-93111250D02*
G75*
G02*
X128690000Y-93111250I-130000J0D01*
G01*
X128690000Y-93111250D02*
G75*
G02*
X128950000Y-93111250I130000J0D01*
G01*
D12*
%TO.C,Q1*%
X158190000Y-147031250D02*
X158190000Y-146231250D01*
X158190000Y-147031250D02*
X158190000Y-147831250D01*
X161310000Y-147031250D02*
X161310000Y-146231250D01*
X161310000Y-147031250D02*
X161310000Y-147831250D01*
X161590000Y-145971250D02*
X161260000Y-145731250D01*
X161590000Y-145491250D01*
X161590000Y-145971250D01*
G36*
X161590000Y-145971250D02*
G01*
X161260000Y-145731250D01*
X161590000Y-145491250D01*
X161590000Y-145971250D01*
G37*
%TO.C,R2*%
X160987258Y-116258750D02*
X160512742Y-116258750D01*
X160987258Y-117303750D02*
X160512742Y-117303750D01*
D10*
%TO.C,Q2*%
X151950000Y-105581250D02*
X154980000Y-105581250D01*
X151950000Y-115901250D02*
X154980000Y-115901250D01*
X154980000Y-115901250D02*
X154980000Y-105581250D01*
D11*
X159730000Y-114301250D02*
G75*
G02*
X159470000Y-114301250I-130000J0D01*
G01*
X159470000Y-114301250D02*
G75*
G02*
X159730000Y-114301250I130000J0D01*
G01*
D12*
%TO.C,Q6*%
X152440000Y-147031250D02*
X152440000Y-146231250D01*
X152440000Y-147031250D02*
X152440000Y-147831250D01*
X155560000Y-147031250D02*
X155560000Y-146231250D01*
X155560000Y-147031250D02*
X155560000Y-147831250D01*
X155840000Y-145971250D02*
X155510000Y-145731250D01*
X155840000Y-145491250D01*
X155840000Y-145971250D01*
G36*
X155840000Y-145971250D02*
G01*
X155510000Y-145731250D01*
X155840000Y-145491250D01*
X155840000Y-145971250D01*
G37*
%TO.C,R5*%
X125677500Y-128093508D02*
X125677500Y-127618992D01*
X126722500Y-128093508D02*
X126722500Y-127618992D01*
D10*
%TO.C,Q8*%
X133440000Y-79941250D02*
X133440000Y-90261250D01*
X136470000Y-79941250D02*
X133440000Y-79941250D01*
X136470000Y-90261250D02*
X133440000Y-90261250D01*
D11*
X128950000Y-81541250D02*
G75*
G02*
X128690000Y-81541250I-130000J0D01*
G01*
X128690000Y-81541250D02*
G75*
G02*
X128950000Y-81541250I130000J0D01*
G01*
D10*
%TO.C,Q3*%
X151950000Y-91511250D02*
X154980000Y-91511250D01*
X151950000Y-101831250D02*
X154980000Y-101831250D01*
X154980000Y-101831250D02*
X154980000Y-91511250D01*
D11*
X159730000Y-100231250D02*
G75*
G02*
X159470000Y-100231250I-130000J0D01*
G01*
X159470000Y-100231250D02*
G75*
G02*
X159730000Y-100231250I130000J0D01*
G01*
D12*
%TO.C,R3*%
X159262742Y-141258750D02*
X159737258Y-141258750D01*
X159262742Y-142303750D02*
X159737258Y-142303750D01*
D10*
%TO.C,Q4*%
X151950000Y-79941250D02*
X154980000Y-79941250D01*
X151950000Y-90261250D02*
X154980000Y-90261250D01*
X154980000Y-90261250D02*
X154980000Y-79941250D01*
D11*
X159730000Y-88661250D02*
G75*
G02*
X159470000Y-88661250I-130000J0D01*
G01*
X159470000Y-88661250D02*
G75*
G02*
X159730000Y-88661250I130000J0D01*
G01*
D12*
%TO.C,R4*%
X159262742Y-143258750D02*
X159737258Y-143258750D01*
X159262742Y-144303750D02*
X159737258Y-144303750D01*
D10*
%TO.C,Q10*%
X133440000Y-105581250D02*
X133440000Y-115901250D01*
X136470000Y-105581250D02*
X133440000Y-105581250D01*
X136470000Y-115901250D02*
X133440000Y-115901250D01*
D11*
X128950000Y-107181250D02*
G75*
G02*
X128690000Y-107181250I-130000J0D01*
G01*
X128690000Y-107181250D02*
G75*
G02*
X128950000Y-107181250I130000J0D01*
G01*
%TD*%
%LPC*%
D13*
X135000000Y-118750000D02*
X145250000Y-118750000D01*
X145250000Y-126250000D01*
X125500000Y-126250000D01*
X125500000Y-110000000D01*
X135000000Y-110000000D01*
X135000000Y-118750000D01*
G36*
X135000000Y-118750000D02*
G01*
X145250000Y-118750000D01*
X145250000Y-126250000D01*
X125500000Y-126250000D01*
X125500000Y-110000000D01*
X135000000Y-110000000D01*
X135000000Y-118750000D01*
G37*
X135424600Y-129500000D02*
X149750000Y-129500000D01*
X149750000Y-148550000D01*
X135424600Y-148550000D01*
X135424600Y-129500000D01*
G36*
X135424600Y-129500000D02*
G01*
X149750000Y-129500000D01*
X149750000Y-148550000D01*
X135424600Y-148550000D01*
X135424600Y-129500000D01*
G37*
D14*
X151500000Y-116531250D02*
X137500000Y-116531250D01*
X137500000Y-66531250D01*
X151500000Y-66531250D01*
X151500000Y-116531250D01*
G36*
X151500000Y-116531250D02*
G01*
X137500000Y-116531250D01*
X137500000Y-66531250D01*
X151500000Y-66531250D01*
X151500000Y-116531250D01*
G37*
D15*
%TO.C,Q7*%
X129630000Y-68991250D03*
X129630000Y-74071250D03*
D16*
X140210000Y-71531250D03*
%TD*%
D17*
%TO.C,H2*%
X129175566Y-137024810D03*
%TD*%
D15*
%TO.C,Q5*%
X158790000Y-74071250D03*
X158790000Y-68991250D03*
D16*
X148210000Y-71531250D03*
%TD*%
D18*
%TO.C,R1*%
X157000000Y-149106250D03*
X157000000Y-147456250D03*
%TD*%
D15*
%TO.C,Q9*%
X129630000Y-94131250D03*
X129630000Y-99211250D03*
D16*
X140210000Y-96671250D03*
%TD*%
D19*
%TO.C,Q1*%
X160700000Y-145893750D03*
X158800000Y-145893750D03*
X159750000Y-148168750D03*
%TD*%
D20*
%TO.C,R2*%
X161575000Y-116781250D03*
X159925000Y-116781250D03*
%TD*%
D15*
%TO.C,Q2*%
X158790000Y-113281250D03*
X158790000Y-108201250D03*
D16*
X148210000Y-110741250D03*
%TD*%
D19*
%TO.C,Q6*%
X154950000Y-145893750D03*
X153050000Y-145893750D03*
X154000000Y-148168750D03*
%TD*%
D18*
%TO.C,R5*%
X126200000Y-128681250D03*
X126200000Y-127031250D03*
%TD*%
D15*
%TO.C,Q8*%
X129630000Y-82561250D03*
X129630000Y-87641250D03*
D16*
X140210000Y-85101250D03*
%TD*%
D15*
%TO.C,Q3*%
X158790000Y-99211250D03*
X158790000Y-94131250D03*
D16*
X148210000Y-96671250D03*
%TD*%
D21*
%TO.C,R3*%
X158675000Y-141781250D03*
X160325000Y-141781250D03*
%TD*%
D17*
%TO.C,H2*%
X158106752Y-137024810D03*
%TD*%
D15*
%TO.C,Q4*%
X158790000Y-87641250D03*
X158790000Y-82561250D03*
D16*
X148210000Y-85101250D03*
%TD*%
D21*
%TO.C,R4*%
X158675000Y-143781250D03*
X160325000Y-143781250D03*
%TD*%
D15*
%TO.C,Q10*%
X129630000Y-108201250D03*
X129630000Y-113281250D03*
D16*
X140210000Y-110741250D03*
%TD*%
D22*
%TO.C,U1*%
X132920000Y-144631250D03*
D23*
X130380000Y-144631250D03*
%TD*%
D17*
%TO.C,H1*%
X144401746Y-103358928D03*
%TD*%
D24*
%TO.C,U3*%
X140710000Y-124071250D03*
D25*
X140710000Y-121531250D03*
X138170000Y-124071250D03*
X138170000Y-121531250D03*
X135630000Y-124071250D03*
X135630000Y-121531250D03*
X133090000Y-124071250D03*
X133090000Y-121531250D03*
X130550000Y-124071250D03*
X130550000Y-121531250D03*
%TD*%
D24*
%TO.C,U2*%
X137742941Y-145154944D03*
D25*
X140282941Y-145154944D03*
X137742941Y-142614944D03*
X140282941Y-142614944D03*
X137742941Y-140074944D03*
X140282941Y-140074944D03*
X137742941Y-137534944D03*
X140282941Y-137534944D03*
X137742941Y-134994944D03*
X140282941Y-134994944D03*
%TD*%
D17*
%TO.C,H1*%
X144159159Y-78182996D03*
%TD*%
%LPD*%
M02*
