%TF.GenerationSoftware,KiCad,Pcbnew,8.0.8*%
%TF.CreationDate,2025-01-30T14:40:19+01:00*%
%TF.ProjectId,BMU v2,424d5520-7632-42e6-9b69-6361645f7063,rev?*%
%TF.SameCoordinates,Original*%
%TF.FileFunction,Paste,Top*%
%TF.FilePolarity,Positive*%
%FSLAX46Y46*%
G04 Gerber Fmt 4.6, Leading zero omitted, Abs format (unit mm)*
G04 Created by KiCad (PCBNEW 8.0.8) date 2025-01-30 14:40:19*
%MOMM*%
%LPD*%
G01*
G04 APERTURE LIST*
G04 Aperture macros list*
%AMRoundRect*
0 Rectangle with rounded corners*
0 $1 Rounding radius*
0 $2 $3 $4 $5 $6 $7 $8 $9 X,Y pos of 4 corners*
0 Add a 4 corners polygon primitive as box body*
4,1,4,$2,$3,$4,$5,$6,$7,$8,$9,$2,$3,0*
0 Add four circle primitives for the rounded corners*
1,1,$1+$1,$2,$3*
1,1,$1+$1,$4,$5*
1,1,$1+$1,$6,$7*
1,1,$1+$1,$8,$9*
0 Add four rect primitives between the rounded corners*
20,1,$1+$1,$2,$3,$4,$5,0*
20,1,$1+$1,$4,$5,$6,$7,0*
20,1,$1+$1,$6,$7,$8,$9,0*
20,1,$1+$1,$8,$9,$2,$3,0*%
G04 Aperture macros list end*
%ADD10RoundRect,0.140000X0.140000X0.170000X-0.140000X0.170000X-0.140000X-0.170000X0.140000X-0.170000X0*%
%ADD11RoundRect,0.250000X-0.475000X0.250000X-0.475000X-0.250000X0.475000X-0.250000X0.475000X0.250000X0*%
%ADD12RoundRect,0.250000X-0.325000X-0.650000X0.325000X-0.650000X0.325000X0.650000X-0.325000X0.650000X0*%
%ADD13RoundRect,0.140000X0.170000X-0.140000X0.170000X0.140000X-0.170000X0.140000X-0.170000X-0.140000X0*%
%ADD14RoundRect,0.160000X-0.160000X0.197500X-0.160000X-0.197500X0.160000X-0.197500X0.160000X0.197500X0*%
%ADD15RoundRect,0.218750X0.218750X0.256250X-0.218750X0.256250X-0.218750X-0.256250X0.218750X-0.256250X0*%
%ADD16RoundRect,0.200000X0.275000X-0.200000X0.275000X0.200000X-0.275000X0.200000X-0.275000X-0.200000X0*%
%ADD17RoundRect,0.218750X0.256250X-0.218750X0.256250X0.218750X-0.256250X0.218750X-0.256250X-0.218750X0*%
%ADD18RoundRect,0.075000X0.650000X0.075000X-0.650000X0.075000X-0.650000X-0.075000X0.650000X-0.075000X0*%
%ADD19R,3.500000X5.200000*%
%ADD20RoundRect,0.250000X-1.000000X-0.650000X1.000000X-0.650000X1.000000X0.650000X-1.000000X0.650000X0*%
%ADD21RoundRect,0.200000X-0.200000X-0.275000X0.200000X-0.275000X0.200000X0.275000X-0.200000X0.275000X0*%
%ADD22RoundRect,0.160000X0.160000X-0.197500X0.160000X0.197500X-0.160000X0.197500X-0.160000X-0.197500X0*%
%ADD23RoundRect,0.200000X0.200000X0.275000X-0.200000X0.275000X-0.200000X-0.275000X0.200000X-0.275000X0*%
%ADD24R,1.100000X1.000000*%
%ADD25R,1.100000X0.600000*%
%ADD26RoundRect,0.250000X1.000000X0.650000X-1.000000X0.650000X-1.000000X-0.650000X1.000000X-0.650000X0*%
%ADD27RoundRect,0.200000X-0.275000X0.200000X-0.275000X-0.200000X0.275000X-0.200000X0.275000X0.200000X0*%
%ADD28RoundRect,0.225000X-0.225000X-0.250000X0.225000X-0.250000X0.225000X0.250000X-0.225000X0.250000X0*%
%ADD29RoundRect,0.140000X-0.170000X0.140000X-0.170000X-0.140000X0.170000X-0.140000X0.170000X0.140000X0*%
%ADD30RoundRect,0.075000X-0.075000X0.650000X-0.075000X-0.650000X0.075000X-0.650000X0.075000X0.650000X0*%
%ADD31RoundRect,0.237500X-0.300000X-0.237500X0.300000X-0.237500X0.300000X0.237500X-0.300000X0.237500X0*%
%ADD32RoundRect,0.150000X-0.825000X-0.150000X0.825000X-0.150000X0.825000X0.150000X-0.825000X0.150000X0*%
%ADD33RoundRect,0.250000X-0.250000X-0.475000X0.250000X-0.475000X0.250000X0.475000X-0.250000X0.475000X0*%
%ADD34RoundRect,0.100000X0.100000X-0.637500X0.100000X0.637500X-0.100000X0.637500X-0.100000X-0.637500X0*%
%ADD35R,1.000000X1.100000*%
%ADD36RoundRect,0.250000X-1.050000X-0.550000X1.050000X-0.550000X1.050000X0.550000X-1.050000X0.550000X0*%
%ADD37R,4.220000X2.120000*%
%ADD38R,2.200000X0.800000*%
%ADD39RoundRect,0.218750X-0.218750X-0.256250X0.218750X-0.256250X0.218750X0.256250X-0.218750X0.256250X0*%
%ADD40RoundRect,0.150000X-0.512500X-0.150000X0.512500X-0.150000X0.512500X0.150000X-0.512500X0.150000X0*%
G04 APERTURE END LIST*
D10*
%TO.C,C6*%
X145980000Y-87495000D03*
X145020000Y-87495000D03*
%TD*%
D11*
%TO.C,C8*%
X72000000Y-48050000D03*
X72000000Y-49950000D03*
%TD*%
D12*
%TO.C,C12*%
X178725000Y-41500000D03*
X181675000Y-41500000D03*
%TD*%
D13*
%TO.C,C18*%
X47000000Y-40500000D03*
X47000000Y-39540000D03*
%TD*%
D14*
%TO.C,R9*%
X45000000Y-42902500D03*
X45000000Y-44097500D03*
%TD*%
D15*
%TO.C,D16*%
X178787500Y-84000000D03*
X177212500Y-84000000D03*
%TD*%
D16*
%TO.C,R35*%
X141920000Y-41815000D03*
X141920000Y-40165000D03*
%TD*%
D17*
%TO.C,D20*%
X84855600Y-45797500D03*
X84855600Y-44222500D03*
%TD*%
D18*
%TO.C,U3*%
X151200000Y-84995000D03*
X151200000Y-84495000D03*
X151200000Y-83995000D03*
X151200000Y-83495000D03*
X151200000Y-82995000D03*
X146800000Y-82995000D03*
X146800000Y-83495000D03*
X146800000Y-83995000D03*
X146800000Y-84495000D03*
X146800000Y-84995000D03*
%TD*%
D17*
%TO.C,D25*%
X135000000Y-45787500D03*
X135000000Y-44212500D03*
%TD*%
D19*
%TO.C,R11*%
X90190000Y-95000000D03*
X97810000Y-95000000D03*
%TD*%
D20*
%TO.C,D1*%
X178050000Y-45250000D03*
X182050000Y-45250000D03*
%TD*%
D11*
%TO.C,C20*%
X166200000Y-44150000D03*
X166200000Y-46050000D03*
%TD*%
D18*
%TO.C,U1*%
X73200000Y-85000000D03*
X73200000Y-84500000D03*
X73200000Y-84000000D03*
X73200000Y-83500000D03*
X73200000Y-83000000D03*
X68800000Y-83000000D03*
X68800000Y-83500000D03*
X68800000Y-84000000D03*
X68800000Y-84500000D03*
X68800000Y-85000000D03*
%TD*%
D21*
%TO.C,R19*%
X143575000Y-78950000D03*
X145225000Y-78950000D03*
%TD*%
D13*
%TO.C,C9*%
X111000000Y-39960000D03*
X111000000Y-39000000D03*
%TD*%
D22*
%TO.C,R4*%
X45000000Y-41597500D03*
X45000000Y-40402500D03*
%TD*%
D16*
%TO.C,R33*%
X129920000Y-41815000D03*
X129920000Y-40165000D03*
%TD*%
D23*
%TO.C,R6*%
X44825000Y-49000000D03*
X43175000Y-49000000D03*
%TD*%
D24*
%TO.C,D3*%
X69320000Y-76900000D03*
X72780000Y-76900000D03*
%TD*%
D25*
%TO.C,U4*%
X40350000Y-50950000D03*
X40350000Y-50000000D03*
X40350000Y-49050000D03*
X37650000Y-49050000D03*
X37650000Y-50000000D03*
X37650000Y-50950000D03*
%TD*%
D10*
%TO.C,C2*%
X67980000Y-87500000D03*
X67020000Y-87500000D03*
%TD*%
D23*
%TO.C,R25*%
X170825000Y-40100000D03*
X169175000Y-40100000D03*
%TD*%
D12*
%TO.C,C13*%
X178850000Y-38700000D03*
X181800000Y-38700000D03*
%TD*%
D16*
%TO.C,R29*%
X84855600Y-41825000D03*
X84855600Y-40175000D03*
%TD*%
D24*
%TO.C,D13*%
X170830000Y-35200000D03*
X167370000Y-35200000D03*
%TD*%
D21*
%TO.C,R37*%
X153175000Y-75795000D03*
X154825000Y-75795000D03*
%TD*%
D26*
%TO.C,D5*%
X62000000Y-48000000D03*
X58000000Y-48000000D03*
%TD*%
D27*
%TO.C,R3*%
X63500000Y-39175000D03*
X63500000Y-40825000D03*
%TD*%
D17*
%TO.C,D24*%
X129920000Y-45787500D03*
X129920000Y-44212500D03*
%TD*%
D28*
%TO.C,C17*%
X169225000Y-38150000D03*
X170775000Y-38150000D03*
%TD*%
D11*
%TO.C,C16*%
X65980000Y-48050000D03*
X65980000Y-49950000D03*
%TD*%
D16*
%TO.C,R36*%
X147000000Y-41815000D03*
X147000000Y-40165000D03*
%TD*%
D29*
%TO.C,C7*%
X150200000Y-80620000D03*
X150200000Y-81580000D03*
%TD*%
D30*
%TO.C,U7*%
X185000000Y-79800000D03*
X184500000Y-79800000D03*
X184000000Y-79800000D03*
X183500000Y-79800000D03*
X183000000Y-79800000D03*
X183000000Y-84200000D03*
X183500000Y-84200000D03*
X184000000Y-84200000D03*
X184500000Y-84200000D03*
X185000000Y-84200000D03*
%TD*%
D24*
%TO.C,D11*%
X147320000Y-76850000D03*
X150780000Y-76850000D03*
%TD*%
D19*
%TO.C,R10*%
X51190000Y-95000000D03*
X58810000Y-95000000D03*
%TD*%
%TO.C,R13*%
X129190000Y-94000000D03*
X136810000Y-94000000D03*
%TD*%
%TO.C,R14*%
X168190000Y-94000000D03*
X175810000Y-94000000D03*
%TD*%
D24*
%TO.C,D10*%
X147320000Y-79000000D03*
X150780000Y-79000000D03*
%TD*%
D31*
%TO.C,C14*%
X173137500Y-34000000D03*
X174862500Y-34000000D03*
%TD*%
D16*
%TO.C,R34*%
X135000000Y-41815000D03*
X135000000Y-40165000D03*
%TD*%
D26*
%TO.C,D9*%
X62000000Y-52000000D03*
X58000000Y-52000000D03*
%TD*%
D24*
%TO.C,D7*%
X107920000Y-76750000D03*
X111380000Y-76750000D03*
%TD*%
D16*
%TO.C,R31*%
X98250000Y-41815000D03*
X98250000Y-40165000D03*
%TD*%
%TO.C,R30*%
X89935600Y-41825000D03*
X89935600Y-40175000D03*
%TD*%
D32*
%TO.C,U8*%
X49525000Y-40495000D03*
X49525000Y-41765000D03*
X49525000Y-43035000D03*
X49525000Y-44305000D03*
X54475000Y-44305000D03*
X54475000Y-43035000D03*
X54475000Y-41765000D03*
X54475000Y-40495000D03*
%TD*%
D33*
%TO.C,C19*%
X169550000Y-32500000D03*
X171450000Y-32500000D03*
%TD*%
D34*
%TO.C,U6*%
X112800000Y-44725000D03*
X113450000Y-44725000D03*
X114100000Y-44725000D03*
X114750000Y-44725000D03*
X115400000Y-44725000D03*
X116050000Y-44725000D03*
X116700000Y-44725000D03*
X117350000Y-44725000D03*
X118000000Y-44725000D03*
X118650000Y-44725000D03*
X119300000Y-44725000D03*
X119950000Y-44725000D03*
X119950000Y-39000000D03*
X119300000Y-39000000D03*
X118650000Y-39000000D03*
X118000000Y-39000000D03*
X117350000Y-39000000D03*
X116700000Y-39000000D03*
X116050000Y-39000000D03*
X115400000Y-39000000D03*
X114750000Y-39000000D03*
X114100000Y-39000000D03*
X113450000Y-39000000D03*
X112800000Y-39000000D03*
%TD*%
D35*
%TO.C,D14*%
X182000000Y-75330000D03*
X182000000Y-71870000D03*
%TD*%
D16*
%TO.C,R16*%
X66000000Y-42825000D03*
X66000000Y-41175000D03*
%TD*%
D17*
%TO.C,D26*%
X141920000Y-45787500D03*
X141920000Y-44212500D03*
%TD*%
D29*
%TO.C,C3*%
X72825000Y-80720000D03*
X72825000Y-81680000D03*
%TD*%
D24*
%TO.C,D15*%
X174470000Y-75700000D03*
X177930000Y-75700000D03*
%TD*%
D18*
%TO.C,U2*%
X112250000Y-85020000D03*
X112250000Y-84520000D03*
X112250000Y-84020000D03*
X112250000Y-83520000D03*
X112250000Y-83020000D03*
X107850000Y-83020000D03*
X107850000Y-83520000D03*
X107850000Y-84020000D03*
X107850000Y-84520000D03*
X107850000Y-85020000D03*
%TD*%
D16*
%TO.C,R2*%
X33000000Y-39825000D03*
X33000000Y-38175000D03*
%TD*%
D10*
%TO.C,C10*%
X183480000Y-87520000D03*
X182520000Y-87520000D03*
%TD*%
D16*
%TO.C,R28*%
X110500000Y-44825000D03*
X110500000Y-43175000D03*
%TD*%
D36*
%TO.C,C1*%
X33700000Y-44000000D03*
X37300000Y-44000000D03*
%TD*%
D24*
%TO.C,D6*%
X107920000Y-79050000D03*
X111380000Y-79050000D03*
%TD*%
D17*
%TO.C,D22*%
X98250000Y-45787500D03*
X98250000Y-44212500D03*
%TD*%
D21*
%TO.C,R18*%
X114225000Y-75820000D03*
X115875000Y-75820000D03*
%TD*%
D13*
%TO.C,C21*%
X57000000Y-40480000D03*
X57000000Y-39520000D03*
%TD*%
D21*
%TO.C,R5*%
X65725000Y-79000000D03*
X67375000Y-79000000D03*
%TD*%
D37*
%TO.C,L1*%
X171650000Y-42900000D03*
X171650000Y-46900000D03*
%TD*%
D17*
%TO.C,D27*%
X147000000Y-45787500D03*
X147000000Y-44212500D03*
%TD*%
D21*
%TO.C,R17*%
X75175000Y-75800000D03*
X76825000Y-75800000D03*
%TD*%
D38*
%TO.C,TR1*%
X47150000Y-47460000D03*
X47150000Y-50000000D03*
X47150000Y-52540000D03*
X54850000Y-52540000D03*
X54850000Y-50000000D03*
X54850000Y-47460000D03*
%TD*%
D21*
%TO.C,R38*%
X179000000Y-50800000D03*
X180650000Y-50800000D03*
%TD*%
D39*
%TO.C,D4*%
X65812500Y-76500000D03*
X67387500Y-76500000D03*
%TD*%
D27*
%TO.C,R39*%
X175000000Y-83175000D03*
X175000000Y-84825000D03*
%TD*%
D23*
%TO.C,R24*%
X174325000Y-40000000D03*
X172675000Y-40000000D03*
%TD*%
D24*
%TO.C,D2*%
X69320000Y-79200000D03*
X72780000Y-79200000D03*
%TD*%
D11*
%TO.C,C15*%
X68990000Y-48050000D03*
X68990000Y-49950000D03*
%TD*%
D16*
%TO.C,R15*%
X61000000Y-41825000D03*
X61000000Y-40175000D03*
%TD*%
D10*
%TO.C,C4*%
X107030000Y-87520000D03*
X106070000Y-87520000D03*
%TD*%
D40*
%TO.C,U9*%
X172950000Y-36350000D03*
X172950000Y-37300000D03*
X172950000Y-38250000D03*
X175225000Y-38250000D03*
X175225000Y-37300000D03*
X175225000Y-36350000D03*
%TD*%
D39*
%TO.C,D8*%
X104562500Y-76450000D03*
X106137500Y-76450000D03*
%TD*%
D29*
%TO.C,C11*%
X181000000Y-84040000D03*
X181000000Y-85000000D03*
%TD*%
D16*
%TO.C,R32*%
X103330000Y-41815000D03*
X103330000Y-40165000D03*
%TD*%
D17*
%TO.C,D21*%
X90000000Y-45797500D03*
X90000000Y-44222500D03*
%TD*%
%TO.C,D23*%
X103330000Y-45787500D03*
X103330000Y-44212500D03*
%TD*%
D29*
%TO.C,C5*%
X111100000Y-80720000D03*
X111100000Y-81680000D03*
%TD*%
D23*
%TO.C,R7*%
X44825000Y-51000000D03*
X43175000Y-51000000D03*
%TD*%
D39*
%TO.C,D12*%
X143712500Y-76300000D03*
X145287500Y-76300000D03*
%TD*%
D21*
%TO.C,R12*%
X104475000Y-79020000D03*
X106125000Y-79020000D03*
%TD*%
M02*
