%TF.GenerationSoftware,KiCad,Pcbnew,8.0.8*%
%TF.CreationDate,2025-01-30T14:40:19+01:00*%
%TF.ProjectId,BMU v2,424d5520-7632-42e6-9b69-6361645f7063,rev?*%
%TF.SameCoordinates,Original*%
%TF.FileFunction,Legend,Bot*%
%TF.FilePolarity,Positive*%
%FSLAX46Y46*%
G04 Gerber Fmt 4.6, Leading zero omitted, Abs format (unit mm)*
G04 Created by KiCad (PCBNEW 8.0.8) date 2025-01-30 14:40:19*
%MOMM*%
%LPD*%
G01*
G04 APERTURE LIST*
G04 Aperture macros list*
%AMFreePoly0*
4,1,19,0.550000,-0.750000,0.000000,-0.750000,0.000000,-0.744911,-0.071157,-0.744911,-0.207708,-0.704816,-0.327430,-0.627875,-0.420627,-0.520320,-0.479746,-0.390866,-0.500000,-0.250000,-0.500000,0.250000,-0.479746,0.390866,-0.420627,0.520320,-0.327430,0.627875,-0.207708,0.704816,-0.071157,0.744911,0.000000,0.744911,0.000000,0.750000,0.550000,0.750000,0.550000,-0.750000,0.550000,-0.750000,
$1*%
%AMFreePoly1*
4,1,19,0.000000,0.744911,0.071157,0.744911,0.207708,0.704816,0.327430,0.627875,0.420627,0.520320,0.479746,0.390866,0.500000,0.250000,0.500000,-0.250000,0.479746,-0.390866,0.420627,-0.520320,0.327430,-0.627875,0.207708,-0.704816,0.071157,-0.744911,0.000000,-0.744911,0.000000,-0.750000,-0.550000,-0.750000,-0.550000,0.750000,0.000000,0.750000,0.000000,0.744911,0.000000,0.744911,
$1*%
G04 Aperture macros list end*
%ADD10C,0.150000*%
%ADD11C,0.200000*%
%ADD12C,0.187500*%
%ADD13C,0.250000*%
%ADD14C,0.000000*%
%ADD15C,0.120000*%
%ADD16R,1.700000X1.700000*%
%ADD17O,1.700000X1.700000*%
%ADD18C,5.200000*%
%ADD19C,10.000000*%
%ADD20C,3.400000*%
%ADD21C,1.650000*%
%ADD22C,2.400000*%
%ADD23FreePoly0,0.000000*%
%ADD24R,1.000000X1.500000*%
%ADD25FreePoly1,0.000000*%
%ADD26R,1.570000X1.800000*%
%ADD27C,1.800000*%
%ADD28R,1.700000X1.570000*%
%ADD29C,1.700000*%
%ADD30R,1.570000X1.700000*%
%ADD31C,2.700000*%
%ADD32FreePoly0,180.000000*%
%ADD33FreePoly1,180.000000*%
G04 APERTURE END LIST*
D10*
X73875000Y-74250000D02*
X85625000Y-74250000D01*
X85625000Y-89250000D01*
X73875000Y-89250000D01*
X73875000Y-74250000D01*
X152000000Y-74250000D02*
X163750000Y-74250000D01*
X163750000Y-89250000D01*
X152000000Y-89250000D01*
X152000000Y-74250000D01*
X112875000Y-74250000D02*
X124625000Y-74250000D01*
X124625000Y-89250000D01*
X112875000Y-89250000D01*
X112875000Y-74250000D01*
D11*
X184350563Y-60581504D02*
X183874373Y-60581504D01*
X184445801Y-60867219D02*
X184112468Y-59867219D01*
X184112468Y-59867219D02*
X183779135Y-60867219D01*
X182921992Y-60867219D02*
X183493420Y-60867219D01*
X183207706Y-60867219D02*
X183207706Y-59867219D01*
X183207706Y-59867219D02*
X183302944Y-60010076D01*
X183302944Y-60010076D02*
X183398182Y-60105314D01*
X183398182Y-60105314D02*
X183493420Y-60152933D01*
D12*
X106138549Y-46625925D02*
X106138549Y-45625925D01*
X105709978Y-46625925D02*
X105709978Y-46102115D01*
X105709978Y-46102115D02*
X105757597Y-46006877D01*
X105757597Y-46006877D02*
X105852835Y-45959258D01*
X105852835Y-45959258D02*
X105995692Y-45959258D01*
X105995692Y-45959258D02*
X106090930Y-46006877D01*
X106090930Y-46006877D02*
X106138549Y-46054496D01*
X105376644Y-45959258D02*
X104995692Y-45959258D01*
X105233787Y-45625925D02*
X105233787Y-46483067D01*
X105233787Y-46483067D02*
X105186168Y-46578306D01*
X105186168Y-46578306D02*
X105090930Y-46625925D01*
X105090930Y-46625925D02*
X104995692Y-46625925D01*
X104805215Y-45959258D02*
X104424263Y-45959258D01*
X104662358Y-45625925D02*
X104662358Y-46483067D01*
X104662358Y-46483067D02*
X104614739Y-46578306D01*
X104614739Y-46578306D02*
X104519501Y-46625925D01*
X104519501Y-46625925D02*
X104424263Y-46625925D01*
X104090929Y-45959258D02*
X104090929Y-46959258D01*
X104090929Y-46006877D02*
X103995691Y-45959258D01*
X103995691Y-45959258D02*
X103805215Y-45959258D01*
X103805215Y-45959258D02*
X103709977Y-46006877D01*
X103709977Y-46006877D02*
X103662358Y-46054496D01*
X103662358Y-46054496D02*
X103614739Y-46149734D01*
X103614739Y-46149734D02*
X103614739Y-46435448D01*
X103614739Y-46435448D02*
X103662358Y-46530686D01*
X103662358Y-46530686D02*
X103709977Y-46578306D01*
X103709977Y-46578306D02*
X103805215Y-46625925D01*
X103805215Y-46625925D02*
X103995691Y-46625925D01*
X103995691Y-46625925D02*
X104090929Y-46578306D01*
X103233786Y-46578306D02*
X103138548Y-46625925D01*
X103138548Y-46625925D02*
X102948072Y-46625925D01*
X102948072Y-46625925D02*
X102852834Y-46578306D01*
X102852834Y-46578306D02*
X102805215Y-46483067D01*
X102805215Y-46483067D02*
X102805215Y-46435448D01*
X102805215Y-46435448D02*
X102852834Y-46340210D01*
X102852834Y-46340210D02*
X102948072Y-46292591D01*
X102948072Y-46292591D02*
X103090929Y-46292591D01*
X103090929Y-46292591D02*
X103186167Y-46244972D01*
X103186167Y-46244972D02*
X103233786Y-46149734D01*
X103233786Y-46149734D02*
X103233786Y-46102115D01*
X103233786Y-46102115D02*
X103186167Y-46006877D01*
X103186167Y-46006877D02*
X103090929Y-45959258D01*
X103090929Y-45959258D02*
X102948072Y-45959258D01*
X102948072Y-45959258D02*
X102852834Y-46006877D01*
X102376643Y-46530686D02*
X102329024Y-46578306D01*
X102329024Y-46578306D02*
X102376643Y-46625925D01*
X102376643Y-46625925D02*
X102424262Y-46578306D01*
X102424262Y-46578306D02*
X102376643Y-46530686D01*
X102376643Y-46530686D02*
X102376643Y-46625925D01*
X102376643Y-46006877D02*
X102329024Y-46054496D01*
X102329024Y-46054496D02*
X102376643Y-46102115D01*
X102376643Y-46102115D02*
X102424262Y-46054496D01*
X102424262Y-46054496D02*
X102376643Y-46006877D01*
X102376643Y-46006877D02*
X102376643Y-46102115D01*
X101186168Y-45578306D02*
X102043310Y-46864020D01*
X100138549Y-45578306D02*
X100995691Y-46864020D01*
X99376644Y-45959258D02*
X99376644Y-46768782D01*
X99376644Y-46768782D02*
X99424263Y-46864020D01*
X99424263Y-46864020D02*
X99471882Y-46911639D01*
X99471882Y-46911639D02*
X99567120Y-46959258D01*
X99567120Y-46959258D02*
X99709977Y-46959258D01*
X99709977Y-46959258D02*
X99805215Y-46911639D01*
X99376644Y-46578306D02*
X99471882Y-46625925D01*
X99471882Y-46625925D02*
X99662358Y-46625925D01*
X99662358Y-46625925D02*
X99757596Y-46578306D01*
X99757596Y-46578306D02*
X99805215Y-46530686D01*
X99805215Y-46530686D02*
X99852834Y-46435448D01*
X99852834Y-46435448D02*
X99852834Y-46149734D01*
X99852834Y-46149734D02*
X99805215Y-46054496D01*
X99805215Y-46054496D02*
X99757596Y-46006877D01*
X99757596Y-46006877D02*
X99662358Y-45959258D01*
X99662358Y-45959258D02*
X99471882Y-45959258D01*
X99471882Y-45959258D02*
X99376644Y-46006877D01*
X98900453Y-46625925D02*
X98900453Y-45959258D01*
X98900453Y-45625925D02*
X98948072Y-45673544D01*
X98948072Y-45673544D02*
X98900453Y-45721163D01*
X98900453Y-45721163D02*
X98852834Y-45673544D01*
X98852834Y-45673544D02*
X98900453Y-45625925D01*
X98900453Y-45625925D02*
X98900453Y-45721163D01*
X98567120Y-45959258D02*
X98186168Y-45959258D01*
X98424263Y-45625925D02*
X98424263Y-46483067D01*
X98424263Y-46483067D02*
X98376644Y-46578306D01*
X98376644Y-46578306D02*
X98281406Y-46625925D01*
X98281406Y-46625925D02*
X98186168Y-46625925D01*
X97852834Y-46625925D02*
X97852834Y-45625925D01*
X97424263Y-46625925D02*
X97424263Y-46102115D01*
X97424263Y-46102115D02*
X97471882Y-46006877D01*
X97471882Y-46006877D02*
X97567120Y-45959258D01*
X97567120Y-45959258D02*
X97709977Y-45959258D01*
X97709977Y-45959258D02*
X97805215Y-46006877D01*
X97805215Y-46006877D02*
X97852834Y-46054496D01*
X96519501Y-45959258D02*
X96519501Y-46625925D01*
X96948072Y-45959258D02*
X96948072Y-46483067D01*
X96948072Y-46483067D02*
X96900453Y-46578306D01*
X96900453Y-46578306D02*
X96805215Y-46625925D01*
X96805215Y-46625925D02*
X96662358Y-46625925D01*
X96662358Y-46625925D02*
X96567120Y-46578306D01*
X96567120Y-46578306D02*
X96519501Y-46530686D01*
X96043310Y-46625925D02*
X96043310Y-45625925D01*
X96043310Y-46006877D02*
X95948072Y-45959258D01*
X95948072Y-45959258D02*
X95757596Y-45959258D01*
X95757596Y-45959258D02*
X95662358Y-46006877D01*
X95662358Y-46006877D02*
X95614739Y-46054496D01*
X95614739Y-46054496D02*
X95567120Y-46149734D01*
X95567120Y-46149734D02*
X95567120Y-46435448D01*
X95567120Y-46435448D02*
X95614739Y-46530686D01*
X95614739Y-46530686D02*
X95662358Y-46578306D01*
X95662358Y-46578306D02*
X95757596Y-46625925D01*
X95757596Y-46625925D02*
X95948072Y-46625925D01*
X95948072Y-46625925D02*
X96043310Y-46578306D01*
X95138548Y-46530686D02*
X95090929Y-46578306D01*
X95090929Y-46578306D02*
X95138548Y-46625925D01*
X95138548Y-46625925D02*
X95186167Y-46578306D01*
X95186167Y-46578306D02*
X95138548Y-46530686D01*
X95138548Y-46530686D02*
X95138548Y-46625925D01*
X94233787Y-46578306D02*
X94329025Y-46625925D01*
X94329025Y-46625925D02*
X94519501Y-46625925D01*
X94519501Y-46625925D02*
X94614739Y-46578306D01*
X94614739Y-46578306D02*
X94662358Y-46530686D01*
X94662358Y-46530686D02*
X94709977Y-46435448D01*
X94709977Y-46435448D02*
X94709977Y-46149734D01*
X94709977Y-46149734D02*
X94662358Y-46054496D01*
X94662358Y-46054496D02*
X94614739Y-46006877D01*
X94614739Y-46006877D02*
X94519501Y-45959258D01*
X94519501Y-45959258D02*
X94329025Y-45959258D01*
X94329025Y-45959258D02*
X94233787Y-46006877D01*
X93662358Y-46625925D02*
X93757596Y-46578306D01*
X93757596Y-46578306D02*
X93805215Y-46530686D01*
X93805215Y-46530686D02*
X93852834Y-46435448D01*
X93852834Y-46435448D02*
X93852834Y-46149734D01*
X93852834Y-46149734D02*
X93805215Y-46054496D01*
X93805215Y-46054496D02*
X93757596Y-46006877D01*
X93757596Y-46006877D02*
X93662358Y-45959258D01*
X93662358Y-45959258D02*
X93519501Y-45959258D01*
X93519501Y-45959258D02*
X93424263Y-46006877D01*
X93424263Y-46006877D02*
X93376644Y-46054496D01*
X93376644Y-46054496D02*
X93329025Y-46149734D01*
X93329025Y-46149734D02*
X93329025Y-46435448D01*
X93329025Y-46435448D02*
X93376644Y-46530686D01*
X93376644Y-46530686D02*
X93424263Y-46578306D01*
X93424263Y-46578306D02*
X93519501Y-46625925D01*
X93519501Y-46625925D02*
X93662358Y-46625925D01*
X92900453Y-46625925D02*
X92900453Y-45959258D01*
X92900453Y-46054496D02*
X92852834Y-46006877D01*
X92852834Y-46006877D02*
X92757596Y-45959258D01*
X92757596Y-45959258D02*
X92614739Y-45959258D01*
X92614739Y-45959258D02*
X92519501Y-46006877D01*
X92519501Y-46006877D02*
X92471882Y-46102115D01*
X92471882Y-46102115D02*
X92471882Y-46625925D01*
X92471882Y-46102115D02*
X92424263Y-46006877D01*
X92424263Y-46006877D02*
X92329025Y-45959258D01*
X92329025Y-45959258D02*
X92186168Y-45959258D01*
X92186168Y-45959258D02*
X92090929Y-46006877D01*
X92090929Y-46006877D02*
X92043310Y-46102115D01*
X92043310Y-46102115D02*
X92043310Y-46625925D01*
X90852835Y-45578306D02*
X91709977Y-46864020D01*
X90519501Y-46625925D02*
X90519501Y-45625925D01*
X89948073Y-46625925D02*
X90376644Y-46054496D01*
X89948073Y-45625925D02*
X90519501Y-46197353D01*
X89376644Y-46625925D02*
X89471882Y-46578306D01*
X89471882Y-46578306D02*
X89519501Y-46530686D01*
X89519501Y-46530686D02*
X89567120Y-46435448D01*
X89567120Y-46435448D02*
X89567120Y-46149734D01*
X89567120Y-46149734D02*
X89519501Y-46054496D01*
X89519501Y-46054496D02*
X89471882Y-46006877D01*
X89471882Y-46006877D02*
X89376644Y-45959258D01*
X89376644Y-45959258D02*
X89233787Y-45959258D01*
X89233787Y-45959258D02*
X89138549Y-46006877D01*
X89138549Y-46006877D02*
X89090930Y-46054496D01*
X89090930Y-46054496D02*
X89043311Y-46149734D01*
X89043311Y-46149734D02*
X89043311Y-46435448D01*
X89043311Y-46435448D02*
X89090930Y-46530686D01*
X89090930Y-46530686D02*
X89138549Y-46578306D01*
X89138549Y-46578306D02*
X89233787Y-46625925D01*
X89233787Y-46625925D02*
X89376644Y-46625925D01*
X88614739Y-46625925D02*
X88614739Y-45959258D01*
X88614739Y-46054496D02*
X88567120Y-46006877D01*
X88567120Y-46006877D02*
X88471882Y-45959258D01*
X88471882Y-45959258D02*
X88329025Y-45959258D01*
X88329025Y-45959258D02*
X88233787Y-46006877D01*
X88233787Y-46006877D02*
X88186168Y-46102115D01*
X88186168Y-46102115D02*
X88186168Y-46625925D01*
X88186168Y-46102115D02*
X88138549Y-46006877D01*
X88138549Y-46006877D02*
X88043311Y-45959258D01*
X88043311Y-45959258D02*
X87900454Y-45959258D01*
X87900454Y-45959258D02*
X87805215Y-46006877D01*
X87805215Y-46006877D02*
X87757596Y-46102115D01*
X87757596Y-46102115D02*
X87757596Y-46625925D01*
X87281406Y-45959258D02*
X87281406Y-46959258D01*
X87281406Y-46006877D02*
X87186168Y-45959258D01*
X87186168Y-45959258D02*
X86995692Y-45959258D01*
X86995692Y-45959258D02*
X86900454Y-46006877D01*
X86900454Y-46006877D02*
X86852835Y-46054496D01*
X86852835Y-46054496D02*
X86805216Y-46149734D01*
X86805216Y-46149734D02*
X86805216Y-46435448D01*
X86805216Y-46435448D02*
X86852835Y-46530686D01*
X86852835Y-46530686D02*
X86900454Y-46578306D01*
X86900454Y-46578306D02*
X86995692Y-46625925D01*
X86995692Y-46625925D02*
X87186168Y-46625925D01*
X87186168Y-46625925D02*
X87281406Y-46578306D01*
X86233787Y-46625925D02*
X86329025Y-46578306D01*
X86329025Y-46578306D02*
X86376644Y-46483067D01*
X86376644Y-46483067D02*
X86376644Y-45625925D01*
X85471882Y-46578306D02*
X85567120Y-46625925D01*
X85567120Y-46625925D02*
X85757596Y-46625925D01*
X85757596Y-46625925D02*
X85852834Y-46578306D01*
X85852834Y-46578306D02*
X85900453Y-46483067D01*
X85900453Y-46483067D02*
X85900453Y-46102115D01*
X85900453Y-46102115D02*
X85852834Y-46006877D01*
X85852834Y-46006877D02*
X85757596Y-45959258D01*
X85757596Y-45959258D02*
X85567120Y-45959258D01*
X85567120Y-45959258D02*
X85471882Y-46006877D01*
X85471882Y-46006877D02*
X85424263Y-46102115D01*
X85424263Y-46102115D02*
X85424263Y-46197353D01*
X85424263Y-46197353D02*
X85900453Y-46292591D01*
X85090929Y-46625925D02*
X84567120Y-45959258D01*
X85090929Y-45959258D02*
X84567120Y-46625925D01*
X84186167Y-46625925D02*
X84186167Y-45625925D01*
X83614739Y-46625925D02*
X84043310Y-46054496D01*
X83614739Y-45625925D02*
X84186167Y-46197353D01*
X82757596Y-46625925D02*
X82757596Y-46102115D01*
X82757596Y-46102115D02*
X82805215Y-46006877D01*
X82805215Y-46006877D02*
X82900453Y-45959258D01*
X82900453Y-45959258D02*
X83090929Y-45959258D01*
X83090929Y-45959258D02*
X83186167Y-46006877D01*
X82757596Y-46578306D02*
X82852834Y-46625925D01*
X82852834Y-46625925D02*
X83090929Y-46625925D01*
X83090929Y-46625925D02*
X83186167Y-46578306D01*
X83186167Y-46578306D02*
X83233786Y-46483067D01*
X83233786Y-46483067D02*
X83233786Y-46387829D01*
X83233786Y-46387829D02*
X83186167Y-46292591D01*
X83186167Y-46292591D02*
X83090929Y-46244972D01*
X83090929Y-46244972D02*
X82852834Y-46244972D01*
X82852834Y-46244972D02*
X82757596Y-46197353D01*
X82281405Y-45959258D02*
X82281405Y-46959258D01*
X82281405Y-46006877D02*
X82186167Y-45959258D01*
X82186167Y-45959258D02*
X81995691Y-45959258D01*
X81995691Y-45959258D02*
X81900453Y-46006877D01*
X81900453Y-46006877D02*
X81852834Y-46054496D01*
X81852834Y-46054496D02*
X81805215Y-46149734D01*
X81805215Y-46149734D02*
X81805215Y-46435448D01*
X81805215Y-46435448D02*
X81852834Y-46530686D01*
X81852834Y-46530686D02*
X81900453Y-46578306D01*
X81900453Y-46578306D02*
X81995691Y-46625925D01*
X81995691Y-46625925D02*
X82186167Y-46625925D01*
X82186167Y-46625925D02*
X82281405Y-46578306D01*
X81376643Y-46625925D02*
X81376643Y-45625925D01*
X80948072Y-46625925D02*
X80948072Y-46102115D01*
X80948072Y-46102115D02*
X80995691Y-46006877D01*
X80995691Y-46006877D02*
X81090929Y-45959258D01*
X81090929Y-45959258D02*
X81233786Y-45959258D01*
X81233786Y-45959258D02*
X81329024Y-46006877D01*
X81329024Y-46006877D02*
X81376643Y-46054496D01*
X80043310Y-46625925D02*
X80043310Y-46102115D01*
X80043310Y-46102115D02*
X80090929Y-46006877D01*
X80090929Y-46006877D02*
X80186167Y-45959258D01*
X80186167Y-45959258D02*
X80376643Y-45959258D01*
X80376643Y-45959258D02*
X80471881Y-46006877D01*
X80043310Y-46578306D02*
X80138548Y-46625925D01*
X80138548Y-46625925D02*
X80376643Y-46625925D01*
X80376643Y-46625925D02*
X80471881Y-46578306D01*
X80471881Y-46578306D02*
X80519500Y-46483067D01*
X80519500Y-46483067D02*
X80519500Y-46387829D01*
X80519500Y-46387829D02*
X80471881Y-46292591D01*
X80471881Y-46292591D02*
X80376643Y-46244972D01*
X80376643Y-46244972D02*
X80138548Y-46244972D01*
X80138548Y-46244972D02*
X80043310Y-46197353D01*
X79567119Y-46625925D02*
X79567119Y-45959258D01*
X79567119Y-46149734D02*
X79519500Y-46054496D01*
X79519500Y-46054496D02*
X79471881Y-46006877D01*
X79471881Y-46006877D02*
X79376643Y-45959258D01*
X79376643Y-45959258D02*
X79281405Y-45959258D01*
X78948071Y-45959258D02*
X78948071Y-46625925D01*
X78948071Y-46054496D02*
X78900452Y-46006877D01*
X78900452Y-46006877D02*
X78805214Y-45959258D01*
X78805214Y-45959258D02*
X78662357Y-45959258D01*
X78662357Y-45959258D02*
X78567119Y-46006877D01*
X78567119Y-46006877D02*
X78519500Y-46102115D01*
X78519500Y-46102115D02*
X78519500Y-46625925D01*
X77614738Y-46625925D02*
X77614738Y-46102115D01*
X77614738Y-46102115D02*
X77662357Y-46006877D01*
X77662357Y-46006877D02*
X77757595Y-45959258D01*
X77757595Y-45959258D02*
X77948071Y-45959258D01*
X77948071Y-45959258D02*
X78043309Y-46006877D01*
X77614738Y-46578306D02*
X77709976Y-46625925D01*
X77709976Y-46625925D02*
X77948071Y-46625925D01*
X77948071Y-46625925D02*
X78043309Y-46578306D01*
X78043309Y-46578306D02*
X78090928Y-46483067D01*
X78090928Y-46483067D02*
X78090928Y-46387829D01*
X78090928Y-46387829D02*
X78043309Y-46292591D01*
X78043309Y-46292591D02*
X77948071Y-46244972D01*
X77948071Y-46244972D02*
X77709976Y-46244972D01*
X77709976Y-46244972D02*
X77614738Y-46197353D01*
X76709976Y-45959258D02*
X76709976Y-46625925D01*
X77138547Y-45959258D02*
X77138547Y-46483067D01*
X77138547Y-46483067D02*
X77090928Y-46578306D01*
X77090928Y-46578306D02*
X76995690Y-46625925D01*
X76995690Y-46625925D02*
X76852833Y-46625925D01*
X76852833Y-46625925D02*
X76757595Y-46578306D01*
X76757595Y-46578306D02*
X76709976Y-46530686D01*
X76233785Y-46625925D02*
X76233785Y-45959258D01*
X76233785Y-46054496D02*
X76186166Y-46006877D01*
X76186166Y-46006877D02*
X76090928Y-45959258D01*
X76090928Y-45959258D02*
X75948071Y-45959258D01*
X75948071Y-45959258D02*
X75852833Y-46006877D01*
X75852833Y-46006877D02*
X75805214Y-46102115D01*
X75805214Y-46102115D02*
X75805214Y-46625925D01*
X75805214Y-46102115D02*
X75757595Y-46006877D01*
X75757595Y-46006877D02*
X75662357Y-45959258D01*
X75662357Y-45959258D02*
X75519500Y-45959258D01*
X75519500Y-45959258D02*
X75424261Y-46006877D01*
X75424261Y-46006877D02*
X75376642Y-46102115D01*
X75376642Y-46102115D02*
X75376642Y-46625925D01*
X74186167Y-45578306D02*
X75043309Y-46864020D01*
X73852833Y-46625925D02*
X73852833Y-45625925D01*
X73281405Y-46625925D02*
X73709976Y-46054496D01*
X73281405Y-45625925D02*
X73852833Y-46197353D01*
X72948071Y-45625925D02*
X72281405Y-46625925D01*
X72281405Y-45625925D02*
X72948071Y-46625925D01*
X71900452Y-46625925D02*
X71900452Y-45625925D01*
X71329024Y-46625925D02*
X71757595Y-46054496D01*
X71329024Y-45625925D02*
X71900452Y-46197353D01*
X70900452Y-46625925D02*
X70900452Y-45625925D01*
X70900452Y-45625925D02*
X70567119Y-46340210D01*
X70567119Y-46340210D02*
X70233786Y-45625925D01*
X70233786Y-45625925D02*
X70233786Y-46625925D01*
X69995691Y-46721163D02*
X69233786Y-46721163D01*
X68662357Y-46102115D02*
X68519500Y-46149734D01*
X68519500Y-46149734D02*
X68471881Y-46197353D01*
X68471881Y-46197353D02*
X68424262Y-46292591D01*
X68424262Y-46292591D02*
X68424262Y-46435448D01*
X68424262Y-46435448D02*
X68471881Y-46530686D01*
X68471881Y-46530686D02*
X68519500Y-46578306D01*
X68519500Y-46578306D02*
X68614738Y-46625925D01*
X68614738Y-46625925D02*
X68995690Y-46625925D01*
X68995690Y-46625925D02*
X68995690Y-45625925D01*
X68995690Y-45625925D02*
X68662357Y-45625925D01*
X68662357Y-45625925D02*
X68567119Y-45673544D01*
X68567119Y-45673544D02*
X68519500Y-45721163D01*
X68519500Y-45721163D02*
X68471881Y-45816401D01*
X68471881Y-45816401D02*
X68471881Y-45911639D01*
X68471881Y-45911639D02*
X68519500Y-46006877D01*
X68519500Y-46006877D02*
X68567119Y-46054496D01*
X68567119Y-46054496D02*
X68662357Y-46102115D01*
X68662357Y-46102115D02*
X68995690Y-46102115D01*
X67567119Y-46625925D02*
X67567119Y-46102115D01*
X67567119Y-46102115D02*
X67614738Y-46006877D01*
X67614738Y-46006877D02*
X67709976Y-45959258D01*
X67709976Y-45959258D02*
X67900452Y-45959258D01*
X67900452Y-45959258D02*
X67995690Y-46006877D01*
X67567119Y-46578306D02*
X67662357Y-46625925D01*
X67662357Y-46625925D02*
X67900452Y-46625925D01*
X67900452Y-46625925D02*
X67995690Y-46578306D01*
X67995690Y-46578306D02*
X68043309Y-46483067D01*
X68043309Y-46483067D02*
X68043309Y-46387829D01*
X68043309Y-46387829D02*
X67995690Y-46292591D01*
X67995690Y-46292591D02*
X67900452Y-46244972D01*
X67900452Y-46244972D02*
X67662357Y-46244972D01*
X67662357Y-46244972D02*
X67567119Y-46197353D01*
X67233785Y-45959258D02*
X66852833Y-45959258D01*
X67090928Y-45625925D02*
X67090928Y-46483067D01*
X67090928Y-46483067D02*
X67043309Y-46578306D01*
X67043309Y-46578306D02*
X66948071Y-46625925D01*
X66948071Y-46625925D02*
X66852833Y-46625925D01*
X66662356Y-45959258D02*
X66281404Y-45959258D01*
X66519499Y-45625925D02*
X66519499Y-46483067D01*
X66519499Y-46483067D02*
X66471880Y-46578306D01*
X66471880Y-46578306D02*
X66376642Y-46625925D01*
X66376642Y-46625925D02*
X66281404Y-46625925D01*
X65567118Y-46578306D02*
X65662356Y-46625925D01*
X65662356Y-46625925D02*
X65852832Y-46625925D01*
X65852832Y-46625925D02*
X65948070Y-46578306D01*
X65948070Y-46578306D02*
X65995689Y-46483067D01*
X65995689Y-46483067D02*
X65995689Y-46102115D01*
X65995689Y-46102115D02*
X65948070Y-46006877D01*
X65948070Y-46006877D02*
X65852832Y-45959258D01*
X65852832Y-45959258D02*
X65662356Y-45959258D01*
X65662356Y-45959258D02*
X65567118Y-46006877D01*
X65567118Y-46006877D02*
X65519499Y-46102115D01*
X65519499Y-46102115D02*
X65519499Y-46197353D01*
X65519499Y-46197353D02*
X65995689Y-46292591D01*
X65090927Y-46625925D02*
X65090927Y-45959258D01*
X65090927Y-46149734D02*
X65043308Y-46054496D01*
X65043308Y-46054496D02*
X64995689Y-46006877D01*
X64995689Y-46006877D02*
X64900451Y-45959258D01*
X64900451Y-45959258D02*
X64805213Y-45959258D01*
X64471879Y-46625925D02*
X64471879Y-45959258D01*
X64471879Y-45625925D02*
X64519498Y-45673544D01*
X64519498Y-45673544D02*
X64471879Y-45721163D01*
X64471879Y-45721163D02*
X64424260Y-45673544D01*
X64424260Y-45673544D02*
X64471879Y-45625925D01*
X64471879Y-45625925D02*
X64471879Y-45721163D01*
X63614737Y-46578306D02*
X63709975Y-46625925D01*
X63709975Y-46625925D02*
X63900451Y-46625925D01*
X63900451Y-46625925D02*
X63995689Y-46578306D01*
X63995689Y-46578306D02*
X64043308Y-46483067D01*
X64043308Y-46483067D02*
X64043308Y-46102115D01*
X64043308Y-46102115D02*
X63995689Y-46006877D01*
X63995689Y-46006877D02*
X63900451Y-45959258D01*
X63900451Y-45959258D02*
X63709975Y-45959258D01*
X63709975Y-45959258D02*
X63614737Y-46006877D01*
X63614737Y-46006877D02*
X63567118Y-46102115D01*
X63567118Y-46102115D02*
X63567118Y-46197353D01*
X63567118Y-46197353D02*
X64043308Y-46292591D01*
X63376642Y-46721163D02*
X62614737Y-46721163D01*
X62376641Y-46625925D02*
X62376641Y-45625925D01*
X62376641Y-45625925D02*
X61995689Y-45625925D01*
X61995689Y-45625925D02*
X61900451Y-45673544D01*
X61900451Y-45673544D02*
X61852832Y-45721163D01*
X61852832Y-45721163D02*
X61805213Y-45816401D01*
X61805213Y-45816401D02*
X61805213Y-45959258D01*
X61805213Y-45959258D02*
X61852832Y-46054496D01*
X61852832Y-46054496D02*
X61900451Y-46102115D01*
X61900451Y-46102115D02*
X61995689Y-46149734D01*
X61995689Y-46149734D02*
X62376641Y-46149734D01*
X60948070Y-46625925D02*
X60948070Y-46102115D01*
X60948070Y-46102115D02*
X60995689Y-46006877D01*
X60995689Y-46006877D02*
X61090927Y-45959258D01*
X61090927Y-45959258D02*
X61281403Y-45959258D01*
X61281403Y-45959258D02*
X61376641Y-46006877D01*
X60948070Y-46578306D02*
X61043308Y-46625925D01*
X61043308Y-46625925D02*
X61281403Y-46625925D01*
X61281403Y-46625925D02*
X61376641Y-46578306D01*
X61376641Y-46578306D02*
X61424260Y-46483067D01*
X61424260Y-46483067D02*
X61424260Y-46387829D01*
X61424260Y-46387829D02*
X61376641Y-46292591D01*
X61376641Y-46292591D02*
X61281403Y-46244972D01*
X61281403Y-46244972D02*
X61043308Y-46244972D01*
X61043308Y-46244972D02*
X60948070Y-46197353D01*
X60471879Y-46625925D02*
X60471879Y-45959258D01*
X60471879Y-46149734D02*
X60424260Y-46054496D01*
X60424260Y-46054496D02*
X60376641Y-46006877D01*
X60376641Y-46006877D02*
X60281403Y-45959258D01*
X60281403Y-45959258D02*
X60186165Y-45959258D01*
X59424260Y-46625925D02*
X59424260Y-46102115D01*
X59424260Y-46102115D02*
X59471879Y-46006877D01*
X59471879Y-46006877D02*
X59567117Y-45959258D01*
X59567117Y-45959258D02*
X59757593Y-45959258D01*
X59757593Y-45959258D02*
X59852831Y-46006877D01*
X59424260Y-46578306D02*
X59519498Y-46625925D01*
X59519498Y-46625925D02*
X59757593Y-46625925D01*
X59757593Y-46625925D02*
X59852831Y-46578306D01*
X59852831Y-46578306D02*
X59900450Y-46483067D01*
X59900450Y-46483067D02*
X59900450Y-46387829D01*
X59900450Y-46387829D02*
X59852831Y-46292591D01*
X59852831Y-46292591D02*
X59757593Y-46244972D01*
X59757593Y-46244972D02*
X59519498Y-46244972D01*
X59519498Y-46244972D02*
X59424260Y-46197353D01*
X58805212Y-46625925D02*
X58900450Y-46578306D01*
X58900450Y-46578306D02*
X58948069Y-46483067D01*
X58948069Y-46483067D02*
X58948069Y-45625925D01*
X58281402Y-46625925D02*
X58376640Y-46578306D01*
X58376640Y-46578306D02*
X58424259Y-46483067D01*
X58424259Y-46483067D02*
X58424259Y-45625925D01*
X57519497Y-46578306D02*
X57614735Y-46625925D01*
X57614735Y-46625925D02*
X57805211Y-46625925D01*
X57805211Y-46625925D02*
X57900449Y-46578306D01*
X57900449Y-46578306D02*
X57948068Y-46483067D01*
X57948068Y-46483067D02*
X57948068Y-46102115D01*
X57948068Y-46102115D02*
X57900449Y-46006877D01*
X57900449Y-46006877D02*
X57805211Y-45959258D01*
X57805211Y-45959258D02*
X57614735Y-45959258D01*
X57614735Y-45959258D02*
X57519497Y-46006877D01*
X57519497Y-46006877D02*
X57471878Y-46102115D01*
X57471878Y-46102115D02*
X57471878Y-46197353D01*
X57471878Y-46197353D02*
X57948068Y-46292591D01*
X56900449Y-46625925D02*
X56995687Y-46578306D01*
X56995687Y-46578306D02*
X57043306Y-46483067D01*
X57043306Y-46483067D02*
X57043306Y-45625925D01*
X56090925Y-46625925D02*
X56090925Y-46102115D01*
X56090925Y-46102115D02*
X56138544Y-46006877D01*
X56138544Y-46006877D02*
X56233782Y-45959258D01*
X56233782Y-45959258D02*
X56424258Y-45959258D01*
X56424258Y-45959258D02*
X56519496Y-46006877D01*
X56090925Y-46578306D02*
X56186163Y-46625925D01*
X56186163Y-46625925D02*
X56424258Y-46625925D01*
X56424258Y-46625925D02*
X56519496Y-46578306D01*
X56519496Y-46578306D02*
X56567115Y-46483067D01*
X56567115Y-46483067D02*
X56567115Y-46387829D01*
X56567115Y-46387829D02*
X56519496Y-46292591D01*
X56519496Y-46292591D02*
X56424258Y-46244972D01*
X56424258Y-46244972D02*
X56186163Y-46244972D01*
X56186163Y-46244972D02*
X56090925Y-46197353D01*
X55757591Y-45959258D02*
X55376639Y-45959258D01*
X55614734Y-45625925D02*
X55614734Y-46483067D01*
X55614734Y-46483067D02*
X55567115Y-46578306D01*
X55567115Y-46578306D02*
X55471877Y-46625925D01*
X55471877Y-46625925D02*
X55376639Y-46625925D01*
X54900448Y-46625925D02*
X54995686Y-46578306D01*
X54995686Y-46578306D02*
X55043305Y-46530686D01*
X55043305Y-46530686D02*
X55090924Y-46435448D01*
X55090924Y-46435448D02*
X55090924Y-46149734D01*
X55090924Y-46149734D02*
X55043305Y-46054496D01*
X55043305Y-46054496D02*
X54995686Y-46006877D01*
X54995686Y-46006877D02*
X54900448Y-45959258D01*
X54900448Y-45959258D02*
X54757591Y-45959258D01*
X54757591Y-45959258D02*
X54662353Y-46006877D01*
X54662353Y-46006877D02*
X54614734Y-46054496D01*
X54614734Y-46054496D02*
X54567115Y-46149734D01*
X54567115Y-46149734D02*
X54567115Y-46435448D01*
X54567115Y-46435448D02*
X54614734Y-46530686D01*
X54614734Y-46530686D02*
X54662353Y-46578306D01*
X54662353Y-46578306D02*
X54757591Y-46625925D01*
X54757591Y-46625925D02*
X54900448Y-46625925D01*
X54138543Y-46625925D02*
X54138543Y-45959258D01*
X54138543Y-46149734D02*
X54090924Y-46054496D01*
X54090924Y-46054496D02*
X54043305Y-46006877D01*
X54043305Y-46006877D02*
X53948067Y-45959258D01*
X53948067Y-45959258D02*
X53852829Y-45959258D01*
X105567121Y-48140630D02*
X105614740Y-48188250D01*
X105614740Y-48188250D02*
X105757597Y-48235869D01*
X105757597Y-48235869D02*
X105852835Y-48235869D01*
X105852835Y-48235869D02*
X105995692Y-48188250D01*
X105995692Y-48188250D02*
X106090930Y-48093011D01*
X106090930Y-48093011D02*
X106138549Y-47997773D01*
X106138549Y-47997773D02*
X106186168Y-47807297D01*
X106186168Y-47807297D02*
X106186168Y-47664440D01*
X106186168Y-47664440D02*
X106138549Y-47473964D01*
X106138549Y-47473964D02*
X106090930Y-47378726D01*
X106090930Y-47378726D02*
X105995692Y-47283488D01*
X105995692Y-47283488D02*
X105852835Y-47235869D01*
X105852835Y-47235869D02*
X105757597Y-47235869D01*
X105757597Y-47235869D02*
X105614740Y-47283488D01*
X105614740Y-47283488D02*
X105567121Y-47331107D01*
X104995692Y-48235869D02*
X105090930Y-48188250D01*
X105090930Y-48188250D02*
X105138549Y-48093011D01*
X105138549Y-48093011D02*
X105138549Y-47235869D01*
X104233787Y-48188250D02*
X104329025Y-48235869D01*
X104329025Y-48235869D02*
X104519501Y-48235869D01*
X104519501Y-48235869D02*
X104614739Y-48188250D01*
X104614739Y-48188250D02*
X104662358Y-48093011D01*
X104662358Y-48093011D02*
X104662358Y-47712059D01*
X104662358Y-47712059D02*
X104614739Y-47616821D01*
X104614739Y-47616821D02*
X104519501Y-47569202D01*
X104519501Y-47569202D02*
X104329025Y-47569202D01*
X104329025Y-47569202D02*
X104233787Y-47616821D01*
X104233787Y-47616821D02*
X104186168Y-47712059D01*
X104186168Y-47712059D02*
X104186168Y-47807297D01*
X104186168Y-47807297D02*
X104662358Y-47902535D01*
X104329025Y-47188250D02*
X104471882Y-47331107D01*
X103757596Y-48235869D02*
X103757596Y-47569202D01*
X103757596Y-47664440D02*
X103709977Y-47616821D01*
X103709977Y-47616821D02*
X103614739Y-47569202D01*
X103614739Y-47569202D02*
X103471882Y-47569202D01*
X103471882Y-47569202D02*
X103376644Y-47616821D01*
X103376644Y-47616821D02*
X103329025Y-47712059D01*
X103329025Y-47712059D02*
X103329025Y-48235869D01*
X103329025Y-47712059D02*
X103281406Y-47616821D01*
X103281406Y-47616821D02*
X103186168Y-47569202D01*
X103186168Y-47569202D02*
X103043311Y-47569202D01*
X103043311Y-47569202D02*
X102948072Y-47616821D01*
X102948072Y-47616821D02*
X102900453Y-47712059D01*
X102900453Y-47712059D02*
X102900453Y-48235869D01*
X102043311Y-48188250D02*
X102138549Y-48235869D01*
X102138549Y-48235869D02*
X102329025Y-48235869D01*
X102329025Y-48235869D02*
X102424263Y-48188250D01*
X102424263Y-48188250D02*
X102471882Y-48093011D01*
X102471882Y-48093011D02*
X102471882Y-47712059D01*
X102471882Y-47712059D02*
X102424263Y-47616821D01*
X102424263Y-47616821D02*
X102329025Y-47569202D01*
X102329025Y-47569202D02*
X102138549Y-47569202D01*
X102138549Y-47569202D02*
X102043311Y-47616821D01*
X102043311Y-47616821D02*
X101995692Y-47712059D01*
X101995692Y-47712059D02*
X101995692Y-47807297D01*
X101995692Y-47807297D02*
X102471882Y-47902535D01*
X101567120Y-47569202D02*
X101567120Y-48235869D01*
X101567120Y-47664440D02*
X101519501Y-47616821D01*
X101519501Y-47616821D02*
X101424263Y-47569202D01*
X101424263Y-47569202D02*
X101281406Y-47569202D01*
X101281406Y-47569202D02*
X101186168Y-47616821D01*
X101186168Y-47616821D02*
X101138549Y-47712059D01*
X101138549Y-47712059D02*
X101138549Y-48235869D01*
X100805215Y-47569202D02*
X100424263Y-47569202D01*
X100662358Y-47235869D02*
X100662358Y-48093011D01*
X100662358Y-48093011D02*
X100614739Y-48188250D01*
X100614739Y-48188250D02*
X100519501Y-48235869D01*
X100519501Y-48235869D02*
X100424263Y-48235869D01*
X99376643Y-48188250D02*
X99233786Y-48235869D01*
X99233786Y-48235869D02*
X98995691Y-48235869D01*
X98995691Y-48235869D02*
X98900453Y-48188250D01*
X98900453Y-48188250D02*
X98852834Y-48140630D01*
X98852834Y-48140630D02*
X98805215Y-48045392D01*
X98805215Y-48045392D02*
X98805215Y-47950154D01*
X98805215Y-47950154D02*
X98852834Y-47854916D01*
X98852834Y-47854916D02*
X98900453Y-47807297D01*
X98900453Y-47807297D02*
X98995691Y-47759678D01*
X98995691Y-47759678D02*
X99186167Y-47712059D01*
X99186167Y-47712059D02*
X99281405Y-47664440D01*
X99281405Y-47664440D02*
X99329024Y-47616821D01*
X99329024Y-47616821D02*
X99376643Y-47521583D01*
X99376643Y-47521583D02*
X99376643Y-47426345D01*
X99376643Y-47426345D02*
X99329024Y-47331107D01*
X99329024Y-47331107D02*
X99281405Y-47283488D01*
X99281405Y-47283488D02*
X99186167Y-47235869D01*
X99186167Y-47235869D02*
X98948072Y-47235869D01*
X98948072Y-47235869D02*
X98805215Y-47283488D01*
X98424262Y-47950154D02*
X97948072Y-47950154D01*
X98519500Y-48235869D02*
X98186167Y-47235869D01*
X98186167Y-47235869D02*
X97852834Y-48235869D01*
X97519500Y-48235869D02*
X97519500Y-47235869D01*
X96567120Y-48235869D02*
X97043310Y-48235869D01*
X97043310Y-48235869D02*
X97043310Y-47235869D01*
X95757596Y-48235869D02*
X96233786Y-48235869D01*
X96233786Y-48235869D02*
X96233786Y-47235869D01*
X95471881Y-47950154D02*
X94995691Y-47950154D01*
X95567119Y-48235869D02*
X95233786Y-47235869D01*
X95233786Y-47235869D02*
X94900453Y-48235869D01*
X94567119Y-48235869D02*
X94567119Y-47235869D01*
X94567119Y-47235869D02*
X93995691Y-48235869D01*
X93995691Y-48235869D02*
X93995691Y-47235869D01*
X93662357Y-47235869D02*
X93090929Y-47235869D01*
X93376643Y-48235869D02*
X93376643Y-47235869D01*
X92043309Y-47331107D02*
X91995690Y-47283488D01*
X91995690Y-47283488D02*
X91900452Y-47235869D01*
X91900452Y-47235869D02*
X91662357Y-47235869D01*
X91662357Y-47235869D02*
X91567119Y-47283488D01*
X91567119Y-47283488D02*
X91519500Y-47331107D01*
X91519500Y-47331107D02*
X91471881Y-47426345D01*
X91471881Y-47426345D02*
X91471881Y-47521583D01*
X91471881Y-47521583D02*
X91519500Y-47664440D01*
X91519500Y-47664440D02*
X92090928Y-48235869D01*
X92090928Y-48235869D02*
X91471881Y-48235869D01*
X90852833Y-47235869D02*
X90757595Y-47235869D01*
X90757595Y-47235869D02*
X90662357Y-47283488D01*
X90662357Y-47283488D02*
X90614738Y-47331107D01*
X90614738Y-47331107D02*
X90567119Y-47426345D01*
X90567119Y-47426345D02*
X90519500Y-47616821D01*
X90519500Y-47616821D02*
X90519500Y-47854916D01*
X90519500Y-47854916D02*
X90567119Y-48045392D01*
X90567119Y-48045392D02*
X90614738Y-48140630D01*
X90614738Y-48140630D02*
X90662357Y-48188250D01*
X90662357Y-48188250D02*
X90757595Y-48235869D01*
X90757595Y-48235869D02*
X90852833Y-48235869D01*
X90852833Y-48235869D02*
X90948071Y-48188250D01*
X90948071Y-48188250D02*
X90995690Y-48140630D01*
X90995690Y-48140630D02*
X91043309Y-48045392D01*
X91043309Y-48045392D02*
X91090928Y-47854916D01*
X91090928Y-47854916D02*
X91090928Y-47616821D01*
X91090928Y-47616821D02*
X91043309Y-47426345D01*
X91043309Y-47426345D02*
X90995690Y-47331107D01*
X90995690Y-47331107D02*
X90948071Y-47283488D01*
X90948071Y-47283488D02*
X90852833Y-47235869D01*
X90138547Y-47331107D02*
X90090928Y-47283488D01*
X90090928Y-47283488D02*
X89995690Y-47235869D01*
X89995690Y-47235869D02*
X89757595Y-47235869D01*
X89757595Y-47235869D02*
X89662357Y-47283488D01*
X89662357Y-47283488D02*
X89614738Y-47331107D01*
X89614738Y-47331107D02*
X89567119Y-47426345D01*
X89567119Y-47426345D02*
X89567119Y-47521583D01*
X89567119Y-47521583D02*
X89614738Y-47664440D01*
X89614738Y-47664440D02*
X90186166Y-48235869D01*
X90186166Y-48235869D02*
X89567119Y-48235869D01*
X88662357Y-47235869D02*
X89138547Y-47235869D01*
X89138547Y-47235869D02*
X89186166Y-47712059D01*
X89186166Y-47712059D02*
X89138547Y-47664440D01*
X89138547Y-47664440D02*
X89043309Y-47616821D01*
X89043309Y-47616821D02*
X88805214Y-47616821D01*
X88805214Y-47616821D02*
X88709976Y-47664440D01*
X88709976Y-47664440D02*
X88662357Y-47712059D01*
X88662357Y-47712059D02*
X88614738Y-47807297D01*
X88614738Y-47807297D02*
X88614738Y-48045392D01*
X88614738Y-48045392D02*
X88662357Y-48140630D01*
X88662357Y-48140630D02*
X88709976Y-48188250D01*
X88709976Y-48188250D02*
X88805214Y-48235869D01*
X88805214Y-48235869D02*
X89043309Y-48235869D01*
X89043309Y-48235869D02*
X89138547Y-48188250D01*
X89138547Y-48188250D02*
X89186166Y-48140630D01*
D11*
X119350563Y-88081504D02*
X118874373Y-88081504D01*
X119445801Y-88367219D02*
X119112468Y-87367219D01*
X119112468Y-87367219D02*
X118779135Y-88367219D01*
X118255325Y-87367219D02*
X118064849Y-87367219D01*
X118064849Y-87367219D02*
X117969611Y-87414838D01*
X117969611Y-87414838D02*
X117874373Y-87510076D01*
X117874373Y-87510076D02*
X117826754Y-87700552D01*
X117826754Y-87700552D02*
X117826754Y-88033885D01*
X117826754Y-88033885D02*
X117874373Y-88224361D01*
X117874373Y-88224361D02*
X117969611Y-88319600D01*
X117969611Y-88319600D02*
X118064849Y-88367219D01*
X118064849Y-88367219D02*
X118255325Y-88367219D01*
X118255325Y-88367219D02*
X118350563Y-88319600D01*
X118350563Y-88319600D02*
X118445801Y-88224361D01*
X118445801Y-88224361D02*
X118493420Y-88033885D01*
X118493420Y-88033885D02*
X118493420Y-87700552D01*
X118493420Y-87700552D02*
X118445801Y-87510076D01*
X118445801Y-87510076D02*
X118350563Y-87414838D01*
X118350563Y-87414838D02*
X118255325Y-87367219D01*
D10*
X162389411Y-85167438D02*
X162484649Y-85119819D01*
X162484649Y-85119819D02*
X162627506Y-85119819D01*
X162627506Y-85119819D02*
X162770363Y-85167438D01*
X162770363Y-85167438D02*
X162865601Y-85262676D01*
X162865601Y-85262676D02*
X162913220Y-85357914D01*
X162913220Y-85357914D02*
X162960839Y-85548390D01*
X162960839Y-85548390D02*
X162960839Y-85691247D01*
X162960839Y-85691247D02*
X162913220Y-85881723D01*
X162913220Y-85881723D02*
X162865601Y-85976961D01*
X162865601Y-85976961D02*
X162770363Y-86072200D01*
X162770363Y-86072200D02*
X162627506Y-86119819D01*
X162627506Y-86119819D02*
X162532268Y-86119819D01*
X162532268Y-86119819D02*
X162389411Y-86072200D01*
X162389411Y-86072200D02*
X162341792Y-86024580D01*
X162341792Y-86024580D02*
X162341792Y-85691247D01*
X162341792Y-85691247D02*
X162532268Y-85691247D01*
X161913220Y-86119819D02*
X161913220Y-85119819D01*
X161913220Y-85119819D02*
X161341792Y-86119819D01*
X161341792Y-86119819D02*
X161341792Y-85119819D01*
X160865601Y-86119819D02*
X160865601Y-85119819D01*
X160865601Y-85119819D02*
X160627506Y-85119819D01*
X160627506Y-85119819D02*
X160484649Y-85167438D01*
X160484649Y-85167438D02*
X160389411Y-85262676D01*
X160389411Y-85262676D02*
X160341792Y-85357914D01*
X160341792Y-85357914D02*
X160294173Y-85548390D01*
X160294173Y-85548390D02*
X160294173Y-85691247D01*
X160294173Y-85691247D02*
X160341792Y-85881723D01*
X160341792Y-85881723D02*
X160389411Y-85976961D01*
X160389411Y-85976961D02*
X160484649Y-86072200D01*
X160484649Y-86072200D02*
X160627506Y-86119819D01*
X160627506Y-86119819D02*
X160865601Y-86119819D01*
D11*
X119350563Y-75581504D02*
X118874373Y-75581504D01*
X119445801Y-75867219D02*
X119112468Y-74867219D01*
X119112468Y-74867219D02*
X118779135Y-75867219D01*
X117921992Y-75867219D02*
X118493420Y-75867219D01*
X118207706Y-75867219D02*
X118207706Y-74867219D01*
X118207706Y-74867219D02*
X118302944Y-75010076D01*
X118302944Y-75010076D02*
X118398182Y-75105314D01*
X118398182Y-75105314D02*
X118493420Y-75152933D01*
X123796993Y-90593409D02*
X123654136Y-90641028D01*
X123654136Y-90641028D02*
X123606517Y-90688647D01*
X123606517Y-90688647D02*
X123558898Y-90783885D01*
X123558898Y-90783885D02*
X123558898Y-90926742D01*
X123558898Y-90926742D02*
X123606517Y-91021980D01*
X123606517Y-91021980D02*
X123654136Y-91069600D01*
X123654136Y-91069600D02*
X123749374Y-91117219D01*
X123749374Y-91117219D02*
X124130326Y-91117219D01*
X124130326Y-91117219D02*
X124130326Y-90117219D01*
X124130326Y-90117219D02*
X123796993Y-90117219D01*
X123796993Y-90117219D02*
X123701755Y-90164838D01*
X123701755Y-90164838D02*
X123654136Y-90212457D01*
X123654136Y-90212457D02*
X123606517Y-90307695D01*
X123606517Y-90307695D02*
X123606517Y-90402933D01*
X123606517Y-90402933D02*
X123654136Y-90498171D01*
X123654136Y-90498171D02*
X123701755Y-90545790D01*
X123701755Y-90545790D02*
X123796993Y-90593409D01*
X123796993Y-90593409D02*
X124130326Y-90593409D01*
X123177945Y-90831504D02*
X122701755Y-90831504D01*
X123273183Y-91117219D02*
X122939850Y-90117219D01*
X122939850Y-90117219D02*
X122606517Y-91117219D01*
X122416040Y-90117219D02*
X121844612Y-90117219D01*
X122130326Y-91117219D02*
X122130326Y-90117219D01*
X121654135Y-90117219D02*
X121082707Y-90117219D01*
X121368421Y-91117219D02*
X121368421Y-90117219D01*
X120035087Y-90212457D02*
X119987468Y-90164838D01*
X119987468Y-90164838D02*
X119892230Y-90117219D01*
X119892230Y-90117219D02*
X119654135Y-90117219D01*
X119654135Y-90117219D02*
X119558897Y-90164838D01*
X119558897Y-90164838D02*
X119511278Y-90212457D01*
X119511278Y-90212457D02*
X119463659Y-90307695D01*
X119463659Y-90307695D02*
X119463659Y-90402933D01*
X119463659Y-90402933D02*
X119511278Y-90545790D01*
X119511278Y-90545790D02*
X120082706Y-91117219D01*
X120082706Y-91117219D02*
X119463659Y-91117219D01*
D10*
X123264411Y-85167438D02*
X123359649Y-85119819D01*
X123359649Y-85119819D02*
X123502506Y-85119819D01*
X123502506Y-85119819D02*
X123645363Y-85167438D01*
X123645363Y-85167438D02*
X123740601Y-85262676D01*
X123740601Y-85262676D02*
X123788220Y-85357914D01*
X123788220Y-85357914D02*
X123835839Y-85548390D01*
X123835839Y-85548390D02*
X123835839Y-85691247D01*
X123835839Y-85691247D02*
X123788220Y-85881723D01*
X123788220Y-85881723D02*
X123740601Y-85976961D01*
X123740601Y-85976961D02*
X123645363Y-86072200D01*
X123645363Y-86072200D02*
X123502506Y-86119819D01*
X123502506Y-86119819D02*
X123407268Y-86119819D01*
X123407268Y-86119819D02*
X123264411Y-86072200D01*
X123264411Y-86072200D02*
X123216792Y-86024580D01*
X123216792Y-86024580D02*
X123216792Y-85691247D01*
X123216792Y-85691247D02*
X123407268Y-85691247D01*
X122788220Y-86119819D02*
X122788220Y-85119819D01*
X122788220Y-85119819D02*
X122216792Y-86119819D01*
X122216792Y-86119819D02*
X122216792Y-85119819D01*
X121740601Y-86119819D02*
X121740601Y-85119819D01*
X121740601Y-85119819D02*
X121502506Y-85119819D01*
X121502506Y-85119819D02*
X121359649Y-85167438D01*
X121359649Y-85167438D02*
X121264411Y-85262676D01*
X121264411Y-85262676D02*
X121216792Y-85357914D01*
X121216792Y-85357914D02*
X121169173Y-85548390D01*
X121169173Y-85548390D02*
X121169173Y-85691247D01*
X121169173Y-85691247D02*
X121216792Y-85881723D01*
X121216792Y-85881723D02*
X121264411Y-85976961D01*
X121264411Y-85976961D02*
X121359649Y-86072200D01*
X121359649Y-86072200D02*
X121502506Y-86119819D01*
X121502506Y-86119819D02*
X121740601Y-86119819D01*
X116181077Y-85119819D02*
X115847744Y-86119819D01*
X115847744Y-86119819D02*
X115514411Y-85119819D01*
X114609649Y-86024580D02*
X114657268Y-86072200D01*
X114657268Y-86072200D02*
X114800125Y-86119819D01*
X114800125Y-86119819D02*
X114895363Y-86119819D01*
X114895363Y-86119819D02*
X115038220Y-86072200D01*
X115038220Y-86072200D02*
X115133458Y-85976961D01*
X115133458Y-85976961D02*
X115181077Y-85881723D01*
X115181077Y-85881723D02*
X115228696Y-85691247D01*
X115228696Y-85691247D02*
X115228696Y-85548390D01*
X115228696Y-85548390D02*
X115181077Y-85357914D01*
X115181077Y-85357914D02*
X115133458Y-85262676D01*
X115133458Y-85262676D02*
X115038220Y-85167438D01*
X115038220Y-85167438D02*
X114895363Y-85119819D01*
X114895363Y-85119819D02*
X114800125Y-85119819D01*
X114800125Y-85119819D02*
X114657268Y-85167438D01*
X114657268Y-85167438D02*
X114609649Y-85215057D01*
X113609649Y-86024580D02*
X113657268Y-86072200D01*
X113657268Y-86072200D02*
X113800125Y-86119819D01*
X113800125Y-86119819D02*
X113895363Y-86119819D01*
X113895363Y-86119819D02*
X114038220Y-86072200D01*
X114038220Y-86072200D02*
X114133458Y-85976961D01*
X114133458Y-85976961D02*
X114181077Y-85881723D01*
X114181077Y-85881723D02*
X114228696Y-85691247D01*
X114228696Y-85691247D02*
X114228696Y-85548390D01*
X114228696Y-85548390D02*
X114181077Y-85357914D01*
X114181077Y-85357914D02*
X114133458Y-85262676D01*
X114133458Y-85262676D02*
X114038220Y-85167438D01*
X114038220Y-85167438D02*
X113895363Y-85119819D01*
X113895363Y-85119819D02*
X113800125Y-85119819D01*
X113800125Y-85119819D02*
X113657268Y-85167438D01*
X113657268Y-85167438D02*
X113609649Y-85215057D01*
X84264411Y-77167438D02*
X84359649Y-77119819D01*
X84359649Y-77119819D02*
X84502506Y-77119819D01*
X84502506Y-77119819D02*
X84645363Y-77167438D01*
X84645363Y-77167438D02*
X84740601Y-77262676D01*
X84740601Y-77262676D02*
X84788220Y-77357914D01*
X84788220Y-77357914D02*
X84835839Y-77548390D01*
X84835839Y-77548390D02*
X84835839Y-77691247D01*
X84835839Y-77691247D02*
X84788220Y-77881723D01*
X84788220Y-77881723D02*
X84740601Y-77976961D01*
X84740601Y-77976961D02*
X84645363Y-78072200D01*
X84645363Y-78072200D02*
X84502506Y-78119819D01*
X84502506Y-78119819D02*
X84407268Y-78119819D01*
X84407268Y-78119819D02*
X84264411Y-78072200D01*
X84264411Y-78072200D02*
X84216792Y-78024580D01*
X84216792Y-78024580D02*
X84216792Y-77691247D01*
X84216792Y-77691247D02*
X84407268Y-77691247D01*
X83788220Y-78119819D02*
X83788220Y-77119819D01*
X83788220Y-77119819D02*
X83216792Y-78119819D01*
X83216792Y-78119819D02*
X83216792Y-77119819D01*
X82740601Y-78119819D02*
X82740601Y-77119819D01*
X82740601Y-77119819D02*
X82502506Y-77119819D01*
X82502506Y-77119819D02*
X82359649Y-77167438D01*
X82359649Y-77167438D02*
X82264411Y-77262676D01*
X82264411Y-77262676D02*
X82216792Y-77357914D01*
X82216792Y-77357914D02*
X82169173Y-77548390D01*
X82169173Y-77548390D02*
X82169173Y-77691247D01*
X82169173Y-77691247D02*
X82216792Y-77881723D01*
X82216792Y-77881723D02*
X82264411Y-77976961D01*
X82264411Y-77976961D02*
X82359649Y-78072200D01*
X82359649Y-78072200D02*
X82502506Y-78119819D01*
X82502506Y-78119819D02*
X82740601Y-78119819D01*
X84835839Y-81822200D02*
X84692982Y-81869819D01*
X84692982Y-81869819D02*
X84454887Y-81869819D01*
X84454887Y-81869819D02*
X84359649Y-81822200D01*
X84359649Y-81822200D02*
X84312030Y-81774580D01*
X84312030Y-81774580D02*
X84264411Y-81679342D01*
X84264411Y-81679342D02*
X84264411Y-81584104D01*
X84264411Y-81584104D02*
X84312030Y-81488866D01*
X84312030Y-81488866D02*
X84359649Y-81441247D01*
X84359649Y-81441247D02*
X84454887Y-81393628D01*
X84454887Y-81393628D02*
X84645363Y-81346009D01*
X84645363Y-81346009D02*
X84740601Y-81298390D01*
X84740601Y-81298390D02*
X84788220Y-81250771D01*
X84788220Y-81250771D02*
X84835839Y-81155533D01*
X84835839Y-81155533D02*
X84835839Y-81060295D01*
X84835839Y-81060295D02*
X84788220Y-80965057D01*
X84788220Y-80965057D02*
X84740601Y-80917438D01*
X84740601Y-80917438D02*
X84645363Y-80869819D01*
X84645363Y-80869819D02*
X84407268Y-80869819D01*
X84407268Y-80869819D02*
X84264411Y-80917438D01*
X83264411Y-81774580D02*
X83312030Y-81822200D01*
X83312030Y-81822200D02*
X83454887Y-81869819D01*
X83454887Y-81869819D02*
X83550125Y-81869819D01*
X83550125Y-81869819D02*
X83692982Y-81822200D01*
X83692982Y-81822200D02*
X83788220Y-81726961D01*
X83788220Y-81726961D02*
X83835839Y-81631723D01*
X83835839Y-81631723D02*
X83883458Y-81441247D01*
X83883458Y-81441247D02*
X83883458Y-81298390D01*
X83883458Y-81298390D02*
X83835839Y-81107914D01*
X83835839Y-81107914D02*
X83788220Y-81012676D01*
X83788220Y-81012676D02*
X83692982Y-80917438D01*
X83692982Y-80917438D02*
X83550125Y-80869819D01*
X83550125Y-80869819D02*
X83454887Y-80869819D01*
X83454887Y-80869819D02*
X83312030Y-80917438D01*
X83312030Y-80917438D02*
X83264411Y-80965057D01*
X82359649Y-81869819D02*
X82835839Y-81869819D01*
X82835839Y-81869819D02*
X82835839Y-80869819D01*
X123835839Y-81822200D02*
X123692982Y-81869819D01*
X123692982Y-81869819D02*
X123454887Y-81869819D01*
X123454887Y-81869819D02*
X123359649Y-81822200D01*
X123359649Y-81822200D02*
X123312030Y-81774580D01*
X123312030Y-81774580D02*
X123264411Y-81679342D01*
X123264411Y-81679342D02*
X123264411Y-81584104D01*
X123264411Y-81584104D02*
X123312030Y-81488866D01*
X123312030Y-81488866D02*
X123359649Y-81441247D01*
X123359649Y-81441247D02*
X123454887Y-81393628D01*
X123454887Y-81393628D02*
X123645363Y-81346009D01*
X123645363Y-81346009D02*
X123740601Y-81298390D01*
X123740601Y-81298390D02*
X123788220Y-81250771D01*
X123788220Y-81250771D02*
X123835839Y-81155533D01*
X123835839Y-81155533D02*
X123835839Y-81060295D01*
X123835839Y-81060295D02*
X123788220Y-80965057D01*
X123788220Y-80965057D02*
X123740601Y-80917438D01*
X123740601Y-80917438D02*
X123645363Y-80869819D01*
X123645363Y-80869819D02*
X123407268Y-80869819D01*
X123407268Y-80869819D02*
X123264411Y-80917438D01*
X122264411Y-81774580D02*
X122312030Y-81822200D01*
X122312030Y-81822200D02*
X122454887Y-81869819D01*
X122454887Y-81869819D02*
X122550125Y-81869819D01*
X122550125Y-81869819D02*
X122692982Y-81822200D01*
X122692982Y-81822200D02*
X122788220Y-81726961D01*
X122788220Y-81726961D02*
X122835839Y-81631723D01*
X122835839Y-81631723D02*
X122883458Y-81441247D01*
X122883458Y-81441247D02*
X122883458Y-81298390D01*
X122883458Y-81298390D02*
X122835839Y-81107914D01*
X122835839Y-81107914D02*
X122788220Y-81012676D01*
X122788220Y-81012676D02*
X122692982Y-80917438D01*
X122692982Y-80917438D02*
X122550125Y-80869819D01*
X122550125Y-80869819D02*
X122454887Y-80869819D01*
X122454887Y-80869819D02*
X122312030Y-80917438D01*
X122312030Y-80917438D02*
X122264411Y-80965057D01*
X121359649Y-81869819D02*
X121835839Y-81869819D01*
X121835839Y-81869819D02*
X121835839Y-80869819D01*
D13*
X137959334Y-31624857D02*
X137483144Y-31624857D01*
X138054572Y-32053428D02*
X137721239Y-30553428D01*
X137721239Y-30553428D02*
X137387906Y-32053428D01*
X136530763Y-32053428D02*
X137102191Y-32053428D01*
X136816477Y-32053428D02*
X136816477Y-30553428D01*
X136816477Y-30553428D02*
X136911715Y-30767714D01*
X136911715Y-30767714D02*
X137006953Y-30910571D01*
X137006953Y-30910571D02*
X137102191Y-30982000D01*
X145840288Y-36364619D02*
X145506955Y-37364619D01*
X145506955Y-37364619D02*
X145173622Y-36364619D01*
X144268860Y-37269380D02*
X144316479Y-37317000D01*
X144316479Y-37317000D02*
X144459336Y-37364619D01*
X144459336Y-37364619D02*
X144554574Y-37364619D01*
X144554574Y-37364619D02*
X144697431Y-37317000D01*
X144697431Y-37317000D02*
X144792669Y-37221761D01*
X144792669Y-37221761D02*
X144840288Y-37126523D01*
X144840288Y-37126523D02*
X144887907Y-36936047D01*
X144887907Y-36936047D02*
X144887907Y-36793190D01*
X144887907Y-36793190D02*
X144840288Y-36602714D01*
X144840288Y-36602714D02*
X144792669Y-36507476D01*
X144792669Y-36507476D02*
X144697431Y-36412238D01*
X144697431Y-36412238D02*
X144554574Y-36364619D01*
X144554574Y-36364619D02*
X144459336Y-36364619D01*
X144459336Y-36364619D02*
X144316479Y-36412238D01*
X144316479Y-36412238D02*
X144268860Y-36459857D01*
X143268860Y-37269380D02*
X143316479Y-37317000D01*
X143316479Y-37317000D02*
X143459336Y-37364619D01*
X143459336Y-37364619D02*
X143554574Y-37364619D01*
X143554574Y-37364619D02*
X143697431Y-37317000D01*
X143697431Y-37317000D02*
X143792669Y-37221761D01*
X143792669Y-37221761D02*
X143840288Y-37126523D01*
X143840288Y-37126523D02*
X143887907Y-36936047D01*
X143887907Y-36936047D02*
X143887907Y-36793190D01*
X143887907Y-36793190D02*
X143840288Y-36602714D01*
X143840288Y-36602714D02*
X143792669Y-36507476D01*
X143792669Y-36507476D02*
X143697431Y-36412238D01*
X143697431Y-36412238D02*
X143554574Y-36364619D01*
X143554574Y-36364619D02*
X143459336Y-36364619D01*
X143459336Y-36364619D02*
X143316479Y-36412238D01*
X143316479Y-36412238D02*
X143268860Y-36459857D01*
X141364098Y-36317000D02*
X142221240Y-37602714D01*
X139745050Y-36412238D02*
X139840288Y-36364619D01*
X139840288Y-36364619D02*
X139983145Y-36364619D01*
X139983145Y-36364619D02*
X140126002Y-36412238D01*
X140126002Y-36412238D02*
X140221240Y-36507476D01*
X140221240Y-36507476D02*
X140268859Y-36602714D01*
X140268859Y-36602714D02*
X140316478Y-36793190D01*
X140316478Y-36793190D02*
X140316478Y-36936047D01*
X140316478Y-36936047D02*
X140268859Y-37126523D01*
X140268859Y-37126523D02*
X140221240Y-37221761D01*
X140221240Y-37221761D02*
X140126002Y-37317000D01*
X140126002Y-37317000D02*
X139983145Y-37364619D01*
X139983145Y-37364619D02*
X139887907Y-37364619D01*
X139887907Y-37364619D02*
X139745050Y-37317000D01*
X139745050Y-37317000D02*
X139697431Y-37269380D01*
X139697431Y-37269380D02*
X139697431Y-36936047D01*
X139697431Y-36936047D02*
X139887907Y-36936047D01*
X139268859Y-37364619D02*
X139268859Y-36364619D01*
X139268859Y-36364619D02*
X138697431Y-37364619D01*
X138697431Y-37364619D02*
X138697431Y-36364619D01*
X138221240Y-37364619D02*
X138221240Y-36364619D01*
X138221240Y-36364619D02*
X137983145Y-36364619D01*
X137983145Y-36364619D02*
X137840288Y-36412238D01*
X137840288Y-36412238D02*
X137745050Y-36507476D01*
X137745050Y-36507476D02*
X137697431Y-36602714D01*
X137697431Y-36602714D02*
X137649812Y-36793190D01*
X137649812Y-36793190D02*
X137649812Y-36936047D01*
X137649812Y-36936047D02*
X137697431Y-37126523D01*
X137697431Y-37126523D02*
X137745050Y-37221761D01*
X137745050Y-37221761D02*
X137840288Y-37317000D01*
X137840288Y-37317000D02*
X137983145Y-37364619D01*
X137983145Y-37364619D02*
X138221240Y-37364619D01*
D10*
X84264411Y-85167438D02*
X84359649Y-85119819D01*
X84359649Y-85119819D02*
X84502506Y-85119819D01*
X84502506Y-85119819D02*
X84645363Y-85167438D01*
X84645363Y-85167438D02*
X84740601Y-85262676D01*
X84740601Y-85262676D02*
X84788220Y-85357914D01*
X84788220Y-85357914D02*
X84835839Y-85548390D01*
X84835839Y-85548390D02*
X84835839Y-85691247D01*
X84835839Y-85691247D02*
X84788220Y-85881723D01*
X84788220Y-85881723D02*
X84740601Y-85976961D01*
X84740601Y-85976961D02*
X84645363Y-86072200D01*
X84645363Y-86072200D02*
X84502506Y-86119819D01*
X84502506Y-86119819D02*
X84407268Y-86119819D01*
X84407268Y-86119819D02*
X84264411Y-86072200D01*
X84264411Y-86072200D02*
X84216792Y-86024580D01*
X84216792Y-86024580D02*
X84216792Y-85691247D01*
X84216792Y-85691247D02*
X84407268Y-85691247D01*
X83788220Y-86119819D02*
X83788220Y-85119819D01*
X83788220Y-85119819D02*
X83216792Y-86119819D01*
X83216792Y-86119819D02*
X83216792Y-85119819D01*
X82740601Y-86119819D02*
X82740601Y-85119819D01*
X82740601Y-85119819D02*
X82502506Y-85119819D01*
X82502506Y-85119819D02*
X82359649Y-85167438D01*
X82359649Y-85167438D02*
X82264411Y-85262676D01*
X82264411Y-85262676D02*
X82216792Y-85357914D01*
X82216792Y-85357914D02*
X82169173Y-85548390D01*
X82169173Y-85548390D02*
X82169173Y-85691247D01*
X82169173Y-85691247D02*
X82216792Y-85881723D01*
X82216792Y-85881723D02*
X82264411Y-85976961D01*
X82264411Y-85976961D02*
X82359649Y-86072200D01*
X82359649Y-86072200D02*
X82502506Y-86119819D01*
X82502506Y-86119819D02*
X82740601Y-86119819D01*
D13*
X137959334Y-34624857D02*
X137483144Y-34624857D01*
X138054572Y-35053428D02*
X137721239Y-33553428D01*
X137721239Y-33553428D02*
X137387906Y-35053428D01*
X137102191Y-33696285D02*
X137054572Y-33624857D01*
X137054572Y-33624857D02*
X136959334Y-33553428D01*
X136959334Y-33553428D02*
X136721239Y-33553428D01*
X136721239Y-33553428D02*
X136626001Y-33624857D01*
X136626001Y-33624857D02*
X136578382Y-33696285D01*
X136578382Y-33696285D02*
X136530763Y-33839142D01*
X136530763Y-33839142D02*
X136530763Y-33982000D01*
X136530763Y-33982000D02*
X136578382Y-34196285D01*
X136578382Y-34196285D02*
X137149810Y-35053428D01*
X137149810Y-35053428D02*
X136530763Y-35053428D01*
D10*
X76931077Y-77119819D02*
X76597744Y-78119819D01*
X76597744Y-78119819D02*
X76264411Y-77119819D01*
X75359649Y-78024580D02*
X75407268Y-78072200D01*
X75407268Y-78072200D02*
X75550125Y-78119819D01*
X75550125Y-78119819D02*
X75645363Y-78119819D01*
X75645363Y-78119819D02*
X75788220Y-78072200D01*
X75788220Y-78072200D02*
X75883458Y-77976961D01*
X75883458Y-77976961D02*
X75931077Y-77881723D01*
X75931077Y-77881723D02*
X75978696Y-77691247D01*
X75978696Y-77691247D02*
X75978696Y-77548390D01*
X75978696Y-77548390D02*
X75931077Y-77357914D01*
X75931077Y-77357914D02*
X75883458Y-77262676D01*
X75883458Y-77262676D02*
X75788220Y-77167438D01*
X75788220Y-77167438D02*
X75645363Y-77119819D01*
X75645363Y-77119819D02*
X75550125Y-77119819D01*
X75550125Y-77119819D02*
X75407268Y-77167438D01*
X75407268Y-77167438D02*
X75359649Y-77215057D01*
X74359649Y-78024580D02*
X74407268Y-78072200D01*
X74407268Y-78072200D02*
X74550125Y-78119819D01*
X74550125Y-78119819D02*
X74645363Y-78119819D01*
X74645363Y-78119819D02*
X74788220Y-78072200D01*
X74788220Y-78072200D02*
X74883458Y-77976961D01*
X74883458Y-77976961D02*
X74931077Y-77881723D01*
X74931077Y-77881723D02*
X74978696Y-77691247D01*
X74978696Y-77691247D02*
X74978696Y-77548390D01*
X74978696Y-77548390D02*
X74931077Y-77357914D01*
X74931077Y-77357914D02*
X74883458Y-77262676D01*
X74883458Y-77262676D02*
X74788220Y-77167438D01*
X74788220Y-77167438D02*
X74645363Y-77119819D01*
X74645363Y-77119819D02*
X74550125Y-77119819D01*
X74550125Y-77119819D02*
X74407268Y-77167438D01*
X74407268Y-77167438D02*
X74359649Y-77215057D01*
D11*
X163046993Y-90593409D02*
X162904136Y-90641028D01*
X162904136Y-90641028D02*
X162856517Y-90688647D01*
X162856517Y-90688647D02*
X162808898Y-90783885D01*
X162808898Y-90783885D02*
X162808898Y-90926742D01*
X162808898Y-90926742D02*
X162856517Y-91021980D01*
X162856517Y-91021980D02*
X162904136Y-91069600D01*
X162904136Y-91069600D02*
X162999374Y-91117219D01*
X162999374Y-91117219D02*
X163380326Y-91117219D01*
X163380326Y-91117219D02*
X163380326Y-90117219D01*
X163380326Y-90117219D02*
X163046993Y-90117219D01*
X163046993Y-90117219D02*
X162951755Y-90164838D01*
X162951755Y-90164838D02*
X162904136Y-90212457D01*
X162904136Y-90212457D02*
X162856517Y-90307695D01*
X162856517Y-90307695D02*
X162856517Y-90402933D01*
X162856517Y-90402933D02*
X162904136Y-90498171D01*
X162904136Y-90498171D02*
X162951755Y-90545790D01*
X162951755Y-90545790D02*
X163046993Y-90593409D01*
X163046993Y-90593409D02*
X163380326Y-90593409D01*
X162427945Y-90831504D02*
X161951755Y-90831504D01*
X162523183Y-91117219D02*
X162189850Y-90117219D01*
X162189850Y-90117219D02*
X161856517Y-91117219D01*
X161666040Y-90117219D02*
X161094612Y-90117219D01*
X161380326Y-91117219D02*
X161380326Y-90117219D01*
X160904135Y-90117219D02*
X160332707Y-90117219D01*
X160618421Y-91117219D02*
X160618421Y-90117219D01*
X159332706Y-90117219D02*
X158713659Y-90117219D01*
X158713659Y-90117219D02*
X159046992Y-90498171D01*
X159046992Y-90498171D02*
X158904135Y-90498171D01*
X158904135Y-90498171D02*
X158808897Y-90545790D01*
X158808897Y-90545790D02*
X158761278Y-90593409D01*
X158761278Y-90593409D02*
X158713659Y-90688647D01*
X158713659Y-90688647D02*
X158713659Y-90926742D01*
X158713659Y-90926742D02*
X158761278Y-91021980D01*
X158761278Y-91021980D02*
X158808897Y-91069600D01*
X158808897Y-91069600D02*
X158904135Y-91117219D01*
X158904135Y-91117219D02*
X159189849Y-91117219D01*
X159189849Y-91117219D02*
X159285087Y-91069600D01*
X159285087Y-91069600D02*
X159332706Y-91021980D01*
D13*
X137959334Y-28624857D02*
X137483144Y-28624857D01*
X138054572Y-29053428D02*
X137721239Y-27553428D01*
X137721239Y-27553428D02*
X137387906Y-29053428D01*
X136864096Y-27553428D02*
X136768858Y-27553428D01*
X136768858Y-27553428D02*
X136673620Y-27624857D01*
X136673620Y-27624857D02*
X136626001Y-27696285D01*
X136626001Y-27696285D02*
X136578382Y-27839142D01*
X136578382Y-27839142D02*
X136530763Y-28124857D01*
X136530763Y-28124857D02*
X136530763Y-28482000D01*
X136530763Y-28482000D02*
X136578382Y-28767714D01*
X136578382Y-28767714D02*
X136626001Y-28910571D01*
X136626001Y-28910571D02*
X136673620Y-28982000D01*
X136673620Y-28982000D02*
X136768858Y-29053428D01*
X136768858Y-29053428D02*
X136864096Y-29053428D01*
X136864096Y-29053428D02*
X136959334Y-28982000D01*
X136959334Y-28982000D02*
X137006953Y-28910571D01*
X137006953Y-28910571D02*
X137054572Y-28767714D01*
X137054572Y-28767714D02*
X137102191Y-28482000D01*
X137102191Y-28482000D02*
X137102191Y-28124857D01*
X137102191Y-28124857D02*
X137054572Y-27839142D01*
X137054572Y-27839142D02*
X137006953Y-27696285D01*
X137006953Y-27696285D02*
X136959334Y-27624857D01*
X136959334Y-27624857D02*
X136864096Y-27553428D01*
D10*
X76835839Y-81822200D02*
X76692982Y-81869819D01*
X76692982Y-81869819D02*
X76454887Y-81869819D01*
X76454887Y-81869819D02*
X76359649Y-81822200D01*
X76359649Y-81822200D02*
X76312030Y-81774580D01*
X76312030Y-81774580D02*
X76264411Y-81679342D01*
X76264411Y-81679342D02*
X76264411Y-81584104D01*
X76264411Y-81584104D02*
X76312030Y-81488866D01*
X76312030Y-81488866D02*
X76359649Y-81441247D01*
X76359649Y-81441247D02*
X76454887Y-81393628D01*
X76454887Y-81393628D02*
X76645363Y-81346009D01*
X76645363Y-81346009D02*
X76740601Y-81298390D01*
X76740601Y-81298390D02*
X76788220Y-81250771D01*
X76788220Y-81250771D02*
X76835839Y-81155533D01*
X76835839Y-81155533D02*
X76835839Y-81060295D01*
X76835839Y-81060295D02*
X76788220Y-80965057D01*
X76788220Y-80965057D02*
X76740601Y-80917438D01*
X76740601Y-80917438D02*
X76645363Y-80869819D01*
X76645363Y-80869819D02*
X76407268Y-80869819D01*
X76407268Y-80869819D02*
X76264411Y-80917438D01*
X75835839Y-81869819D02*
X75835839Y-80869819D01*
X75835839Y-80869819D02*
X75597744Y-80869819D01*
X75597744Y-80869819D02*
X75454887Y-80917438D01*
X75454887Y-80917438D02*
X75359649Y-81012676D01*
X75359649Y-81012676D02*
X75312030Y-81107914D01*
X75312030Y-81107914D02*
X75264411Y-81298390D01*
X75264411Y-81298390D02*
X75264411Y-81441247D01*
X75264411Y-81441247D02*
X75312030Y-81631723D01*
X75312030Y-81631723D02*
X75359649Y-81726961D01*
X75359649Y-81726961D02*
X75454887Y-81822200D01*
X75454887Y-81822200D02*
X75597744Y-81869819D01*
X75597744Y-81869819D02*
X75835839Y-81869819D01*
X74883458Y-81584104D02*
X74407268Y-81584104D01*
X74978696Y-81869819D02*
X74645363Y-80869819D01*
X74645363Y-80869819D02*
X74312030Y-81869819D01*
D11*
X80350563Y-75581504D02*
X79874373Y-75581504D01*
X80445801Y-75867219D02*
X80112468Y-74867219D01*
X80112468Y-74867219D02*
X79779135Y-75867219D01*
X78921992Y-75867219D02*
X79493420Y-75867219D01*
X79207706Y-75867219D02*
X79207706Y-74867219D01*
X79207706Y-74867219D02*
X79302944Y-75010076D01*
X79302944Y-75010076D02*
X79398182Y-75105314D01*
X79398182Y-75105314D02*
X79493420Y-75152933D01*
X184350563Y-73081504D02*
X183874373Y-73081504D01*
X184445801Y-73367219D02*
X184112468Y-72367219D01*
X184112468Y-72367219D02*
X183779135Y-73367219D01*
X183255325Y-72367219D02*
X183064849Y-72367219D01*
X183064849Y-72367219D02*
X182969611Y-72414838D01*
X182969611Y-72414838D02*
X182874373Y-72510076D01*
X182874373Y-72510076D02*
X182826754Y-72700552D01*
X182826754Y-72700552D02*
X182826754Y-73033885D01*
X182826754Y-73033885D02*
X182874373Y-73224361D01*
X182874373Y-73224361D02*
X182969611Y-73319600D01*
X182969611Y-73319600D02*
X183064849Y-73367219D01*
X183064849Y-73367219D02*
X183255325Y-73367219D01*
X183255325Y-73367219D02*
X183350563Y-73319600D01*
X183350563Y-73319600D02*
X183445801Y-73224361D01*
X183445801Y-73224361D02*
X183493420Y-73033885D01*
X183493420Y-73033885D02*
X183493420Y-72700552D01*
X183493420Y-72700552D02*
X183445801Y-72510076D01*
X183445801Y-72510076D02*
X183350563Y-72414838D01*
X183350563Y-72414838D02*
X183255325Y-72367219D01*
X84546993Y-90593409D02*
X84404136Y-90641028D01*
X84404136Y-90641028D02*
X84356517Y-90688647D01*
X84356517Y-90688647D02*
X84308898Y-90783885D01*
X84308898Y-90783885D02*
X84308898Y-90926742D01*
X84308898Y-90926742D02*
X84356517Y-91021980D01*
X84356517Y-91021980D02*
X84404136Y-91069600D01*
X84404136Y-91069600D02*
X84499374Y-91117219D01*
X84499374Y-91117219D02*
X84880326Y-91117219D01*
X84880326Y-91117219D02*
X84880326Y-90117219D01*
X84880326Y-90117219D02*
X84546993Y-90117219D01*
X84546993Y-90117219D02*
X84451755Y-90164838D01*
X84451755Y-90164838D02*
X84404136Y-90212457D01*
X84404136Y-90212457D02*
X84356517Y-90307695D01*
X84356517Y-90307695D02*
X84356517Y-90402933D01*
X84356517Y-90402933D02*
X84404136Y-90498171D01*
X84404136Y-90498171D02*
X84451755Y-90545790D01*
X84451755Y-90545790D02*
X84546993Y-90593409D01*
X84546993Y-90593409D02*
X84880326Y-90593409D01*
X83927945Y-90831504D02*
X83451755Y-90831504D01*
X84023183Y-91117219D02*
X83689850Y-90117219D01*
X83689850Y-90117219D02*
X83356517Y-91117219D01*
X83166040Y-90117219D02*
X82594612Y-90117219D01*
X82880326Y-91117219D02*
X82880326Y-90117219D01*
X82404135Y-90117219D02*
X81832707Y-90117219D01*
X82118421Y-91117219D02*
X82118421Y-90117219D01*
X80213659Y-91117219D02*
X80785087Y-91117219D01*
X80499373Y-91117219D02*
X80499373Y-90117219D01*
X80499373Y-90117219D02*
X80594611Y-90260076D01*
X80594611Y-90260076D02*
X80689849Y-90355314D01*
X80689849Y-90355314D02*
X80785087Y-90402933D01*
X158475563Y-88081504D02*
X157999373Y-88081504D01*
X158570801Y-88367219D02*
X158237468Y-87367219D01*
X158237468Y-87367219D02*
X157904135Y-88367219D01*
X157380325Y-87367219D02*
X157189849Y-87367219D01*
X157189849Y-87367219D02*
X157094611Y-87414838D01*
X157094611Y-87414838D02*
X156999373Y-87510076D01*
X156999373Y-87510076D02*
X156951754Y-87700552D01*
X156951754Y-87700552D02*
X156951754Y-88033885D01*
X156951754Y-88033885D02*
X156999373Y-88224361D01*
X156999373Y-88224361D02*
X157094611Y-88319600D01*
X157094611Y-88319600D02*
X157189849Y-88367219D01*
X157189849Y-88367219D02*
X157380325Y-88367219D01*
X157380325Y-88367219D02*
X157475563Y-88319600D01*
X157475563Y-88319600D02*
X157570801Y-88224361D01*
X157570801Y-88224361D02*
X157618420Y-88033885D01*
X157618420Y-88033885D02*
X157618420Y-87700552D01*
X157618420Y-87700552D02*
X157570801Y-87510076D01*
X157570801Y-87510076D02*
X157475563Y-87414838D01*
X157475563Y-87414838D02*
X157380325Y-87367219D01*
D10*
X155306077Y-85119819D02*
X154972744Y-86119819D01*
X154972744Y-86119819D02*
X154639411Y-85119819D01*
X153734649Y-86024580D02*
X153782268Y-86072200D01*
X153782268Y-86072200D02*
X153925125Y-86119819D01*
X153925125Y-86119819D02*
X154020363Y-86119819D01*
X154020363Y-86119819D02*
X154163220Y-86072200D01*
X154163220Y-86072200D02*
X154258458Y-85976961D01*
X154258458Y-85976961D02*
X154306077Y-85881723D01*
X154306077Y-85881723D02*
X154353696Y-85691247D01*
X154353696Y-85691247D02*
X154353696Y-85548390D01*
X154353696Y-85548390D02*
X154306077Y-85357914D01*
X154306077Y-85357914D02*
X154258458Y-85262676D01*
X154258458Y-85262676D02*
X154163220Y-85167438D01*
X154163220Y-85167438D02*
X154020363Y-85119819D01*
X154020363Y-85119819D02*
X153925125Y-85119819D01*
X153925125Y-85119819D02*
X153782268Y-85167438D01*
X153782268Y-85167438D02*
X153734649Y-85215057D01*
X152734649Y-86024580D02*
X152782268Y-86072200D01*
X152782268Y-86072200D02*
X152925125Y-86119819D01*
X152925125Y-86119819D02*
X153020363Y-86119819D01*
X153020363Y-86119819D02*
X153163220Y-86072200D01*
X153163220Y-86072200D02*
X153258458Y-85976961D01*
X153258458Y-85976961D02*
X153306077Y-85881723D01*
X153306077Y-85881723D02*
X153353696Y-85691247D01*
X153353696Y-85691247D02*
X153353696Y-85548390D01*
X153353696Y-85548390D02*
X153306077Y-85357914D01*
X153306077Y-85357914D02*
X153258458Y-85262676D01*
X153258458Y-85262676D02*
X153163220Y-85167438D01*
X153163220Y-85167438D02*
X153020363Y-85119819D01*
X153020363Y-85119819D02*
X152925125Y-85119819D01*
X152925125Y-85119819D02*
X152782268Y-85167438D01*
X152782268Y-85167438D02*
X152734649Y-85215057D01*
X115931077Y-77119819D02*
X115597744Y-78119819D01*
X115597744Y-78119819D02*
X115264411Y-77119819D01*
X114359649Y-78024580D02*
X114407268Y-78072200D01*
X114407268Y-78072200D02*
X114550125Y-78119819D01*
X114550125Y-78119819D02*
X114645363Y-78119819D01*
X114645363Y-78119819D02*
X114788220Y-78072200D01*
X114788220Y-78072200D02*
X114883458Y-77976961D01*
X114883458Y-77976961D02*
X114931077Y-77881723D01*
X114931077Y-77881723D02*
X114978696Y-77691247D01*
X114978696Y-77691247D02*
X114978696Y-77548390D01*
X114978696Y-77548390D02*
X114931077Y-77357914D01*
X114931077Y-77357914D02*
X114883458Y-77262676D01*
X114883458Y-77262676D02*
X114788220Y-77167438D01*
X114788220Y-77167438D02*
X114645363Y-77119819D01*
X114645363Y-77119819D02*
X114550125Y-77119819D01*
X114550125Y-77119819D02*
X114407268Y-77167438D01*
X114407268Y-77167438D02*
X114359649Y-77215057D01*
X113359649Y-78024580D02*
X113407268Y-78072200D01*
X113407268Y-78072200D02*
X113550125Y-78119819D01*
X113550125Y-78119819D02*
X113645363Y-78119819D01*
X113645363Y-78119819D02*
X113788220Y-78072200D01*
X113788220Y-78072200D02*
X113883458Y-77976961D01*
X113883458Y-77976961D02*
X113931077Y-77881723D01*
X113931077Y-77881723D02*
X113978696Y-77691247D01*
X113978696Y-77691247D02*
X113978696Y-77548390D01*
X113978696Y-77548390D02*
X113931077Y-77357914D01*
X113931077Y-77357914D02*
X113883458Y-77262676D01*
X113883458Y-77262676D02*
X113788220Y-77167438D01*
X113788220Y-77167438D02*
X113645363Y-77119819D01*
X113645363Y-77119819D02*
X113550125Y-77119819D01*
X113550125Y-77119819D02*
X113407268Y-77167438D01*
X113407268Y-77167438D02*
X113359649Y-77215057D01*
X154960839Y-81822200D02*
X154817982Y-81869819D01*
X154817982Y-81869819D02*
X154579887Y-81869819D01*
X154579887Y-81869819D02*
X154484649Y-81822200D01*
X154484649Y-81822200D02*
X154437030Y-81774580D01*
X154437030Y-81774580D02*
X154389411Y-81679342D01*
X154389411Y-81679342D02*
X154389411Y-81584104D01*
X154389411Y-81584104D02*
X154437030Y-81488866D01*
X154437030Y-81488866D02*
X154484649Y-81441247D01*
X154484649Y-81441247D02*
X154579887Y-81393628D01*
X154579887Y-81393628D02*
X154770363Y-81346009D01*
X154770363Y-81346009D02*
X154865601Y-81298390D01*
X154865601Y-81298390D02*
X154913220Y-81250771D01*
X154913220Y-81250771D02*
X154960839Y-81155533D01*
X154960839Y-81155533D02*
X154960839Y-81060295D01*
X154960839Y-81060295D02*
X154913220Y-80965057D01*
X154913220Y-80965057D02*
X154865601Y-80917438D01*
X154865601Y-80917438D02*
X154770363Y-80869819D01*
X154770363Y-80869819D02*
X154532268Y-80869819D01*
X154532268Y-80869819D02*
X154389411Y-80917438D01*
X153960839Y-81869819D02*
X153960839Y-80869819D01*
X153960839Y-80869819D02*
X153722744Y-80869819D01*
X153722744Y-80869819D02*
X153579887Y-80917438D01*
X153579887Y-80917438D02*
X153484649Y-81012676D01*
X153484649Y-81012676D02*
X153437030Y-81107914D01*
X153437030Y-81107914D02*
X153389411Y-81298390D01*
X153389411Y-81298390D02*
X153389411Y-81441247D01*
X153389411Y-81441247D02*
X153437030Y-81631723D01*
X153437030Y-81631723D02*
X153484649Y-81726961D01*
X153484649Y-81726961D02*
X153579887Y-81822200D01*
X153579887Y-81822200D02*
X153722744Y-81869819D01*
X153722744Y-81869819D02*
X153960839Y-81869819D01*
X153008458Y-81584104D02*
X152532268Y-81584104D01*
X153103696Y-81869819D02*
X152770363Y-80869819D01*
X152770363Y-80869819D02*
X152437030Y-81869819D01*
X123264411Y-77167438D02*
X123359649Y-77119819D01*
X123359649Y-77119819D02*
X123502506Y-77119819D01*
X123502506Y-77119819D02*
X123645363Y-77167438D01*
X123645363Y-77167438D02*
X123740601Y-77262676D01*
X123740601Y-77262676D02*
X123788220Y-77357914D01*
X123788220Y-77357914D02*
X123835839Y-77548390D01*
X123835839Y-77548390D02*
X123835839Y-77691247D01*
X123835839Y-77691247D02*
X123788220Y-77881723D01*
X123788220Y-77881723D02*
X123740601Y-77976961D01*
X123740601Y-77976961D02*
X123645363Y-78072200D01*
X123645363Y-78072200D02*
X123502506Y-78119819D01*
X123502506Y-78119819D02*
X123407268Y-78119819D01*
X123407268Y-78119819D02*
X123264411Y-78072200D01*
X123264411Y-78072200D02*
X123216792Y-78024580D01*
X123216792Y-78024580D02*
X123216792Y-77691247D01*
X123216792Y-77691247D02*
X123407268Y-77691247D01*
X122788220Y-78119819D02*
X122788220Y-77119819D01*
X122788220Y-77119819D02*
X122216792Y-78119819D01*
X122216792Y-78119819D02*
X122216792Y-77119819D01*
X121740601Y-78119819D02*
X121740601Y-77119819D01*
X121740601Y-77119819D02*
X121502506Y-77119819D01*
X121502506Y-77119819D02*
X121359649Y-77167438D01*
X121359649Y-77167438D02*
X121264411Y-77262676D01*
X121264411Y-77262676D02*
X121216792Y-77357914D01*
X121216792Y-77357914D02*
X121169173Y-77548390D01*
X121169173Y-77548390D02*
X121169173Y-77691247D01*
X121169173Y-77691247D02*
X121216792Y-77881723D01*
X121216792Y-77881723D02*
X121264411Y-77976961D01*
X121264411Y-77976961D02*
X121359649Y-78072200D01*
X121359649Y-78072200D02*
X121502506Y-78119819D01*
X121502506Y-78119819D02*
X121740601Y-78119819D01*
X155056077Y-77119819D02*
X154722744Y-78119819D01*
X154722744Y-78119819D02*
X154389411Y-77119819D01*
X153484649Y-78024580D02*
X153532268Y-78072200D01*
X153532268Y-78072200D02*
X153675125Y-78119819D01*
X153675125Y-78119819D02*
X153770363Y-78119819D01*
X153770363Y-78119819D02*
X153913220Y-78072200D01*
X153913220Y-78072200D02*
X154008458Y-77976961D01*
X154008458Y-77976961D02*
X154056077Y-77881723D01*
X154056077Y-77881723D02*
X154103696Y-77691247D01*
X154103696Y-77691247D02*
X154103696Y-77548390D01*
X154103696Y-77548390D02*
X154056077Y-77357914D01*
X154056077Y-77357914D02*
X154008458Y-77262676D01*
X154008458Y-77262676D02*
X153913220Y-77167438D01*
X153913220Y-77167438D02*
X153770363Y-77119819D01*
X153770363Y-77119819D02*
X153675125Y-77119819D01*
X153675125Y-77119819D02*
X153532268Y-77167438D01*
X153532268Y-77167438D02*
X153484649Y-77215057D01*
X152484649Y-78024580D02*
X152532268Y-78072200D01*
X152532268Y-78072200D02*
X152675125Y-78119819D01*
X152675125Y-78119819D02*
X152770363Y-78119819D01*
X152770363Y-78119819D02*
X152913220Y-78072200D01*
X152913220Y-78072200D02*
X153008458Y-77976961D01*
X153008458Y-77976961D02*
X153056077Y-77881723D01*
X153056077Y-77881723D02*
X153103696Y-77691247D01*
X153103696Y-77691247D02*
X153103696Y-77548390D01*
X153103696Y-77548390D02*
X153056077Y-77357914D01*
X153056077Y-77357914D02*
X153008458Y-77262676D01*
X153008458Y-77262676D02*
X152913220Y-77167438D01*
X152913220Y-77167438D02*
X152770363Y-77119819D01*
X152770363Y-77119819D02*
X152675125Y-77119819D01*
X152675125Y-77119819D02*
X152532268Y-77167438D01*
X152532268Y-77167438D02*
X152484649Y-77215057D01*
X162389411Y-77167438D02*
X162484649Y-77119819D01*
X162484649Y-77119819D02*
X162627506Y-77119819D01*
X162627506Y-77119819D02*
X162770363Y-77167438D01*
X162770363Y-77167438D02*
X162865601Y-77262676D01*
X162865601Y-77262676D02*
X162913220Y-77357914D01*
X162913220Y-77357914D02*
X162960839Y-77548390D01*
X162960839Y-77548390D02*
X162960839Y-77691247D01*
X162960839Y-77691247D02*
X162913220Y-77881723D01*
X162913220Y-77881723D02*
X162865601Y-77976961D01*
X162865601Y-77976961D02*
X162770363Y-78072200D01*
X162770363Y-78072200D02*
X162627506Y-78119819D01*
X162627506Y-78119819D02*
X162532268Y-78119819D01*
X162532268Y-78119819D02*
X162389411Y-78072200D01*
X162389411Y-78072200D02*
X162341792Y-78024580D01*
X162341792Y-78024580D02*
X162341792Y-77691247D01*
X162341792Y-77691247D02*
X162532268Y-77691247D01*
X161913220Y-78119819D02*
X161913220Y-77119819D01*
X161913220Y-77119819D02*
X161341792Y-78119819D01*
X161341792Y-78119819D02*
X161341792Y-77119819D01*
X160865601Y-78119819D02*
X160865601Y-77119819D01*
X160865601Y-77119819D02*
X160627506Y-77119819D01*
X160627506Y-77119819D02*
X160484649Y-77167438D01*
X160484649Y-77167438D02*
X160389411Y-77262676D01*
X160389411Y-77262676D02*
X160341792Y-77357914D01*
X160341792Y-77357914D02*
X160294173Y-77548390D01*
X160294173Y-77548390D02*
X160294173Y-77691247D01*
X160294173Y-77691247D02*
X160341792Y-77881723D01*
X160341792Y-77881723D02*
X160389411Y-77976961D01*
X160389411Y-77976961D02*
X160484649Y-78072200D01*
X160484649Y-78072200D02*
X160627506Y-78119819D01*
X160627506Y-78119819D02*
X160865601Y-78119819D01*
D11*
X185296993Y-74843409D02*
X185154136Y-74891028D01*
X185154136Y-74891028D02*
X185106517Y-74938647D01*
X185106517Y-74938647D02*
X185058898Y-75033885D01*
X185058898Y-75033885D02*
X185058898Y-75176742D01*
X185058898Y-75176742D02*
X185106517Y-75271980D01*
X185106517Y-75271980D02*
X185154136Y-75319600D01*
X185154136Y-75319600D02*
X185249374Y-75367219D01*
X185249374Y-75367219D02*
X185630326Y-75367219D01*
X185630326Y-75367219D02*
X185630326Y-74367219D01*
X185630326Y-74367219D02*
X185296993Y-74367219D01*
X185296993Y-74367219D02*
X185201755Y-74414838D01*
X185201755Y-74414838D02*
X185154136Y-74462457D01*
X185154136Y-74462457D02*
X185106517Y-74557695D01*
X185106517Y-74557695D02*
X185106517Y-74652933D01*
X185106517Y-74652933D02*
X185154136Y-74748171D01*
X185154136Y-74748171D02*
X185201755Y-74795790D01*
X185201755Y-74795790D02*
X185296993Y-74843409D01*
X185296993Y-74843409D02*
X185630326Y-74843409D01*
X184677945Y-75081504D02*
X184201755Y-75081504D01*
X184773183Y-75367219D02*
X184439850Y-74367219D01*
X184439850Y-74367219D02*
X184106517Y-75367219D01*
X183916040Y-74367219D02*
X183344612Y-74367219D01*
X183630326Y-75367219D02*
X183630326Y-74367219D01*
X183154135Y-74367219D02*
X182582707Y-74367219D01*
X182868421Y-75367219D02*
X182868421Y-74367219D01*
X181058897Y-74700552D02*
X181058897Y-75367219D01*
X181296992Y-74319600D02*
X181535087Y-75033885D01*
X181535087Y-75033885D02*
X180916040Y-75033885D01*
X158475563Y-75581504D02*
X157999373Y-75581504D01*
X158570801Y-75867219D02*
X158237468Y-74867219D01*
X158237468Y-74867219D02*
X157904135Y-75867219D01*
X157046992Y-75867219D02*
X157618420Y-75867219D01*
X157332706Y-75867219D02*
X157332706Y-74867219D01*
X157332706Y-74867219D02*
X157427944Y-75010076D01*
X157427944Y-75010076D02*
X157523182Y-75105314D01*
X157523182Y-75105314D02*
X157618420Y-75152933D01*
D10*
X77181077Y-85119819D02*
X76847744Y-86119819D01*
X76847744Y-86119819D02*
X76514411Y-85119819D01*
X75609649Y-86024580D02*
X75657268Y-86072200D01*
X75657268Y-86072200D02*
X75800125Y-86119819D01*
X75800125Y-86119819D02*
X75895363Y-86119819D01*
X75895363Y-86119819D02*
X76038220Y-86072200D01*
X76038220Y-86072200D02*
X76133458Y-85976961D01*
X76133458Y-85976961D02*
X76181077Y-85881723D01*
X76181077Y-85881723D02*
X76228696Y-85691247D01*
X76228696Y-85691247D02*
X76228696Y-85548390D01*
X76228696Y-85548390D02*
X76181077Y-85357914D01*
X76181077Y-85357914D02*
X76133458Y-85262676D01*
X76133458Y-85262676D02*
X76038220Y-85167438D01*
X76038220Y-85167438D02*
X75895363Y-85119819D01*
X75895363Y-85119819D02*
X75800125Y-85119819D01*
X75800125Y-85119819D02*
X75657268Y-85167438D01*
X75657268Y-85167438D02*
X75609649Y-85215057D01*
X74609649Y-86024580D02*
X74657268Y-86072200D01*
X74657268Y-86072200D02*
X74800125Y-86119819D01*
X74800125Y-86119819D02*
X74895363Y-86119819D01*
X74895363Y-86119819D02*
X75038220Y-86072200D01*
X75038220Y-86072200D02*
X75133458Y-85976961D01*
X75133458Y-85976961D02*
X75181077Y-85881723D01*
X75181077Y-85881723D02*
X75228696Y-85691247D01*
X75228696Y-85691247D02*
X75228696Y-85548390D01*
X75228696Y-85548390D02*
X75181077Y-85357914D01*
X75181077Y-85357914D02*
X75133458Y-85262676D01*
X75133458Y-85262676D02*
X75038220Y-85167438D01*
X75038220Y-85167438D02*
X74895363Y-85119819D01*
X74895363Y-85119819D02*
X74800125Y-85119819D01*
X74800125Y-85119819D02*
X74657268Y-85167438D01*
X74657268Y-85167438D02*
X74609649Y-85215057D01*
D11*
X80350563Y-88081504D02*
X79874373Y-88081504D01*
X80445801Y-88367219D02*
X80112468Y-87367219D01*
X80112468Y-87367219D02*
X79779135Y-88367219D01*
X79255325Y-87367219D02*
X79064849Y-87367219D01*
X79064849Y-87367219D02*
X78969611Y-87414838D01*
X78969611Y-87414838D02*
X78874373Y-87510076D01*
X78874373Y-87510076D02*
X78826754Y-87700552D01*
X78826754Y-87700552D02*
X78826754Y-88033885D01*
X78826754Y-88033885D02*
X78874373Y-88224361D01*
X78874373Y-88224361D02*
X78969611Y-88319600D01*
X78969611Y-88319600D02*
X79064849Y-88367219D01*
X79064849Y-88367219D02*
X79255325Y-88367219D01*
X79255325Y-88367219D02*
X79350563Y-88319600D01*
X79350563Y-88319600D02*
X79445801Y-88224361D01*
X79445801Y-88224361D02*
X79493420Y-88033885D01*
X79493420Y-88033885D02*
X79493420Y-87700552D01*
X79493420Y-87700552D02*
X79445801Y-87510076D01*
X79445801Y-87510076D02*
X79350563Y-87414838D01*
X79350563Y-87414838D02*
X79255325Y-87367219D01*
D10*
X162960839Y-81822200D02*
X162817982Y-81869819D01*
X162817982Y-81869819D02*
X162579887Y-81869819D01*
X162579887Y-81869819D02*
X162484649Y-81822200D01*
X162484649Y-81822200D02*
X162437030Y-81774580D01*
X162437030Y-81774580D02*
X162389411Y-81679342D01*
X162389411Y-81679342D02*
X162389411Y-81584104D01*
X162389411Y-81584104D02*
X162437030Y-81488866D01*
X162437030Y-81488866D02*
X162484649Y-81441247D01*
X162484649Y-81441247D02*
X162579887Y-81393628D01*
X162579887Y-81393628D02*
X162770363Y-81346009D01*
X162770363Y-81346009D02*
X162865601Y-81298390D01*
X162865601Y-81298390D02*
X162913220Y-81250771D01*
X162913220Y-81250771D02*
X162960839Y-81155533D01*
X162960839Y-81155533D02*
X162960839Y-81060295D01*
X162960839Y-81060295D02*
X162913220Y-80965057D01*
X162913220Y-80965057D02*
X162865601Y-80917438D01*
X162865601Y-80917438D02*
X162770363Y-80869819D01*
X162770363Y-80869819D02*
X162532268Y-80869819D01*
X162532268Y-80869819D02*
X162389411Y-80917438D01*
X161389411Y-81774580D02*
X161437030Y-81822200D01*
X161437030Y-81822200D02*
X161579887Y-81869819D01*
X161579887Y-81869819D02*
X161675125Y-81869819D01*
X161675125Y-81869819D02*
X161817982Y-81822200D01*
X161817982Y-81822200D02*
X161913220Y-81726961D01*
X161913220Y-81726961D02*
X161960839Y-81631723D01*
X161960839Y-81631723D02*
X162008458Y-81441247D01*
X162008458Y-81441247D02*
X162008458Y-81298390D01*
X162008458Y-81298390D02*
X161960839Y-81107914D01*
X161960839Y-81107914D02*
X161913220Y-81012676D01*
X161913220Y-81012676D02*
X161817982Y-80917438D01*
X161817982Y-80917438D02*
X161675125Y-80869819D01*
X161675125Y-80869819D02*
X161579887Y-80869819D01*
X161579887Y-80869819D02*
X161437030Y-80917438D01*
X161437030Y-80917438D02*
X161389411Y-80965057D01*
X160484649Y-81869819D02*
X160960839Y-81869819D01*
X160960839Y-81869819D02*
X160960839Y-80869819D01*
X115835839Y-81822200D02*
X115692982Y-81869819D01*
X115692982Y-81869819D02*
X115454887Y-81869819D01*
X115454887Y-81869819D02*
X115359649Y-81822200D01*
X115359649Y-81822200D02*
X115312030Y-81774580D01*
X115312030Y-81774580D02*
X115264411Y-81679342D01*
X115264411Y-81679342D02*
X115264411Y-81584104D01*
X115264411Y-81584104D02*
X115312030Y-81488866D01*
X115312030Y-81488866D02*
X115359649Y-81441247D01*
X115359649Y-81441247D02*
X115454887Y-81393628D01*
X115454887Y-81393628D02*
X115645363Y-81346009D01*
X115645363Y-81346009D02*
X115740601Y-81298390D01*
X115740601Y-81298390D02*
X115788220Y-81250771D01*
X115788220Y-81250771D02*
X115835839Y-81155533D01*
X115835839Y-81155533D02*
X115835839Y-81060295D01*
X115835839Y-81060295D02*
X115788220Y-80965057D01*
X115788220Y-80965057D02*
X115740601Y-80917438D01*
X115740601Y-80917438D02*
X115645363Y-80869819D01*
X115645363Y-80869819D02*
X115407268Y-80869819D01*
X115407268Y-80869819D02*
X115264411Y-80917438D01*
X114835839Y-81869819D02*
X114835839Y-80869819D01*
X114835839Y-80869819D02*
X114597744Y-80869819D01*
X114597744Y-80869819D02*
X114454887Y-80917438D01*
X114454887Y-80917438D02*
X114359649Y-81012676D01*
X114359649Y-81012676D02*
X114312030Y-81107914D01*
X114312030Y-81107914D02*
X114264411Y-81298390D01*
X114264411Y-81298390D02*
X114264411Y-81441247D01*
X114264411Y-81441247D02*
X114312030Y-81631723D01*
X114312030Y-81631723D02*
X114359649Y-81726961D01*
X114359649Y-81726961D02*
X114454887Y-81822200D01*
X114454887Y-81822200D02*
X114597744Y-81869819D01*
X114597744Y-81869819D02*
X114835839Y-81869819D01*
X113883458Y-81584104D02*
X113407268Y-81584104D01*
X113978696Y-81869819D02*
X113645363Y-80869819D01*
X113645363Y-80869819D02*
X113312030Y-81869819D01*
X179609819Y-37619048D02*
X179609819Y-37809524D01*
X179609819Y-37809524D02*
X179562200Y-37904762D01*
X179562200Y-37904762D02*
X179514580Y-37952381D01*
X179514580Y-37952381D02*
X179371723Y-38047619D01*
X179371723Y-38047619D02*
X179181247Y-38095238D01*
X179181247Y-38095238D02*
X178800295Y-38095238D01*
X178800295Y-38095238D02*
X178705057Y-38047619D01*
X178705057Y-38047619D02*
X178657438Y-38000000D01*
X178657438Y-38000000D02*
X178609819Y-37904762D01*
X178609819Y-37904762D02*
X178609819Y-37714286D01*
X178609819Y-37714286D02*
X178657438Y-37619048D01*
X178657438Y-37619048D02*
X178705057Y-37571429D01*
X178705057Y-37571429D02*
X178800295Y-37523810D01*
X178800295Y-37523810D02*
X179038390Y-37523810D01*
X179038390Y-37523810D02*
X179133628Y-37571429D01*
X179133628Y-37571429D02*
X179181247Y-37619048D01*
X179181247Y-37619048D02*
X179228866Y-37714286D01*
X179228866Y-37714286D02*
X179228866Y-37904762D01*
X179228866Y-37904762D02*
X179181247Y-38000000D01*
X179181247Y-38000000D02*
X179133628Y-38047619D01*
X179133628Y-38047619D02*
X179038390Y-38095238D01*
X178609819Y-38714286D02*
X178609819Y-38809524D01*
X178609819Y-38809524D02*
X178657438Y-38904762D01*
X178657438Y-38904762D02*
X178705057Y-38952381D01*
X178705057Y-38952381D02*
X178800295Y-39000000D01*
X178800295Y-39000000D02*
X178990771Y-39047619D01*
X178990771Y-39047619D02*
X179228866Y-39047619D01*
X179228866Y-39047619D02*
X179419342Y-39000000D01*
X179419342Y-39000000D02*
X179514580Y-38952381D01*
X179514580Y-38952381D02*
X179562200Y-38904762D01*
X179562200Y-38904762D02*
X179609819Y-38809524D01*
X179609819Y-38809524D02*
X179609819Y-38714286D01*
X179609819Y-38714286D02*
X179562200Y-38619048D01*
X179562200Y-38619048D02*
X179514580Y-38571429D01*
X179514580Y-38571429D02*
X179419342Y-38523810D01*
X179419342Y-38523810D02*
X179228866Y-38476191D01*
X179228866Y-38476191D02*
X178990771Y-38476191D01*
X178990771Y-38476191D02*
X178800295Y-38523810D01*
X178800295Y-38523810D02*
X178705057Y-38571429D01*
X178705057Y-38571429D02*
X178657438Y-38619048D01*
X178657438Y-38619048D02*
X178609819Y-38714286D01*
X179609819Y-40238096D02*
X178943152Y-40238096D01*
X179038390Y-40238096D02*
X178990771Y-40285715D01*
X178990771Y-40285715D02*
X178943152Y-40380953D01*
X178943152Y-40380953D02*
X178943152Y-40523810D01*
X178943152Y-40523810D02*
X178990771Y-40619048D01*
X178990771Y-40619048D02*
X179086009Y-40666667D01*
X179086009Y-40666667D02*
X179609819Y-40666667D01*
X179086009Y-40666667D02*
X178990771Y-40714286D01*
X178990771Y-40714286D02*
X178943152Y-40809524D01*
X178943152Y-40809524D02*
X178943152Y-40952381D01*
X178943152Y-40952381D02*
X178990771Y-41047620D01*
X178990771Y-41047620D02*
X179086009Y-41095239D01*
X179086009Y-41095239D02*
X179609819Y-41095239D01*
X179609819Y-41571429D02*
X178943152Y-41571429D01*
X179038390Y-41571429D02*
X178990771Y-41619048D01*
X178990771Y-41619048D02*
X178943152Y-41714286D01*
X178943152Y-41714286D02*
X178943152Y-41857143D01*
X178943152Y-41857143D02*
X178990771Y-41952381D01*
X178990771Y-41952381D02*
X179086009Y-42000000D01*
X179086009Y-42000000D02*
X179609819Y-42000000D01*
X179086009Y-42000000D02*
X178990771Y-42047619D01*
X178990771Y-42047619D02*
X178943152Y-42142857D01*
X178943152Y-42142857D02*
X178943152Y-42285714D01*
X178943152Y-42285714D02*
X178990771Y-42380953D01*
X178990771Y-42380953D02*
X179086009Y-42428572D01*
X179086009Y-42428572D02*
X179609819Y-42428572D01*
X180000000Y-26000000D02*
X180305000Y-26000000D01*
X180000000Y-116000000D02*
X180305000Y-116000000D01*
X180305000Y-26000000D02*
X180305000Y-116000000D01*
X180305000Y-26000000D02*
X180305000Y-116000000D01*
X180305000Y-26000000D02*
X181690246Y-28661032D01*
X180305000Y-26000000D02*
X178919754Y-28661032D01*
X180305000Y-116000000D02*
X178919754Y-113338968D01*
X180305000Y-116000000D02*
X181690246Y-113338968D01*
X107380952Y-25304819D02*
X107952380Y-25304819D01*
X107666666Y-25304819D02*
X107666666Y-24304819D01*
X107666666Y-24304819D02*
X107761904Y-24447676D01*
X107761904Y-24447676D02*
X107857142Y-24542914D01*
X107857142Y-24542914D02*
X107952380Y-24590533D01*
X106476190Y-24304819D02*
X106952380Y-24304819D01*
X106952380Y-24304819D02*
X106999999Y-24781009D01*
X106999999Y-24781009D02*
X106952380Y-24733390D01*
X106952380Y-24733390D02*
X106857142Y-24685771D01*
X106857142Y-24685771D02*
X106619047Y-24685771D01*
X106619047Y-24685771D02*
X106523809Y-24733390D01*
X106523809Y-24733390D02*
X106476190Y-24781009D01*
X106476190Y-24781009D02*
X106428571Y-24876247D01*
X106428571Y-24876247D02*
X106428571Y-25114342D01*
X106428571Y-25114342D02*
X106476190Y-25209580D01*
X106476190Y-25209580D02*
X106523809Y-25257200D01*
X106523809Y-25257200D02*
X106619047Y-25304819D01*
X106619047Y-25304819D02*
X106857142Y-25304819D01*
X106857142Y-25304819D02*
X106952380Y-25257200D01*
X106952380Y-25257200D02*
X106999999Y-25209580D01*
X105809523Y-24304819D02*
X105714285Y-24304819D01*
X105714285Y-24304819D02*
X105619047Y-24352438D01*
X105619047Y-24352438D02*
X105571428Y-24400057D01*
X105571428Y-24400057D02*
X105523809Y-24495295D01*
X105523809Y-24495295D02*
X105476190Y-24685771D01*
X105476190Y-24685771D02*
X105476190Y-24923866D01*
X105476190Y-24923866D02*
X105523809Y-25114342D01*
X105523809Y-25114342D02*
X105571428Y-25209580D01*
X105571428Y-25209580D02*
X105619047Y-25257200D01*
X105619047Y-25257200D02*
X105714285Y-25304819D01*
X105714285Y-25304819D02*
X105809523Y-25304819D01*
X105809523Y-25304819D02*
X105904761Y-25257200D01*
X105904761Y-25257200D02*
X105952380Y-25209580D01*
X105952380Y-25209580D02*
X105999999Y-25114342D01*
X105999999Y-25114342D02*
X106047618Y-24923866D01*
X106047618Y-24923866D02*
X106047618Y-24685771D01*
X106047618Y-24685771D02*
X105999999Y-24495295D01*
X105999999Y-24495295D02*
X105952380Y-24400057D01*
X105952380Y-24400057D02*
X105904761Y-24352438D01*
X105904761Y-24352438D02*
X105809523Y-24304819D01*
X104285713Y-25304819D02*
X104285713Y-24638152D01*
X104285713Y-24733390D02*
X104238094Y-24685771D01*
X104238094Y-24685771D02*
X104142856Y-24638152D01*
X104142856Y-24638152D02*
X103999999Y-24638152D01*
X103999999Y-24638152D02*
X103904761Y-24685771D01*
X103904761Y-24685771D02*
X103857142Y-24781009D01*
X103857142Y-24781009D02*
X103857142Y-25304819D01*
X103857142Y-24781009D02*
X103809523Y-24685771D01*
X103809523Y-24685771D02*
X103714285Y-24638152D01*
X103714285Y-24638152D02*
X103571428Y-24638152D01*
X103571428Y-24638152D02*
X103476189Y-24685771D01*
X103476189Y-24685771D02*
X103428570Y-24781009D01*
X103428570Y-24781009D02*
X103428570Y-25304819D01*
X102952380Y-25304819D02*
X102952380Y-24638152D01*
X102952380Y-24733390D02*
X102904761Y-24685771D01*
X102904761Y-24685771D02*
X102809523Y-24638152D01*
X102809523Y-24638152D02*
X102666666Y-24638152D01*
X102666666Y-24638152D02*
X102571428Y-24685771D01*
X102571428Y-24685771D02*
X102523809Y-24781009D01*
X102523809Y-24781009D02*
X102523809Y-25304819D01*
X102523809Y-24781009D02*
X102476190Y-24685771D01*
X102476190Y-24685771D02*
X102380952Y-24638152D01*
X102380952Y-24638152D02*
X102238095Y-24638152D01*
X102238095Y-24638152D02*
X102142856Y-24685771D01*
X102142856Y-24685771D02*
X102095237Y-24781009D01*
X102095237Y-24781009D02*
X102095237Y-25304819D01*
X30000000Y-26000000D02*
X30000000Y-26000000D01*
X180000000Y-26000000D02*
X180000000Y-26000000D01*
X30000000Y-26000000D02*
X180000000Y-26000000D01*
X30000000Y-26000000D02*
X180000000Y-26000000D01*
X30000000Y-26000000D02*
X32661032Y-24614754D01*
X30000000Y-26000000D02*
X32661032Y-27385246D01*
X180000000Y-26000000D02*
X177338968Y-27385246D01*
X180000000Y-26000000D02*
X177338968Y-24614754D01*
X56358094Y-60514819D02*
X56358094Y-59514819D01*
X56358094Y-59991009D02*
X55786666Y-59991009D01*
X55786666Y-60514819D02*
X55786666Y-59514819D01*
X54786666Y-60514819D02*
X55358094Y-60514819D01*
X55072380Y-60514819D02*
X55072380Y-59514819D01*
X55072380Y-59514819D02*
X55167618Y-59657676D01*
X55167618Y-59657676D02*
X55262856Y-59752914D01*
X55262856Y-59752914D02*
X55358094Y-59800533D01*
X54310475Y-60514819D02*
X54119999Y-60514819D01*
X54119999Y-60514819D02*
X54024761Y-60467200D01*
X54024761Y-60467200D02*
X53977142Y-60419580D01*
X53977142Y-60419580D02*
X53881904Y-60276723D01*
X53881904Y-60276723D02*
X53834285Y-60086247D01*
X53834285Y-60086247D02*
X53834285Y-59705295D01*
X53834285Y-59705295D02*
X53881904Y-59610057D01*
X53881904Y-59610057D02*
X53929523Y-59562438D01*
X53929523Y-59562438D02*
X54024761Y-59514819D01*
X54024761Y-59514819D02*
X54215237Y-59514819D01*
X54215237Y-59514819D02*
X54310475Y-59562438D01*
X54310475Y-59562438D02*
X54358094Y-59610057D01*
X54358094Y-59610057D02*
X54405713Y-59705295D01*
X54405713Y-59705295D02*
X54405713Y-59943390D01*
X54405713Y-59943390D02*
X54358094Y-60038628D01*
X54358094Y-60038628D02*
X54310475Y-60086247D01*
X54310475Y-60086247D02*
X54215237Y-60133866D01*
X54215237Y-60133866D02*
X54024761Y-60133866D01*
X54024761Y-60133866D02*
X53929523Y-60086247D01*
X53929523Y-60086247D02*
X53881904Y-60038628D01*
X53881904Y-60038628D02*
X53834285Y-59943390D01*
X173308094Y-60534819D02*
X173308094Y-59534819D01*
X173308094Y-60011009D02*
X172736666Y-60011009D01*
X172736666Y-60534819D02*
X172736666Y-59534819D01*
X172308094Y-59630057D02*
X172260475Y-59582438D01*
X172260475Y-59582438D02*
X172165237Y-59534819D01*
X172165237Y-59534819D02*
X171927142Y-59534819D01*
X171927142Y-59534819D02*
X171831904Y-59582438D01*
X171831904Y-59582438D02*
X171784285Y-59630057D01*
X171784285Y-59630057D02*
X171736666Y-59725295D01*
X171736666Y-59725295D02*
X171736666Y-59820533D01*
X171736666Y-59820533D02*
X171784285Y-59963390D01*
X171784285Y-59963390D02*
X172355713Y-60534819D01*
X172355713Y-60534819D02*
X171736666Y-60534819D01*
X171355713Y-59630057D02*
X171308094Y-59582438D01*
X171308094Y-59582438D02*
X171212856Y-59534819D01*
X171212856Y-59534819D02*
X170974761Y-59534819D01*
X170974761Y-59534819D02*
X170879523Y-59582438D01*
X170879523Y-59582438D02*
X170831904Y-59630057D01*
X170831904Y-59630057D02*
X170784285Y-59725295D01*
X170784285Y-59725295D02*
X170784285Y-59820533D01*
X170784285Y-59820533D02*
X170831904Y-59963390D01*
X170831904Y-59963390D02*
X171403332Y-60534819D01*
X171403332Y-60534819D02*
X170784285Y-60534819D01*
X134358094Y-60509819D02*
X134358094Y-59509819D01*
X134358094Y-59986009D02*
X133786666Y-59986009D01*
X133786666Y-60509819D02*
X133786666Y-59509819D01*
X133358094Y-59605057D02*
X133310475Y-59557438D01*
X133310475Y-59557438D02*
X133215237Y-59509819D01*
X133215237Y-59509819D02*
X132977142Y-59509819D01*
X132977142Y-59509819D02*
X132881904Y-59557438D01*
X132881904Y-59557438D02*
X132834285Y-59605057D01*
X132834285Y-59605057D02*
X132786666Y-59700295D01*
X132786666Y-59700295D02*
X132786666Y-59795533D01*
X132786666Y-59795533D02*
X132834285Y-59938390D01*
X132834285Y-59938390D02*
X133405713Y-60509819D01*
X133405713Y-60509819D02*
X132786666Y-60509819D01*
X131834285Y-60509819D02*
X132405713Y-60509819D01*
X132119999Y-60509819D02*
X132119999Y-59509819D01*
X132119999Y-59509819D02*
X132215237Y-59652676D01*
X132215237Y-59652676D02*
X132310475Y-59747914D01*
X132310475Y-59747914D02*
X132405713Y-59795533D01*
X139530616Y-27704819D02*
X138911569Y-27704819D01*
X138911569Y-27704819D02*
X139244902Y-28085771D01*
X139244902Y-28085771D02*
X139102045Y-28085771D01*
X139102045Y-28085771D02*
X139006807Y-28133390D01*
X139006807Y-28133390D02*
X138959188Y-28181009D01*
X138959188Y-28181009D02*
X138911569Y-28276247D01*
X138911569Y-28276247D02*
X138911569Y-28514342D01*
X138911569Y-28514342D02*
X138959188Y-28609580D01*
X138959188Y-28609580D02*
X139006807Y-28657200D01*
X139006807Y-28657200D02*
X139102045Y-28704819D01*
X139102045Y-28704819D02*
X139387759Y-28704819D01*
X139387759Y-28704819D02*
X139482997Y-28657200D01*
X139482997Y-28657200D02*
X139530616Y-28609580D01*
X144111569Y-28704819D02*
X144682997Y-28704819D01*
X144397283Y-28704819D02*
X144397283Y-27704819D01*
X144397283Y-27704819D02*
X144492521Y-27847676D01*
X144492521Y-27847676D02*
X144587759Y-27942914D01*
X144587759Y-27942914D02*
X144682997Y-27990533D01*
X144111569Y-34704819D02*
X144682997Y-34704819D01*
X144397283Y-34704819D02*
X144397283Y-33704819D01*
X144397283Y-33704819D02*
X144492521Y-33847676D01*
X144492521Y-33847676D02*
X144587759Y-33942914D01*
X144587759Y-33942914D02*
X144682997Y-33990533D01*
X139530616Y-33704819D02*
X138911569Y-33704819D01*
X138911569Y-33704819D02*
X139244902Y-34085771D01*
X139244902Y-34085771D02*
X139102045Y-34085771D01*
X139102045Y-34085771D02*
X139006807Y-34133390D01*
X139006807Y-34133390D02*
X138959188Y-34181009D01*
X138959188Y-34181009D02*
X138911569Y-34276247D01*
X138911569Y-34276247D02*
X138911569Y-34514342D01*
X138911569Y-34514342D02*
X138959188Y-34609580D01*
X138959188Y-34609580D02*
X139006807Y-34657200D01*
X139006807Y-34657200D02*
X139102045Y-34704819D01*
X139102045Y-34704819D02*
X139387759Y-34704819D01*
X139387759Y-34704819D02*
X139482997Y-34657200D01*
X139482997Y-34657200D02*
X139530616Y-34609580D01*
X144111569Y-31704819D02*
X144682997Y-31704819D01*
X144397283Y-31704819D02*
X144397283Y-30704819D01*
X144397283Y-30704819D02*
X144492521Y-30847676D01*
X144492521Y-30847676D02*
X144587759Y-30942914D01*
X144587759Y-30942914D02*
X144682997Y-30990533D01*
X139530616Y-30704819D02*
X138911569Y-30704819D01*
X138911569Y-30704819D02*
X139244902Y-31085771D01*
X139244902Y-31085771D02*
X139102045Y-31085771D01*
X139102045Y-31085771D02*
X139006807Y-31133390D01*
X139006807Y-31133390D02*
X138959188Y-31181009D01*
X138959188Y-31181009D02*
X138911569Y-31276247D01*
X138911569Y-31276247D02*
X138911569Y-31514342D01*
X138911569Y-31514342D02*
X138959188Y-31609580D01*
X138959188Y-31609580D02*
X139006807Y-31657200D01*
X139006807Y-31657200D02*
X139102045Y-31704819D01*
X139102045Y-31704819D02*
X139387759Y-31704819D01*
X139387759Y-31704819D02*
X139482997Y-31657200D01*
X139482997Y-31657200D02*
X139530616Y-31609580D01*
X95408094Y-60534819D02*
X95408094Y-59534819D01*
X95408094Y-60011009D02*
X94836666Y-60011009D01*
X94836666Y-60534819D02*
X94836666Y-59534819D01*
X94408094Y-59630057D02*
X94360475Y-59582438D01*
X94360475Y-59582438D02*
X94265237Y-59534819D01*
X94265237Y-59534819D02*
X94027142Y-59534819D01*
X94027142Y-59534819D02*
X93931904Y-59582438D01*
X93931904Y-59582438D02*
X93884285Y-59630057D01*
X93884285Y-59630057D02*
X93836666Y-59725295D01*
X93836666Y-59725295D02*
X93836666Y-59820533D01*
X93836666Y-59820533D02*
X93884285Y-59963390D01*
X93884285Y-59963390D02*
X94455713Y-60534819D01*
X94455713Y-60534819D02*
X93836666Y-60534819D01*
X93217618Y-59534819D02*
X93122380Y-59534819D01*
X93122380Y-59534819D02*
X93027142Y-59582438D01*
X93027142Y-59582438D02*
X92979523Y-59630057D01*
X92979523Y-59630057D02*
X92931904Y-59725295D01*
X92931904Y-59725295D02*
X92884285Y-59915771D01*
X92884285Y-59915771D02*
X92884285Y-60153866D01*
X92884285Y-60153866D02*
X92931904Y-60344342D01*
X92931904Y-60344342D02*
X92979523Y-60439580D01*
X92979523Y-60439580D02*
X93027142Y-60487200D01*
X93027142Y-60487200D02*
X93122380Y-60534819D01*
X93122380Y-60534819D02*
X93217618Y-60534819D01*
X93217618Y-60534819D02*
X93312856Y-60487200D01*
X93312856Y-60487200D02*
X93360475Y-60439580D01*
X93360475Y-60439580D02*
X93408094Y-60344342D01*
X93408094Y-60344342D02*
X93455713Y-60153866D01*
X93455713Y-60153866D02*
X93455713Y-59915771D01*
X93455713Y-59915771D02*
X93408094Y-59725295D01*
X93408094Y-59725295D02*
X93360475Y-59630057D01*
X93360475Y-59630057D02*
X93312856Y-59582438D01*
X93312856Y-59582438D02*
X93217618Y-59534819D01*
D14*
%TO.C,G\u002A\u002A\u002A*%
G36*
X82934306Y-37212783D02*
G01*
X83017895Y-37430526D01*
X82980676Y-37586443D01*
X82817368Y-37697895D01*
X82700431Y-37648270D01*
X82616842Y-37430526D01*
X82654061Y-37274610D01*
X82817368Y-37163158D01*
X82934306Y-37212783D01*
G37*
G36*
X83529047Y-37265065D02*
G01*
X83660866Y-37463947D01*
X83638358Y-37630234D01*
X83418947Y-37697895D01*
X83223532Y-37653439D01*
X83177028Y-37463947D01*
X83230187Y-37341134D01*
X83418947Y-37230000D01*
X83529047Y-37265065D01*
G37*
G36*
X99874322Y-35231054D02*
G01*
X99901020Y-35244893D01*
X100149390Y-35390845D01*
X100186617Y-35496710D01*
X100041427Y-35631288D01*
X99792527Y-35791282D01*
X99642877Y-35767230D01*
X99545312Y-35525526D01*
X99511271Y-35393569D01*
X99479564Y-35145367D01*
X99587402Y-35102990D01*
X99874322Y-35231054D01*
G37*
G36*
X100123692Y-35802013D02*
G01*
X100334187Y-36015352D01*
X100613913Y-36330675D01*
X100914929Y-36690560D01*
X101189295Y-37037587D01*
X101389070Y-37314335D01*
X101466316Y-37463384D01*
X101466309Y-37465239D01*
X101423462Y-37564211D01*
X101421475Y-37564003D01*
X101306127Y-37459284D01*
X101087091Y-37203568D01*
X100809951Y-36856439D01*
X100520292Y-36477482D01*
X100263700Y-36126281D01*
X100085760Y-35862422D01*
X100032056Y-35745488D01*
X100123692Y-35802013D01*
G37*
G36*
X100717836Y-37887963D02*
G01*
X100772372Y-38041825D01*
X100794029Y-38359099D01*
X100797895Y-38891755D01*
X100797895Y-39970526D01*
X100196316Y-39970526D01*
X100153099Y-39970424D01*
X99797540Y-39949251D01*
X99634098Y-39870242D01*
X99594737Y-39703158D01*
X99651292Y-39513313D01*
X99895526Y-39436034D01*
X100040555Y-39422164D01*
X100143649Y-39331947D01*
X100187289Y-39101502D01*
X100196316Y-38667350D01*
X100201180Y-38326607D01*
X100236148Y-38040949D01*
X100326492Y-37906373D01*
X100497105Y-37855702D01*
X100615331Y-37845540D01*
X100717836Y-37887963D01*
G37*
G36*
X89111590Y-40553678D02*
G01*
X88998975Y-40705836D01*
X88737217Y-40970774D01*
X88370114Y-41303166D01*
X88271257Y-41390132D01*
X87910945Y-41732462D01*
X87658374Y-42013156D01*
X87563158Y-42178403D01*
X87459888Y-42336052D01*
X87195526Y-42481084D01*
X86928335Y-42560375D01*
X86789468Y-42576342D01*
X86781454Y-42567077D01*
X86803500Y-42407128D01*
X86929200Y-42167631D01*
X87092372Y-41954758D01*
X87226836Y-41874682D01*
X87258664Y-41871894D01*
X87473183Y-41759334D01*
X87810320Y-41518584D01*
X88212475Y-41189676D01*
X88346250Y-41075480D01*
X88714542Y-40779127D01*
X88986230Y-40587340D01*
X89110228Y-40537246D01*
X89111590Y-40553678D01*
G37*
G36*
X99461053Y-38901053D02*
G01*
X99461053Y-39970526D01*
X98859474Y-39970526D01*
X98816257Y-39970424D01*
X98460698Y-39949251D01*
X98297256Y-39870242D01*
X98257895Y-39703158D01*
X98330030Y-39498453D01*
X98592105Y-39435790D01*
X98680328Y-39431910D01*
X98896456Y-39355655D01*
X98880925Y-39235918D01*
X98625526Y-39144298D01*
X98438533Y-39073995D01*
X98324737Y-38901053D01*
X98390356Y-38767071D01*
X98625526Y-38657807D01*
X98812519Y-38587700D01*
X98926316Y-38415457D01*
X98874821Y-38293957D01*
X98628822Y-38257650D01*
X98430692Y-38246733D01*
X98284809Y-38065526D01*
X98282384Y-38052544D01*
X98304249Y-37913382D01*
X98473542Y-37847929D01*
X98849671Y-37831579D01*
X99461053Y-37831579D01*
X99461053Y-38901053D01*
G37*
G36*
X92776842Y-38893366D02*
G01*
X92775782Y-39186761D01*
X92762154Y-39610063D01*
X92722097Y-39846056D01*
X92642305Y-39948342D01*
X92509474Y-39970526D01*
X92449688Y-39967497D01*
X92286367Y-39868146D01*
X92242105Y-39578772D01*
X92240338Y-39500493D01*
X92166325Y-39242740D01*
X91944006Y-39144298D01*
X91726099Y-39044888D01*
X91514666Y-38726893D01*
X91468168Y-38562945D01*
X91473105Y-38478505D01*
X91990097Y-38478505D01*
X92081684Y-38660421D01*
X92114344Y-38691129D01*
X92215146Y-38712486D01*
X92242105Y-38500000D01*
X92241129Y-38435657D01*
X92201406Y-38273775D01*
X92081684Y-38339579D01*
X91990097Y-38478505D01*
X91473105Y-38478505D01*
X91489598Y-38196420D01*
X91739254Y-37963325D01*
X92222299Y-37857314D01*
X92776842Y-37816206D01*
X92776842Y-38500000D01*
X92776842Y-38893366D01*
G37*
G36*
X98926316Y-34081096D02*
G01*
X98925259Y-34373955D01*
X98911641Y-34797345D01*
X98871591Y-35033391D01*
X98791797Y-35135704D01*
X98658947Y-35157895D01*
X98599161Y-35154866D01*
X98435840Y-35055514D01*
X98391579Y-34766140D01*
X98389856Y-34688858D01*
X98316055Y-34430404D01*
X98094136Y-34331666D01*
X97995267Y-34305656D01*
X97718087Y-34084653D01*
X97561842Y-33736958D01*
X97568225Y-33620526D01*
X98124210Y-33620526D01*
X98139293Y-33712774D01*
X98257895Y-33821053D01*
X98319393Y-33798429D01*
X98391579Y-33620526D01*
X98376497Y-33528279D01*
X98257895Y-33420000D01*
X98196396Y-33442624D01*
X98124210Y-33620526D01*
X97568225Y-33620526D01*
X97582110Y-33367251D01*
X97669424Y-33218748D01*
X97892571Y-33100388D01*
X98305915Y-33045044D01*
X98926316Y-33004298D01*
X98926316Y-33620526D01*
X98926316Y-34081096D01*
G37*
G36*
X105731538Y-39178350D02*
G01*
X105680651Y-39575403D01*
X105583789Y-39810105D01*
X105401800Y-39912165D01*
X105075789Y-39970526D01*
X104821511Y-39942843D01*
X104574129Y-39785445D01*
X104444733Y-39452024D01*
X104407368Y-38901053D01*
X104942105Y-38901053D01*
X104951127Y-39141828D01*
X104999530Y-39449242D01*
X105075789Y-39569474D01*
X105123944Y-39524366D01*
X105185427Y-39282349D01*
X105209474Y-38901053D01*
X105200452Y-38660277D01*
X105152049Y-38352864D01*
X105075789Y-38232632D01*
X105027634Y-38277740D01*
X104966152Y-38519756D01*
X104942105Y-38901053D01*
X104407368Y-38901053D01*
X104424671Y-38494207D01*
X104523044Y-38098397D01*
X104731433Y-37891363D01*
X105075789Y-37831579D01*
X105333809Y-37868470D01*
X105583789Y-37992000D01*
X105608350Y-38023459D01*
X105695387Y-38301342D01*
X105736450Y-38719985D01*
X105734510Y-38901053D01*
X105731538Y-39178350D01*
G37*
G36*
X83561637Y-37831623D02*
G01*
X83700221Y-37860781D01*
X83778121Y-37983392D01*
X83812369Y-38257371D01*
X83820000Y-38740632D01*
X83803915Y-39175447D01*
X83747073Y-39589726D01*
X83659579Y-39810105D01*
X83477590Y-39912165D01*
X83151579Y-39970526D01*
X83092894Y-39969518D01*
X82790481Y-39904677D01*
X82603900Y-39707405D01*
X82509382Y-39333969D01*
X82483158Y-38740632D01*
X82483171Y-38710014D01*
X82491747Y-38238827D01*
X82527809Y-37973968D01*
X82608391Y-37857524D01*
X82750526Y-37831579D01*
X82888362Y-37854903D01*
X82972444Y-37968084D01*
X83009562Y-38230266D01*
X83017895Y-38700526D01*
X83033892Y-39121463D01*
X83081721Y-39446699D01*
X83151579Y-39569474D01*
X83216338Y-39465489D01*
X83266375Y-39154604D01*
X83285263Y-38700526D01*
X83292440Y-38252559D01*
X83327265Y-37979295D01*
X83407936Y-37858662D01*
X83552631Y-37831579D01*
X83561637Y-37831623D01*
G37*
G36*
X85304605Y-39373795D02*
G01*
X85374899Y-39669737D01*
X85388769Y-39725981D01*
X85375355Y-39921566D01*
X85172434Y-39970526D01*
X85002362Y-39932925D01*
X84889474Y-39770000D01*
X84866182Y-39676484D01*
X84688947Y-39569474D01*
X84595431Y-39592766D01*
X84488421Y-39770000D01*
X84426951Y-39897888D01*
X84170066Y-39970526D01*
X83851712Y-39970526D01*
X84073524Y-38953293D01*
X84643109Y-38953293D01*
X84675022Y-39132215D01*
X84720657Y-39130145D01*
X84745235Y-38956754D01*
X84723828Y-38825350D01*
X84664468Y-38875987D01*
X84643109Y-38953293D01*
X84073524Y-38953293D01*
X84077628Y-38934474D01*
X84127838Y-38708104D01*
X84238804Y-38271645D01*
X84342396Y-38021525D01*
X84467892Y-37902152D01*
X84644567Y-37857933D01*
X84823004Y-37853331D01*
X84951835Y-37933665D01*
X85044338Y-38160755D01*
X85139997Y-38593196D01*
X85208812Y-38930157D01*
X85214555Y-38956754D01*
X85304605Y-39373795D01*
G37*
G36*
X86701453Y-37837862D02*
G01*
X86810548Y-37893387D01*
X86868223Y-38052758D01*
X86890834Y-38370478D01*
X86894737Y-38901053D01*
X86893753Y-39183028D01*
X86880330Y-39608231D01*
X86840421Y-39845361D01*
X86760583Y-39948199D01*
X86627368Y-39970526D01*
X86537138Y-39962629D01*
X86393842Y-39846018D01*
X86347943Y-39536053D01*
X86335886Y-39101579D01*
X86210437Y-39536053D01*
X86056137Y-39861171D01*
X85821441Y-39970526D01*
X85804512Y-39970351D01*
X85672528Y-39937674D01*
X85598137Y-39808861D01*
X85565279Y-39526889D01*
X85557895Y-39034737D01*
X85557888Y-39015788D01*
X85553098Y-38538807D01*
X85541125Y-38173890D01*
X85524474Y-37998684D01*
X85559630Y-37930679D01*
X85765683Y-37859130D01*
X85938800Y-37864943D01*
X86009597Y-37997870D01*
X86004090Y-38327025D01*
X85967866Y-38834211D01*
X86110371Y-38332895D01*
X86187789Y-38101919D01*
X86339683Y-37887801D01*
X86573806Y-37831579D01*
X86701453Y-37837862D01*
G37*
G36*
X107157633Y-37838629D02*
G01*
X107267533Y-37895695D01*
X107324217Y-38057110D01*
X107345307Y-38377216D01*
X107348421Y-38910351D01*
X107346573Y-39334145D01*
X107330685Y-39699495D01*
X107285624Y-39888665D01*
X107196303Y-39953623D01*
X107047631Y-39946338D01*
X106862151Y-39879566D01*
X106765409Y-39669672D01*
X106766332Y-39656685D01*
X106726649Y-39459920D01*
X106616662Y-39478494D01*
X106507581Y-39703158D01*
X106421611Y-39859860D01*
X106146638Y-39970526D01*
X105971830Y-39938407D01*
X105924910Y-39803421D01*
X106096710Y-39358520D01*
X106212349Y-38916013D01*
X106207335Y-38572952D01*
X106089645Y-38254337D01*
X106042657Y-38163105D01*
X105942030Y-37930597D01*
X105990565Y-37844252D01*
X106208672Y-37831579D01*
X106429634Y-37871522D01*
X106546316Y-38024216D01*
X106556194Y-38106279D01*
X106667533Y-38291769D01*
X106727587Y-38280058D01*
X106718783Y-38099132D01*
X106702241Y-38021268D01*
X106749673Y-37869478D01*
X106998619Y-37831579D01*
X107157633Y-37838629D01*
G37*
G36*
X98124210Y-37902715D02*
G01*
X98121078Y-37922803D01*
X98053650Y-38125894D01*
X97925923Y-38448420D01*
X97815322Y-38755416D01*
X97806378Y-39014854D01*
X97925923Y-39306435D01*
X97929226Y-39312841D01*
X98067050Y-39621338D01*
X98124210Y-39830203D01*
X98063456Y-39953257D01*
X97880241Y-39970340D01*
X97669962Y-39866921D01*
X97531397Y-39669737D01*
X97442137Y-39368947D01*
X97319587Y-39669737D01*
X97190795Y-39854564D01*
X96926443Y-39970526D01*
X96826435Y-39967873D01*
X96728089Y-39921765D01*
X96745761Y-39764630D01*
X96872716Y-39428521D01*
X96899165Y-39361713D01*
X97010427Y-39009598D01*
X97004384Y-38725254D01*
X96882388Y-38359048D01*
X96801025Y-38148609D01*
X96739712Y-37926003D01*
X96800464Y-37843565D01*
X96998649Y-37831579D01*
X97215965Y-37873109D01*
X97326357Y-38065526D01*
X97330382Y-38170166D01*
X97371732Y-38226323D01*
X97508200Y-38065526D01*
X97589580Y-37983433D01*
X97815599Y-37859479D01*
X98029308Y-37823190D01*
X98124210Y-37902715D01*
G37*
G36*
X86258305Y-43273044D02*
G01*
X86331974Y-43647294D01*
X86360000Y-43840337D01*
X86309816Y-43922160D01*
X86092631Y-43981053D01*
X85936715Y-43943834D01*
X85825263Y-43780526D01*
X85801971Y-43687010D01*
X85624737Y-43580000D01*
X85531220Y-43603292D01*
X85424210Y-43780526D01*
X85374586Y-43897464D01*
X85156842Y-43981053D01*
X85098855Y-43980300D01*
X84984077Y-43958532D01*
X84921728Y-43876337D01*
X84913343Y-43693696D01*
X84960456Y-43370588D01*
X85064601Y-42866994D01*
X85076096Y-42815840D01*
X85577445Y-42815840D01*
X85603890Y-43081229D01*
X85609218Y-43093147D01*
X85651067Y-43073046D01*
X85665517Y-42844737D01*
X85664636Y-42803223D01*
X85641491Y-42625659D01*
X85598937Y-42680176D01*
X85577445Y-42815840D01*
X85076096Y-42815840D01*
X85227313Y-42142895D01*
X85332182Y-41934566D01*
X85616568Y-41842105D01*
X85637013Y-41842283D01*
X85804904Y-41875173D01*
X85924844Y-42003702D01*
X86028804Y-42283666D01*
X86148758Y-42770864D01*
X86154608Y-42796638D01*
X86165077Y-42844737D01*
X86258305Y-43273044D01*
G37*
G36*
X88365263Y-38901053D02*
G01*
X88364279Y-39183028D01*
X88350856Y-39608231D01*
X88310948Y-39845361D01*
X88231109Y-39948199D01*
X88097895Y-39970526D01*
X88028877Y-39966389D01*
X87872543Y-39863032D01*
X87830526Y-39569474D01*
X87830516Y-39564484D01*
X87790706Y-39284588D01*
X87696842Y-39168421D01*
X87695179Y-39168452D01*
X87601880Y-39287882D01*
X87563158Y-39569474D01*
X87560670Y-39667760D01*
X87492783Y-39905990D01*
X87299129Y-39970526D01*
X87290331Y-39970485D01*
X87153787Y-39941904D01*
X87079517Y-39820734D01*
X87051792Y-39548858D01*
X87054878Y-39068158D01*
X87080998Y-38604012D01*
X87097940Y-38478505D01*
X87578518Y-38478505D01*
X87670105Y-38660421D01*
X87702765Y-38691129D01*
X87803567Y-38712486D01*
X87830526Y-38500000D01*
X87829551Y-38435657D01*
X87789827Y-38273775D01*
X87670105Y-38339579D01*
X87578518Y-38478505D01*
X87097940Y-38478505D01*
X87134029Y-38211146D01*
X87201592Y-37998684D01*
X87229714Y-37971055D01*
X87480235Y-37871736D01*
X87846895Y-37831579D01*
X88365263Y-37831579D01*
X88365263Y-38500000D01*
X88365263Y-38901053D01*
G37*
G36*
X102751026Y-37832753D02*
G01*
X102968710Y-37877776D01*
X103084326Y-38042332D01*
X103161578Y-38399737D01*
X103255789Y-38967895D01*
X103371551Y-38399737D01*
X103392317Y-38300856D01*
X103486194Y-37991752D01*
X103627246Y-37859523D01*
X103880499Y-37831579D01*
X104273684Y-37831579D01*
X104273684Y-38901053D01*
X104272700Y-39183028D01*
X104259277Y-39608231D01*
X104219369Y-39845361D01*
X104139530Y-39948199D01*
X104006316Y-39970526D01*
X103871128Y-39949230D01*
X103762433Y-39806694D01*
X103728393Y-39469211D01*
X103719221Y-39230912D01*
X103691712Y-39104178D01*
X103637886Y-39225665D01*
X103547568Y-39602895D01*
X103438171Y-39855386D01*
X103271053Y-39970526D01*
X103114546Y-39869495D01*
X102994538Y-39602895D01*
X102925862Y-39307044D01*
X102862645Y-39113236D01*
X102828653Y-39169799D01*
X102813712Y-39469211D01*
X102797035Y-39721846D01*
X102716844Y-39920024D01*
X102535789Y-39970526D01*
X102465296Y-39966591D01*
X102358995Y-39912898D01*
X102299712Y-39753265D01*
X102274003Y-39433911D01*
X102268421Y-38901053D01*
X102268421Y-37831579D01*
X102667894Y-37831579D01*
X102751026Y-37832753D01*
G37*
G36*
X91109441Y-37835514D02*
G01*
X91215742Y-37889207D01*
X91275024Y-38048840D01*
X91300734Y-38368195D01*
X91306316Y-38901053D01*
X91305332Y-39183028D01*
X91291909Y-39608231D01*
X91252000Y-39845361D01*
X91172162Y-39948199D01*
X91038947Y-39970526D01*
X90969929Y-39966389D01*
X90813595Y-39863032D01*
X90771579Y-39569474D01*
X90771569Y-39564484D01*
X90731759Y-39284588D01*
X90637895Y-39168421D01*
X90636231Y-39168452D01*
X90542933Y-39287882D01*
X90504210Y-39569474D01*
X90501452Y-39673001D01*
X90432547Y-39907502D01*
X90236842Y-39970526D01*
X90166348Y-39966591D01*
X90060048Y-39912898D01*
X90000765Y-39753265D01*
X89975056Y-39433911D01*
X89969474Y-38901053D01*
X89970457Y-38619078D01*
X89983881Y-38193875D01*
X90023789Y-37956745D01*
X90103628Y-37853907D01*
X90236842Y-37831579D01*
X90305860Y-37835716D01*
X90462194Y-37939074D01*
X90504210Y-38232632D01*
X90504221Y-38237621D01*
X90544031Y-38517517D01*
X90637895Y-38633684D01*
X90639558Y-38633653D01*
X90732856Y-38514224D01*
X90771579Y-38232632D01*
X90774337Y-38129105D01*
X90843242Y-37894604D01*
X91038947Y-37831579D01*
X91109441Y-37835514D01*
G37*
G36*
X82214717Y-39187336D02*
G01*
X82201058Y-39610345D01*
X82160978Y-39846162D01*
X82081194Y-39948365D01*
X81948421Y-39970526D01*
X81764111Y-39917583D01*
X81662847Y-39669737D01*
X81644642Y-39368947D01*
X81586707Y-39669737D01*
X81486597Y-39891393D01*
X81287302Y-39984944D01*
X81091789Y-39885307D01*
X80992601Y-39602895D01*
X80972571Y-39235263D01*
X80916880Y-39602895D01*
X80824064Y-39867982D01*
X80602699Y-39970526D01*
X80542583Y-39967265D01*
X80436398Y-39914348D01*
X80376562Y-39754675D01*
X80350143Y-39434744D01*
X80344210Y-38901053D01*
X80344691Y-38794460D01*
X80772754Y-38794460D01*
X80790411Y-39068158D01*
X80836831Y-39090835D01*
X80854840Y-38928144D01*
X81708544Y-38928144D01*
X81726200Y-39201842D01*
X81772620Y-39224519D01*
X81793629Y-39034737D01*
X81774994Y-38850838D01*
X81726200Y-38867632D01*
X81716449Y-38901053D01*
X81708544Y-38928144D01*
X80854840Y-38928144D01*
X80857839Y-38901053D01*
X80839205Y-38717154D01*
X80790411Y-38733947D01*
X80772754Y-38794460D01*
X80344691Y-38794460D01*
X80346277Y-38442917D01*
X80363885Y-38093616D01*
X80414302Y-37911666D01*
X80514791Y-37842508D01*
X80682617Y-37831579D01*
X80915335Y-37872223D01*
X81070844Y-37998684D01*
X81174634Y-38327418D01*
X81270705Y-38540926D01*
X81339923Y-38525672D01*
X81401899Y-38299474D01*
X81421587Y-38212756D01*
X81562210Y-37953640D01*
X81848792Y-37856120D01*
X82215789Y-37813820D01*
X82215789Y-38892173D01*
X82215271Y-39034737D01*
X82214717Y-39187336D01*
G37*
G36*
X94460768Y-39899169D02*
G01*
X94689166Y-39328346D01*
X94731257Y-39221483D01*
X94837315Y-38884472D01*
X94831157Y-38639916D01*
X94716150Y-38368032D01*
X94625505Y-38189009D01*
X94532888Y-37949045D01*
X94583813Y-37850598D01*
X94786413Y-37831579D01*
X94976155Y-37889850D01*
X95178992Y-38132369D01*
X95299895Y-38433158D01*
X95308368Y-38132369D01*
X95363017Y-37923340D01*
X95584210Y-37831579D01*
X95654704Y-37835514D01*
X95761005Y-37889207D01*
X95820287Y-38048840D01*
X95845997Y-38368195D01*
X95851579Y-38901053D01*
X95850595Y-39183028D01*
X95837172Y-39608231D01*
X95797264Y-39845361D01*
X95717425Y-39948199D01*
X95584210Y-39970526D01*
X95561911Y-39970118D01*
X95368344Y-39883105D01*
X95306288Y-39602895D01*
X95295734Y-39235263D01*
X95161463Y-39602895D01*
X95145111Y-39646360D01*
X95022779Y-39857366D01*
X94817129Y-39949964D01*
X94436754Y-39970526D01*
X94197924Y-39963152D01*
X93926447Y-39903287D01*
X93846316Y-39770000D01*
X93830736Y-39677686D01*
X93708436Y-39569474D01*
X93635037Y-39592861D01*
X93493607Y-39770000D01*
X93404445Y-39882194D01*
X93149100Y-39970526D01*
X93121862Y-39970117D01*
X92947520Y-39901888D01*
X92951388Y-39669737D01*
X92993945Y-39482005D01*
X93084949Y-39071164D01*
X93145336Y-38794460D01*
X93606438Y-38794460D01*
X93624095Y-39068158D01*
X93670515Y-39090835D01*
X93691523Y-38901053D01*
X93672889Y-38717154D01*
X93624095Y-38733947D01*
X93606438Y-38794460D01*
X93145336Y-38794460D01*
X93189175Y-38593581D01*
X93280715Y-38203968D01*
X93376744Y-37953977D01*
X93501719Y-37858189D01*
X93695802Y-37858318D01*
X93752467Y-37866413D01*
X93912894Y-37927693D01*
X94028861Y-38082405D01*
X94130421Y-38387217D01*
X94247628Y-38898795D01*
X94248109Y-38901053D01*
X94460768Y-39899169D01*
G37*
D15*
%TO.C,JP18*%
X181650000Y-65300000D02*
X181650000Y-64700000D01*
X182300000Y-64000000D02*
X185100000Y-64000000D01*
X185100000Y-66000000D02*
X182300000Y-66000000D01*
X185750000Y-64700000D02*
X185750000Y-65300000D01*
X181650000Y-64700000D02*
G75*
G02*
X182350000Y-64000000I699999J1D01*
G01*
X182350000Y-66000000D02*
G75*
G02*
X181650000Y-65300000I-1J699999D01*
G01*
X185050000Y-64000000D02*
G75*
G02*
X185750000Y-64700000I0J-700000D01*
G01*
X185750000Y-65300000D02*
G75*
G02*
X185050000Y-66000000I-700000J0D01*
G01*
%TO.C,JP17*%
X181670800Y-67992400D02*
X181670800Y-67392400D01*
X182320800Y-66692400D02*
X185120800Y-66692400D01*
X185120800Y-68692400D02*
X182320800Y-68692400D01*
X185770800Y-67392400D02*
X185770800Y-67992400D01*
X181670800Y-67392400D02*
G75*
G02*
X182370800Y-66692400I699999J1D01*
G01*
X182370800Y-68692400D02*
G75*
G02*
X181670800Y-67992400I-1J699999D01*
G01*
X185070800Y-66692400D02*
G75*
G02*
X185770800Y-67392400I0J-700000D01*
G01*
X185770800Y-67992400D02*
G75*
G02*
X185070800Y-68692400I-700000J0D01*
G01*
D11*
%TO.C,H24*%
X95740000Y-86000000D02*
X95740000Y-88540000D01*
X95740000Y-88540000D02*
X103360000Y-88540000D01*
X101450000Y-86000000D02*
X95740000Y-86000000D01*
X103360000Y-86000000D02*
X101450000Y-86000000D01*
X103360000Y-88540000D02*
X103360000Y-86000000D01*
D15*
%TO.C,JP10*%
X155655000Y-83179800D02*
X155655000Y-82579800D01*
X156305000Y-81879800D02*
X159105000Y-81879800D01*
X159105000Y-83879800D02*
X156305000Y-83879800D01*
X159755000Y-82579800D02*
X159755000Y-83179800D01*
X155655000Y-82579800D02*
G75*
G02*
X156355000Y-81879800I699999J1D01*
G01*
X156355000Y-83879800D02*
G75*
G02*
X155655000Y-83179800I-1J699999D01*
G01*
X159055000Y-81879800D02*
G75*
G02*
X159755000Y-82579800I0J-700000D01*
G01*
X159755000Y-83179800D02*
G75*
G02*
X159055000Y-83879800I-700000J0D01*
G01*
%TO.C,JP8*%
X116705000Y-85998800D02*
X116705000Y-85398800D01*
X117355000Y-84698800D02*
X120155000Y-84698800D01*
X120155000Y-86698800D02*
X117355000Y-86698800D01*
X120805000Y-85398800D02*
X120805000Y-85998800D01*
X116705000Y-85398800D02*
G75*
G02*
X117405000Y-84698800I699999J1D01*
G01*
X117405000Y-86698800D02*
G75*
G02*
X116705000Y-85998800I-1J699999D01*
G01*
X120105000Y-84698800D02*
G75*
G02*
X120805000Y-85398800I0J-700000D01*
G01*
X120805000Y-85998800D02*
G75*
G02*
X120105000Y-86698800I-700000J0D01*
G01*
%TO.C,JP2*%
X77655000Y-83184800D02*
X77655000Y-82584800D01*
X78305000Y-81884800D02*
X81105000Y-81884800D01*
X81105000Y-83884800D02*
X78305000Y-83884800D01*
X81755000Y-82584800D02*
X81755000Y-83184800D01*
X77655000Y-82584800D02*
G75*
G02*
X78355000Y-81884800I699999J1D01*
G01*
X78355000Y-83884800D02*
G75*
G02*
X77655000Y-83184800I-1J699999D01*
G01*
X81055000Y-81884800D02*
G75*
G02*
X81755000Y-82584800I0J-700000D01*
G01*
X81755000Y-83184800D02*
G75*
G02*
X81055000Y-83884800I-700000J0D01*
G01*
%TO.C,JP3*%
X77634200Y-80492400D02*
X77634200Y-79892400D01*
X78284200Y-79192400D02*
X81084200Y-79192400D01*
X81084200Y-81192400D02*
X78284200Y-81192400D01*
X81734200Y-79892400D02*
X81734200Y-80492400D01*
X77634200Y-79892400D02*
G75*
G02*
X78334200Y-79192400I699999J1D01*
G01*
X78334200Y-81192400D02*
G75*
G02*
X77634200Y-80492400I-1J699999D01*
G01*
X81034200Y-79192400D02*
G75*
G02*
X81734200Y-79892400I0J-700000D01*
G01*
X81734200Y-80492400D02*
G75*
G02*
X81034200Y-81192400I-700000J0D01*
G01*
D11*
%TO.C,H25*%
X134690000Y-85975000D02*
X134690000Y-88515000D01*
X134690000Y-88515000D02*
X142310000Y-88515000D01*
X140400000Y-85975000D02*
X134690000Y-85975000D01*
X142310000Y-85975000D02*
X140400000Y-85975000D01*
X142310000Y-88515000D02*
X142310000Y-85975000D01*
D15*
%TO.C,JP20*%
X181620000Y-62607600D02*
X181620000Y-62007600D01*
X182270000Y-61307600D02*
X185070000Y-61307600D01*
X185070000Y-63307600D02*
X182270000Y-63307600D01*
X185720000Y-62007600D02*
X185720000Y-62607600D01*
X181620000Y-62007600D02*
G75*
G02*
X182320000Y-61307600I699999J1D01*
G01*
X182320000Y-63307600D02*
G75*
G02*
X181620000Y-62607600I-1J699999D01*
G01*
X185020000Y-61307600D02*
G75*
G02*
X185720000Y-62007600I0J-700000D01*
G01*
X185720000Y-62607600D02*
G75*
G02*
X185020000Y-63307600I-700000J0D01*
G01*
%TO.C,JP5*%
X77604200Y-77800000D02*
X77604200Y-77200000D01*
X78254200Y-76500000D02*
X81054200Y-76500000D01*
X81054200Y-78500000D02*
X78254200Y-78500000D01*
X81704200Y-77200000D02*
X81704200Y-77800000D01*
X77604200Y-77200000D02*
G75*
G02*
X78304200Y-76500000I699999J1D01*
G01*
X78304200Y-78500000D02*
G75*
G02*
X77604200Y-77800000I-1J699999D01*
G01*
X81004200Y-76500000D02*
G75*
G02*
X81704200Y-77200000I0J-700000D01*
G01*
X81704200Y-77800000D02*
G75*
G02*
X81004200Y-78500000I-700000J0D01*
G01*
%TO.C,JP6*%
X116705000Y-83204800D02*
X116705000Y-82604800D01*
X117355000Y-81904800D02*
X120155000Y-81904800D01*
X120155000Y-83904800D02*
X117355000Y-83904800D01*
X120805000Y-82604800D02*
X120805000Y-83204800D01*
X116705000Y-82604800D02*
G75*
G02*
X117405000Y-81904800I699999J1D01*
G01*
X117405000Y-83904800D02*
G75*
G02*
X116705000Y-83204800I-1J699999D01*
G01*
X120105000Y-81904800D02*
G75*
G02*
X120805000Y-82604800I0J-700000D01*
G01*
X120805000Y-83204800D02*
G75*
G02*
X120105000Y-83904800I-700000J0D01*
G01*
D11*
%TO.C,H26*%
X173640000Y-86000000D02*
X173640000Y-88540000D01*
X173640000Y-88540000D02*
X181260000Y-88540000D01*
X179350000Y-86000000D02*
X173640000Y-86000000D01*
X181260000Y-86000000D02*
X179350000Y-86000000D01*
X181260000Y-88540000D02*
X181260000Y-86000000D01*
D15*
%TO.C,JP7*%
X116684200Y-80512400D02*
X116684200Y-79912400D01*
X117334200Y-79212400D02*
X120134200Y-79212400D01*
X120134200Y-81212400D02*
X117334200Y-81212400D01*
X120784200Y-79912400D02*
X120784200Y-80512400D01*
X116684200Y-79912400D02*
G75*
G02*
X117384200Y-79212400I699999J1D01*
G01*
X117384200Y-81212400D02*
G75*
G02*
X116684200Y-80512400I-1J699999D01*
G01*
X120084200Y-79212400D02*
G75*
G02*
X120784200Y-79912400I0J-700000D01*
G01*
X120784200Y-80512400D02*
G75*
G02*
X120084200Y-81212400I-700000J0D01*
G01*
%TO.C,JP9*%
X116654200Y-77820000D02*
X116654200Y-77220000D01*
X117304200Y-76520000D02*
X120104200Y-76520000D01*
X120104200Y-78520000D02*
X117304200Y-78520000D01*
X120754200Y-77220000D02*
X120754200Y-77820000D01*
X116654200Y-77220000D02*
G75*
G02*
X117354200Y-76520000I699999J1D01*
G01*
X117354200Y-78520000D02*
G75*
G02*
X116654200Y-77820000I-1J699999D01*
G01*
X120054200Y-76520000D02*
G75*
G02*
X120754200Y-77220000I0J-700000D01*
G01*
X120754200Y-77820000D02*
G75*
G02*
X120054200Y-78520000I-700000J0D01*
G01*
%TO.C,JP12*%
X155655000Y-85973800D02*
X155655000Y-85373800D01*
X156305000Y-84673800D02*
X159105000Y-84673800D01*
X159105000Y-86673800D02*
X156305000Y-86673800D01*
X159755000Y-85373800D02*
X159755000Y-85973800D01*
X155655000Y-85373800D02*
G75*
G02*
X156355000Y-84673800I699999J1D01*
G01*
X156355000Y-86673800D02*
G75*
G02*
X155655000Y-85973800I-1J699999D01*
G01*
X159055000Y-84673800D02*
G75*
G02*
X159755000Y-85373800I0J-700000D01*
G01*
X159755000Y-85973800D02*
G75*
G02*
X159055000Y-86673800I-700000J0D01*
G01*
%TO.C,JP14*%
X139747284Y-28550000D02*
X139747284Y-27950000D01*
X140397284Y-27250000D02*
X143197284Y-27250000D01*
X143197284Y-29250000D02*
X140397284Y-29250000D01*
X143847284Y-27950000D02*
X143847284Y-28550000D01*
X139747284Y-27950000D02*
G75*
G02*
X140447284Y-27250000I700000J0D01*
G01*
X140447284Y-29250000D02*
G75*
G02*
X139747284Y-28550000I0J700000D01*
G01*
X143147284Y-27250000D02*
G75*
G02*
X143847284Y-27950000I1J-699999D01*
G01*
X143847284Y-28550000D02*
G75*
G02*
X143147284Y-29250000I-699999J-1D01*
G01*
%TO.C,JP16*%
X139747284Y-34550000D02*
X139747284Y-33950000D01*
X140397284Y-33250000D02*
X143197284Y-33250000D01*
X143197284Y-35250000D02*
X140397284Y-35250000D01*
X143847284Y-33950000D02*
X143847284Y-34550000D01*
X139747284Y-33950000D02*
G75*
G02*
X140447284Y-33250000I700000J0D01*
G01*
X140447284Y-35250000D02*
G75*
G02*
X139747284Y-34550000I0J700000D01*
G01*
X143147284Y-33250000D02*
G75*
G02*
X143847284Y-33950000I1J-699999D01*
G01*
X143847284Y-34550000D02*
G75*
G02*
X143147284Y-35250000I-699999J-1D01*
G01*
%TO.C,JP19*%
X181670800Y-70786400D02*
X181670800Y-70186400D01*
X182320800Y-69486400D02*
X185120800Y-69486400D01*
X185120800Y-71486400D02*
X182320800Y-71486400D01*
X185770800Y-70186400D02*
X185770800Y-70786400D01*
X181670800Y-70186400D02*
G75*
G02*
X182370800Y-69486400I699999J1D01*
G01*
X182370800Y-71486400D02*
G75*
G02*
X181670800Y-70786400I-1J699999D01*
G01*
X185070800Y-69486400D02*
G75*
G02*
X185770800Y-70186400I0J-700000D01*
G01*
X185770800Y-70786400D02*
G75*
G02*
X185070800Y-71486400I-700000J0D01*
G01*
%TO.C,JP15*%
X139747284Y-31550000D02*
X139747284Y-30950000D01*
X140397284Y-30250000D02*
X143197284Y-30250000D01*
X143197284Y-32250000D02*
X140397284Y-32250000D01*
X143847284Y-30950000D02*
X143847284Y-31550000D01*
X139747284Y-30950000D02*
G75*
G02*
X140447284Y-30250000I700000J0D01*
G01*
X140447284Y-32250000D02*
G75*
G02*
X139747284Y-31550000I0J700000D01*
G01*
X143147284Y-30250000D02*
G75*
G02*
X143847284Y-30950000I1J-699999D01*
G01*
X143847284Y-31550000D02*
G75*
G02*
X143147284Y-32250000I-699999J-1D01*
G01*
D11*
%TO.C,H23*%
X56690000Y-85980000D02*
X56690000Y-88520000D01*
X56690000Y-88520000D02*
X64310000Y-88520000D01*
X62400000Y-85980000D02*
X56690000Y-85980000D01*
X64310000Y-85980000D02*
X62400000Y-85980000D01*
X64310000Y-88520000D02*
X64310000Y-85980000D01*
D15*
%TO.C,JP11*%
X155634200Y-80487400D02*
X155634200Y-79887400D01*
X156284200Y-79187400D02*
X159084200Y-79187400D01*
X159084200Y-81187400D02*
X156284200Y-81187400D01*
X159734200Y-79887400D02*
X159734200Y-80487400D01*
X155634200Y-79887400D02*
G75*
G02*
X156334200Y-79187400I699999J1D01*
G01*
X156334200Y-81187400D02*
G75*
G02*
X155634200Y-80487400I-1J699999D01*
G01*
X159034200Y-79187400D02*
G75*
G02*
X159734200Y-79887400I0J-700000D01*
G01*
X159734200Y-80487400D02*
G75*
G02*
X159034200Y-81187400I-700000J0D01*
G01*
%TO.C,JP13*%
X155604200Y-77795000D02*
X155604200Y-77195000D01*
X156254200Y-76495000D02*
X159054200Y-76495000D01*
X159054200Y-78495000D02*
X156254200Y-78495000D01*
X159704200Y-77195000D02*
X159704200Y-77795000D01*
X155604200Y-77195000D02*
G75*
G02*
X156304200Y-76495000I699999J1D01*
G01*
X156304200Y-78495000D02*
G75*
G02*
X155604200Y-77795000I-1J699999D01*
G01*
X159004200Y-76495000D02*
G75*
G02*
X159704200Y-77195000I0J-700000D01*
G01*
X159704200Y-77795000D02*
G75*
G02*
X159004200Y-78495000I-700000J0D01*
G01*
%TO.C,JP4*%
X77655000Y-85978800D02*
X77655000Y-85378800D01*
X78305000Y-84678800D02*
X81105000Y-84678800D01*
X81105000Y-86678800D02*
X78305000Y-86678800D01*
X81755000Y-85378800D02*
X81755000Y-85978800D01*
X77655000Y-85378800D02*
G75*
G02*
X78355000Y-84678800I699999J1D01*
G01*
X78355000Y-86678800D02*
G75*
G02*
X77655000Y-85978800I-1J699999D01*
G01*
X81055000Y-84678800D02*
G75*
G02*
X81755000Y-85378800I0J-700000D01*
G01*
X81755000Y-85978800D02*
G75*
G02*
X81055000Y-86678800I-700000J0D01*
G01*
%TD*%
%LPC*%
D16*
%TO.C,J3*%
X179500000Y-34050000D03*
D17*
X179500000Y-31510000D03*
%TD*%
D18*
%TO.C,J12*%
X25200000Y-94000000D03*
X25200000Y-108000000D03*
X30800000Y-94000000D03*
X30800000Y-108000000D03*
X36500000Y-94000000D03*
X36500000Y-108000000D03*
X42100000Y-94000000D03*
X42100000Y-108000000D03*
%TD*%
D19*
%TO.C,H7*%
X147500000Y-95445000D03*
%TD*%
%TO.C,H3*%
X135250000Y-111995000D03*
%TD*%
%TO.C,H6*%
X108550000Y-95470000D03*
%TD*%
%TO.C,H4*%
X160000000Y-112000000D03*
%TD*%
%TO.C,H8*%
X179275000Y-106700000D03*
%TD*%
D18*
%TO.C,J11*%
X25100000Y-64000000D03*
X25100000Y-78000000D03*
X30700000Y-64000000D03*
X30700000Y-78000000D03*
X36400000Y-64000000D03*
X36400000Y-78000000D03*
X42000000Y-64000000D03*
X42000000Y-78000000D03*
%TD*%
D19*
%TO.C,H1*%
X57250000Y-112000000D03*
%TD*%
D20*
%TO.C,J2*%
X37040000Y-27740000D03*
X49640000Y-27740000D03*
D21*
X39770000Y-30280000D03*
X40790000Y-32060000D03*
X41810000Y-30280000D03*
X42830000Y-32060000D03*
X43850000Y-30280000D03*
X44870000Y-32060000D03*
X45890000Y-30280000D03*
X46910000Y-32060000D03*
X36480000Y-36880000D03*
X38770000Y-36880000D03*
X47910000Y-36880000D03*
X50200000Y-36880000D03*
D22*
X35290000Y-31170000D03*
X51390000Y-31170000D03*
%TD*%
D20*
%TO.C,J4*%
X56190000Y-27790000D03*
X68790000Y-27790000D03*
D21*
X58920000Y-30330000D03*
X59940000Y-32110000D03*
X60960000Y-30330000D03*
X61980000Y-32110000D03*
X63000000Y-30330000D03*
X64020000Y-32110000D03*
X65040000Y-30330000D03*
X66060000Y-32110000D03*
X55630000Y-36930000D03*
X57920000Y-36930000D03*
X67060000Y-36930000D03*
X69350000Y-36930000D03*
D22*
X54440000Y-31220000D03*
X70540000Y-31220000D03*
%TD*%
D16*
%TO.C,J5*%
X183500000Y-34050000D03*
D17*
X183500000Y-31510000D03*
%TD*%
D19*
%TO.C,H5*%
X69500000Y-95450000D03*
%TD*%
D16*
%TO.C,J1*%
X77900000Y-40420000D03*
D17*
X77900000Y-37880000D03*
X77900000Y-35340000D03*
X77900000Y-32800000D03*
%TD*%
D19*
%TO.C,H2*%
X96300000Y-112020000D03*
%TD*%
D23*
%TO.C,JP18*%
X182400000Y-65000000D03*
D24*
X183700000Y-65000000D03*
D25*
X185000000Y-65000000D03*
%TD*%
D23*
%TO.C,JP17*%
X182420800Y-67692400D03*
D24*
X183720800Y-67692400D03*
D25*
X185020800Y-67692400D03*
%TD*%
D26*
%TO.C,H24*%
X102090000Y-87270000D03*
D27*
X99550000Y-87270000D03*
X97010000Y-87270000D03*
%TD*%
D23*
%TO.C,JP10*%
X156405000Y-82879800D03*
D24*
X157705000Y-82879800D03*
D25*
X159005000Y-82879800D03*
%TD*%
D23*
%TO.C,JP8*%
X117455000Y-85698800D03*
D24*
X118755000Y-85698800D03*
D25*
X120055000Y-85698800D03*
%TD*%
D23*
%TO.C,JP2*%
X78405000Y-82884800D03*
D24*
X79705000Y-82884800D03*
D25*
X81005000Y-82884800D03*
%TD*%
D23*
%TO.C,JP3*%
X78384200Y-80192400D03*
D24*
X79684200Y-80192400D03*
D25*
X80984200Y-80192400D03*
%TD*%
D28*
%TO.C,H17*%
X128460000Y-87615000D03*
D29*
X131000000Y-87615000D03*
X128460000Y-85075000D03*
X131000000Y-85075000D03*
X128460000Y-82535000D03*
X131000000Y-82535000D03*
X128460000Y-79995000D03*
X131000000Y-79995000D03*
X128460000Y-77455000D03*
X131000000Y-77455000D03*
%TD*%
D26*
%TO.C,H25*%
X141040000Y-87245000D03*
D27*
X138500000Y-87245000D03*
X135960000Y-87245000D03*
%TD*%
D23*
%TO.C,JP20*%
X182370000Y-62307600D03*
D24*
X183670000Y-62307600D03*
D25*
X184970000Y-62307600D03*
%TD*%
D23*
%TO.C,JP5*%
X78354200Y-77500000D03*
D24*
X79654200Y-77500000D03*
D25*
X80954200Y-77500000D03*
%TD*%
D30*
%TO.C,H19*%
X60200000Y-66600000D03*
D29*
X60200000Y-64060000D03*
X57660000Y-66600000D03*
X57660000Y-64060000D03*
X55120000Y-66600000D03*
X55120000Y-64060000D03*
X52580000Y-66600000D03*
X52580000Y-64060000D03*
X50040000Y-66600000D03*
X50040000Y-64060000D03*
%TD*%
D30*
%TO.C,H22*%
X177150000Y-66620000D03*
D29*
X177150000Y-64080000D03*
X174610000Y-66620000D03*
X174610000Y-64080000D03*
X172070000Y-66620000D03*
X172070000Y-64080000D03*
X169530000Y-66620000D03*
X169530000Y-64080000D03*
X166990000Y-66620000D03*
X166990000Y-64080000D03*
%TD*%
D30*
%TO.C,H21*%
X138200000Y-66595000D03*
D29*
X138200000Y-64055000D03*
X135660000Y-66595000D03*
X135660000Y-64055000D03*
X133120000Y-66595000D03*
X133120000Y-64055000D03*
X130580000Y-66595000D03*
X130580000Y-64055000D03*
X128040000Y-66595000D03*
X128040000Y-64055000D03*
%TD*%
D23*
%TO.C,JP6*%
X117455000Y-82904800D03*
D24*
X118755000Y-82904800D03*
D25*
X120055000Y-82904800D03*
%TD*%
D26*
%TO.C,H26*%
X179990000Y-87270000D03*
D27*
X177450000Y-87270000D03*
X174910000Y-87270000D03*
%TD*%
D31*
%TO.C,HM4*%
X180000000Y-116000000D03*
%TD*%
%TO.C,HM3*%
X139574400Y-79498300D03*
%TD*%
%TO.C,HM4*%
X30000000Y-116000000D03*
%TD*%
%TO.C,HM4*%
X30000000Y-26000000D03*
%TD*%
D23*
%TO.C,JP7*%
X117434200Y-80212400D03*
D24*
X118734200Y-80212400D03*
D25*
X120034200Y-80212400D03*
%TD*%
D23*
%TO.C,JP9*%
X117404200Y-77520000D03*
D24*
X118704200Y-77520000D03*
D25*
X120004200Y-77520000D03*
%TD*%
D23*
%TO.C,JP12*%
X156405000Y-85673800D03*
D24*
X157705000Y-85673800D03*
D25*
X159005000Y-85673800D03*
%TD*%
D32*
%TO.C,JP14*%
X143097284Y-28250000D03*
D24*
X141797284Y-28250000D03*
D33*
X140497284Y-28250000D03*
%TD*%
D28*
%TO.C,H16*%
X89510000Y-87640000D03*
D29*
X92050000Y-87640000D03*
X89510000Y-85100000D03*
X92050000Y-85100000D03*
X89510000Y-82560000D03*
X92050000Y-82560000D03*
X89510000Y-80020000D03*
X92050000Y-80020000D03*
X89510000Y-77480000D03*
X92050000Y-77480000D03*
%TD*%
D32*
%TO.C,JP16*%
X143097284Y-34250000D03*
D24*
X141797284Y-34250000D03*
D33*
X140497284Y-34250000D03*
%TD*%
D23*
%TO.C,JP19*%
X182420800Y-70486400D03*
D24*
X183720800Y-70486400D03*
D25*
X185020800Y-70486400D03*
%TD*%
D28*
%TO.C,H18*%
X167410000Y-87640000D03*
D29*
X169950000Y-87640000D03*
X167410000Y-85100000D03*
X169950000Y-85100000D03*
X167410000Y-82560000D03*
X169950000Y-82560000D03*
X167410000Y-80020000D03*
X169950000Y-80020000D03*
X167410000Y-77480000D03*
X169950000Y-77480000D03*
%TD*%
D31*
%TO.C,HM1*%
X61500000Y-79500000D03*
%TD*%
D28*
%TO.C,H15*%
X50460000Y-87620000D03*
D29*
X53000000Y-87620000D03*
X50460000Y-85080000D03*
X53000000Y-85080000D03*
X50460000Y-82540000D03*
X53000000Y-82540000D03*
X50460000Y-80000000D03*
X53000000Y-80000000D03*
X50460000Y-77460000D03*
X53000000Y-77460000D03*
%TD*%
D31*
%TO.C,HM2*%
X100500000Y-79600000D03*
%TD*%
D32*
%TO.C,JP15*%
X143097284Y-31250000D03*
D24*
X141797284Y-31250000D03*
D33*
X140497284Y-31250000D03*
%TD*%
D31*
%TO.C,HM4*%
X178500000Y-79498300D03*
%TD*%
D26*
%TO.C,H23*%
X63040000Y-87250000D03*
D27*
X60500000Y-87250000D03*
X57960000Y-87250000D03*
%TD*%
D23*
%TO.C,JP11*%
X156384200Y-80187400D03*
D24*
X157684200Y-80187400D03*
D25*
X158984200Y-80187400D03*
%TD*%
D31*
%TO.C,HM4*%
X180000000Y-26000000D03*
%TD*%
D30*
%TO.C,H20*%
X99250000Y-66620000D03*
D29*
X99250000Y-64080000D03*
X96710000Y-66620000D03*
X96710000Y-64080000D03*
X94170000Y-66620000D03*
X94170000Y-64080000D03*
X91630000Y-66620000D03*
X91630000Y-64080000D03*
X89090000Y-66620000D03*
X89090000Y-64080000D03*
%TD*%
D23*
%TO.C,JP13*%
X156354200Y-77495000D03*
D24*
X157654200Y-77495000D03*
D25*
X158954200Y-77495000D03*
%TD*%
D23*
%TO.C,JP4*%
X78405000Y-85678800D03*
D24*
X79705000Y-85678800D03*
D25*
X81005000Y-85678800D03*
%TD*%
G36*
X45931055Y-88425079D02*
G01*
X45995400Y-88427377D01*
X46004229Y-88428008D01*
X46068213Y-88434887D01*
X46072606Y-88435439D01*
X46122485Y-88442611D01*
X46127805Y-88443495D01*
X46135381Y-88444923D01*
X46145933Y-88447394D01*
X46152846Y-88449335D01*
X46158949Y-88451219D01*
X46170001Y-88454946D01*
X46171863Y-88455590D01*
X46185499Y-88460431D01*
X46186419Y-88460762D01*
X46193014Y-88463162D01*
X46197154Y-88464753D01*
X46214755Y-88471881D01*
X46222833Y-88475493D01*
X46239836Y-88483836D01*
X46243775Y-88485857D01*
X46278038Y-88504215D01*
X46285686Y-88508671D01*
X46334149Y-88539276D01*
X46348396Y-88549766D01*
X46392007Y-88586954D01*
X46398535Y-88592936D01*
X46421223Y-88615268D01*
X46425660Y-88619867D01*
X46440500Y-88636062D01*
X46448638Y-88645917D01*
X46461757Y-88663587D01*
X46465454Y-88668846D01*
X46466474Y-88670380D01*
X46467531Y-88671997D01*
X46479802Y-88691090D01*
X46481877Y-88694434D01*
X46492402Y-88712013D01*
X46495541Y-88717577D01*
X46503969Y-88733456D01*
X46507842Y-88741427D01*
X46515507Y-88758755D01*
X46517222Y-88762829D01*
X46544509Y-88830983D01*
X46546853Y-88837334D01*
X46555615Y-88863233D01*
X46559242Y-88876250D01*
X46565133Y-88902945D01*
X46566410Y-88909589D01*
X46570712Y-88935808D01*
X46571069Y-88938118D01*
X46571501Y-88941102D01*
X46572086Y-88945764D01*
X46572338Y-88948135D01*
X46572671Y-88951789D01*
X46572925Y-88955112D01*
X46573102Y-88957805D01*
X46573347Y-88962294D01*
X46573413Y-88963646D01*
X46574019Y-88977533D01*
X46574071Y-88978887D01*
X46574717Y-88998646D01*
X46574776Y-89001340D01*
X46574993Y-89021155D01*
X46575000Y-89022513D01*
X46575000Y-104424996D01*
X46594214Y-104620088D01*
X46651122Y-104807687D01*
X46651123Y-104807690D01*
X46743526Y-104980564D01*
X46743530Y-104980571D01*
X46796853Y-105045544D01*
X46824166Y-105109854D01*
X46825000Y-105124209D01*
X46825000Y-105175000D01*
X46875790Y-105175000D01*
X46942829Y-105194685D01*
X46954455Y-105203147D01*
X47019428Y-105256468D01*
X47019435Y-105256473D01*
X47192309Y-105348876D01*
X47192312Y-105348877D01*
X47379913Y-105405785D01*
X47379909Y-105405785D01*
X47575003Y-105425000D01*
X169926629Y-105425000D01*
X169931055Y-105425079D01*
X169995400Y-105427377D01*
X170004229Y-105428008D01*
X170068213Y-105434887D01*
X170072606Y-105435439D01*
X170122485Y-105442611D01*
X170127805Y-105443495D01*
X170135381Y-105444923D01*
X170145933Y-105447394D01*
X170152846Y-105449335D01*
X170158949Y-105451219D01*
X170170001Y-105454946D01*
X170171863Y-105455590D01*
X170185499Y-105460431D01*
X170186419Y-105460762D01*
X170193014Y-105463162D01*
X170197154Y-105464753D01*
X170214755Y-105471881D01*
X170222833Y-105475493D01*
X170239836Y-105483836D01*
X170243775Y-105485857D01*
X170278038Y-105504215D01*
X170285686Y-105508671D01*
X170334149Y-105539276D01*
X170348396Y-105549766D01*
X170392007Y-105586954D01*
X170398535Y-105592936D01*
X170421223Y-105615268D01*
X170425659Y-105619866D01*
X170440503Y-105636065D01*
X170448640Y-105645918D01*
X170461748Y-105663572D01*
X170465436Y-105668818D01*
X170466461Y-105670359D01*
X170467532Y-105671997D01*
X170479803Y-105691092D01*
X170481873Y-105694429D01*
X170492398Y-105712007D01*
X170495543Y-105717579D01*
X170503972Y-105733462D01*
X170507838Y-105741422D01*
X170515504Y-105758750D01*
X170517222Y-105762829D01*
X170544509Y-105830983D01*
X170546853Y-105837334D01*
X170555615Y-105863233D01*
X170559242Y-105876250D01*
X170565133Y-105902945D01*
X170566410Y-105909589D01*
X170570712Y-105935808D01*
X170571070Y-105938125D01*
X170571503Y-105941117D01*
X170572085Y-105945762D01*
X170572334Y-105948103D01*
X170572668Y-105951756D01*
X170572924Y-105955101D01*
X170573102Y-105957805D01*
X170573347Y-105962294D01*
X170573413Y-105963646D01*
X170574019Y-105977533D01*
X170574071Y-105978887D01*
X170574717Y-105998646D01*
X170574776Y-106001340D01*
X170574993Y-106021155D01*
X170575000Y-106022513D01*
X170575000Y-117926628D01*
X170574921Y-117931056D01*
X170572622Y-117995402D01*
X170571991Y-118004229D01*
X170565112Y-118068213D01*
X170564560Y-118072606D01*
X170557388Y-118122485D01*
X170556504Y-118127808D01*
X170555076Y-118135383D01*
X170552605Y-118145933D01*
X170550660Y-118152860D01*
X170548773Y-118158972D01*
X170545044Y-118170027D01*
X170544405Y-118171873D01*
X170539568Y-118185500D01*
X170539234Y-118186428D01*
X170536832Y-118193028D01*
X170535241Y-118197168D01*
X170528120Y-118214751D01*
X170524509Y-118222827D01*
X170516163Y-118239836D01*
X170514142Y-118243775D01*
X170495784Y-118278038D01*
X170491328Y-118285686D01*
X170460723Y-118334149D01*
X170450234Y-118348395D01*
X170413046Y-118392007D01*
X170407061Y-118398538D01*
X170384730Y-118421224D01*
X170380135Y-118425658D01*
X170363935Y-118440503D01*
X170354081Y-118448640D01*
X170336427Y-118461748D01*
X170331181Y-118465436D01*
X170329640Y-118466461D01*
X170328002Y-118467532D01*
X170308904Y-118479805D01*
X170305567Y-118481876D01*
X170287982Y-118492405D01*
X170282412Y-118495548D01*
X170266541Y-118503971D01*
X170258574Y-118507840D01*
X170241244Y-118515506D01*
X170237170Y-118517222D01*
X170169016Y-118544509D01*
X170162665Y-118546853D01*
X170136766Y-118555615D01*
X170123749Y-118559242D01*
X170097054Y-118565133D01*
X170090410Y-118566410D01*
X170064191Y-118570712D01*
X170061874Y-118571070D01*
X170058882Y-118571503D01*
X170054237Y-118572085D01*
X170051896Y-118572334D01*
X170048243Y-118572668D01*
X170044898Y-118572924D01*
X170042200Y-118573101D01*
X170037715Y-118573346D01*
X170036362Y-118573413D01*
X170022465Y-118574020D01*
X170021101Y-118574072D01*
X170001350Y-118574717D01*
X169998661Y-118574776D01*
X169978844Y-118574993D01*
X169977486Y-118575000D01*
X20073371Y-118575000D01*
X20068943Y-118574921D01*
X20004597Y-118572622D01*
X19995770Y-118571991D01*
X19931786Y-118565112D01*
X19927393Y-118564560D01*
X19877514Y-118557388D01*
X19872194Y-118556504D01*
X19864618Y-118555076D01*
X19854066Y-118552605D01*
X19847153Y-118550664D01*
X19841041Y-118548777D01*
X19829953Y-118545037D01*
X19828107Y-118544398D01*
X19814553Y-118539587D01*
X19813620Y-118539252D01*
X19806963Y-118536829D01*
X19802831Y-118535241D01*
X19785249Y-118528121D01*
X19777166Y-118524507D01*
X19760160Y-118516162D01*
X19756224Y-118514142D01*
X19721961Y-118495784D01*
X19714313Y-118491328D01*
X19665850Y-118460723D01*
X19651603Y-118450233D01*
X19607992Y-118413045D01*
X19601464Y-118407063D01*
X19578776Y-118384731D01*
X19574339Y-118380132D01*
X19559499Y-118363937D01*
X19551361Y-118354082D01*
X19538242Y-118336412D01*
X19534545Y-118331153D01*
X19533525Y-118329619D01*
X19532468Y-118328002D01*
X19520199Y-118308912D01*
X19518125Y-118305570D01*
X19507596Y-118287985D01*
X19504455Y-118282417D01*
X19496030Y-118266543D01*
X19492159Y-118258574D01*
X19484493Y-118241244D01*
X19482777Y-118237170D01*
X19455490Y-118169016D01*
X19453146Y-118162665D01*
X19444384Y-118136766D01*
X19440757Y-118123749D01*
X19434866Y-118097054D01*
X19433589Y-118090410D01*
X19429287Y-118064191D01*
X19428929Y-118061874D01*
X19428496Y-118058882D01*
X19427916Y-118054265D01*
X19427667Y-118051929D01*
X19427330Y-118048240D01*
X19427075Y-118044905D01*
X19426898Y-118042199D01*
X19426651Y-118037667D01*
X19426585Y-118036328D01*
X19425982Y-118022518D01*
X19425930Y-118021161D01*
X19425282Y-118001343D01*
X19425223Y-117998643D01*
X19425007Y-117978838D01*
X19425000Y-117977486D01*
X19425000Y-89073371D01*
X19425079Y-89068945D01*
X19427377Y-89004599D01*
X19428008Y-88995770D01*
X19434887Y-88931786D01*
X19435439Y-88927393D01*
X19442611Y-88877514D01*
X19443496Y-88872189D01*
X19444923Y-88864620D01*
X19447392Y-88854074D01*
X19449338Y-88847143D01*
X19451224Y-88841036D01*
X19454954Y-88829976D01*
X19455595Y-88828123D01*
X19460410Y-88814558D01*
X19460754Y-88813603D01*
X19463185Y-88806928D01*
X19464761Y-88802828D01*
X19471872Y-88785264D01*
X19475490Y-88777172D01*
X19483838Y-88760160D01*
X19485857Y-88756224D01*
X19504215Y-88721961D01*
X19508671Y-88714313D01*
X19539276Y-88665850D01*
X19549765Y-88651604D01*
X19586953Y-88607992D01*
X19592938Y-88601461D01*
X19615269Y-88578775D01*
X19619866Y-88574340D01*
X19636062Y-88559499D01*
X19645917Y-88551361D01*
X19663587Y-88538242D01*
X19668846Y-88534545D01*
X19670380Y-88533525D01*
X19671997Y-88532468D01*
X19691090Y-88520197D01*
X19694434Y-88518122D01*
X19712013Y-88507597D01*
X19717577Y-88504458D01*
X19733456Y-88496030D01*
X19741427Y-88492157D01*
X19758755Y-88484492D01*
X19762829Y-88482777D01*
X19830983Y-88455490D01*
X19837334Y-88453146D01*
X19863233Y-88444384D01*
X19876250Y-88440757D01*
X19902945Y-88434866D01*
X19909589Y-88433589D01*
X19935808Y-88429287D01*
X19938113Y-88428931D01*
X19941096Y-88428499D01*
X19945746Y-88427915D01*
X19948114Y-88427663D01*
X19951791Y-88427327D01*
X19955103Y-88427074D01*
X19957800Y-88426898D01*
X19962332Y-88426651D01*
X19963671Y-88426585D01*
X19977482Y-88425982D01*
X19978838Y-88425930D01*
X19998655Y-88425282D01*
X20001356Y-88425223D01*
X20021162Y-88425007D01*
X20022514Y-88425000D01*
X45926629Y-88425000D01*
X45931055Y-88425079D01*
G37*
G36*
X178943039Y-57019685D02*
G01*
X178988794Y-57072489D01*
X179000000Y-57124000D01*
X179000000Y-70626000D01*
X178980315Y-70693039D01*
X178927511Y-70738794D01*
X178876000Y-70750000D01*
X46000000Y-70750000D01*
X45809076Y-72192098D01*
X45780763Y-72255974D01*
X45723270Y-72294136D01*
X45605652Y-72331038D01*
X45605642Y-72331043D01*
X45428730Y-72429238D01*
X45428729Y-72429238D01*
X45275207Y-72561031D01*
X45275206Y-72561032D01*
X45151358Y-72721032D01*
X45062248Y-72902694D01*
X45011531Y-73098575D01*
X45000000Y-73249987D01*
X45000000Y-84376000D01*
X44980315Y-84443039D01*
X44927511Y-84488794D01*
X44876000Y-84500000D01*
X18624000Y-84500000D01*
X18556961Y-84480315D01*
X18511206Y-84427511D01*
X18500000Y-84376000D01*
X18500000Y-57124000D01*
X18519685Y-57056961D01*
X18572489Y-57011206D01*
X18624000Y-57000000D01*
X178876000Y-57000000D01*
X178943039Y-57019685D01*
G37*
G36*
X54943039Y-74519685D02*
G01*
X54988794Y-74572489D01*
X55000000Y-74624000D01*
X55000000Y-102976000D01*
X54980315Y-103043039D01*
X54927511Y-103088794D01*
X54876000Y-103100000D01*
X48124000Y-103100000D01*
X48056961Y-103080315D01*
X48011206Y-103027511D01*
X48000000Y-102976000D01*
X48000000Y-74624000D01*
X48019685Y-74556961D01*
X48072489Y-74511206D01*
X48124000Y-74500000D01*
X54876000Y-74500000D01*
X54943039Y-74519685D01*
G37*
G36*
X75943039Y-91019685D02*
G01*
X75988794Y-91072489D01*
X76000000Y-91124000D01*
X76000000Y-102876000D01*
X75980315Y-102943039D01*
X75927511Y-102988794D01*
X75876000Y-103000000D01*
X57624000Y-103000000D01*
X57556961Y-102980315D01*
X57511206Y-102927511D01*
X57500000Y-102876000D01*
X57500000Y-91124000D01*
X57519685Y-91056961D01*
X57572489Y-91011206D01*
X57624000Y-91000000D01*
X75876000Y-91000000D01*
X75943039Y-91019685D01*
G37*
G36*
X93056061Y-74520597D02*
G01*
X93232934Y-74538017D01*
X93256775Y-74542759D01*
X93420998Y-74592575D01*
X93443456Y-74601878D01*
X93594798Y-74682772D01*
X93615010Y-74696277D01*
X93747666Y-74805145D01*
X93764854Y-74822333D01*
X93873722Y-74954989D01*
X93887227Y-74975201D01*
X93968121Y-75126543D01*
X93977424Y-75149001D01*
X94027240Y-75313224D01*
X94031982Y-75337065D01*
X94049403Y-75513938D01*
X94050000Y-75526092D01*
X94050000Y-102113907D01*
X94049403Y-102126061D01*
X94031982Y-102302934D01*
X94027240Y-102326775D01*
X93977424Y-102490998D01*
X93968121Y-102513456D01*
X93887227Y-102664798D01*
X93873722Y-102685010D01*
X93764854Y-102817666D01*
X93747666Y-102834854D01*
X93615010Y-102943722D01*
X93594798Y-102957227D01*
X93443456Y-103038121D01*
X93420998Y-103047424D01*
X93256775Y-103097240D01*
X93232934Y-103101982D01*
X93056061Y-103119403D01*
X93043907Y-103120000D01*
X88556093Y-103120000D01*
X88543939Y-103119403D01*
X88367065Y-103101982D01*
X88343224Y-103097240D01*
X88179001Y-103047424D01*
X88156543Y-103038121D01*
X88005201Y-102957227D01*
X87984989Y-102943722D01*
X87852333Y-102834854D01*
X87835145Y-102817666D01*
X87726277Y-102685010D01*
X87712772Y-102664798D01*
X87631878Y-102513456D01*
X87622575Y-102490998D01*
X87572759Y-102326775D01*
X87568017Y-102302934D01*
X87550597Y-102126061D01*
X87550000Y-102113907D01*
X87550000Y-75526092D01*
X87550597Y-75513938D01*
X87568017Y-75337065D01*
X87572759Y-75313224D01*
X87622575Y-75149001D01*
X87631878Y-75126543D01*
X87712772Y-74975201D01*
X87726277Y-74954989D01*
X87835145Y-74822333D01*
X87852333Y-74805145D01*
X87984989Y-74696277D01*
X88005201Y-74682772D01*
X88156543Y-74601878D01*
X88179001Y-74592575D01*
X88343224Y-74542759D01*
X88367065Y-74538017D01*
X88543939Y-74520597D01*
X88556093Y-74520000D01*
X93043907Y-74520000D01*
X93056061Y-74520597D01*
G37*
G36*
X170956061Y-74520597D02*
G01*
X171132934Y-74538017D01*
X171156775Y-74542759D01*
X171320998Y-74592575D01*
X171343456Y-74601878D01*
X171494798Y-74682772D01*
X171515010Y-74696277D01*
X171647666Y-74805145D01*
X171664854Y-74822333D01*
X171773722Y-74954989D01*
X171787227Y-74975201D01*
X171868121Y-75126543D01*
X171877424Y-75149001D01*
X171927240Y-75313224D01*
X171931982Y-75337065D01*
X171949403Y-75513938D01*
X171950000Y-75526092D01*
X171950000Y-100113907D01*
X171949403Y-100126061D01*
X171931982Y-100302934D01*
X171927240Y-100326775D01*
X171877424Y-100490998D01*
X171868121Y-100513456D01*
X171787227Y-100664798D01*
X171773722Y-100685010D01*
X171664854Y-100817666D01*
X171647666Y-100834854D01*
X171515010Y-100943722D01*
X171494798Y-100957227D01*
X171343456Y-101038121D01*
X171320998Y-101047424D01*
X171156775Y-101097240D01*
X171132934Y-101101982D01*
X170956061Y-101119403D01*
X170943907Y-101120000D01*
X166456093Y-101120000D01*
X166443939Y-101119403D01*
X166267065Y-101101982D01*
X166243224Y-101097240D01*
X166079001Y-101047424D01*
X166056543Y-101038121D01*
X165905201Y-100957227D01*
X165884989Y-100943722D01*
X165752333Y-100834854D01*
X165735145Y-100817666D01*
X165626277Y-100685010D01*
X165612772Y-100664798D01*
X165531878Y-100513456D01*
X165522575Y-100490998D01*
X165472759Y-100326775D01*
X165468017Y-100302934D01*
X165450597Y-100126061D01*
X165450000Y-100113907D01*
X165450000Y-75526092D01*
X165450597Y-75513938D01*
X165468017Y-75337065D01*
X165472759Y-75313224D01*
X165522575Y-75149001D01*
X165531878Y-75126543D01*
X165612772Y-74975201D01*
X165626277Y-74954989D01*
X165735145Y-74822333D01*
X165752333Y-74805145D01*
X165884989Y-74696277D01*
X165905201Y-74682772D01*
X166056543Y-74601878D01*
X166079001Y-74592575D01*
X166243224Y-74542759D01*
X166267065Y-74538017D01*
X166443939Y-74520597D01*
X166456093Y-74520000D01*
X170943907Y-74520000D01*
X170956061Y-74520597D01*
G37*
G36*
X114056061Y-91020597D02*
G01*
X114232934Y-91038017D01*
X114256775Y-91042759D01*
X114420998Y-91092575D01*
X114443456Y-91101878D01*
X114594798Y-91182772D01*
X114615010Y-91196277D01*
X114747666Y-91305145D01*
X114764854Y-91322333D01*
X114873722Y-91454989D01*
X114887227Y-91475201D01*
X114968121Y-91626543D01*
X114977424Y-91649001D01*
X115027240Y-91813224D01*
X115031982Y-91837065D01*
X115049403Y-92013938D01*
X115050000Y-92026092D01*
X115050000Y-102013907D01*
X115049403Y-102026061D01*
X115031982Y-102202934D01*
X115027240Y-102226775D01*
X114977424Y-102390998D01*
X114968121Y-102413456D01*
X114887227Y-102564798D01*
X114873722Y-102585010D01*
X114764854Y-102717666D01*
X114747666Y-102734854D01*
X114615010Y-102843722D01*
X114594798Y-102857227D01*
X114443456Y-102938121D01*
X114420998Y-102947424D01*
X114256775Y-102997240D01*
X114232934Y-103001982D01*
X114056061Y-103019403D01*
X114043907Y-103020000D01*
X97556093Y-103020000D01*
X97543939Y-103019403D01*
X97367065Y-103001982D01*
X97343224Y-102997240D01*
X97179001Y-102947424D01*
X97156543Y-102938121D01*
X97005201Y-102857227D01*
X96984989Y-102843722D01*
X96852333Y-102734854D01*
X96835145Y-102717666D01*
X96726277Y-102585010D01*
X96712772Y-102564798D01*
X96631878Y-102413456D01*
X96622575Y-102390998D01*
X96572759Y-102226775D01*
X96568017Y-102202934D01*
X96550597Y-102026061D01*
X96550000Y-102013907D01*
X96550000Y-92026092D01*
X96550597Y-92013938D01*
X96568017Y-91837065D01*
X96572759Y-91813224D01*
X96622575Y-91649001D01*
X96631878Y-91626543D01*
X96712772Y-91475201D01*
X96726277Y-91454989D01*
X96835145Y-91322333D01*
X96852333Y-91305145D01*
X96984989Y-91196277D01*
X97005201Y-91182772D01*
X97156543Y-91101878D01*
X97179001Y-91092575D01*
X97343224Y-91042759D01*
X97367065Y-91038017D01*
X97543939Y-91020597D01*
X97556093Y-91020000D01*
X114043907Y-91020000D01*
X114056061Y-91020597D01*
G37*
G36*
X153006061Y-90995597D02*
G01*
X153182934Y-91013017D01*
X153206775Y-91017759D01*
X153370998Y-91067575D01*
X153393456Y-91076878D01*
X153544798Y-91157772D01*
X153565010Y-91171277D01*
X153697666Y-91280145D01*
X153714854Y-91297333D01*
X153823722Y-91429989D01*
X153837227Y-91450201D01*
X153918121Y-91601543D01*
X153927424Y-91624001D01*
X153977240Y-91788224D01*
X153981982Y-91812065D01*
X153999403Y-91988938D01*
X154000000Y-92001092D01*
X154000000Y-101988907D01*
X153999403Y-102001061D01*
X153981982Y-102177934D01*
X153977240Y-102201775D01*
X153927424Y-102365998D01*
X153918121Y-102388456D01*
X153837227Y-102539798D01*
X153823722Y-102560010D01*
X153714854Y-102692666D01*
X153697666Y-102709854D01*
X153565010Y-102818722D01*
X153544798Y-102832227D01*
X153393456Y-102913121D01*
X153370998Y-102922424D01*
X153206775Y-102972240D01*
X153182934Y-102976982D01*
X153006061Y-102994403D01*
X152993907Y-102995000D01*
X136506093Y-102995000D01*
X136493939Y-102994403D01*
X136317065Y-102976982D01*
X136293224Y-102972240D01*
X136129001Y-102922424D01*
X136106543Y-102913121D01*
X135955201Y-102832227D01*
X135934989Y-102818722D01*
X135802333Y-102709854D01*
X135785145Y-102692666D01*
X135676277Y-102560010D01*
X135662772Y-102539798D01*
X135581878Y-102388456D01*
X135572575Y-102365998D01*
X135522759Y-102201775D01*
X135518017Y-102177934D01*
X135500597Y-102001061D01*
X135500000Y-101988907D01*
X135500000Y-92001092D01*
X135500597Y-91988938D01*
X135518017Y-91812065D01*
X135522759Y-91788224D01*
X135572575Y-91624001D01*
X135581878Y-91601543D01*
X135662772Y-91450201D01*
X135676277Y-91429989D01*
X135785145Y-91297333D01*
X135802333Y-91280145D01*
X135934989Y-91171277D01*
X135955201Y-91157772D01*
X136106543Y-91076878D01*
X136129001Y-91067575D01*
X136293224Y-91017759D01*
X136317065Y-91013017D01*
X136493939Y-90995597D01*
X136506093Y-90995000D01*
X152993907Y-90995000D01*
X153006061Y-90995597D01*
G37*
G36*
X183006061Y-91000597D02*
G01*
X183182934Y-91018017D01*
X183206775Y-91022759D01*
X183370998Y-91072575D01*
X183393456Y-91081878D01*
X183544798Y-91162772D01*
X183565010Y-91176277D01*
X183697666Y-91285145D01*
X183714854Y-91302333D01*
X183823722Y-91434989D01*
X183837227Y-91455201D01*
X183918121Y-91606543D01*
X183927424Y-91629001D01*
X183977240Y-91793224D01*
X183981982Y-91817065D01*
X183999403Y-91993938D01*
X184000000Y-92006092D01*
X184000000Y-110313907D01*
X183999403Y-110326061D01*
X183981982Y-110502934D01*
X183977240Y-110526775D01*
X183927424Y-110690998D01*
X183918121Y-110713456D01*
X183837227Y-110864798D01*
X183823722Y-110885010D01*
X183714854Y-111017666D01*
X183697666Y-111034854D01*
X183565010Y-111143722D01*
X183544798Y-111157227D01*
X183393456Y-111238121D01*
X183370998Y-111247424D01*
X183206775Y-111297240D01*
X183182934Y-111301982D01*
X183006061Y-111319403D01*
X182993907Y-111320000D01*
X175606093Y-111320000D01*
X175593939Y-111319403D01*
X175417065Y-111301982D01*
X175393224Y-111297240D01*
X175229001Y-111247424D01*
X175206543Y-111238121D01*
X175055201Y-111157227D01*
X175034989Y-111143722D01*
X174902333Y-111034854D01*
X174885145Y-111017666D01*
X174776277Y-110885010D01*
X174762772Y-110864798D01*
X174681878Y-110713456D01*
X174672575Y-110690998D01*
X174622759Y-110526775D01*
X174618017Y-110502934D01*
X174600597Y-110326061D01*
X174600000Y-110313907D01*
X174600000Y-92006092D01*
X174600597Y-91993938D01*
X174618017Y-91817065D01*
X174622759Y-91793224D01*
X174672575Y-91629001D01*
X174681878Y-91606543D01*
X174762772Y-91455201D01*
X174776277Y-91434989D01*
X174885145Y-91302333D01*
X174902333Y-91285145D01*
X175034989Y-91176277D01*
X175055201Y-91162772D01*
X175206543Y-91081878D01*
X175229001Y-91072575D01*
X175393224Y-91022759D01*
X175417065Y-91018017D01*
X175593939Y-91000597D01*
X175606093Y-91000000D01*
X182993907Y-91000000D01*
X183006061Y-91000597D01*
G37*
G36*
X132006061Y-74495597D02*
G01*
X132182934Y-74513017D01*
X132206775Y-74517759D01*
X132370998Y-74567575D01*
X132393456Y-74576878D01*
X132544798Y-74657772D01*
X132565010Y-74671277D01*
X132697666Y-74780145D01*
X132714854Y-74797333D01*
X132823722Y-74929989D01*
X132837227Y-74950201D01*
X132918121Y-75101543D01*
X132927424Y-75124001D01*
X132977240Y-75288224D01*
X132981982Y-75312065D01*
X132999403Y-75488938D01*
X133000000Y-75501092D01*
X133000000Y-102088907D01*
X132999403Y-102101061D01*
X132981982Y-102277934D01*
X132977240Y-102301775D01*
X132927424Y-102465998D01*
X132918121Y-102488456D01*
X132837227Y-102639798D01*
X132823722Y-102660010D01*
X132714854Y-102792666D01*
X132697666Y-102809854D01*
X132565010Y-102918722D01*
X132544798Y-102932227D01*
X132393456Y-103013121D01*
X132370998Y-103022424D01*
X132206775Y-103072240D01*
X132182934Y-103076982D01*
X132006061Y-103094403D01*
X131993907Y-103095000D01*
X127506093Y-103095000D01*
X127493939Y-103094403D01*
X127317065Y-103076982D01*
X127293224Y-103072240D01*
X127129001Y-103022424D01*
X127106543Y-103013121D01*
X126955201Y-102932227D01*
X126934989Y-102918722D01*
X126802333Y-102809854D01*
X126785145Y-102792666D01*
X126676277Y-102660010D01*
X126662772Y-102639798D01*
X126581878Y-102488456D01*
X126572575Y-102465998D01*
X126522759Y-102301775D01*
X126518017Y-102277934D01*
X126500597Y-102101061D01*
X126500000Y-102088907D01*
X126500000Y-75501092D01*
X126500597Y-75488938D01*
X126518017Y-75312065D01*
X126522759Y-75288224D01*
X126572575Y-75124001D01*
X126581878Y-75101543D01*
X126662772Y-74950201D01*
X126676277Y-74929989D01*
X126785145Y-74797333D01*
X126802333Y-74780145D01*
X126934989Y-74671277D01*
X126955201Y-74657772D01*
X127106543Y-74576878D01*
X127129001Y-74567575D01*
X127293224Y-74517759D01*
X127317065Y-74513017D01*
X127493939Y-74495597D01*
X127506093Y-74495000D01*
X131993907Y-74495000D01*
X132006061Y-74495597D01*
G37*
%LPD*%
M02*
