M48
; DRILL file {KiCad 8.0.8} date 2025-02-12T14:05:13+0100
; FORMAT={-:-/ absolute / inch / decimal}
; #@! TF.CreationDate,2025-02-12T14:05:13+01:00
; #@! TF.GenerationSoftware,Kicad,Pcbnew,8.0.8
; #@! TF.FileFunction,Plated,1,4,PTH
FMAT,2
INCH
; #@! TA.AperFunction,Plated,PTH,ViaDrill
T1C0.0157
; #@! TA.AperFunction,Plated,PTH,ComponentDrill
T2C0.0394
; #@! TA.AperFunction,Plated,PTH,ComponentDrill
T3C0.0394
; #@! TA.AperFunction,Plated,PTH,ComponentDrill
T4C0.0433
; #@! TA.AperFunction,Plated,PTH,ComponentDrill
T5C0.0472
; #@! TA.AperFunction,Plated,PTH,ComponentDrill
T6C0.0591
; #@! TA.AperFunction,Plated,PTH,ComponentDrill
T7C0.1654
; #@! TA.AperFunction,Plated,PTH,ComponentDrill
T8C0.1969
%
G90
G05
T1
X1.0236Y-2.7559
X1.0236Y-2.8346
X1.063Y-2.7165
X1.063Y-2.7559
X1.063Y-2.7953
X1.063Y-2.8346
X1.063Y-2.874
X1.063Y-3.937
X1.063Y-4.0157
X1.1024Y-2.7165
X1.1024Y-2.7559
X1.1024Y-2.7953
X1.1024Y-2.8346
X1.1024Y-2.874
X1.1024Y-3.8976
X1.1024Y-3.937
X1.1024Y-3.9764
X1.1024Y-4.0157
X1.1024Y-4.0551
X1.1417Y-2.7165
X1.1417Y-2.7559
X1.1417Y-2.7953
X1.1417Y-2.8346
X1.1417Y-2.874
X1.1417Y-3.8976
X1.1417Y-3.937
X1.1417Y-3.9764
X1.1417Y-4.0157
X1.1417Y-4.0551
X1.1811Y-2.7165
X1.1811Y-2.7559
X1.1811Y-2.7953
X1.1811Y-2.8346
X1.1811Y-2.874
X1.1811Y-3.8976
X1.1811Y-3.937
X1.1811Y-3.9764
X1.1811Y-4.0157
X1.1811Y-4.0551
X1.2205Y-2.7165
X1.2205Y-2.7559
X1.2205Y-2.7953
X1.2205Y-2.8346
X1.2205Y-2.874
X1.2205Y-3.8976
X1.2205Y-3.937
X1.2205Y-3.9764
X1.2205Y-4.0157
X1.2205Y-4.0551
X1.2598Y-2.7165
X1.2598Y-2.7559
X1.2598Y-2.7953
X1.2598Y-2.8346
X1.2598Y-2.874
X1.2598Y-3.8976
X1.2598Y-3.937
X1.2598Y-3.9764
X1.2598Y-4.0157
X1.2598Y-4.0551
X1.2992Y-2.7165
X1.2992Y-2.7559
X1.2992Y-2.7953
X1.2992Y-2.8346
X1.2992Y-2.874
X1.2992Y-3.8976
X1.2992Y-3.937
X1.2992Y-3.9764
X1.2992Y-4.0157
X1.2992Y-4.0551
X1.3386Y-2.7165
X1.3386Y-2.7559
X1.3386Y-2.7953
X1.3386Y-2.8346
X1.3386Y-2.874
X1.3386Y-3.8976
X1.3386Y-3.937
X1.3386Y-3.9764
X1.3386Y-4.0157
X1.3386Y-4.0551
X1.378Y-2.7165
X1.378Y-2.7559
X1.378Y-2.7953
X1.378Y-2.8346
X1.378Y-2.874
X1.378Y-3.8976
X1.378Y-3.937
X1.378Y-3.9764
X1.378Y-4.0157
X1.378Y-4.0551
X1.4173Y-2.7165
X1.4173Y-2.7559
X1.4173Y-2.7953
X1.4173Y-2.8346
X1.4173Y-2.874
X1.4173Y-3.8976
X1.4173Y-3.937
X1.4173Y-3.9764
X1.4173Y-4.0157
X1.4173Y-4.0551
X1.4567Y-2.7165
X1.4567Y-2.7559
X1.4567Y-2.7953
X1.4567Y-2.8346
X1.4567Y-2.874
X1.4567Y-3.8976
X1.4567Y-3.937
X1.4567Y-3.9764
X1.4567Y-4.0157
X1.4567Y-4.0551
X1.4961Y-2.7165
X1.4961Y-2.7559
X1.4961Y-2.7953
X1.4961Y-2.8346
X1.4961Y-2.874
X1.4961Y-3.8976
X1.4961Y-3.937
X1.4961Y-3.9764
X1.4961Y-4.0157
X1.4961Y-4.0551
X1.5354Y-2.7165
X1.5354Y-2.7559
X1.5354Y-2.7953
X1.5354Y-2.8346
X1.5354Y-2.874
X1.5354Y-3.8976
X1.5354Y-3.937
X1.5354Y-3.9764
X1.5354Y-4.0157
X1.5354Y-4.0551
X1.5748Y-2.7165
X1.5748Y-2.7559
X1.5748Y-2.7953
X1.5748Y-2.8346
X1.5748Y-2.874
X1.5748Y-3.8976
X1.5748Y-3.937
X1.5748Y-3.9764
X1.5748Y-4.0157
X1.5748Y-4.0551
X1.6142Y-2.7559
X1.6142Y-2.8346
X1.6142Y-3.8976
X1.6142Y-3.937
X1.6142Y-3.9764
X1.6142Y-4.0157
X1.6142Y-4.0551
X1.6535Y-3.937
X1.6535Y-4.0157
X1.8898Y-2.3622
X1.8898Y-2.7362
X1.8898Y-3.5039
X1.8898Y-3.5433
X1.8898Y-3.5827
X1.8898Y-3.622
X1.8898Y-3.6614
X1.8898Y-3.7008
X1.8898Y-3.7402
X1.8898Y-3.7795
X1.8898Y-3.8189
X1.8898Y-3.8583
X1.8898Y-3.8976
X1.8898Y-3.937
X1.8898Y-3.9764
X1.9291Y-2.3228
X1.9291Y-2.3622
X1.9291Y-2.7362
X1.9291Y-2.7756
X1.9291Y-3.5039
X1.9291Y-3.5433
X1.9291Y-3.937
X1.9291Y-3.9764
X1.9685Y-2.3228
X1.9685Y-2.3622
X1.9685Y-2.7362
X1.9685Y-2.7756
X1.9685Y-3.5039
X1.9685Y-3.5433
X1.9685Y-3.937
X1.9685Y-3.9764
X2.0079Y-2.3228
X2.0079Y-2.3622
X2.0079Y-2.7362
X2.0079Y-2.7756
X2.0079Y-3.5039
X2.0079Y-3.5433
X2.0079Y-3.937
X2.0079Y-3.9764
X2.0472Y-2.3228
X2.0472Y-2.3622
X2.0472Y-2.7362
X2.0472Y-2.7756
X2.0472Y-3.5039
X2.0472Y-3.5433
X2.0472Y-3.937
X2.0472Y-3.9764
X2.0866Y-2.3228
X2.0866Y-2.3622
X2.0866Y-2.7362
X2.0866Y-2.7756
X2.0866Y-3.5039
X2.0866Y-3.5433
X2.0866Y-3.937
X2.0866Y-3.9764
X2.126Y-2.3228
X2.126Y-2.3622
X2.126Y-2.7362
X2.126Y-2.7756
X2.126Y-3.5039
X2.126Y-3.5433
X2.126Y-3.5827
X2.126Y-3.6614
X2.126Y-3.7008
X2.126Y-3.7402
X2.126Y-3.7795
X2.126Y-3.8189
X2.126Y-3.8583
X2.126Y-3.8976
X2.126Y-3.937
X2.126Y-3.9764
X2.1654Y-1.811
X2.1654Y-2.3228
X2.1654Y-2.3622
X2.1654Y-2.7362
X2.1654Y-2.7756
X2.1654Y-3.5039
X2.1654Y-3.5433
X2.1654Y-3.5827
X2.1654Y-3.6614
X2.1654Y-3.7008
X2.1654Y-3.7402
X2.1654Y-3.7795
X2.1654Y-3.8189
X2.1654Y-3.8583
X2.1654Y-3.8976
X2.1654Y-3.937
X2.1654Y-3.9764
X2.2047Y-2.3228
X2.2047Y-2.3622
X2.2047Y-2.7362
X2.2047Y-2.7756
X2.2441Y-2.3228
X2.2441Y-2.3622
X2.2441Y-2.7362
X2.2441Y-2.7756
X2.2835Y-2.3228
X2.2835Y-2.3622
X2.2835Y-2.7362
X2.2835Y-2.7756
X2.2835Y-3.937
X2.2835Y-3.9764
X2.3228Y-2.3228
X2.3228Y-2.3622
X2.3228Y-2.7362
X2.3228Y-2.7756
X2.3228Y-3.937
X2.3228Y-3.9764
X2.3622Y-2.3228
X2.3622Y-2.3622
X2.3622Y-2.7362
X2.3622Y-2.7756
X2.3622Y-3.937
X2.3622Y-3.9764
X2.4016Y-2.3228
X2.4016Y-2.3622
X2.4016Y-2.7362
X2.4016Y-2.7756
X2.4016Y-3.937
X2.4016Y-3.9764
X2.4409Y-2.3228
X2.4409Y-2.3622
X2.4409Y-2.7362
X2.4409Y-2.7756
X2.4409Y-3.937
X2.4409Y-3.9764
X2.4803Y-2.3622
X2.4803Y-2.7362
X2.4803Y-3.937
X2.4803Y-3.9764
X2.5197Y-3.622
X2.5197Y-3.6614
X2.5197Y-3.7008
X2.5197Y-3.7402
X2.5197Y-3.7795
X2.5197Y-3.8189
X2.5197Y-3.8583
X2.5197Y-3.8976
X2.5197Y-3.937
X2.5197Y-3.9764
X2.5591Y-3.622
X2.5591Y-3.8976
X2.5591Y-3.937
X2.5591Y-3.9764
X2.5984Y-3.5827
X2.5984Y-3.937
X2.5984Y-3.9764
X2.6378Y-3.9764
X2.6378Y-4.4094
X2.6378Y-4.4882
X2.6772Y-4.3701
X2.6772Y-4.4094
X2.6772Y-4.4488
X2.6772Y-4.4882
X2.6772Y-4.5276
X2.7165Y-2.2835
X2.7165Y-2.3228
X2.7165Y-2.3622
X2.7165Y-2.4016
X2.7165Y-2.4409
X2.7165Y-2.4803
X2.7165Y-2.5197
X2.7165Y-2.5591
X2.7165Y-2.5984
X2.7165Y-2.6378
X2.7165Y-2.6772
X2.7165Y-2.7165
X2.7165Y-2.7559
X2.7165Y-4.3701
X2.7165Y-4.4094
X2.7165Y-4.4488
X2.7165Y-4.4882
X2.7165Y-4.5276
X2.7559Y-2.2441
X2.7559Y-2.2835
X2.7559Y-2.3228
X2.7559Y-2.3622
X2.7559Y-2.4016
X2.7559Y-2.4409
X2.7559Y-2.4803
X2.7559Y-2.5197
X2.7559Y-2.5591
X2.7559Y-2.5984
X2.7559Y-2.6378
X2.7559Y-2.6772
X2.7559Y-2.7165
X2.7559Y-2.7559
X2.7559Y-2.7953
X2.7559Y-4.3701
X2.7559Y-4.4094
X2.7559Y-4.4488
X2.7559Y-4.4882
X2.7559Y-4.5276
X2.7953Y-2.2835
X2.7953Y-2.3228
X2.7953Y-2.3622
X2.7953Y-2.4016
X2.7953Y-2.4409
X2.7953Y-2.4803
X2.7953Y-2.5197
X2.7953Y-2.5591
X2.7953Y-2.5984
X2.7953Y-2.6378
X2.7953Y-2.6772
X2.7953Y-2.7165
X2.7953Y-2.7559
X2.7953Y-3.3071
X2.7953Y-4.3701
X2.7953Y-4.4094
X2.7953Y-4.4488
X2.7953Y-4.4882
X2.7953Y-4.5276
X2.8346Y-2.2441
X2.8346Y-2.2835
X2.8346Y-2.3228
X2.8346Y-2.3622
X2.8346Y-2.4016
X2.8346Y-2.4409
X2.8346Y-2.4803
X2.8346Y-2.5197
X2.8346Y-2.5591
X2.8346Y-2.5984
X2.8346Y-2.6378
X2.8346Y-2.6772
X2.8346Y-2.7165
X2.8346Y-2.7559
X2.8346Y-2.7953
X2.8346Y-4.3701
X2.8346Y-4.4094
X2.8346Y-4.4488
X2.8346Y-4.4882
X2.8346Y-4.5276
X2.8465Y-3.9724
X2.874Y-4.3701
X2.874Y-4.4094
X2.874Y-4.4488
X2.874Y-4.4882
X2.874Y-4.5276
X2.8858Y-3.5787
X2.8858Y-3.9331
X2.8858Y-3.9724
X2.907Y-2.9924
X2.9134Y-4.3701
X2.9134Y-4.4094
X2.9134Y-4.4488
X2.9134Y-4.4882
X2.9134Y-4.5276
X2.9232Y-2.0814
X2.9232Y-3.0244
X2.9252Y-3.6181
X2.9252Y-3.8937
X2.9252Y-3.9331
X2.9252Y-3.9724
X2.9528Y-4.3701
X2.9528Y-4.4094
X2.9528Y-4.4488
X2.9528Y-4.4882
X2.9528Y-4.5276
X2.954Y-2.052
X2.9646Y-3.6181
X2.9646Y-3.6575
X2.9646Y-3.6969
X2.9646Y-3.7362
X2.9646Y-3.7756
X2.9646Y-3.815
X2.9646Y-3.8543
X2.9646Y-3.8937
X2.9646Y-3.9331
X2.9646Y-3.9724
X2.9823Y-3.0533
X2.9921Y-4.3701
X2.9921Y-4.4094
X2.9921Y-4.4488
X2.9921Y-4.4882
X2.9921Y-4.5276
X3.0315Y-4.3701
X3.0315Y-4.4094
X3.0315Y-4.4488
X3.0315Y-4.4882
X3.0315Y-4.5276
X3.0364Y-3.1419
X3.0447Y-3.3119
X3.0542Y-1.9359
X3.0561Y-1.8877
X3.0659Y-1.9816
X3.0709Y-2.2441
X3.0709Y-2.2835
X3.0709Y-2.3228
X3.0709Y-2.3622
X3.0709Y-2.4016
X3.0709Y-2.4409
X3.0709Y-2.4803
X3.0709Y-2.5197
X3.0709Y-2.5591
X3.0709Y-2.5984
X3.0709Y-2.6378
X3.0709Y-2.6772
X3.0709Y-2.7165
X3.0709Y-2.7559
X3.0709Y-2.7953
X3.0709Y-4.3701
X3.0709Y-4.4094
X3.0709Y-4.4488
X3.0709Y-4.4882
X3.0709Y-4.5276
X3.0916Y-2.017
X3.0984Y-3.1929
X3.1102Y-2.2835
X3.1102Y-2.3228
X3.1102Y-2.3622
X3.1102Y-2.4016
X3.1102Y-2.4409
X3.1102Y-2.4803
X3.1102Y-2.5197
X3.1102Y-2.5591
X3.1102Y-2.5984
X3.1102Y-2.6378
X3.1102Y-2.6772
X3.1102Y-2.7165
X3.1102Y-2.7559
X3.1102Y-4.3701
X3.1102Y-4.4094
X3.1102Y-4.4488
X3.1102Y-4.4882
X3.1102Y-4.5276
X3.1321Y-3.2941
X3.136Y-3.1014
X3.1496Y-2.2441
X3.1496Y-2.2835
X3.1496Y-2.3228
X3.1496Y-2.3622
X3.1496Y-2.4016
X3.1496Y-2.4409
X3.1496Y-2.4803
X3.1496Y-2.5197
X3.1496Y-2.5591
X3.1496Y-2.5984
X3.1496Y-2.6378
X3.1496Y-2.6772
X3.1496Y-2.7165
X3.1496Y-2.7559
X3.1496Y-2.7953
X3.1496Y-4.3701
X3.1496Y-4.4094
X3.1496Y-4.4488
X3.1496Y-4.4882
X3.1496Y-4.5276
X3.189Y-2.2835
X3.189Y-2.3228
X3.189Y-2.3622
X3.189Y-2.4016
X3.189Y-2.4409
X3.189Y-2.4803
X3.189Y-2.5197
X3.189Y-2.5591
X3.189Y-2.5984
X3.189Y-2.6378
X3.189Y-2.6772
X3.189Y-2.7165
X3.189Y-2.7559
X3.189Y-4.3701
X3.189Y-4.4094
X3.189Y-4.4488
X3.189Y-4.4882
X3.189Y-4.5276
X3.1969Y-3.2126
X3.2283Y-4.4094
X3.2283Y-4.4882
X3.4252Y-2.3622
X3.4252Y-2.7362
X3.4272Y-3.5047
X3.4272Y-3.5441
X3.4272Y-3.5835
X3.4272Y-3.6228
X3.4272Y-3.6622
X3.4272Y-3.7016
X3.4272Y-3.7409
X3.4272Y-3.7803
X3.4272Y-3.8197
X3.4272Y-3.8591
X3.4272Y-3.8984
X3.4272Y-3.9378
X3.4272Y-3.9772
X3.4646Y-2.3228
X3.4646Y-2.3622
X3.4646Y-2.7362
X3.4646Y-2.7756
X3.4665Y-3.5047
X3.4665Y-3.5441
X3.4665Y-3.9378
X3.4665Y-3.9772
X3.5039Y-2.3228
X3.5039Y-2.3622
X3.5039Y-2.7362
X3.5039Y-2.7756
X3.5059Y-3.5047
X3.5059Y-3.5441
X3.5059Y-3.9378
X3.5059Y-3.9772
X3.5433Y-2.3228
X3.5433Y-2.3622
X3.5433Y-2.7362
X3.5433Y-2.7756
X3.5453Y-3.5047
X3.5453Y-3.5441
X3.5453Y-3.9378
X3.5453Y-3.9772
X3.5827Y-2.3228
X3.5827Y-2.3622
X3.5827Y-2.7362
X3.5827Y-2.7756
X3.5846Y-3.5047
X3.5846Y-3.5441
X3.5846Y-3.9378
X3.5846Y-3.9772
X3.622Y-2.3228
X3.622Y-2.3622
X3.622Y-2.7362
X3.622Y-2.7756
X3.624Y-3.5047
X3.624Y-3.5441
X3.624Y-3.9378
X3.624Y-3.9772
X3.6614Y-2.3228
X3.6614Y-2.3622
X3.6614Y-2.7362
X3.6614Y-2.7756
X3.6634Y-3.5047
X3.6634Y-3.5441
X3.6634Y-3.5835
X3.6634Y-3.6622
X3.6634Y-3.7016
X3.6634Y-3.7409
X3.6634Y-3.7803
X3.6634Y-3.8197
X3.6634Y-3.8591
X3.6634Y-3.8984
X3.6634Y-3.9378
X3.6634Y-3.9772
X3.7008Y-2.3228
X3.7008Y-2.3622
X3.7008Y-2.7362
X3.7008Y-2.7756
X3.7028Y-3.5047
X3.7028Y-3.5441
X3.7028Y-3.5835
X3.7028Y-3.6622
X3.7028Y-3.7016
X3.7028Y-3.7409
X3.7028Y-3.7803
X3.7028Y-3.8197
X3.7028Y-3.8591
X3.7028Y-3.8984
X3.7028Y-3.9378
X3.7028Y-3.9772
X3.7402Y-2.3228
X3.7402Y-2.3622
X3.7402Y-2.7362
X3.7402Y-2.7756
X3.7795Y-2.3228
X3.7795Y-2.3622
X3.7795Y-2.7362
X3.7795Y-2.7756
X3.8189Y-2.3228
X3.8189Y-2.3622
X3.8189Y-2.7362
X3.8189Y-2.7756
X3.8189Y-3.937
X3.8189Y-3.9764
X3.8583Y-2.3228
X3.8583Y-2.3622
X3.8583Y-2.7362
X3.8583Y-2.7756
X3.8583Y-3.937
X3.8583Y-3.9764
X3.8976Y-2.3228
X3.8976Y-2.3622
X3.8976Y-2.7362
X3.8976Y-2.7756
X3.8976Y-3.937
X3.8976Y-3.9764
X3.937Y-2.3228
X3.937Y-2.3622
X3.937Y-2.7362
X3.937Y-2.7756
X3.937Y-3.937
X3.937Y-3.9764
X3.9764Y-2.3228
X3.9764Y-2.3622
X3.9764Y-2.7362
X3.9764Y-2.7756
X3.9764Y-3.937
X3.9764Y-3.9764
X4.0157Y-2.3622
X4.0157Y-2.7362
X4.0157Y-3.937
X4.0157Y-3.9764
X4.0551Y-3.622
X4.0551Y-3.6614
X4.0551Y-3.7008
X4.0551Y-3.7402
X4.0551Y-3.7795
X4.0551Y-3.8189
X4.0551Y-3.8583
X4.0551Y-3.8976
X4.0551Y-3.937
X4.0551Y-3.9764
X4.0945Y-3.622
X4.0945Y-3.8976
X4.0945Y-3.937
X4.0945Y-3.9764
X4.1339Y-3.5827
X4.1339Y-3.937
X4.1339Y-3.9764
X4.1732Y-3.9764
X4.252Y-4.4094
X4.252Y-4.4882
X4.2913Y-2.2835
X4.2913Y-2.3228
X4.2913Y-2.3622
X4.2913Y-2.4016
X4.2913Y-2.4409
X4.2913Y-2.4803
X4.2913Y-2.5197
X4.2913Y-2.5591
X4.2913Y-2.5984
X4.2913Y-2.6378
X4.2913Y-2.6772
X4.2913Y-2.7165
X4.2913Y-2.7559
X4.2913Y-4.3701
X4.2913Y-4.4094
X4.2913Y-4.4488
X4.2913Y-4.4882
X4.2913Y-4.5276
X4.3307Y-2.2441
X4.3307Y-2.2835
X4.3307Y-2.3228
X4.3307Y-2.3622
X4.3307Y-2.4016
X4.3307Y-2.4409
X4.3307Y-2.4803
X4.3307Y-2.5197
X4.3307Y-2.5591
X4.3307Y-2.5984
X4.3307Y-2.6378
X4.3307Y-2.6772
X4.3307Y-2.7165
X4.3307Y-2.7559
X4.3307Y-2.7953
X4.3307Y-4.3701
X4.3307Y-4.4094
X4.3307Y-4.4488
X4.3307Y-4.4882
X4.3307Y-4.5276
X4.3327Y-3.3079
X4.3406Y-1.6043
X4.3415Y-2.9744
X4.3701Y-2.2835
X4.3701Y-2.3228
X4.3701Y-2.3622
X4.3701Y-2.4016
X4.3701Y-2.4409
X4.3701Y-2.4803
X4.3701Y-2.5197
X4.3701Y-2.5591
X4.3701Y-2.5984
X4.3701Y-2.6378
X4.3701Y-2.6772
X4.3701Y-2.7165
X4.3701Y-2.7559
X4.3701Y-4.3701
X4.3701Y-4.4094
X4.3701Y-4.4488
X4.3701Y-4.4882
X4.3701Y-4.5276
X4.3898Y-3.9764
X4.4094Y-1.6339
X4.4094Y-2.2441
X4.4094Y-2.2835
X4.4094Y-2.3228
X4.4094Y-2.3622
X4.4094Y-2.4016
X4.4094Y-2.4409
X4.4094Y-2.4803
X4.4094Y-2.5197
X4.4094Y-2.5591
X4.4094Y-2.5984
X4.4094Y-2.6378
X4.4094Y-2.6772
X4.4094Y-2.7165
X4.4094Y-2.7559
X4.4094Y-2.7953
X4.4094Y-4.3701
X4.4094Y-4.4094
X4.4094Y-4.4488
X4.4094Y-4.4882
X4.4094Y-4.5276
X4.4291Y-3.5827
X4.4291Y-3.937
X4.4291Y-3.9764
X4.4319Y-2.0413
X4.439Y-1.6634
X4.4449Y-3.0236
X4.4488Y-4.3701
X4.4488Y-4.4094
X4.4488Y-4.4488
X4.4488Y-4.4882
X4.4488Y-4.5276
X4.4685Y-3.622
X4.4685Y-3.8976
X4.4685Y-3.937
X4.4685Y-3.9764
X4.4772Y-1.9772
X4.4882Y-4.3701
X4.4882Y-4.4094
X4.4882Y-4.4488
X4.4882Y-4.4882
X4.4882Y-4.5276
X4.5079Y-3.622
X4.5079Y-3.6614
X4.5079Y-3.7008
X4.5079Y-3.7402
X4.5079Y-3.7795
X4.5079Y-3.8189
X4.5079Y-3.8583
X4.5079Y-3.8976
X4.5079Y-3.937
X4.5079Y-3.9764
X4.5197Y-3.0541
X4.5276Y-1.4764
X4.5276Y-4.3701
X4.5276Y-4.4094
X4.5276Y-4.4488
X4.5276Y-4.4882
X4.5276Y-4.5276
X4.5384Y-1.8464
X4.5472Y-1.6043
X4.5618Y-1.9571
X4.5669Y-4.3701
X4.5669Y-4.4094
X4.5669Y-4.4488
X4.5669Y-4.4882
X4.5669Y-4.5276
X4.5669Y-1.6437
X4.5738Y-3.1426
X4.5822Y-3.3127
X4.5961Y-1.9386
X4.6063Y-2.2441
X4.6063Y-2.2835
X4.6063Y-2.3228
X4.6063Y-2.3622
X4.6063Y-2.4016
X4.6063Y-2.4409
X4.6063Y-2.4803
X4.6063Y-2.5197
X4.6063Y-2.5591
X4.6063Y-2.5984
X4.6063Y-2.6378
X4.6063Y-2.6772
X4.6063Y-2.7165
X4.6063Y-2.7559
X4.6063Y-2.7953
X4.6063Y-4.3701
X4.6063Y-4.4094
X4.6063Y-4.4488
X4.6063Y-4.4882
X4.6063Y-4.5276
X4.6089Y-1.9882
X4.6115Y-2.0328
X4.626Y-1.7028
X4.6358Y-3.1937
X4.6422Y-1.8762
X4.6451Y-2.0669
X4.6457Y-1.8307
X4.6457Y-2.2835
X4.6457Y-2.3228
X4.6457Y-2.3622
X4.6457Y-2.4016
X4.6457Y-2.4409
X4.6457Y-2.4803
X4.6457Y-2.5197
X4.6457Y-2.5591
X4.6457Y-2.5984
X4.6457Y-2.6378
X4.6457Y-2.6772
X4.6457Y-2.7165
X4.6457Y-2.7559
X4.6457Y-4.3701
X4.6457Y-4.4094
X4.6457Y-4.4488
X4.6457Y-4.4882
X4.6457Y-4.5276
X4.6695Y-3.2949
X4.6734Y-3.1022
X4.6828Y-2.0965
X4.685Y-2.2441
X4.685Y-2.2835
X4.685Y-2.3228
X4.685Y-2.3622
X4.685Y-2.4016
X4.685Y-2.4409
X4.685Y-2.4803
X4.685Y-2.5197
X4.685Y-2.5591
X4.685Y-2.5984
X4.685Y-2.6378
X4.685Y-2.6772
X4.685Y-2.7165
X4.685Y-2.7559
X4.685Y-2.7953
X4.685Y-4.3701
X4.685Y-4.4094
X4.685Y-4.4488
X4.685Y-4.4882
X4.685Y-4.5276
X4.7244Y-1.8307
X4.7244Y-2.2835
X4.7244Y-2.3228
X4.7244Y-2.3622
X4.7244Y-2.4016
X4.7244Y-2.4409
X4.7244Y-2.4803
X4.7244Y-2.5197
X4.7244Y-2.5591
X4.7244Y-2.5984
X4.7244Y-2.6378
X4.7244Y-2.6772
X4.7244Y-2.7165
X4.7244Y-2.7559
X4.7244Y-4.3701
X4.7244Y-4.4094
X4.7244Y-4.4488
X4.7244Y-4.4882
X4.7244Y-4.5276
X4.7343Y-3.2134
X4.7638Y-4.3701
X4.7638Y-4.4094
X4.7638Y-4.4488
X4.7638Y-4.4882
X4.7638Y-4.5276
X4.8031Y-4.3701
X4.8031Y-4.4094
X4.8031Y-4.4488
X4.8031Y-4.4882
X4.8031Y-4.5276
X4.8425Y-4.4094
X4.8425Y-4.4882
X4.9606Y-2.3622
X4.9606Y-2.7362
X4.9606Y-3.5037
X4.9606Y-3.5431
X4.9606Y-3.5825
X4.9606Y-3.6219
X4.9606Y-3.6612
X4.9606Y-3.7006
X4.9606Y-3.74
X4.9606Y-3.7793
X4.9606Y-3.8187
X4.9606Y-3.8581
X4.9606Y-3.8974
X4.9606Y-3.9368
X4.9606Y-3.9762
X5.0Y-2.3228
X5.0Y-2.3622
X5.0Y-2.7362
X5.0Y-2.7756
X5.0Y-3.5037
X5.0Y-3.5431
X5.0Y-3.9368
X5.0Y-3.9762
X5.0394Y-2.3228
X5.0394Y-2.3622
X5.0394Y-2.7362
X5.0394Y-2.7756
X5.0394Y-3.5037
X5.0394Y-3.5431
X5.0394Y-3.9368
X5.0394Y-3.9762
X5.0787Y-2.3228
X5.0787Y-2.3622
X5.0787Y-2.7362
X5.0787Y-2.7756
X5.0787Y-3.5037
X5.0787Y-3.5431
X5.0787Y-3.9368
X5.0787Y-3.9762
X5.1181Y-2.3228
X5.1181Y-2.3622
X5.1181Y-2.7362
X5.1181Y-2.7756
X5.1181Y-3.5037
X5.1181Y-3.5431
X5.1181Y-3.9368
X5.1181Y-3.9762
X5.1575Y-2.3228
X5.1575Y-2.3622
X5.1575Y-2.7362
X5.1575Y-2.7756
X5.1575Y-3.5037
X5.1575Y-3.5431
X5.1575Y-3.9368
X5.1575Y-3.9762
X5.1969Y-2.3228
X5.1969Y-2.3622
X5.1969Y-2.7362
X5.1969Y-2.7756
X5.1969Y-3.5037
X5.1969Y-3.5431
X5.1969Y-3.5825
X5.1969Y-3.6612
X5.1969Y-3.7006
X5.1969Y-3.74
X5.1969Y-3.7793
X5.1969Y-3.8187
X5.1969Y-3.8581
X5.1969Y-3.8974
X5.1969Y-3.9368
X5.1969Y-3.9762
X5.2362Y-2.3228
X5.2362Y-2.3622
X5.2362Y-2.7362
X5.2362Y-2.7756
X5.2362Y-3.5037
X5.2362Y-3.5431
X5.2362Y-3.5825
X5.2362Y-3.6612
X5.2362Y-3.7006
X5.2362Y-3.74
X5.2362Y-3.7793
X5.2362Y-3.8187
X5.2362Y-3.8581
X5.2362Y-3.8974
X5.2362Y-3.9368
X5.2362Y-3.9762
X5.2756Y-2.3228
X5.2756Y-2.3622
X5.2756Y-2.7362
X5.2756Y-2.7756
X5.315Y-2.3228
X5.315Y-2.3622
X5.315Y-2.7362
X5.315Y-2.7756
X5.3543Y-2.3228
X5.3543Y-2.3622
X5.3543Y-2.7362
X5.3543Y-2.7756
X5.3543Y-3.937
X5.3543Y-3.9764
X5.3937Y-2.3228
X5.3937Y-2.3622
X5.3937Y-2.7362
X5.3937Y-2.7756
X5.3937Y-3.937
X5.3937Y-3.9764
X5.4331Y-2.3228
X5.4331Y-2.3622
X5.4331Y-2.7362
X5.4331Y-2.7756
X5.4331Y-3.937
X5.4331Y-3.9764
X5.4724Y-2.3228
X5.4724Y-2.3622
X5.4724Y-2.7362
X5.4724Y-2.7756
X5.4724Y-3.937
X5.4724Y-3.9764
X5.5118Y-2.3228
X5.5118Y-2.3622
X5.5118Y-2.7362
X5.5118Y-2.7756
X5.5118Y-3.937
X5.5118Y-3.9764
X5.5217Y-1.2894
X5.5512Y-2.3622
X5.5512Y-2.7362
X5.5512Y-3.937
X5.5512Y-3.9764
X5.5906Y-3.622
X5.5906Y-3.6614
X5.5906Y-3.7008
X5.5906Y-3.7402
X5.5906Y-3.7795
X5.5906Y-3.8189
X5.5906Y-3.8583
X5.5906Y-3.8976
X5.5906Y-3.937
X5.5906Y-3.9764
X5.6299Y-3.622
X5.6299Y-3.8976
X5.6299Y-3.937
X5.6299Y-3.9764
X5.6693Y-3.5827
X5.6693Y-3.937
X5.6693Y-3.9764
X5.7087Y-3.9764
X5.748Y-4.2323
X5.748Y-4.2717
X5.748Y-4.311
X5.748Y-4.3504
X5.748Y-4.3898
X5.748Y-4.4291
X5.748Y-4.4685
X5.748Y-4.5079
X5.748Y-4.5472
X5.748Y-4.5866
X5.748Y-4.626
X5.7874Y-4.1929
X5.7874Y-4.2323
X5.7874Y-4.2717
X5.7874Y-4.311
X5.7874Y-4.3504
X5.7874Y-4.3898
X5.7874Y-4.4291
X5.7874Y-4.4685
X5.7874Y-4.5079
X5.7874Y-4.5472
X5.7874Y-4.5866
X5.7874Y-4.626
X5.7874Y-4.6654
X5.8268Y-2.2835
X5.8268Y-2.3228
X5.8268Y-2.3622
X5.8268Y-2.4016
X5.8268Y-2.4409
X5.8268Y-2.4803
X5.8268Y-2.5197
X5.8268Y-2.5591
X5.8268Y-2.5984
X5.8268Y-2.6378
X5.8268Y-2.6772
X5.8268Y-2.7165
X5.8268Y-2.7559
X5.8268Y-4.2323
X5.8268Y-4.2717
X5.8268Y-4.311
X5.8268Y-4.3504
X5.8268Y-4.3898
X5.8268Y-4.4291
X5.8268Y-4.4685
X5.8268Y-4.5079
X5.8268Y-4.5472
X5.8268Y-4.5866
X5.8268Y-4.626
X5.8661Y-2.2441
X5.8661Y-2.2835
X5.8661Y-2.3228
X5.8661Y-2.3622
X5.8661Y-2.4016
X5.8661Y-2.4409
X5.8661Y-2.4803
X5.8661Y-2.5197
X5.8661Y-2.5591
X5.8661Y-2.5984
X5.8661Y-2.6378
X5.8661Y-2.6772
X5.8661Y-2.7165
X5.8661Y-2.7559
X5.8661Y-2.7953
X5.8661Y-3.3069
X5.8661Y-4.1929
X5.8661Y-4.2323
X5.8661Y-4.2717
X5.8661Y-4.311
X5.8661Y-4.3504
X5.8661Y-4.3898
X5.8661Y-4.4291
X5.8661Y-4.4685
X5.8661Y-4.5079
X5.8661Y-4.5472
X5.8661Y-4.5866
X5.8661Y-4.626
X5.8661Y-4.6654
X5.875Y-2.9734
X5.9055Y-2.2835
X5.9055Y-2.3228
X5.9055Y-2.3622
X5.9055Y-2.4016
X5.9055Y-2.4409
X5.9055Y-2.4803
X5.9055Y-2.5197
X5.9055Y-2.5591
X5.9055Y-2.5984
X5.9055Y-2.6378
X5.9055Y-2.6772
X5.9055Y-2.7165
X5.9055Y-2.7559
X5.9055Y-3.9764
X5.9055Y-4.2323
X5.9055Y-4.2717
X5.9055Y-4.311
X5.9055Y-4.3504
X5.9055Y-4.3898
X5.9055Y-4.4291
X5.9055Y-4.4685
X5.9055Y-4.5079
X5.9055Y-4.5472
X5.9055Y-4.5866
X5.9055Y-4.626
X5.9449Y-2.2441
X5.9449Y-2.2835
X5.9449Y-2.3228
X5.9449Y-2.3622
X5.9449Y-2.4016
X5.9449Y-2.4409
X5.9449Y-2.4803
X5.9449Y-2.5197
X5.9449Y-2.5591
X5.9449Y-2.5984
X5.9449Y-2.6378
X5.9449Y-2.6772
X5.9449Y-2.7165
X5.9449Y-2.7559
X5.9449Y-2.7953
X5.9449Y-3.5827
X5.9449Y-3.937
X5.9449Y-3.9764
X5.9488Y-2.0719
X5.9843Y-3.622
X5.9843Y-3.8976
X5.9843Y-3.937
X5.9843Y-3.9764
X5.9882Y-3.0276
X6.0236Y-3.622
X6.0236Y-3.6614
X6.0236Y-3.7008
X6.0236Y-3.7402
X6.0236Y-3.7795
X6.0236Y-3.8189
X6.0236Y-3.8583
X6.0236Y-3.8976
X6.0236Y-3.937
X6.0236Y-3.9764
X6.0531Y-3.0531
X6.1072Y-3.1417
X6.1102Y-1.937
X6.1156Y-3.3117
X6.1307Y-1.9704
X6.1417Y-2.2441
X6.1417Y-2.2835
X6.1417Y-2.3228
X6.1417Y-2.3622
X6.1417Y-2.4016
X6.1417Y-2.4409
X6.1417Y-2.4803
X6.1417Y-2.5197
X6.1417Y-2.5591
X6.1417Y-2.5984
X6.1417Y-2.6378
X6.1417Y-2.6772
X6.1417Y-2.7165
X6.1417Y-2.7559
X6.1417Y-2.7953
X6.1693Y-3.1927
X6.1811Y-2.2835
X6.1811Y-2.3228
X6.1811Y-2.3622
X6.1811Y-2.4016
X6.1811Y-2.4409
X6.1811Y-2.4803
X6.1811Y-2.5197
X6.1811Y-2.5591
X6.1811Y-2.5984
X6.1811Y-2.6378
X6.1811Y-2.6772
X6.1811Y-2.7165
X6.1811Y-2.7559
X6.1954Y-1.9718
X6.203Y-3.2939
X6.2047Y-2.0346
X6.2069Y-3.1012
X6.2205Y-2.2441
X6.2205Y-2.2835
X6.2205Y-2.3228
X6.2205Y-2.3622
X6.2205Y-2.4016
X6.2205Y-2.4409
X6.2205Y-2.4803
X6.2205Y-2.5197
X6.2205Y-2.5591
X6.2205Y-2.5984
X6.2205Y-2.6378
X6.2205Y-2.6772
X6.2205Y-2.7165
X6.2205Y-2.7559
X6.2205Y-2.7953
X6.2327Y-2.065
X6.2598Y-2.2835
X6.2598Y-2.3228
X6.2598Y-2.3622
X6.2598Y-2.4016
X6.2598Y-2.4409
X6.2598Y-2.4803
X6.2598Y-2.5197
X6.2598Y-2.5591
X6.2598Y-2.5984
X6.2598Y-2.6378
X6.2598Y-2.6772
X6.2598Y-2.7165
X6.2598Y-2.7559
X6.2677Y-3.2124
X6.4173Y-2.3622
X6.4173Y-2.7362
X6.4567Y-2.3228
X6.4567Y-2.3622
X6.4567Y-2.7362
X6.4567Y-2.7756
X6.4941Y-3.5047
X6.4941Y-3.5441
X6.4941Y-3.5835
X6.4941Y-3.6228
X6.4941Y-3.6622
X6.4941Y-3.7016
X6.4941Y-3.7409
X6.4941Y-3.7803
X6.4941Y-3.8197
X6.4941Y-3.8591
X6.4941Y-3.8984
X6.4941Y-3.9378
X6.4941Y-3.9772
X6.4961Y-2.3228
X6.4961Y-2.3622
X6.4961Y-2.7362
X6.4961Y-2.7756
X6.5335Y-3.5047
X6.5335Y-3.5441
X6.5335Y-3.9378
X6.5335Y-3.9772
X6.5354Y-2.3228
X6.5354Y-2.3622
X6.5354Y-2.7362
X6.5354Y-2.7756
X6.5728Y-3.5047
X6.5728Y-3.5441
X6.5728Y-3.9378
X6.5728Y-3.9772
X6.5748Y-2.3228
X6.5748Y-2.3622
X6.5748Y-2.7362
X6.5748Y-2.7756
X6.6122Y-3.5047
X6.6122Y-3.5441
X6.6122Y-3.9378
X6.6122Y-3.9772
X6.6142Y-2.3228
X6.6142Y-2.3622
X6.6142Y-2.7362
X6.6142Y-2.7756
X6.6516Y-3.5047
X6.6516Y-3.5441
X6.6516Y-3.9378
X6.6516Y-3.9772
X6.6535Y-2.3228
X6.6535Y-2.3622
X6.6535Y-2.7362
X6.6535Y-2.7756
X6.6909Y-3.5047
X6.6909Y-3.5441
X6.6909Y-3.9378
X6.6909Y-3.9772
X6.6929Y-2.3228
X6.6929Y-2.3622
X6.6929Y-2.7362
X6.6929Y-2.7756
X6.7087Y-1.4488
X6.7303Y-3.5047
X6.7303Y-3.5441
X6.7303Y-3.5835
X6.7303Y-3.6622
X6.7303Y-3.7016
X6.7303Y-3.7409
X6.7303Y-3.7803
X6.7303Y-3.8197
X6.7303Y-3.8591
X6.7303Y-3.8984
X6.7303Y-3.9378
X6.7303Y-3.9772
X6.7323Y-2.3228
X6.7323Y-2.3622
X6.7323Y-2.7362
X6.7323Y-2.7756
X6.7579Y-2.0167
X6.7697Y-3.5047
X6.7697Y-3.5441
X6.7697Y-3.5835
X6.7697Y-3.6622
X6.7697Y-3.7016
X6.7697Y-3.7409
X6.7697Y-3.7803
X6.7697Y-3.8197
X6.7697Y-3.8591
X6.7697Y-3.8984
X6.7697Y-3.9378
X6.7697Y-3.9772
X6.7717Y-2.3228
X6.7717Y-2.3622
X6.7717Y-2.7362
X6.7717Y-2.7756
X6.811Y-2.3228
X6.811Y-2.3622
X6.811Y-2.7362
X6.811Y-2.7756
X6.8504Y-2.3228
X6.8504Y-2.3622
X6.8504Y-2.7362
X6.8504Y-2.7756
X6.8504Y-3.878
X6.8504Y-3.9173
X6.8504Y-3.9567
X6.8898Y-2.3228
X6.8898Y-2.3622
X6.8898Y-2.7362
X6.8898Y-2.7756
X6.8898Y-3.8583
X6.8898Y-3.8976
X6.8898Y-3.937
X6.8898Y-3.9764
X6.9291Y-2.3228
X6.9291Y-2.3622
X6.9291Y-2.7362
X6.9291Y-2.7756
X6.9291Y-3.937
X6.9291Y-3.9764
X6.9685Y-2.3228
X6.9685Y-2.3622
X6.9685Y-2.7362
X6.9685Y-2.7756
X6.9685Y-3.937
X6.9685Y-3.9764
X7.0079Y-2.3622
X7.0079Y-2.7756
X7.0079Y-3.937
X7.0079Y-3.9764
X7.0375Y-2.0217
X7.0472Y-3.937
X7.0472Y-3.9764
X7.0866Y-3.937
X7.0866Y-3.9764
X7.1024Y-3.2598
X7.126Y-3.7008
X7.126Y-3.7402
X7.126Y-3.7795
X7.126Y-3.8189
X7.126Y-3.8583
X7.126Y-3.8976
X7.126Y-3.937
X7.126Y-3.9764
X7.1654Y-3.7008
X7.1654Y-3.7402
X7.1654Y-3.7795
X7.1654Y-3.8189
X7.1654Y-3.8583
X7.1654Y-3.8976
X7.1654Y-3.937
X7.1654Y-3.9764
X7.1936Y-2.6056
X7.2045Y-2.0561
X7.2047Y-3.7008
X7.2047Y-3.7402
X7.2047Y-3.7795
X7.2047Y-3.8189
X7.2047Y-3.8583
X7.2047Y-3.8976
X7.2047Y-3.937
X7.2047Y-3.9764
X7.228Y-2.2404
X7.2384Y-3.2522
X7.2539Y-3.0315
X7.2638Y-2.5059
X7.2736Y-2.874
X7.2835Y-1.7717
X7.2835Y-1.8504
X7.2835Y-2.6122
T2
X1.4386Y-1.4531
X1.5287Y-1.4531
X1.5681Y-1.1949
X1.6083Y-1.2654
X1.6484Y-1.1949
X1.6886Y-1.2654
X1.7287Y-1.1949
X1.7689Y-1.2654
X1.8091Y-1.1949
X1.8492Y-1.2654
X1.8886Y-1.4531
X1.9787Y-1.4531
X2.1906Y-1.4531
X2.2807Y-1.4531
X2.3201Y-1.1949
X2.3602Y-1.2654
X2.4004Y-1.1949
X2.4406Y-1.2654
X2.4807Y-1.1949
X2.5209Y-1.2654
X2.561Y-1.1949
X2.6012Y-1.2654
X2.6406Y-1.4531
X2.7307Y-1.4531
T3
X3.0669Y-1.2913
X3.0669Y-1.3913
X3.0669Y-1.4913
X3.0669Y-1.5913
X7.0669Y-1.2406
X7.0669Y-1.3406
X7.2244Y-1.2406
X7.2244Y-1.3406
T4
X1.9701Y-2.522
X1.9701Y-2.622
X1.9866Y-3.0496
X1.9866Y-3.1496
X1.9866Y-3.2496
X1.9866Y-3.3496
X1.9866Y-3.4496
X2.0701Y-2.522
X2.0701Y-2.622
X2.0866Y-3.0496
X2.0866Y-3.1496
X2.0866Y-3.2496
X2.0866Y-3.3496
X2.0866Y-3.4496
X2.1701Y-2.522
X2.1701Y-2.622
X2.2701Y-2.522
X2.2701Y-2.622
X2.3701Y-2.522
X2.3701Y-2.622
X3.5075Y-2.5228
X3.5075Y-2.6228
X3.524Y-3.0504
X3.524Y-3.1504
X3.524Y-3.2504
X3.524Y-3.3504
X3.524Y-3.4504
X3.6075Y-2.5228
X3.6075Y-2.6228
X3.624Y-3.0504
X3.624Y-3.1504
X3.624Y-3.2504
X3.624Y-3.3504
X3.624Y-3.4504
X3.7075Y-2.5228
X3.7075Y-2.6228
X3.8075Y-2.5228
X3.8075Y-2.6228
X3.9075Y-2.5228
X3.9075Y-2.6228
X5.0409Y-2.5219
X5.0409Y-2.6219
X5.0575Y-3.0494
X5.0575Y-3.1494
X5.0575Y-3.2494
X5.0575Y-3.3494
X5.0575Y-3.4494
X5.1409Y-2.5219
X5.1409Y-2.6219
X5.1575Y-3.0494
X5.1575Y-3.1494
X5.1575Y-3.2494
X5.1575Y-3.3494
X5.1575Y-3.4494
X5.2409Y-2.5219
X5.2409Y-2.6219
X5.3409Y-2.5219
X5.3409Y-2.6219
X5.4409Y-2.5219
X5.4409Y-2.6219
X6.5744Y-2.5228
X6.5744Y-2.6228
X6.5909Y-3.0504
X6.5909Y-3.1504
X6.5909Y-3.2504
X6.5909Y-3.3504
X6.5909Y-3.4504
X6.6744Y-2.5228
X6.6744Y-2.6228
X6.6909Y-3.0504
X6.6909Y-3.1504
X6.6909Y-3.2504
X6.6909Y-3.3504
X6.6909Y-3.4504
X6.7744Y-2.5228
X6.7744Y-2.6228
X6.8744Y-2.5228
X6.8744Y-2.6228
X6.9744Y-2.5228
X6.9744Y-2.6228
T5
X2.2819Y-3.435
X2.3819Y-3.435
X2.4819Y-3.435
X3.8193Y-3.4358
X3.9193Y-3.4358
X4.0193Y-3.4358
X5.3528Y-3.4348
X5.4528Y-3.4348
X5.5528Y-3.4348
X6.8862Y-3.4358
X6.9862Y-3.4358
X7.0862Y-3.4358
T6
X1.4567Y-1.0906
X1.9606Y-1.0906
X2.2087Y-1.0906
X2.7126Y-1.0906
T7
X0.9882Y-2.5197
X0.9882Y-3.0709
X0.9921Y-3.7008
X0.9921Y-4.252
X1.2087Y-2.5197
X1.2087Y-3.0709
X1.2126Y-3.7008
X1.2126Y-4.252
X1.4331Y-2.5197
X1.4331Y-3.0709
X1.437Y-3.7008
X1.437Y-4.252
X1.6535Y-2.5197
X1.6535Y-3.0709
X1.6575Y-3.7008
X1.6575Y-4.252
T8
X2.2539Y-4.4094
X2.7362Y-3.7579
X3.7913Y-4.4102
X4.2736Y-3.7587
X5.3248Y-4.4093
X5.8071Y-3.7577
X6.2992Y-4.4094
X7.0581Y-4.2008
T2
G00X1.4567Y-1.1909
M15
G01X1.4567Y-1.25
M16
G05
G00X1.9606Y-1.1909
M15
G01X1.9606Y-1.25
M16
G05
G00X2.2087Y-1.1909
M15
G01X2.2087Y-1.25
M16
G05
G00X2.7126Y-1.1909
M15
G01X2.7126Y-1.25
M16
G05
M30
