%TF.GenerationSoftware,KiCad,Pcbnew,8.0.8*%
%TF.CreationDate,2025-02-12T13:54:17+01:00*%
%TF.ProjectId,BMU_switch_mosfet,424d555f-7377-4697-9463-685f6d6f7366,rev?*%
%TF.SameCoordinates,Original*%
%TF.FileFunction,Copper,L2,Bot*%
%TF.FilePolarity,Positive*%
%FSLAX46Y46*%
G04 Gerber Fmt 4.6, Leading zero omitted, Abs format (unit mm)*
G04 Created by KiCad (PCBNEW 8.0.8) date 2025-02-12 13:54:17*
%MOMM*%
%LPD*%
G01*
G04 APERTURE LIST*
%TA.AperFunction,ComponentPad*%
%ADD10R,1.800000X1.800000*%
%TD*%
%TA.AperFunction,ComponentPad*%
%ADD11C,1.800000*%
%TD*%
%TA.AperFunction,ComponentPad*%
%ADD12R,1.500000X1.500000*%
%TD*%
%TA.AperFunction,ComponentPad*%
%ADD13C,1.500000*%
%TD*%
%TA.AperFunction,ViaPad*%
%ADD14C,0.600000*%
%TD*%
%TA.AperFunction,Conductor*%
%ADD15C,0.200000*%
%TD*%
G04 APERTURE END LIST*
D10*
%TO.P,U1,1,1*%
%TO.N,GND*%
X132920000Y-144631250D03*
D11*
%TO.P,U1,2,2*%
%TO.N,/CMD_Switch_bat*%
X130380000Y-144631250D03*
%TD*%
D12*
%TO.P,U3,1,1*%
%TO.N,/+BATT OUT*%
X140710000Y-124071250D03*
D13*
%TO.P,U3,2,2*%
X140710000Y-121531250D03*
%TO.P,U3,3,3*%
X138170000Y-124071250D03*
%TO.P,U3,4,4*%
X138170000Y-121531250D03*
%TO.P,U3,5,5*%
X135630000Y-124071250D03*
%TO.P,U3,6,6*%
X135630000Y-121531250D03*
%TO.P,U3,7,7*%
X133090000Y-124071250D03*
%TO.P,U3,8,8*%
X133090000Y-121531250D03*
%TO.P,U3,9,9*%
X130550000Y-124071250D03*
%TO.P,U3,10,10*%
X130550000Y-121531250D03*
%TD*%
D12*
%TO.P,U2,1,1*%
%TO.N,/+BATT_IN*%
X137742941Y-145154944D03*
D13*
%TO.P,U2,2,2*%
X140282941Y-145154944D03*
%TO.P,U2,3,3*%
X137742941Y-142614944D03*
%TO.P,U2,4,4*%
X140282941Y-142614944D03*
%TO.P,U2,5,5*%
X137742941Y-140074944D03*
%TO.P,U2,6,6*%
X140282941Y-140074944D03*
%TO.P,U2,7,7*%
X137742941Y-137534944D03*
%TO.P,U2,8,8*%
X140282941Y-137534944D03*
%TO.P,U2,9,9*%
X137742941Y-134994944D03*
%TO.P,U2,10,10*%
X140282941Y-134994944D03*
%TD*%
D14*
%TO.N,Net-(Q1-C)*%
X161000000Y-99781250D03*
X161000000Y-113781250D03*
X161000000Y-88281250D03*
X161500000Y-74500000D03*
%TO.N,/+BATT_IN*%
X145000000Y-138000000D03*
X159000000Y-95531250D03*
X159500000Y-96531250D03*
X155500000Y-94531250D03*
X154000000Y-69531250D03*
X158500000Y-110531250D03*
X159000000Y-78031250D03*
X157500000Y-110531250D03*
X148000000Y-141000000D03*
X145000000Y-146000000D03*
X158000000Y-67531250D03*
X157000000Y-71531250D03*
X148000000Y-131000000D03*
X155500000Y-96531250D03*
X147000000Y-142000000D03*
X156500000Y-110531250D03*
X149000000Y-132000000D03*
X156500000Y-92531250D03*
X146000000Y-131000000D03*
X146000000Y-133000000D03*
X147000000Y-136000000D03*
X157000000Y-109531250D03*
X147000000Y-130000000D03*
X146000000Y-137000000D03*
X147000000Y-138000000D03*
X158500000Y-92531250D03*
X145000000Y-132000000D03*
X145000000Y-134000000D03*
X156000000Y-69531250D03*
X146000000Y-143000000D03*
X157500000Y-85031250D03*
X159000000Y-91531250D03*
X154500000Y-106531250D03*
X153500000Y-108531250D03*
X149000000Y-134000000D03*
X148000000Y-147000000D03*
X158500000Y-96531250D03*
X145000000Y-140000000D03*
X159000000Y-71531250D03*
X156000000Y-95531250D03*
X155500000Y-68531250D03*
X157500000Y-96531250D03*
X154500000Y-83031250D03*
X155500000Y-92531250D03*
X156500000Y-70531250D03*
X148000000Y-145000000D03*
X156000000Y-109531250D03*
X155000000Y-109531250D03*
X149000000Y-142000000D03*
X154000000Y-95531250D03*
X156000000Y-67531250D03*
X159000000Y-105531250D03*
X149000000Y-146000000D03*
X158000000Y-84031250D03*
X156000000Y-91531250D03*
X147000000Y-144000000D03*
X157000000Y-95531250D03*
X155000000Y-69531250D03*
X145000000Y-130000000D03*
X157500000Y-79031250D03*
X154500000Y-79031250D03*
X149000000Y-140000000D03*
X148000000Y-143000000D03*
X146000000Y-135000000D03*
X149000000Y-130000000D03*
X158500000Y-106531250D03*
X156000000Y-84031250D03*
X154000000Y-107531250D03*
X155000000Y-95531250D03*
X159500000Y-110531250D03*
X159500000Y-66531250D03*
X156000000Y-78031250D03*
X157500000Y-92531250D03*
X159000000Y-84031250D03*
X158000000Y-109531250D03*
X155000000Y-67531250D03*
X160000000Y-71531250D03*
X157500000Y-70531250D03*
X157000000Y-91531250D03*
X145000000Y-136000000D03*
X154500000Y-94531250D03*
X156000000Y-82031250D03*
X157500000Y-106531250D03*
X154500000Y-68531250D03*
X156500000Y-66531250D03*
X147000000Y-148000000D03*
X158000000Y-95531250D03*
X154500000Y-70531250D03*
X158000000Y-105531250D03*
X159500000Y-70531250D03*
X146000000Y-139000000D03*
X146000000Y-141000000D03*
X154000000Y-109531250D03*
X156500000Y-96531250D03*
X159000000Y-67531250D03*
X154500000Y-85031250D03*
X159500000Y-85031250D03*
X153500000Y-94531250D03*
X155500000Y-70531250D03*
X154000000Y-82031250D03*
X158000000Y-78031250D03*
X155000000Y-71531250D03*
X155500000Y-108531250D03*
X149000000Y-138000000D03*
X156500000Y-68531250D03*
X146000000Y-147000000D03*
X158500000Y-70531250D03*
X154000000Y-84031250D03*
X155000000Y-107531250D03*
X156000000Y-71531250D03*
X155500000Y-85031250D03*
X156500000Y-106531250D03*
X157000000Y-105531250D03*
X156000000Y-107531250D03*
X149000000Y-136000000D03*
X145000000Y-142000000D03*
X155500000Y-110531250D03*
X154500000Y-96531250D03*
X157000000Y-67531250D03*
X148000000Y-135000000D03*
X147000000Y-146000000D03*
X154500000Y-110531250D03*
X157000000Y-84031250D03*
X155000000Y-105531250D03*
X154000000Y-93531250D03*
X158000000Y-91531250D03*
X156000000Y-93531250D03*
X154500000Y-92531250D03*
X147000000Y-132000000D03*
X146000000Y-145000000D03*
X156500000Y-79031250D03*
X153500000Y-83031250D03*
X157000000Y-78031250D03*
X155500000Y-79031250D03*
X145000000Y-148000000D03*
X149000000Y-144000000D03*
X155000000Y-93531250D03*
X147000000Y-134000000D03*
X156000000Y-105531250D03*
X155000000Y-84031250D03*
X148000000Y-137000000D03*
X158000000Y-71531250D03*
X147000000Y-140000000D03*
X155500000Y-83031250D03*
X158500000Y-79031250D03*
X159000000Y-109531250D03*
X155000000Y-82031250D03*
X148000000Y-139000000D03*
X149000000Y-148000000D03*
X155500000Y-106531250D03*
X154500000Y-108531250D03*
X155500000Y-66531250D03*
X145000000Y-144000000D03*
X155000000Y-91531250D03*
X157500000Y-66531250D03*
X156500000Y-85031250D03*
X158500000Y-85031250D03*
X155000000Y-78031250D03*
X158500000Y-66531250D03*
X148000000Y-133000000D03*
%TO.N,/Drain*%
X140500000Y-90531250D03*
X150000000Y-111031250D03*
X138500000Y-70531250D03*
X148000000Y-68531250D03*
X140000000Y-75531250D03*
X146500000Y-83531250D03*
X145000000Y-109031250D03*
X145000000Y-68531250D03*
X141000000Y-81531250D03*
X142000000Y-112031250D03*
X140500000Y-88531250D03*
X149500000Y-114031250D03*
X150000000Y-76531250D03*
X140500000Y-86531250D03*
X138000000Y-87531250D03*
X142000000Y-110031250D03*
X138500000Y-98531250D03*
X143000000Y-87531250D03*
X139500000Y-84531250D03*
X151000000Y-66531250D03*
X137619976Y-114911275D03*
X137500000Y-70531250D03*
X138000000Y-73531250D03*
X143000000Y-69531250D03*
X145500000Y-89531250D03*
X149500000Y-83531250D03*
X149000000Y-94531250D03*
X147000000Y-68531250D03*
X151000000Y-84531250D03*
X143500000Y-68531250D03*
X149500000Y-87531250D03*
X138000000Y-69531250D03*
X147000000Y-107031250D03*
X143500000Y-115031250D03*
X137500000Y-98531250D03*
X146500000Y-73531250D03*
X139500000Y-94531250D03*
X147000000Y-74531250D03*
X142000000Y-71531250D03*
X150500000Y-93531250D03*
X147500000Y-81531250D03*
X148500000Y-97531250D03*
X147000000Y-92531250D03*
X139500000Y-70531250D03*
X150000000Y-98531250D03*
X139000000Y-85531250D03*
X146000000Y-96531250D03*
X142500000Y-109031250D03*
X147000000Y-72531250D03*
X138000000Y-95531250D03*
X141000000Y-97531250D03*
X147500000Y-85531250D03*
X142500000Y-84531250D03*
X148000000Y-98531250D03*
X151000000Y-107031250D03*
X148000000Y-100531250D03*
X149500000Y-93531250D03*
X138500000Y-78531250D03*
X151000000Y-76531250D03*
X149500000Y-91531250D03*
X147500000Y-99531250D03*
X145500000Y-73531250D03*
X149000000Y-88531250D03*
X145500000Y-112031250D03*
X149000000Y-68531250D03*
X139500000Y-96531250D03*
X142500000Y-90531250D03*
X150000000Y-92531250D03*
X139000000Y-97531250D03*
X149500000Y-97531250D03*
X140500000Y-84531250D03*
X146500000Y-81531250D03*
X143000000Y-95531250D03*
X148500000Y-81531250D03*
X150500000Y-91531250D03*
X150500000Y-108031250D03*
X139000000Y-112031250D03*
X141500000Y-98531250D03*
X151000000Y-90531250D03*
X147000000Y-98531250D03*
X140500000Y-109031250D03*
X151000000Y-74531250D03*
X147500000Y-93531250D03*
X142000000Y-99531250D03*
X138500000Y-107031250D03*
X151000000Y-82531250D03*
X140000000Y-87531250D03*
X141000000Y-116031250D03*
X138500000Y-113031250D03*
X138000000Y-85531250D03*
X145000000Y-115031250D03*
X138500000Y-105031250D03*
X150500000Y-89531250D03*
X139500000Y-105031250D03*
X142500000Y-74531250D03*
X137500000Y-109031250D03*
X139500000Y-92531250D03*
X141500000Y-100531250D03*
X142500000Y-66531250D03*
X138500000Y-94531250D03*
X143500000Y-72531250D03*
X150500000Y-106031250D03*
X146500000Y-112031250D03*
X149000000Y-107031250D03*
X139500000Y-111031250D03*
X150500000Y-69531250D03*
X139000000Y-71531250D03*
X142000000Y-97531250D03*
X140000000Y-97531250D03*
X142000000Y-106031250D03*
X148000000Y-74531250D03*
X138500000Y-74531250D03*
X138000000Y-91531250D03*
X147500000Y-116031250D03*
X145000000Y-96531250D03*
X147000000Y-86531250D03*
X151000000Y-100531250D03*
X147000000Y-66531250D03*
X150000000Y-68531250D03*
X149500000Y-108031250D03*
X150000000Y-96531250D03*
X146500000Y-89531250D03*
X149000000Y-98531250D03*
X150500000Y-101531250D03*
X142500000Y-115031250D03*
X146000000Y-90531250D03*
X145500000Y-69531250D03*
X149500000Y-71531250D03*
X151000000Y-92531250D03*
X149500000Y-85531250D03*
X147500000Y-67531250D03*
X141000000Y-99531250D03*
X137500000Y-92531250D03*
X146500000Y-116031250D03*
X147500000Y-95531250D03*
X147500000Y-75531250D03*
X140000000Y-83531250D03*
X149000000Y-82531250D03*
X146000000Y-88531250D03*
X145500000Y-83531250D03*
X137500000Y-90531250D03*
X146500000Y-99531250D03*
X147500000Y-71531250D03*
X141500000Y-113031250D03*
X142000000Y-87531250D03*
X143000000Y-110031250D03*
X145000000Y-90531250D03*
X140500000Y-70531250D03*
X139000000Y-99531250D03*
X142000000Y-116031250D03*
X147500000Y-114031250D03*
X140000000Y-81531250D03*
X146500000Y-110031250D03*
X138000000Y-112031250D03*
X141000000Y-85531250D03*
X142000000Y-81531250D03*
X149500000Y-69531250D03*
X149000000Y-86531250D03*
X138000000Y-101531250D03*
X137500000Y-72531250D03*
X148500000Y-85531250D03*
X148500000Y-91531250D03*
X149000000Y-74531250D03*
X140500000Y-96531250D03*
X149500000Y-81531250D03*
X143500000Y-94531250D03*
X137500000Y-78531250D03*
X149500000Y-110031250D03*
X140500000Y-72531250D03*
X145500000Y-93531250D03*
X139500000Y-78531250D03*
X141500000Y-88531250D03*
X150500000Y-81531250D03*
X147500000Y-112031250D03*
X138000000Y-83531250D03*
X147000000Y-100531250D03*
X141500000Y-82531250D03*
X140500000Y-92531250D03*
X147000000Y-70531250D03*
X149000000Y-96531250D03*
X139000000Y-108031250D03*
X139000000Y-110031250D03*
X138000000Y-75531250D03*
X138500000Y-88531250D03*
X142500000Y-82531250D03*
X138500000Y-92531250D03*
X140000000Y-77531250D03*
X148500000Y-95531250D03*
X143500000Y-90531250D03*
X138000000Y-67531250D03*
X141500000Y-84531250D03*
X139000000Y-93531250D03*
X141000000Y-73531250D03*
X137500000Y-100531250D03*
X149500000Y-95531250D03*
X150000000Y-107031250D03*
X137500000Y-74531250D03*
X139500000Y-74531250D03*
X147000000Y-90531250D03*
X141500000Y-68531250D03*
X149500000Y-67531250D03*
X147500000Y-106031250D03*
X150000000Y-105031250D03*
X148500000Y-77531250D03*
X137500000Y-86531250D03*
X138000000Y-97531250D03*
X148500000Y-116031250D03*
X145000000Y-84531250D03*
X142000000Y-73531250D03*
X139500000Y-100531250D03*
X137500000Y-82531250D03*
X143500000Y-107031250D03*
X149000000Y-90531250D03*
X137500000Y-113031250D03*
X145500000Y-95531250D03*
X142000000Y-89531250D03*
X151000000Y-94531250D03*
X148500000Y-71531250D03*
X141000000Y-89531250D03*
X146000000Y-107031250D03*
X147000000Y-113031250D03*
X138500000Y-68531250D03*
X140500000Y-74531250D03*
X143000000Y-112031250D03*
X150000000Y-66531250D03*
X141000000Y-110031250D03*
X141000000Y-93531250D03*
X140500000Y-115031250D03*
X148500000Y-83531250D03*
X139000000Y-83531250D03*
X146000000Y-115031250D03*
X141500000Y-90531250D03*
X141000000Y-101531250D03*
X145000000Y-86531250D03*
X145000000Y-94531250D03*
X146500000Y-114031250D03*
X150000000Y-90531250D03*
X139000000Y-73531250D03*
X151000000Y-98531250D03*
X145000000Y-98531250D03*
X145500000Y-116031250D03*
X145000000Y-72531250D03*
X138500000Y-90531250D03*
X143000000Y-116031250D03*
X148000000Y-115031250D03*
X138000000Y-106031250D03*
X141000000Y-83531250D03*
X140000000Y-67531250D03*
X146000000Y-94531250D03*
X149500000Y-99531250D03*
X137500000Y-111031250D03*
X141500000Y-115031250D03*
X138500000Y-96531250D03*
X140500000Y-82531250D03*
X139000000Y-91531250D03*
X143500000Y-98531250D03*
X145500000Y-91531250D03*
X145000000Y-88531250D03*
X151000000Y-86531250D03*
X143500000Y-82531250D03*
X149000000Y-105031250D03*
X139500000Y-72531250D03*
X150000000Y-109031250D03*
X143500000Y-96531250D03*
X141000000Y-112031250D03*
X149000000Y-92531250D03*
X143000000Y-91531250D03*
X138000000Y-81531250D03*
X149000000Y-84531250D03*
X143500000Y-70531250D03*
X143000000Y-83531250D03*
X142500000Y-92531250D03*
X149500000Y-73531250D03*
X145500000Y-114031250D03*
X148000000Y-111031250D03*
X147500000Y-108031250D03*
X142500000Y-111031250D03*
X143500000Y-88531250D03*
X150500000Y-67531250D03*
X149500000Y-106031250D03*
X146500000Y-69531250D03*
X149000000Y-115031250D03*
X142000000Y-83531250D03*
X142000000Y-108031250D03*
X139500000Y-109031250D03*
X140000000Y-99531250D03*
X141000000Y-95531250D03*
X148000000Y-94531250D03*
X148500000Y-110031250D03*
X150500000Y-97531250D03*
X150500000Y-114031250D03*
X145500000Y-108031250D03*
X146000000Y-86531250D03*
X147000000Y-111031250D03*
X142000000Y-67531250D03*
X150000000Y-86531250D03*
X138000000Y-114031250D03*
X139000000Y-89531250D03*
X150500000Y-71531250D03*
X151000000Y-78531250D03*
X139500000Y-76531250D03*
X143000000Y-81531250D03*
X143000000Y-73531250D03*
X137500000Y-76531250D03*
X140000000Y-95531250D03*
X147000000Y-82531250D03*
X141500000Y-72531250D03*
X150500000Y-85531250D03*
X148500000Y-114031250D03*
X139000000Y-75531250D03*
X143000000Y-71531250D03*
X146500000Y-71531250D03*
X150500000Y-110031250D03*
X140500000Y-113031250D03*
X142500000Y-94531250D03*
X140000000Y-91531250D03*
X139500000Y-98531250D03*
X145000000Y-92531250D03*
X142000000Y-93531250D03*
X138500000Y-66531250D03*
X140000000Y-112031250D03*
X150000000Y-88531250D03*
X147000000Y-115031250D03*
X138500000Y-86531250D03*
X143000000Y-85531250D03*
X150500000Y-87531250D03*
X150500000Y-112031250D03*
X139500000Y-90531250D03*
X143000000Y-89531250D03*
X150500000Y-116031250D03*
X146000000Y-111031250D03*
X140000000Y-110031250D03*
X143500000Y-84531250D03*
X148000000Y-86531250D03*
X143000000Y-67531250D03*
X138500000Y-84531250D03*
X149000000Y-109031250D03*
X137500000Y-88531250D03*
X147500000Y-89531250D03*
X148000000Y-82531250D03*
X151000000Y-88531250D03*
X148000000Y-105031250D03*
X150000000Y-72531250D03*
X140000000Y-114031250D03*
X146500000Y-95531250D03*
X140500000Y-105031250D03*
X149500000Y-116031250D03*
X143500000Y-86531250D03*
X140500000Y-94531250D03*
X137500000Y-105031250D03*
X148500000Y-87531250D03*
X151000000Y-96531250D03*
X148500000Y-93531250D03*
X145000000Y-82531250D03*
X138000000Y-108031250D03*
X138500000Y-115031250D03*
X148500000Y-75531250D03*
X148500000Y-73531250D03*
X145500000Y-85531250D03*
X148000000Y-90531250D03*
X150000000Y-113031250D03*
X138000000Y-89531250D03*
X141500000Y-92531250D03*
X143500000Y-66531250D03*
X140000000Y-106031250D03*
X150500000Y-99531250D03*
X146000000Y-74531250D03*
X142500000Y-88531250D03*
X141500000Y-74531250D03*
X146000000Y-72531250D03*
X138500000Y-76531250D03*
X151000000Y-109031250D03*
X146500000Y-75531250D03*
X141000000Y-71531250D03*
X143000000Y-99531250D03*
X140500000Y-107031250D03*
X141000000Y-91531250D03*
X139500000Y-86531250D03*
X147500000Y-91531250D03*
X141500000Y-70531250D03*
X140000000Y-85531250D03*
X142500000Y-70531250D03*
X149500000Y-75531250D03*
X145000000Y-70531250D03*
X151000000Y-105031250D03*
X138500000Y-100531250D03*
X149000000Y-111031250D03*
X141500000Y-96531250D03*
X141000000Y-114031250D03*
X142000000Y-114031250D03*
X150000000Y-84531250D03*
X146000000Y-92531250D03*
X147000000Y-109031250D03*
X145500000Y-81531250D03*
X149500000Y-101531250D03*
X138000000Y-77531250D03*
X151000000Y-115031250D03*
X148000000Y-92531250D03*
X151000000Y-72531250D03*
X141500000Y-109031250D03*
X138000000Y-93531250D03*
X139500000Y-88531250D03*
X142000000Y-85531250D03*
X146500000Y-91531250D03*
X141000000Y-106031250D03*
X140000000Y-108031250D03*
X140000000Y-73531250D03*
X146500000Y-85531250D03*
X145500000Y-67531250D03*
X140000000Y-89531250D03*
X140000000Y-71531250D03*
X140000000Y-93531250D03*
X142500000Y-107031250D03*
X140500000Y-100531250D03*
X137500000Y-94531250D03*
X148000000Y-107031250D03*
X141500000Y-86531250D03*
X145500000Y-87531250D03*
X139500000Y-107031250D03*
X142500000Y-98531250D03*
X140500000Y-68531250D03*
X150500000Y-77531250D03*
X138000000Y-99531250D03*
X149000000Y-72531250D03*
X142500000Y-86531250D03*
X147000000Y-96531250D03*
X139000000Y-67531250D03*
X141000000Y-87531250D03*
X139500000Y-68531250D03*
X148000000Y-66531250D03*
X150000000Y-70531250D03*
X140000000Y-101531250D03*
X150000000Y-78531250D03*
X145000000Y-66531250D03*
X149000000Y-66531250D03*
X148000000Y-96531250D03*
X149000000Y-70531250D03*
X145500000Y-99531250D03*
X146000000Y-66531250D03*
X149000000Y-113031250D03*
X139000000Y-106031250D03*
X148500000Y-108031250D03*
X151000000Y-68531250D03*
X145500000Y-97531250D03*
X148500000Y-101531250D03*
X148500000Y-106031250D03*
X146000000Y-68531250D03*
X137500000Y-84531250D03*
X142000000Y-95531250D03*
X147000000Y-84531250D03*
X145500000Y-110031250D03*
X139000000Y-101531250D03*
X142500000Y-72531250D03*
X146500000Y-67531250D03*
X139000000Y-69531250D03*
X139500000Y-115031250D03*
X149500000Y-112031250D03*
X146000000Y-113031250D03*
X142000000Y-69531250D03*
X138500000Y-111031250D03*
X141500000Y-66531250D03*
X137500000Y-107031250D03*
X148500000Y-69531250D03*
X143500000Y-92531250D03*
X148000000Y-113031250D03*
X137500000Y-66531250D03*
X145000000Y-107031250D03*
X146500000Y-87531250D03*
X146000000Y-70531250D03*
X148000000Y-109031250D03*
X150000000Y-82531250D03*
X142500000Y-113031250D03*
X151000000Y-113031250D03*
X150000000Y-100531250D03*
X139500000Y-66531250D03*
X149000000Y-76531250D03*
X140000000Y-69531250D03*
X141000000Y-69531250D03*
X148000000Y-72531250D03*
X148500000Y-67531250D03*
X147500000Y-83531250D03*
X151000000Y-70531250D03*
X138000000Y-110031250D03*
X138000000Y-71531250D03*
X150000000Y-115031250D03*
X147500000Y-101531250D03*
X143500000Y-113031250D03*
X150500000Y-75531250D03*
X140500000Y-78531250D03*
X139500000Y-82531250D03*
X148500000Y-89531250D03*
X141000000Y-75531250D03*
X138500000Y-82531250D03*
X146500000Y-108031250D03*
X147500000Y-87531250D03*
X148500000Y-99531250D03*
X139000000Y-77531250D03*
X148000000Y-88531250D03*
X139000000Y-114031250D03*
X142000000Y-91531250D03*
X138500000Y-72531250D03*
X146000000Y-84531250D03*
X140500000Y-76531250D03*
X137500000Y-68531250D03*
X146000000Y-98531250D03*
X142500000Y-96531250D03*
X148000000Y-84531250D03*
X138369976Y-115661275D03*
X140500000Y-98531250D03*
X147500000Y-73531250D03*
X148000000Y-76531250D03*
X141500000Y-111031250D03*
X147500000Y-97531250D03*
X140500000Y-66531250D03*
X145000000Y-113031250D03*
X150000000Y-74531250D03*
X139000000Y-81531250D03*
X141500000Y-94531250D03*
X150000000Y-94531250D03*
X143500000Y-109031250D03*
X141000000Y-108031250D03*
X137500000Y-96531250D03*
X151000000Y-111031250D03*
X149000000Y-78531250D03*
X147000000Y-94531250D03*
X147000000Y-88531250D03*
X146500000Y-93531250D03*
X139500000Y-113031250D03*
X143500000Y-111031250D03*
X148000000Y-70531250D03*
X139000000Y-95531250D03*
X149500000Y-89531250D03*
X141000000Y-67531250D03*
X147500000Y-110031250D03*
X145000000Y-111031250D03*
X145000000Y-74531250D03*
X139000000Y-116031250D03*
X141500000Y-107031250D03*
X150500000Y-83531250D03*
X145500000Y-71531250D03*
X143000000Y-114031250D03*
X146000000Y-109031250D03*
X138500000Y-109031250D03*
X143000000Y-97531250D03*
X150500000Y-95531250D03*
X146500000Y-97531250D03*
X150500000Y-73531250D03*
X140500000Y-111031250D03*
X147500000Y-69531250D03*
X143000000Y-108031250D03*
X149000000Y-100531250D03*
X143000000Y-93531250D03*
X148000000Y-78531250D03*
X140000000Y-116031250D03*
X139000000Y-87531250D03*
X148500000Y-112031250D03*
X146000000Y-82531250D03*
X142500000Y-68531250D03*
X149500000Y-77531250D03*
%TO.N,Net-(Q10-G)*%
X136000000Y-108281250D03*
X136000000Y-82531250D03*
X135750000Y-66250000D03*
X136000000Y-94031250D03*
%TO.N,/+BATT OUT*%
X130000000Y-97531250D03*
X127000000Y-101531250D03*
X128250000Y-110531250D03*
X126500000Y-73531250D03*
X126000000Y-90531250D03*
X126000000Y-76531250D03*
X129500000Y-96531250D03*
X130500000Y-71531250D03*
X130750000Y-115531250D03*
X128500000Y-85531250D03*
X127500000Y-75531250D03*
X127000000Y-90531250D03*
X129250000Y-110531250D03*
X126000000Y-72531250D03*
X128500000Y-96531250D03*
X127500000Y-87531250D03*
X127500000Y-71531250D03*
X131000000Y-76531250D03*
X129000000Y-101531250D03*
X126000000Y-86531250D03*
X126500000Y-75531250D03*
X126250000Y-110531250D03*
X126000000Y-74531250D03*
X126000000Y-97531250D03*
X126750000Y-113531250D03*
X128500000Y-100531250D03*
X126500000Y-89531250D03*
X128000000Y-76531250D03*
X126500000Y-71531250D03*
X128000000Y-72531250D03*
X125750000Y-115531250D03*
X129500000Y-89531250D03*
X130000000Y-72531250D03*
X130500000Y-89531250D03*
X127500000Y-73531250D03*
X125750000Y-111531250D03*
X129000000Y-76531250D03*
X128000000Y-86531250D03*
X130500000Y-75531250D03*
X130000000Y-90531250D03*
X130500000Y-85531250D03*
X126750000Y-111531250D03*
X127000000Y-88531250D03*
X127000000Y-97531250D03*
X129250000Y-114531250D03*
X131000000Y-101531250D03*
X128500000Y-71531250D03*
X128500000Y-75531250D03*
X131000000Y-90531250D03*
X128750000Y-115531250D03*
X127000000Y-86531250D03*
X128750000Y-111531250D03*
X127500000Y-89531250D03*
X126250000Y-114531250D03*
X130000000Y-101531250D03*
X128000000Y-97531250D03*
X130500000Y-100531250D03*
X126500000Y-100531250D03*
X129750000Y-111531250D03*
X127500000Y-98531250D03*
X130250000Y-110531250D03*
X129000000Y-90531250D03*
X126250000Y-112531250D03*
X126000000Y-101531250D03*
X126500000Y-87531250D03*
X128500000Y-89531250D03*
X125750000Y-113531250D03*
X126000000Y-88531250D03*
X130250000Y-114531250D03*
X127500000Y-85531250D03*
X127250000Y-112531250D03*
X127000000Y-74531250D03*
X127000000Y-76531250D03*
X127000000Y-72531250D03*
X129750000Y-115531250D03*
X129000000Y-72531250D03*
X126500000Y-96531250D03*
X127750000Y-115531250D03*
X128250000Y-114531250D03*
X130500000Y-96531250D03*
X127750000Y-111531250D03*
X127500000Y-96531250D03*
X127000000Y-99531250D03*
X126500000Y-85531250D03*
X129500000Y-75531250D03*
X126000000Y-99531250D03*
X128000000Y-101531250D03*
X127250000Y-114531250D03*
X127500000Y-100531250D03*
X129500000Y-85531250D03*
X129000000Y-86531250D03*
X128000000Y-90531250D03*
X127250000Y-110531250D03*
X130000000Y-86531250D03*
X126750000Y-115531250D03*
X129000000Y-97531250D03*
X126500000Y-98531250D03*
X129500000Y-100531250D03*
X129500000Y-71531250D03*
X130000000Y-76531250D03*
%TD*%
D15*
%TO.N,Net-(Q1-C)*%
X162000000Y-75000000D02*
X161500000Y-74500000D01*
X162000000Y-98781250D02*
X161000000Y-99781250D01*
X161000000Y-99781250D02*
X162000000Y-100781250D01*
X161000000Y-88281250D02*
X162000000Y-89281250D01*
X162000000Y-100781250D02*
X162000000Y-112781250D01*
X162000000Y-89281250D02*
X162000000Y-98781250D01*
X161000000Y-88281250D02*
X162000000Y-87281250D01*
X162000000Y-112781250D02*
X161000000Y-113781250D01*
X162000000Y-87281250D02*
X162000000Y-75000000D01*
%TO.N,Net-(Q10-G)*%
X135750000Y-66250000D02*
X136000000Y-66500000D01*
X136000000Y-66500000D02*
X136000000Y-82531250D01*
X136000000Y-94031250D02*
X136000000Y-82531250D01*
X136000000Y-94031250D02*
X136000000Y-108281250D01*
%TD*%
%TA.AperFunction,Conductor*%
%TO.N,/Drain*%
G36*
X152443039Y-65551435D02*
G01*
X152488794Y-65604239D01*
X152500000Y-65655750D01*
X152500000Y-117407250D01*
X152480315Y-117474289D01*
X152427511Y-117520044D01*
X152376000Y-117531250D01*
X136624000Y-117531250D01*
X136556961Y-117511565D01*
X136511206Y-117458761D01*
X136500000Y-117407250D01*
X136500000Y-108964690D01*
X136519685Y-108897651D01*
X136536319Y-108877009D01*
X136629816Y-108783512D01*
X136725789Y-108630772D01*
X136785368Y-108460505D01*
X136805565Y-108281250D01*
X136785368Y-108101995D01*
X136725789Y-107931728D01*
X136629816Y-107778988D01*
X136629814Y-107778986D01*
X136629813Y-107778984D01*
X136627550Y-107776146D01*
X136626659Y-107773965D01*
X136626111Y-107773092D01*
X136626264Y-107772995D01*
X136601144Y-107711459D01*
X136600500Y-107698837D01*
X136600500Y-103250000D01*
X141199576Y-103250000D01*
X141218755Y-103591534D01*
X141218756Y-103591539D01*
X141276056Y-103928783D01*
X141370756Y-104257491D01*
X141419683Y-104375611D01*
X141501659Y-104573522D01*
X141501661Y-104573526D01*
X141667132Y-104872923D01*
X141865086Y-105151914D01*
X142093023Y-105406973D01*
X142093026Y-105406976D01*
X142348085Y-105634913D01*
X142348091Y-105634917D01*
X142348092Y-105634918D01*
X142627077Y-105832868D01*
X142926471Y-105998337D01*
X142926473Y-105998338D01*
X142926477Y-105998340D01*
X143019042Y-106036681D01*
X143242509Y-106129244D01*
X143571217Y-106223944D01*
X143908461Y-106281244D01*
X144250000Y-106300424D01*
X144591539Y-106281244D01*
X144928783Y-106223944D01*
X145257491Y-106129244D01*
X145573529Y-105998337D01*
X145872923Y-105832868D01*
X146151908Y-105634918D01*
X146406975Y-105406975D01*
X146634918Y-105151908D01*
X146832868Y-104872923D01*
X146998337Y-104573529D01*
X147129244Y-104257491D01*
X147223944Y-103928783D01*
X147281244Y-103591539D01*
X147300424Y-103250000D01*
X147281244Y-102908461D01*
X147223944Y-102571217D01*
X147129244Y-102242509D01*
X147036681Y-102019042D01*
X146998340Y-101926477D01*
X146998338Y-101926473D01*
X146832867Y-101627076D01*
X146634913Y-101348085D01*
X146406976Y-101093026D01*
X146406973Y-101093023D01*
X146151914Y-100865086D01*
X145872923Y-100667132D01*
X145573526Y-100501661D01*
X145573522Y-100501659D01*
X145375611Y-100419683D01*
X145257491Y-100370756D01*
X145093137Y-100323406D01*
X144928787Y-100276057D01*
X144928779Y-100276055D01*
X144591546Y-100218757D01*
X144591534Y-100218755D01*
X144250000Y-100199576D01*
X143908465Y-100218755D01*
X143908453Y-100218757D01*
X143571220Y-100276055D01*
X143571212Y-100276057D01*
X143242512Y-100370755D01*
X143242509Y-100370756D01*
X143198877Y-100388828D01*
X142926477Y-100501659D01*
X142926473Y-100501661D01*
X142627076Y-100667132D01*
X142348085Y-100865086D01*
X142093026Y-101093023D01*
X142093023Y-101093026D01*
X141865086Y-101348085D01*
X141667132Y-101627076D01*
X141501661Y-101926473D01*
X141501659Y-101926477D01*
X141370755Y-102242512D01*
X141276057Y-102571212D01*
X141276055Y-102571220D01*
X141218757Y-102908453D01*
X141218755Y-102908465D01*
X141199576Y-103250000D01*
X136600500Y-103250000D01*
X136600500Y-94613662D01*
X136620185Y-94546623D01*
X136627555Y-94536347D01*
X136629810Y-94533517D01*
X136629816Y-94533512D01*
X136725789Y-94380772D01*
X136785368Y-94210505D01*
X136805565Y-94031250D01*
X136785368Y-93851995D01*
X136725789Y-93681728D01*
X136629816Y-93528988D01*
X136629814Y-93528986D01*
X136629813Y-93528984D01*
X136627550Y-93526146D01*
X136626659Y-93523965D01*
X136626111Y-93523092D01*
X136626264Y-93522995D01*
X136601144Y-93461459D01*
X136600500Y-93448837D01*
X136600500Y-83113662D01*
X136620185Y-83046623D01*
X136627555Y-83036347D01*
X136629810Y-83033517D01*
X136629816Y-83033512D01*
X136725789Y-82880772D01*
X136785368Y-82710505D01*
X136805565Y-82531250D01*
X136785368Y-82351995D01*
X136725789Y-82181728D01*
X136629816Y-82028988D01*
X136629814Y-82028986D01*
X136629813Y-82028984D01*
X136627550Y-82026146D01*
X136626659Y-82023965D01*
X136626111Y-82023092D01*
X136626264Y-82022995D01*
X136601144Y-81961459D01*
X136600500Y-81948837D01*
X136600500Y-78250000D01*
X141031389Y-78250000D01*
X141051626Y-78610365D01*
X141051627Y-78610370D01*
X141112086Y-78966208D01*
X141212007Y-79313040D01*
X141321524Y-79577438D01*
X141350131Y-79646501D01*
X141524726Y-79962408D01*
X141524729Y-79962413D01*
X141733585Y-80256766D01*
X141733589Y-80256771D01*
X141974098Y-80525902D01*
X142243229Y-80766411D01*
X142243232Y-80766413D01*
X142243233Y-80766414D01*
X142537586Y-80975270D01*
X142537591Y-80975273D01*
X142537594Y-80975274D01*
X142537596Y-80975276D01*
X142853497Y-81149868D01*
X143186960Y-81287993D01*
X143533792Y-81387914D01*
X143889630Y-81448373D01*
X144250000Y-81468611D01*
X144610370Y-81448373D01*
X144966208Y-81387914D01*
X145313040Y-81287993D01*
X145646503Y-81149868D01*
X145962404Y-80975276D01*
X145962409Y-80975272D01*
X145962413Y-80975270D01*
X146084074Y-80888945D01*
X146256771Y-80766411D01*
X146525902Y-80525902D01*
X146766411Y-80256771D01*
X146975276Y-79962404D01*
X147149868Y-79646503D01*
X147287993Y-79313040D01*
X147387914Y-78966208D01*
X147448373Y-78610370D01*
X147468611Y-78250000D01*
X147448373Y-77889630D01*
X147387914Y-77533792D01*
X147287993Y-77186960D01*
X147149868Y-76853497D01*
X146975276Y-76537596D01*
X146975274Y-76537594D01*
X146975273Y-76537591D01*
X146975270Y-76537586D01*
X146766414Y-76243233D01*
X146766413Y-76243232D01*
X146766411Y-76243229D01*
X146525902Y-75974098D01*
X146256771Y-75733589D01*
X146256768Y-75733587D01*
X146256766Y-75733585D01*
X145962413Y-75524729D01*
X145962408Y-75524726D01*
X145646501Y-75350131D01*
X145577438Y-75321524D01*
X145313040Y-75212007D01*
X145139624Y-75162046D01*
X144966212Y-75112087D01*
X144966204Y-75112085D01*
X144610377Y-75051628D01*
X144610365Y-75051626D01*
X144250000Y-75031389D01*
X143889634Y-75051626D01*
X143889622Y-75051628D01*
X143533795Y-75112085D01*
X143533787Y-75112087D01*
X143186963Y-75212006D01*
X143186960Y-75212007D01*
X143089293Y-75252462D01*
X142853498Y-75350131D01*
X142537591Y-75524726D01*
X142537586Y-75524729D01*
X142243233Y-75733585D01*
X141974098Y-75974098D01*
X141733585Y-76243233D01*
X141524729Y-76537586D01*
X141524726Y-76537591D01*
X141350131Y-76853498D01*
X141212006Y-77186963D01*
X141112087Y-77533787D01*
X141112085Y-77533795D01*
X141051628Y-77889622D01*
X141051626Y-77889634D01*
X141031389Y-78250000D01*
X136600500Y-78250000D01*
X136600500Y-66420945D01*
X136600500Y-66420943D01*
X136559577Y-66268216D01*
X136559575Y-66268213D01*
X136558599Y-66264569D01*
X136555155Y-66246366D01*
X136544438Y-66151251D01*
X136535369Y-66070749D01*
X136535367Y-66070742D01*
X136506958Y-65989552D01*
X136500000Y-65948598D01*
X136500000Y-65655750D01*
X136519685Y-65588711D01*
X136572489Y-65542956D01*
X136624000Y-65531750D01*
X152376000Y-65531750D01*
X152443039Y-65551435D01*
G37*
%TD.AperFunction*%
%TD*%
%TA.AperFunction,Conductor*%
%TO.N,/+BATT_IN*%
G36*
X158761409Y-65532066D02*
G01*
X159025790Y-65550974D01*
X159043291Y-65553491D01*
X159304803Y-65610379D01*
X159321762Y-65615358D01*
X159572524Y-65708888D01*
X159588616Y-65716237D01*
X159823501Y-65844494D01*
X159838375Y-65854052D01*
X160052624Y-66014438D01*
X160065994Y-66026024D01*
X160255225Y-66215255D01*
X160266811Y-66228625D01*
X160427193Y-66442869D01*
X160436758Y-66457753D01*
X160565011Y-66692632D01*
X160572361Y-66708725D01*
X160665888Y-66959479D01*
X160670872Y-66976455D01*
X160727757Y-67237952D01*
X160730275Y-67255464D01*
X160749684Y-67526831D01*
X160750000Y-67535677D01*
X160750000Y-74198598D01*
X160743042Y-74239552D01*
X160714632Y-74320742D01*
X160714630Y-74320750D01*
X160694435Y-74499996D01*
X160694435Y-74500003D01*
X160714630Y-74679246D01*
X160714632Y-74679256D01*
X160743041Y-74760442D01*
X160750000Y-74801397D01*
X160750000Y-87432654D01*
X160730315Y-87499693D01*
X160677511Y-87545448D01*
X160666961Y-87549693D01*
X160660591Y-87551922D01*
X160650474Y-87555462D01*
X160497737Y-87651434D01*
X160370184Y-87778987D01*
X160274211Y-87931726D01*
X160214631Y-88101995D01*
X160214630Y-88102000D01*
X160194435Y-88281246D01*
X160194435Y-88281253D01*
X160214630Y-88460499D01*
X160214631Y-88460504D01*
X160274211Y-88630773D01*
X160306094Y-88681514D01*
X160370184Y-88783512D01*
X160497738Y-88911066D01*
X160650478Y-89007039D01*
X160666954Y-89012804D01*
X160723730Y-89053525D01*
X160749478Y-89118478D01*
X160750000Y-89129846D01*
X160750000Y-98932654D01*
X160730315Y-98999693D01*
X160677511Y-99045448D01*
X160666961Y-99049693D01*
X160660591Y-99051922D01*
X160650474Y-99055462D01*
X160497737Y-99151434D01*
X160370184Y-99278987D01*
X160274211Y-99431726D01*
X160214631Y-99601995D01*
X160214630Y-99602000D01*
X160194435Y-99781246D01*
X160194435Y-99781253D01*
X160214630Y-99960499D01*
X160214631Y-99960504D01*
X160274211Y-100130773D01*
X160306094Y-100181514D01*
X160370184Y-100283512D01*
X160497738Y-100411066D01*
X160650478Y-100507039D01*
X160666954Y-100512804D01*
X160723730Y-100553525D01*
X160749478Y-100618478D01*
X160750000Y-100629846D01*
X160750000Y-112932654D01*
X160730315Y-112999693D01*
X160677511Y-113045448D01*
X160666961Y-113049693D01*
X160660591Y-113051922D01*
X160650474Y-113055462D01*
X160497737Y-113151434D01*
X160370184Y-113278987D01*
X160274211Y-113431726D01*
X160214631Y-113601995D01*
X160214630Y-113602000D01*
X160194435Y-113781246D01*
X160194435Y-113781253D01*
X160214630Y-113960499D01*
X160214631Y-113960504D01*
X160274211Y-114130773D01*
X160370184Y-114283512D01*
X160497738Y-114411066D01*
X160650478Y-114507039D01*
X160666954Y-114512804D01*
X160723730Y-114553525D01*
X160749478Y-114618478D01*
X160750000Y-114629846D01*
X160750000Y-130981035D01*
X160749721Y-130989347D01*
X160732587Y-131244389D01*
X160730364Y-131260863D01*
X160680101Y-131507250D01*
X160675694Y-131523277D01*
X160592933Y-131760712D01*
X160586422Y-131776008D01*
X160472637Y-132000257D01*
X160464138Y-132014543D01*
X160321389Y-132221546D01*
X160311056Y-132234567D01*
X160141904Y-132420615D01*
X160129922Y-132432138D01*
X159934204Y-132596578D01*
X159927661Y-132601711D01*
X157959398Y-134041903D01*
X157893671Y-134065604D01*
X157893129Y-134065636D01*
X157826688Y-134069367D01*
X157482818Y-134127793D01*
X157482809Y-134127795D01*
X157147649Y-134224353D01*
X156825398Y-134357832D01*
X156825394Y-134357834D01*
X156520111Y-134526559D01*
X156235635Y-134728405D01*
X155975561Y-134960823D01*
X155975558Y-134960826D01*
X155743140Y-135220900D01*
X155541294Y-135505376D01*
X155372570Y-135810658D01*
X155312139Y-135956550D01*
X155270801Y-136009169D01*
X151318990Y-138900737D01*
X151318971Y-138900752D01*
X150500000Y-139500000D01*
X150500000Y-140514789D01*
X150500000Y-148526822D01*
X150499684Y-148535668D01*
X150480275Y-148807035D01*
X150477757Y-148824547D01*
X150420872Y-149086044D01*
X150415888Y-149103020D01*
X150322361Y-149353774D01*
X150315011Y-149369867D01*
X150186758Y-149604746D01*
X150177193Y-149619630D01*
X150016811Y-149833874D01*
X150005226Y-149847244D01*
X149858037Y-149994432D01*
X149796717Y-150027916D01*
X149770358Y-150030750D01*
X135457528Y-150030750D01*
X135390489Y-150011065D01*
X135370352Y-149994932D01*
X135230327Y-149856488D01*
X135218749Y-149843291D01*
X135058100Y-149631663D01*
X135048497Y-149616955D01*
X135046037Y-149612532D01*
X134919366Y-149384757D01*
X134911938Y-149368841D01*
X134909349Y-149362080D01*
X134816906Y-149120716D01*
X134811809Y-149103934D01*
X134752785Y-148844860D01*
X134750109Y-148827520D01*
X134727922Y-148558322D01*
X134727512Y-148549547D01*
X134584613Y-135956550D01*
X134523084Y-130534323D01*
X134523304Y-130525426D01*
X134539973Y-130251289D01*
X134542337Y-130233591D01*
X134597302Y-129969080D01*
X134602186Y-129951901D01*
X134694574Y-129698045D01*
X134701871Y-129681752D01*
X134829778Y-129443780D01*
X134839337Y-129428711D01*
X135000106Y-129211579D01*
X135011724Y-129198046D01*
X135107460Y-129101561D01*
X135202013Y-129006269D01*
X135215472Y-128994531D01*
X135350722Y-128892745D01*
X135431330Y-128832081D01*
X135446320Y-128822407D01*
X135683289Y-128692645D01*
X135699513Y-128685225D01*
X135952671Y-128590849D01*
X135969786Y-128585839D01*
X136233875Y-128528809D01*
X136251533Y-128526309D01*
X136525556Y-128507500D01*
X136534444Y-128507211D01*
X139680254Y-128518363D01*
X144973147Y-128537127D01*
X144973150Y-128537127D01*
X144973150Y-128537126D01*
X144973152Y-128537127D01*
X144973152Y-128537126D01*
X144973164Y-128537126D01*
X145697029Y-128539693D01*
X153000000Y-122500000D01*
X153000000Y-117454372D01*
X153001262Y-117436725D01*
X153005500Y-117407250D01*
X153005500Y-67458776D01*
X153005816Y-67449930D01*
X153019724Y-67255464D01*
X153022240Y-67237960D01*
X153079130Y-66976442D01*
X153084107Y-66959491D01*
X153177640Y-66708720D01*
X153184985Y-66692638D01*
X153313248Y-66457741D01*
X153322798Y-66442880D01*
X153483195Y-66228616D01*
X153494767Y-66215262D01*
X153684012Y-66026017D01*
X153697366Y-66014445D01*
X153911630Y-65854048D01*
X153926491Y-65844498D01*
X154161388Y-65716235D01*
X154177470Y-65708890D01*
X154428241Y-65615357D01*
X154445192Y-65610380D01*
X154706710Y-65553490D01*
X154724207Y-65550974D01*
X154988591Y-65532066D01*
X154997437Y-65531750D01*
X158752563Y-65531750D01*
X158761409Y-65532066D01*
G37*
%TD.AperFunction*%
%TD*%
%TA.AperFunction,Conductor*%
%TO.N,/+BATT OUT*%
G36*
X135103849Y-65551435D02*
G01*
X135149604Y-65604239D01*
X135159548Y-65673397D01*
X135130523Y-65736953D01*
X135124491Y-65743431D01*
X135120184Y-65747737D01*
X135024211Y-65900476D01*
X134964631Y-66070745D01*
X134964630Y-66070750D01*
X134944435Y-66249996D01*
X134944435Y-66250003D01*
X134964630Y-66429249D01*
X134964631Y-66429254D01*
X135024211Y-66599523D01*
X135120184Y-66752262D01*
X135247740Y-66879818D01*
X135341471Y-66938712D01*
X135387763Y-66991046D01*
X135399500Y-67043706D01*
X135399500Y-81948837D01*
X135379815Y-82015876D01*
X135372450Y-82026146D01*
X135370186Y-82028984D01*
X135274211Y-82181726D01*
X135214631Y-82351995D01*
X135214630Y-82352000D01*
X135194435Y-82531246D01*
X135194435Y-82531253D01*
X135214630Y-82710499D01*
X135214631Y-82710504D01*
X135274211Y-82880773D01*
X135370185Y-83033513D01*
X135372445Y-83036347D01*
X135373334Y-83038525D01*
X135373889Y-83039408D01*
X135373734Y-83039505D01*
X135398855Y-83101033D01*
X135399500Y-83113662D01*
X135399500Y-93448837D01*
X135379815Y-93515876D01*
X135372450Y-93526146D01*
X135370186Y-93528984D01*
X135274211Y-93681726D01*
X135214631Y-93851995D01*
X135214630Y-93852000D01*
X135194435Y-94031246D01*
X135194435Y-94031253D01*
X135214630Y-94210499D01*
X135214631Y-94210504D01*
X135274211Y-94380773D01*
X135370185Y-94533513D01*
X135372445Y-94536347D01*
X135373334Y-94538525D01*
X135373889Y-94539408D01*
X135373734Y-94539505D01*
X135398855Y-94601033D01*
X135399500Y-94613662D01*
X135399500Y-107698837D01*
X135379815Y-107765876D01*
X135372450Y-107776146D01*
X135370186Y-107778984D01*
X135274211Y-107931726D01*
X135214631Y-108101995D01*
X135214630Y-108102000D01*
X135194435Y-108281246D01*
X135194435Y-108281253D01*
X135214630Y-108460499D01*
X135214631Y-108460504D01*
X135274211Y-108630773D01*
X135370184Y-108783512D01*
X135497738Y-108911066D01*
X135650478Y-109007039D01*
X135820745Y-109066618D01*
X135884385Y-109073788D01*
X135948796Y-109100853D01*
X135988352Y-109158448D01*
X135994500Y-109197008D01*
X135994500Y-117407250D01*
X135994501Y-117407259D01*
X136006052Y-117514700D01*
X136006054Y-117514712D01*
X136017260Y-117566222D01*
X136051383Y-117668747D01*
X136051386Y-117668753D01*
X136129171Y-117789787D01*
X136129179Y-117789798D01*
X136174923Y-117842590D01*
X136174926Y-117842593D01*
X136174930Y-117842597D01*
X136283664Y-117936817D01*
X136414541Y-117996588D01*
X136481580Y-118016273D01*
X136481584Y-118016274D01*
X136624000Y-118036750D01*
X136624003Y-118036750D01*
X145626000Y-118036750D01*
X145693039Y-118056435D01*
X145738794Y-118109239D01*
X145750000Y-118160750D01*
X145750000Y-127407250D01*
X145730315Y-127474289D01*
X145677511Y-127520044D01*
X145626000Y-127531250D01*
X125374500Y-127531250D01*
X125307461Y-127511565D01*
X125261706Y-127458761D01*
X125250500Y-127407250D01*
X125250500Y-65655750D01*
X125270185Y-65588711D01*
X125322989Y-65542956D01*
X125374500Y-65531750D01*
X135036810Y-65531750D01*
X135103849Y-65551435D01*
G37*
%TD.AperFunction*%
%TD*%
M02*
