%TF.GenerationSoftware,KiCad,Pcbnew,8.0.8*%
%TF.CreationDate,2025-02-12T14:05:13+01:00*%
%TF.ProjectId,BMU v2,424d5520-7632-42e6-9b69-6361645f7063,rev?*%
%TF.SameCoordinates,Original*%
%TF.FileFunction,Soldermask,Top*%
%TF.FilePolarity,Negative*%
%FSLAX46Y46*%
G04 Gerber Fmt 4.6, Leading zero omitted, Abs format (unit mm)*
G04 Created by KiCad (PCBNEW 8.0.8) date 2025-02-12 14:05:13*
%MOMM*%
%LPD*%
G01*
G04 APERTURE LIST*
G04 Aperture macros list*
%AMRoundRect*
0 Rectangle with rounded corners*
0 $1 Rounding radius*
0 $2 $3 $4 $5 $6 $7 $8 $9 X,Y pos of 4 corners*
0 Add a 4 corners polygon primitive as box body*
4,1,4,$2,$3,$4,$5,$6,$7,$8,$9,$2,$3,0*
0 Add four circle primitives for the rounded corners*
1,1,$1+$1,$2,$3*
1,1,$1+$1,$4,$5*
1,1,$1+$1,$6,$7*
1,1,$1+$1,$8,$9*
0 Add four rect primitives between the rounded corners*
20,1,$1+$1,$2,$3,$4,$5,0*
20,1,$1+$1,$4,$5,$6,$7,0*
20,1,$1+$1,$6,$7,$8,$9,0*
20,1,$1+$1,$8,$9,$2,$3,0*%
G04 Aperture macros list end*
%ADD10RoundRect,0.140000X0.140000X0.170000X-0.140000X0.170000X-0.140000X-0.170000X0.140000X-0.170000X0*%
%ADD11R,1.700000X1.700000*%
%ADD12O,1.700000X1.700000*%
%ADD13RoundRect,0.250000X-0.475000X0.250000X-0.475000X-0.250000X0.475000X-0.250000X0.475000X0.250000X0*%
%ADD14RoundRect,0.250000X-0.325000X-0.650000X0.325000X-0.650000X0.325000X0.650000X-0.325000X0.650000X0*%
%ADD15RoundRect,0.140000X0.170000X-0.140000X0.170000X0.140000X-0.170000X0.140000X-0.170000X-0.140000X0*%
%ADD16RoundRect,0.160000X-0.160000X0.197500X-0.160000X-0.197500X0.160000X-0.197500X0.160000X0.197500X0*%
%ADD17RoundRect,0.218750X0.218750X0.256250X-0.218750X0.256250X-0.218750X-0.256250X0.218750X-0.256250X0*%
%ADD18RoundRect,0.200000X0.275000X-0.200000X0.275000X0.200000X-0.275000X0.200000X-0.275000X-0.200000X0*%
%ADD19RoundRect,0.218750X0.256250X-0.218750X0.256250X0.218750X-0.256250X0.218750X-0.256250X-0.218750X0*%
%ADD20RoundRect,0.075000X0.650000X0.075000X-0.650000X0.075000X-0.650000X-0.075000X0.650000X-0.075000X0*%
%ADD21R,3.500000X5.200000*%
%ADD22RoundRect,0.250000X-1.000000X-0.650000X1.000000X-0.650000X1.000000X0.650000X-1.000000X0.650000X0*%
%ADD23C,5.200000*%
%ADD24C,10.000000*%
%ADD25RoundRect,0.200000X-0.200000X-0.275000X0.200000X-0.275000X0.200000X0.275000X-0.200000X0.275000X0*%
%ADD26RoundRect,0.160000X0.160000X-0.197500X0.160000X0.197500X-0.160000X0.197500X-0.160000X-0.197500X0*%
%ADD27RoundRect,0.200000X0.200000X0.275000X-0.200000X0.275000X-0.200000X-0.275000X0.200000X-0.275000X0*%
%ADD28R,1.100000X1.000000*%
%ADD29R,1.100000X0.600000*%
%ADD30RoundRect,0.250000X1.000000X0.650000X-1.000000X0.650000X-1.000000X-0.650000X1.000000X-0.650000X0*%
%ADD31RoundRect,0.200000X-0.275000X0.200000X-0.275000X-0.200000X0.275000X-0.200000X0.275000X0.200000X0*%
%ADD32RoundRect,0.225000X-0.225000X-0.250000X0.225000X-0.250000X0.225000X0.250000X-0.225000X0.250000X0*%
%ADD33RoundRect,0.140000X-0.170000X0.140000X-0.170000X-0.140000X0.170000X-0.140000X0.170000X0.140000X0*%
%ADD34RoundRect,0.075000X-0.075000X0.650000X-0.075000X-0.650000X0.075000X-0.650000X0.075000X0.650000X0*%
%ADD35RoundRect,0.237500X-0.300000X-0.237500X0.300000X-0.237500X0.300000X0.237500X-0.300000X0.237500X0*%
%ADD36RoundRect,0.150000X-0.825000X-0.150000X0.825000X-0.150000X0.825000X0.150000X-0.825000X0.150000X0*%
%ADD37RoundRect,0.250000X-0.250000X-0.475000X0.250000X-0.475000X0.250000X0.475000X-0.250000X0.475000X0*%
%ADD38RoundRect,0.100000X0.100000X-0.637500X0.100000X0.637500X-0.100000X0.637500X-0.100000X-0.637500X0*%
%ADD39R,1.000000X1.100000*%
%ADD40RoundRect,0.250000X-1.050000X-0.550000X1.050000X-0.550000X1.050000X0.550000X-1.050000X0.550000X0*%
%ADD41C,1.500000*%
%ADD42C,1.600000*%
%ADD43O,1.600000X3.000000*%
%ADD44R,4.220000X2.120000*%
%ADD45R,2.200000X0.800000*%
%ADD46RoundRect,0.218750X-0.218750X-0.256250X0.218750X-0.256250X0.218750X0.256250X-0.218750X0.256250X0*%
%ADD47RoundRect,0.150000X-0.512500X-0.150000X0.512500X-0.150000X0.512500X0.150000X-0.512500X0.150000X0*%
%ADD48R,1.570000X1.800000*%
%ADD49C,1.800000*%
%ADD50R,1.700000X1.570000*%
%ADD51C,1.700000*%
%ADD52R,1.570000X1.700000*%
%ADD53C,2.700000*%
G04 APERTURE END LIST*
D10*
%TO.C,C6*%
X145980000Y-87495000D03*
X145020000Y-87495000D03*
%TD*%
D11*
%TO.C,J3*%
X179500000Y-34050000D03*
D12*
X179500000Y-31510000D03*
%TD*%
D13*
%TO.C,C8*%
X72000000Y-48050000D03*
X72000000Y-49950000D03*
%TD*%
D14*
%TO.C,C12*%
X178725000Y-41500000D03*
X181675000Y-41500000D03*
%TD*%
D15*
%TO.C,C18*%
X47000000Y-40500000D03*
X47000000Y-39540000D03*
%TD*%
D16*
%TO.C,R9*%
X45000000Y-42902500D03*
X45000000Y-44097500D03*
%TD*%
D17*
%TO.C,D16*%
X178787500Y-84600000D03*
X177212500Y-84600000D03*
%TD*%
D18*
%TO.C,R35*%
X141920000Y-41815000D03*
X141920000Y-40165000D03*
%TD*%
D19*
%TO.C,D20*%
X84855600Y-45797500D03*
X84855600Y-44222500D03*
%TD*%
D20*
%TO.C,U3*%
X151200000Y-84995000D03*
X151200000Y-84495000D03*
X151200000Y-83995000D03*
X151200000Y-83495000D03*
X151200000Y-82995000D03*
X146800000Y-82995000D03*
X146800000Y-83495000D03*
X146800000Y-83995000D03*
X146800000Y-84495000D03*
X146800000Y-84995000D03*
%TD*%
D19*
%TO.C,D25*%
X135000000Y-45787500D03*
X135000000Y-44212500D03*
%TD*%
D21*
%TO.C,R11*%
X90190000Y-95000000D03*
X97810000Y-95000000D03*
%TD*%
D22*
%TO.C,D1*%
X178050000Y-45250000D03*
X182050000Y-45250000D03*
%TD*%
D23*
%TO.C,J12*%
X25200000Y-94000000D03*
X25200000Y-108000000D03*
X30800000Y-94000000D03*
X30800000Y-108000000D03*
X36500000Y-94000000D03*
X36500000Y-108000000D03*
X42100000Y-94000000D03*
X42100000Y-108000000D03*
%TD*%
D13*
%TO.C,C20*%
X166200000Y-44150000D03*
X166200000Y-46050000D03*
%TD*%
D24*
%TO.C,H7*%
X147500000Y-95445000D03*
%TD*%
D20*
%TO.C,U1*%
X73200000Y-85000000D03*
X73200000Y-84500000D03*
X73200000Y-84000000D03*
X73200000Y-83500000D03*
X73200000Y-83000000D03*
X68800000Y-83000000D03*
X68800000Y-83500000D03*
X68800000Y-84000000D03*
X68800000Y-84500000D03*
X68800000Y-85000000D03*
%TD*%
D25*
%TO.C,R19*%
X143575000Y-78950000D03*
X145225000Y-78950000D03*
%TD*%
D15*
%TO.C,C9*%
X111000000Y-39960000D03*
X111000000Y-39000000D03*
%TD*%
D26*
%TO.C,R4*%
X45000000Y-41597500D03*
X45000000Y-40402500D03*
%TD*%
D18*
%TO.C,R33*%
X129920000Y-41815000D03*
X129920000Y-40165000D03*
%TD*%
D27*
%TO.C,R6*%
X44825000Y-49000000D03*
X43175000Y-49000000D03*
%TD*%
D28*
%TO.C,D3*%
X69320000Y-76900000D03*
X72780000Y-76900000D03*
%TD*%
D29*
%TO.C,U4*%
X40350000Y-50950000D03*
X40350000Y-50000000D03*
X40350000Y-49050000D03*
X37650000Y-49050000D03*
X37650000Y-50000000D03*
X37650000Y-50950000D03*
%TD*%
D10*
%TO.C,C2*%
X67980000Y-87500000D03*
X67020000Y-87500000D03*
%TD*%
D27*
%TO.C,R25*%
X170825000Y-40100000D03*
X169175000Y-40100000D03*
%TD*%
D14*
%TO.C,C13*%
X178850000Y-38700000D03*
X181800000Y-38700000D03*
%TD*%
D18*
%TO.C,R29*%
X84855600Y-41825000D03*
X84855600Y-40175000D03*
%TD*%
D28*
%TO.C,D13*%
X170830000Y-35200000D03*
X167370000Y-35200000D03*
%TD*%
D25*
%TO.C,R37*%
X153175000Y-75795000D03*
X154825000Y-75795000D03*
%TD*%
D30*
%TO.C,D5*%
X62000000Y-48000000D03*
X58000000Y-48000000D03*
%TD*%
D24*
%TO.C,H3*%
X135250000Y-111995000D03*
%TD*%
D31*
%TO.C,R3*%
X63500000Y-39175000D03*
X63500000Y-40825000D03*
%TD*%
D19*
%TO.C,D24*%
X129920000Y-45787500D03*
X129920000Y-44212500D03*
%TD*%
D32*
%TO.C,C17*%
X169225000Y-38150000D03*
X170775000Y-38150000D03*
%TD*%
D13*
%TO.C,C16*%
X65980000Y-48050000D03*
X65980000Y-49950000D03*
%TD*%
D18*
%TO.C,R36*%
X147000000Y-41815000D03*
X147000000Y-40165000D03*
%TD*%
D24*
%TO.C,H6*%
X108550000Y-95470000D03*
%TD*%
D33*
%TO.C,C7*%
X150200000Y-80620000D03*
X150200000Y-81580000D03*
%TD*%
D24*
%TO.C,H4*%
X160000000Y-112000000D03*
%TD*%
%TO.C,H8*%
X179275000Y-106700000D03*
%TD*%
D23*
%TO.C,J11*%
X25100000Y-64000000D03*
X25100000Y-78000000D03*
X30700000Y-64000000D03*
X30700000Y-78000000D03*
X36400000Y-64000000D03*
X36400000Y-78000000D03*
X42000000Y-64000000D03*
X42000000Y-78000000D03*
%TD*%
D34*
%TO.C,U7*%
X185000000Y-79800000D03*
X184500000Y-79800000D03*
X184000000Y-79800000D03*
X183500000Y-79800000D03*
X183000000Y-79800000D03*
X183000000Y-84200000D03*
X183500000Y-84200000D03*
X184000000Y-84200000D03*
X184500000Y-84200000D03*
X185000000Y-84200000D03*
%TD*%
D28*
%TO.C,D11*%
X147320000Y-76850000D03*
X150780000Y-76850000D03*
%TD*%
D21*
%TO.C,R10*%
X51190000Y-95000000D03*
X58810000Y-95000000D03*
%TD*%
%TO.C,R13*%
X129190000Y-94000000D03*
X136810000Y-94000000D03*
%TD*%
%TO.C,R14*%
X168190000Y-94000000D03*
X175810000Y-94000000D03*
%TD*%
D28*
%TO.C,D10*%
X147320000Y-79000000D03*
X150780000Y-79000000D03*
%TD*%
D24*
%TO.C,H1*%
X57250000Y-112000000D03*
%TD*%
D35*
%TO.C,C14*%
X173137500Y-34000000D03*
X174862500Y-34000000D03*
%TD*%
D18*
%TO.C,R34*%
X135000000Y-41815000D03*
X135000000Y-40165000D03*
%TD*%
D30*
%TO.C,D9*%
X62000000Y-52000000D03*
X58000000Y-52000000D03*
%TD*%
D28*
%TO.C,D7*%
X107920000Y-76750000D03*
X111380000Y-76750000D03*
%TD*%
D18*
%TO.C,R31*%
X98250000Y-41815000D03*
X98250000Y-40165000D03*
%TD*%
%TO.C,R30*%
X89935600Y-41825000D03*
X89935600Y-40175000D03*
%TD*%
D36*
%TO.C,U8*%
X49525000Y-40495000D03*
X49525000Y-41765000D03*
X49525000Y-43035000D03*
X49525000Y-44305000D03*
X54475000Y-44305000D03*
X54475000Y-43035000D03*
X54475000Y-41765000D03*
X54475000Y-40495000D03*
%TD*%
D25*
%TO.C,R1*%
X65675000Y-81200000D03*
X67325000Y-81200000D03*
%TD*%
D37*
%TO.C,C19*%
X169550000Y-32500000D03*
X171450000Y-32500000D03*
%TD*%
D38*
%TO.C,U6*%
X112800000Y-44725000D03*
X113450000Y-44725000D03*
X114100000Y-44725000D03*
X114750000Y-44725000D03*
X115400000Y-44725000D03*
X116050000Y-44725000D03*
X116700000Y-44725000D03*
X117350000Y-44725000D03*
X118000000Y-44725000D03*
X118650000Y-44725000D03*
X119300000Y-44725000D03*
X119950000Y-44725000D03*
X119950000Y-39000000D03*
X119300000Y-39000000D03*
X118650000Y-39000000D03*
X118000000Y-39000000D03*
X117350000Y-39000000D03*
X116700000Y-39000000D03*
X116050000Y-39000000D03*
X115400000Y-39000000D03*
X114750000Y-39000000D03*
X114100000Y-39000000D03*
X113450000Y-39000000D03*
X112800000Y-39000000D03*
%TD*%
D39*
%TO.C,D14*%
X182400000Y-75230000D03*
X182400000Y-71770000D03*
%TD*%
D18*
%TO.C,R16*%
X66000000Y-42825000D03*
X66000000Y-41175000D03*
%TD*%
D19*
%TO.C,D26*%
X141920000Y-45787500D03*
X141920000Y-44212500D03*
%TD*%
D33*
%TO.C,C3*%
X72825000Y-80720000D03*
X72825000Y-81680000D03*
%TD*%
D28*
%TO.C,D15*%
X174470000Y-75100000D03*
X177930000Y-75100000D03*
%TD*%
D20*
%TO.C,U2*%
X112250000Y-85020000D03*
X112250000Y-84520000D03*
X112250000Y-84020000D03*
X112250000Y-83520000D03*
X112250000Y-83020000D03*
X107850000Y-83020000D03*
X107850000Y-83520000D03*
X107850000Y-84020000D03*
X107850000Y-84520000D03*
X107850000Y-85020000D03*
%TD*%
D31*
%TO.C,R21*%
X180500000Y-74275000D03*
X180500000Y-75925000D03*
%TD*%
D18*
%TO.C,R2*%
X33000000Y-39825000D03*
X33000000Y-38175000D03*
%TD*%
D10*
%TO.C,C10*%
X183480000Y-87520000D03*
X182520000Y-87520000D03*
%TD*%
D18*
%TO.C,R28*%
X110500000Y-44825000D03*
X110500000Y-43175000D03*
%TD*%
D40*
%TO.C,C1*%
X33700000Y-44000000D03*
X37300000Y-44000000D03*
%TD*%
D28*
%TO.C,D6*%
X107920000Y-79050000D03*
X111380000Y-79050000D03*
%TD*%
D41*
%TO.C,RJ2*%
X37000000Y-27700000D03*
X49800000Y-27700000D03*
D42*
X39830000Y-30350000D03*
X40850000Y-32140000D03*
X41870000Y-30350000D03*
X42890000Y-32140000D03*
X43910000Y-30350000D03*
X44930000Y-32140000D03*
X45950000Y-30350000D03*
X46970000Y-32140000D03*
X36540000Y-36910000D03*
X38830000Y-36910000D03*
X47970000Y-36910000D03*
X50260000Y-36910000D03*
D43*
X37000000Y-31000000D03*
X49800000Y-31000000D03*
%TD*%
D19*
%TO.C,D22*%
X98250000Y-45787500D03*
X98250000Y-44212500D03*
%TD*%
D25*
%TO.C,R20*%
X143550000Y-81200000D03*
X145200000Y-81200000D03*
%TD*%
%TO.C,R18*%
X114225000Y-75820000D03*
X115875000Y-75820000D03*
%TD*%
D15*
%TO.C,C21*%
X57000000Y-40480000D03*
X57000000Y-39520000D03*
%TD*%
D25*
%TO.C,R5*%
X65725000Y-79000000D03*
X67375000Y-79000000D03*
%TD*%
D44*
%TO.C,L1*%
X171650000Y-42900000D03*
X171650000Y-46900000D03*
%TD*%
D19*
%TO.C,D27*%
X147000000Y-45787500D03*
X147000000Y-44212500D03*
%TD*%
D25*
%TO.C,R17*%
X75175000Y-75800000D03*
X76825000Y-75800000D03*
%TD*%
D45*
%TO.C,TR1*%
X47150000Y-47460000D03*
X47150000Y-50000000D03*
X47150000Y-52540000D03*
X54850000Y-52540000D03*
X54850000Y-50000000D03*
X54850000Y-47460000D03*
%TD*%
D25*
%TO.C,R38*%
X179000000Y-50800000D03*
X180650000Y-50800000D03*
%TD*%
D46*
%TO.C,D4*%
X65812500Y-76500000D03*
X67387500Y-76500000D03*
%TD*%
D11*
%TO.C,J5*%
X183500000Y-34050000D03*
D12*
X183500000Y-31510000D03*
%TD*%
D24*
%TO.C,H5*%
X69500000Y-95450000D03*
%TD*%
D31*
%TO.C,R39*%
X175000000Y-83175000D03*
X175000000Y-84825000D03*
%TD*%
D27*
%TO.C,R24*%
X174325000Y-40000000D03*
X172675000Y-40000000D03*
%TD*%
D28*
%TO.C,D2*%
X69320000Y-79200000D03*
X72780000Y-79200000D03*
%TD*%
D11*
%TO.C,J1*%
X77900000Y-40420000D03*
D12*
X77900000Y-37880000D03*
X77900000Y-35340000D03*
X77900000Y-32800000D03*
%TD*%
D13*
%TO.C,C15*%
X68990000Y-48050000D03*
X68990000Y-49950000D03*
%TD*%
D18*
%TO.C,R15*%
X61000000Y-41825000D03*
X61000000Y-40175000D03*
%TD*%
D25*
%TO.C,R8*%
X104375000Y-81400000D03*
X106025000Y-81400000D03*
%TD*%
D10*
%TO.C,C4*%
X107030000Y-87520000D03*
X106070000Y-87520000D03*
%TD*%
D47*
%TO.C,U9*%
X172950000Y-36350000D03*
X172950000Y-37300000D03*
X172950000Y-38250000D03*
X175225000Y-38250000D03*
X175225000Y-37300000D03*
X175225000Y-36350000D03*
%TD*%
D41*
%TO.C,RJ1*%
X56100000Y-27700000D03*
X68900000Y-27700000D03*
D42*
X58930000Y-30350000D03*
X59950000Y-32140000D03*
X60970000Y-30350000D03*
X61990000Y-32140000D03*
X63010000Y-30350000D03*
X64030000Y-32140000D03*
X65050000Y-30350000D03*
X66070000Y-32140000D03*
X55640000Y-36910000D03*
X57930000Y-36910000D03*
X67070000Y-36910000D03*
X69360000Y-36910000D03*
D43*
X56100000Y-31000000D03*
X68900000Y-31000000D03*
%TD*%
D46*
%TO.C,D8*%
X104562500Y-76450000D03*
X106137500Y-76450000D03*
%TD*%
D33*
%TO.C,C11*%
X181000000Y-84040000D03*
X181000000Y-85000000D03*
%TD*%
D18*
%TO.C,R32*%
X103330000Y-41815000D03*
X103330000Y-40165000D03*
%TD*%
D24*
%TO.C,H2*%
X96300000Y-112020000D03*
%TD*%
D19*
%TO.C,D21*%
X90000000Y-45797500D03*
X90000000Y-44222500D03*
%TD*%
%TO.C,D23*%
X103330000Y-45787500D03*
X103330000Y-44212500D03*
%TD*%
D33*
%TO.C,C5*%
X111100000Y-80720000D03*
X111100000Y-81680000D03*
%TD*%
D27*
%TO.C,R7*%
X44825000Y-51000000D03*
X43175000Y-51000000D03*
%TD*%
D46*
%TO.C,D12*%
X143712500Y-76300000D03*
X145287500Y-76300000D03*
%TD*%
D25*
%TO.C,R12*%
X104475000Y-79020000D03*
X106125000Y-79020000D03*
%TD*%
D48*
%TO.C,H24*%
X102090000Y-87270000D03*
D49*
X99550000Y-87270000D03*
X97010000Y-87270000D03*
%TD*%
D50*
%TO.C,H17*%
X128460000Y-87615000D03*
D51*
X131000000Y-87615000D03*
X128460000Y-85075000D03*
X131000000Y-85075000D03*
X128460000Y-82535000D03*
X131000000Y-82535000D03*
X128460000Y-79995000D03*
X131000000Y-79995000D03*
X128460000Y-77455000D03*
X131000000Y-77455000D03*
%TD*%
D48*
%TO.C,H25*%
X141040000Y-87245000D03*
D49*
X138500000Y-87245000D03*
X135960000Y-87245000D03*
%TD*%
D52*
%TO.C,H19*%
X60200000Y-66600000D03*
D51*
X60200000Y-64060000D03*
X57660000Y-66600000D03*
X57660000Y-64060000D03*
X55120000Y-66600000D03*
X55120000Y-64060000D03*
X52580000Y-66600000D03*
X52580000Y-64060000D03*
X50040000Y-66600000D03*
X50040000Y-64060000D03*
%TD*%
D52*
%TO.C,H22*%
X177150000Y-66620000D03*
D51*
X177150000Y-64080000D03*
X174610000Y-66620000D03*
X174610000Y-64080000D03*
X172070000Y-66620000D03*
X172070000Y-64080000D03*
X169530000Y-66620000D03*
X169530000Y-64080000D03*
X166990000Y-66620000D03*
X166990000Y-64080000D03*
%TD*%
D52*
%TO.C,H21*%
X138200000Y-66595000D03*
D51*
X138200000Y-64055000D03*
X135660000Y-66595000D03*
X135660000Y-64055000D03*
X133120000Y-66595000D03*
X133120000Y-64055000D03*
X130580000Y-66595000D03*
X130580000Y-64055000D03*
X128040000Y-66595000D03*
X128040000Y-64055000D03*
%TD*%
D48*
%TO.C,H26*%
X179990000Y-87270000D03*
D49*
X177450000Y-87270000D03*
X174910000Y-87270000D03*
%TD*%
D53*
%TO.C,HM4*%
X180000000Y-116000000D03*
%TD*%
%TO.C,HM3*%
X139574400Y-79498300D03*
%TD*%
%TO.C,HM4*%
X25000000Y-116000000D03*
%TD*%
%TO.C,HM4*%
X25000000Y-26000000D03*
%TD*%
D50*
%TO.C,H16*%
X89510000Y-87640000D03*
D51*
X92050000Y-87640000D03*
X89510000Y-85100000D03*
X92050000Y-85100000D03*
X89510000Y-82560000D03*
X92050000Y-82560000D03*
X89510000Y-80020000D03*
X92050000Y-80020000D03*
X89510000Y-77480000D03*
X92050000Y-77480000D03*
%TD*%
D50*
%TO.C,H18*%
X167410000Y-87640000D03*
D51*
X169950000Y-87640000D03*
X167410000Y-85100000D03*
X169950000Y-85100000D03*
X167410000Y-82560000D03*
X169950000Y-82560000D03*
X167410000Y-80020000D03*
X169950000Y-80020000D03*
X167410000Y-77480000D03*
X169950000Y-77480000D03*
%TD*%
D53*
%TO.C,HM1*%
X61500000Y-79500000D03*
%TD*%
D50*
%TO.C,H15*%
X50460000Y-87620000D03*
D51*
X53000000Y-87620000D03*
X50460000Y-85080000D03*
X53000000Y-85080000D03*
X50460000Y-82540000D03*
X53000000Y-82540000D03*
X50460000Y-80000000D03*
X53000000Y-80000000D03*
X50460000Y-77460000D03*
X53000000Y-77460000D03*
%TD*%
D53*
%TO.C,HM2*%
X100500000Y-79600000D03*
%TD*%
%TO.C,HM4*%
X178500000Y-79498300D03*
%TD*%
D48*
%TO.C,H23*%
X63040000Y-87250000D03*
D49*
X60500000Y-87250000D03*
X57960000Y-87250000D03*
%TD*%
D53*
%TO.C,HM4*%
X180000000Y-26000000D03*
%TD*%
D52*
%TO.C,H20*%
X99250000Y-66620000D03*
D51*
X99250000Y-64080000D03*
X96710000Y-66620000D03*
X96710000Y-64080000D03*
X94170000Y-66620000D03*
X94170000Y-64080000D03*
X91630000Y-66620000D03*
X91630000Y-64080000D03*
X89090000Y-66620000D03*
X89090000Y-64080000D03*
%TD*%
G36*
X45931055Y-88425079D02*
G01*
X45995400Y-88427377D01*
X46004229Y-88428008D01*
X46068213Y-88434887D01*
X46072606Y-88435439D01*
X46122485Y-88442611D01*
X46127805Y-88443495D01*
X46135381Y-88444923D01*
X46145933Y-88447394D01*
X46152846Y-88449335D01*
X46158949Y-88451219D01*
X46170001Y-88454946D01*
X46171863Y-88455590D01*
X46185499Y-88460431D01*
X46186419Y-88460762D01*
X46193014Y-88463162D01*
X46197154Y-88464753D01*
X46214755Y-88471881D01*
X46222833Y-88475493D01*
X46239836Y-88483836D01*
X46243775Y-88485857D01*
X46278038Y-88504215D01*
X46285686Y-88508671D01*
X46334149Y-88539276D01*
X46348396Y-88549766D01*
X46392007Y-88586954D01*
X46398535Y-88592936D01*
X46421223Y-88615268D01*
X46425660Y-88619867D01*
X46440500Y-88636062D01*
X46448638Y-88645917D01*
X46461757Y-88663587D01*
X46465454Y-88668846D01*
X46466474Y-88670380D01*
X46467531Y-88671997D01*
X46479802Y-88691090D01*
X46481877Y-88694434D01*
X46492402Y-88712013D01*
X46495541Y-88717577D01*
X46503969Y-88733456D01*
X46507842Y-88741427D01*
X46515507Y-88758755D01*
X46517222Y-88762829D01*
X46544509Y-88830983D01*
X46546853Y-88837334D01*
X46555615Y-88863233D01*
X46559242Y-88876250D01*
X46565133Y-88902945D01*
X46566410Y-88909589D01*
X46570712Y-88935808D01*
X46571069Y-88938118D01*
X46571501Y-88941102D01*
X46572086Y-88945764D01*
X46572338Y-88948135D01*
X46572671Y-88951789D01*
X46572925Y-88955112D01*
X46573102Y-88957805D01*
X46573347Y-88962294D01*
X46573413Y-88963646D01*
X46574019Y-88977533D01*
X46574071Y-88978887D01*
X46574717Y-88998646D01*
X46574776Y-89001340D01*
X46574993Y-89021155D01*
X46575000Y-89022513D01*
X46575000Y-104424996D01*
X46594214Y-104620088D01*
X46651122Y-104807687D01*
X46651123Y-104807690D01*
X46743526Y-104980564D01*
X46743530Y-104980571D01*
X46796853Y-105045544D01*
X46824166Y-105109854D01*
X46825000Y-105124209D01*
X46825000Y-105175000D01*
X46875790Y-105175000D01*
X46942829Y-105194685D01*
X46954455Y-105203147D01*
X47019428Y-105256468D01*
X47019435Y-105256473D01*
X47192309Y-105348876D01*
X47192312Y-105348877D01*
X47379913Y-105405785D01*
X47379909Y-105405785D01*
X47575003Y-105425000D01*
X169926629Y-105425000D01*
X169931055Y-105425079D01*
X169995400Y-105427377D01*
X170004229Y-105428008D01*
X170068213Y-105434887D01*
X170072606Y-105435439D01*
X170122485Y-105442611D01*
X170127805Y-105443495D01*
X170135381Y-105444923D01*
X170145933Y-105447394D01*
X170152846Y-105449335D01*
X170158949Y-105451219D01*
X170170001Y-105454946D01*
X170171863Y-105455590D01*
X170185499Y-105460431D01*
X170186419Y-105460762D01*
X170193014Y-105463162D01*
X170197154Y-105464753D01*
X170214755Y-105471881D01*
X170222833Y-105475493D01*
X170239836Y-105483836D01*
X170243775Y-105485857D01*
X170278038Y-105504215D01*
X170285686Y-105508671D01*
X170334149Y-105539276D01*
X170348396Y-105549766D01*
X170392007Y-105586954D01*
X170398535Y-105592936D01*
X170421223Y-105615268D01*
X170425659Y-105619866D01*
X170440503Y-105636065D01*
X170448640Y-105645918D01*
X170461748Y-105663572D01*
X170465436Y-105668818D01*
X170466461Y-105670359D01*
X170467532Y-105671997D01*
X170479803Y-105691092D01*
X170481873Y-105694429D01*
X170492398Y-105712007D01*
X170495543Y-105717579D01*
X170503972Y-105733462D01*
X170507838Y-105741422D01*
X170515504Y-105758750D01*
X170517222Y-105762829D01*
X170544509Y-105830983D01*
X170546853Y-105837334D01*
X170555615Y-105863233D01*
X170559242Y-105876250D01*
X170565133Y-105902945D01*
X170566410Y-105909589D01*
X170570712Y-105935808D01*
X170571070Y-105938125D01*
X170571503Y-105941117D01*
X170572085Y-105945762D01*
X170572334Y-105948103D01*
X170572668Y-105951756D01*
X170572924Y-105955101D01*
X170573102Y-105957805D01*
X170573347Y-105962294D01*
X170573413Y-105963646D01*
X170574019Y-105977533D01*
X170574071Y-105978887D01*
X170574717Y-105998646D01*
X170574776Y-106001340D01*
X170574993Y-106021155D01*
X170575000Y-106022513D01*
X170575000Y-117926628D01*
X170574921Y-117931056D01*
X170572622Y-117995402D01*
X170571991Y-118004229D01*
X170565112Y-118068213D01*
X170564560Y-118072606D01*
X170557388Y-118122485D01*
X170556504Y-118127808D01*
X170555076Y-118135383D01*
X170552605Y-118145933D01*
X170550660Y-118152860D01*
X170548773Y-118158972D01*
X170545044Y-118170027D01*
X170544405Y-118171873D01*
X170539568Y-118185500D01*
X170539234Y-118186428D01*
X170536832Y-118193028D01*
X170535241Y-118197168D01*
X170528120Y-118214751D01*
X170524509Y-118222827D01*
X170516163Y-118239836D01*
X170514142Y-118243775D01*
X170495784Y-118278038D01*
X170491328Y-118285686D01*
X170460723Y-118334149D01*
X170450234Y-118348395D01*
X170413046Y-118392007D01*
X170407061Y-118398538D01*
X170384730Y-118421224D01*
X170380135Y-118425658D01*
X170363935Y-118440503D01*
X170354081Y-118448640D01*
X170336427Y-118461748D01*
X170331181Y-118465436D01*
X170329640Y-118466461D01*
X170328002Y-118467532D01*
X170308904Y-118479805D01*
X170305567Y-118481876D01*
X170287982Y-118492405D01*
X170282412Y-118495548D01*
X170266541Y-118503971D01*
X170258574Y-118507840D01*
X170241244Y-118515506D01*
X170237170Y-118517222D01*
X170169016Y-118544509D01*
X170162665Y-118546853D01*
X170136766Y-118555615D01*
X170123749Y-118559242D01*
X170097054Y-118565133D01*
X170090410Y-118566410D01*
X170064191Y-118570712D01*
X170061874Y-118571070D01*
X170058882Y-118571503D01*
X170054237Y-118572085D01*
X170051896Y-118572334D01*
X170048243Y-118572668D01*
X170044898Y-118572924D01*
X170042200Y-118573101D01*
X170037715Y-118573346D01*
X170036362Y-118573413D01*
X170022465Y-118574020D01*
X170021101Y-118574072D01*
X170001350Y-118574717D01*
X169998661Y-118574776D01*
X169978844Y-118574993D01*
X169977486Y-118575000D01*
X20073371Y-118575000D01*
X20068943Y-118574921D01*
X20004597Y-118572622D01*
X19995770Y-118571991D01*
X19931786Y-118565112D01*
X19927393Y-118564560D01*
X19877514Y-118557388D01*
X19872194Y-118556504D01*
X19864618Y-118555076D01*
X19854066Y-118552605D01*
X19847153Y-118550664D01*
X19841041Y-118548777D01*
X19829953Y-118545037D01*
X19828107Y-118544398D01*
X19814553Y-118539587D01*
X19813620Y-118539252D01*
X19806963Y-118536829D01*
X19802831Y-118535241D01*
X19785249Y-118528121D01*
X19777166Y-118524507D01*
X19760160Y-118516162D01*
X19756224Y-118514142D01*
X19721961Y-118495784D01*
X19714313Y-118491328D01*
X19665850Y-118460723D01*
X19651603Y-118450233D01*
X19607992Y-118413045D01*
X19601464Y-118407063D01*
X19578776Y-118384731D01*
X19574339Y-118380132D01*
X19559499Y-118363937D01*
X19551361Y-118354082D01*
X19538242Y-118336412D01*
X19534545Y-118331153D01*
X19533525Y-118329619D01*
X19532468Y-118328002D01*
X19520199Y-118308912D01*
X19518125Y-118305570D01*
X19507596Y-118287985D01*
X19504455Y-118282417D01*
X19496030Y-118266543D01*
X19492159Y-118258574D01*
X19484493Y-118241244D01*
X19482777Y-118237170D01*
X19455490Y-118169016D01*
X19453146Y-118162665D01*
X19444384Y-118136766D01*
X19440757Y-118123749D01*
X19434866Y-118097054D01*
X19433589Y-118090410D01*
X19429287Y-118064191D01*
X19428929Y-118061874D01*
X19428496Y-118058882D01*
X19427916Y-118054265D01*
X19427667Y-118051929D01*
X19427330Y-118048240D01*
X19427075Y-118044905D01*
X19426898Y-118042199D01*
X19426651Y-118037667D01*
X19426585Y-118036328D01*
X19425982Y-118022518D01*
X19425930Y-118021161D01*
X19425282Y-118001343D01*
X19425223Y-117998643D01*
X19425007Y-117978838D01*
X19425000Y-117977486D01*
X19425000Y-89073371D01*
X19425079Y-89068945D01*
X19427377Y-89004599D01*
X19428008Y-88995770D01*
X19434887Y-88931786D01*
X19435439Y-88927393D01*
X19442611Y-88877514D01*
X19443496Y-88872189D01*
X19444923Y-88864620D01*
X19447392Y-88854074D01*
X19449338Y-88847143D01*
X19451224Y-88841036D01*
X19454954Y-88829976D01*
X19455595Y-88828123D01*
X19460410Y-88814558D01*
X19460754Y-88813603D01*
X19463185Y-88806928D01*
X19464761Y-88802828D01*
X19471872Y-88785264D01*
X19475490Y-88777172D01*
X19483838Y-88760160D01*
X19485857Y-88756224D01*
X19504215Y-88721961D01*
X19508671Y-88714313D01*
X19539276Y-88665850D01*
X19549765Y-88651604D01*
X19586953Y-88607992D01*
X19592938Y-88601461D01*
X19615269Y-88578775D01*
X19619866Y-88574340D01*
X19636062Y-88559499D01*
X19645917Y-88551361D01*
X19663587Y-88538242D01*
X19668846Y-88534545D01*
X19670380Y-88533525D01*
X19671997Y-88532468D01*
X19691090Y-88520197D01*
X19694434Y-88518122D01*
X19712013Y-88507597D01*
X19717577Y-88504458D01*
X19733456Y-88496030D01*
X19741427Y-88492157D01*
X19758755Y-88484492D01*
X19762829Y-88482777D01*
X19830983Y-88455490D01*
X19837334Y-88453146D01*
X19863233Y-88444384D01*
X19876250Y-88440757D01*
X19902945Y-88434866D01*
X19909589Y-88433589D01*
X19935808Y-88429287D01*
X19938113Y-88428931D01*
X19941096Y-88428499D01*
X19945746Y-88427915D01*
X19948114Y-88427663D01*
X19951791Y-88427327D01*
X19955103Y-88427074D01*
X19957800Y-88426898D01*
X19962332Y-88426651D01*
X19963671Y-88426585D01*
X19977482Y-88425982D01*
X19978838Y-88425930D01*
X19998655Y-88425282D01*
X20001356Y-88425223D01*
X20021162Y-88425007D01*
X20022514Y-88425000D01*
X45926629Y-88425000D01*
X45931055Y-88425079D01*
G37*
G36*
X178943039Y-57019685D02*
G01*
X178988794Y-57072489D01*
X179000000Y-57124000D01*
X179000000Y-70626000D01*
X178980315Y-70693039D01*
X178927511Y-70738794D01*
X178876000Y-70750000D01*
X46000000Y-70750000D01*
X45809076Y-72192098D01*
X45780763Y-72255974D01*
X45723270Y-72294136D01*
X45605652Y-72331038D01*
X45605642Y-72331043D01*
X45428730Y-72429238D01*
X45428729Y-72429238D01*
X45275207Y-72561031D01*
X45275206Y-72561032D01*
X45151358Y-72721032D01*
X45062248Y-72902694D01*
X45011531Y-73098575D01*
X45000000Y-73249987D01*
X45000000Y-84376000D01*
X44980315Y-84443039D01*
X44927511Y-84488794D01*
X44876000Y-84500000D01*
X18624000Y-84500000D01*
X18556961Y-84480315D01*
X18511206Y-84427511D01*
X18500000Y-84376000D01*
X18500000Y-57124000D01*
X18519685Y-57056961D01*
X18572489Y-57011206D01*
X18624000Y-57000000D01*
X178876000Y-57000000D01*
X178943039Y-57019685D01*
G37*
G36*
X54943039Y-74519685D02*
G01*
X54988794Y-74572489D01*
X55000000Y-74624000D01*
X55000000Y-102976000D01*
X54980315Y-103043039D01*
X54927511Y-103088794D01*
X54876000Y-103100000D01*
X48124000Y-103100000D01*
X48056961Y-103080315D01*
X48011206Y-103027511D01*
X48000000Y-102976000D01*
X48000000Y-74624000D01*
X48019685Y-74556961D01*
X48072489Y-74511206D01*
X48124000Y-74500000D01*
X54876000Y-74500000D01*
X54943039Y-74519685D01*
G37*
G36*
X75943039Y-91019685D02*
G01*
X75988794Y-91072489D01*
X76000000Y-91124000D01*
X76000000Y-102876000D01*
X75980315Y-102943039D01*
X75927511Y-102988794D01*
X75876000Y-103000000D01*
X57624000Y-103000000D01*
X57556961Y-102980315D01*
X57511206Y-102927511D01*
X57500000Y-102876000D01*
X57500000Y-91124000D01*
X57519685Y-91056961D01*
X57572489Y-91011206D01*
X57624000Y-91000000D01*
X75876000Y-91000000D01*
X75943039Y-91019685D01*
G37*
G36*
X93056061Y-74520597D02*
G01*
X93232934Y-74538017D01*
X93256775Y-74542759D01*
X93420998Y-74592575D01*
X93443456Y-74601878D01*
X93594798Y-74682772D01*
X93615010Y-74696277D01*
X93747666Y-74805145D01*
X93764854Y-74822333D01*
X93873722Y-74954989D01*
X93887227Y-74975201D01*
X93968121Y-75126543D01*
X93977424Y-75149001D01*
X94027240Y-75313224D01*
X94031982Y-75337065D01*
X94049403Y-75513938D01*
X94050000Y-75526092D01*
X94050000Y-102113907D01*
X94049403Y-102126061D01*
X94031982Y-102302934D01*
X94027240Y-102326775D01*
X93977424Y-102490998D01*
X93968121Y-102513456D01*
X93887227Y-102664798D01*
X93873722Y-102685010D01*
X93764854Y-102817666D01*
X93747666Y-102834854D01*
X93615010Y-102943722D01*
X93594798Y-102957227D01*
X93443456Y-103038121D01*
X93420998Y-103047424D01*
X93256775Y-103097240D01*
X93232934Y-103101982D01*
X93056061Y-103119403D01*
X93043907Y-103120000D01*
X88556093Y-103120000D01*
X88543939Y-103119403D01*
X88367065Y-103101982D01*
X88343224Y-103097240D01*
X88179001Y-103047424D01*
X88156543Y-103038121D01*
X88005201Y-102957227D01*
X87984989Y-102943722D01*
X87852333Y-102834854D01*
X87835145Y-102817666D01*
X87726277Y-102685010D01*
X87712772Y-102664798D01*
X87631878Y-102513456D01*
X87622575Y-102490998D01*
X87572759Y-102326775D01*
X87568017Y-102302934D01*
X87550597Y-102126061D01*
X87550000Y-102113907D01*
X87550000Y-75526092D01*
X87550597Y-75513938D01*
X87568017Y-75337065D01*
X87572759Y-75313224D01*
X87622575Y-75149001D01*
X87631878Y-75126543D01*
X87712772Y-74975201D01*
X87726277Y-74954989D01*
X87835145Y-74822333D01*
X87852333Y-74805145D01*
X87984989Y-74696277D01*
X88005201Y-74682772D01*
X88156543Y-74601878D01*
X88179001Y-74592575D01*
X88343224Y-74542759D01*
X88367065Y-74538017D01*
X88543939Y-74520597D01*
X88556093Y-74520000D01*
X93043907Y-74520000D01*
X93056061Y-74520597D01*
G37*
G36*
X170956061Y-74520597D02*
G01*
X171132934Y-74538017D01*
X171156775Y-74542759D01*
X171320998Y-74592575D01*
X171343456Y-74601878D01*
X171494798Y-74682772D01*
X171515010Y-74696277D01*
X171647666Y-74805145D01*
X171664854Y-74822333D01*
X171773722Y-74954989D01*
X171787227Y-74975201D01*
X171868121Y-75126543D01*
X171877424Y-75149001D01*
X171927240Y-75313224D01*
X171931982Y-75337065D01*
X171949403Y-75513938D01*
X171950000Y-75526092D01*
X171950000Y-100113907D01*
X171949403Y-100126061D01*
X171931982Y-100302934D01*
X171927240Y-100326775D01*
X171877424Y-100490998D01*
X171868121Y-100513456D01*
X171787227Y-100664798D01*
X171773722Y-100685010D01*
X171664854Y-100817666D01*
X171647666Y-100834854D01*
X171515010Y-100943722D01*
X171494798Y-100957227D01*
X171343456Y-101038121D01*
X171320998Y-101047424D01*
X171156775Y-101097240D01*
X171132934Y-101101982D01*
X170956061Y-101119403D01*
X170943907Y-101120000D01*
X166456093Y-101120000D01*
X166443939Y-101119403D01*
X166267065Y-101101982D01*
X166243224Y-101097240D01*
X166079001Y-101047424D01*
X166056543Y-101038121D01*
X165905201Y-100957227D01*
X165884989Y-100943722D01*
X165752333Y-100834854D01*
X165735145Y-100817666D01*
X165626277Y-100685010D01*
X165612772Y-100664798D01*
X165531878Y-100513456D01*
X165522575Y-100490998D01*
X165472759Y-100326775D01*
X165468017Y-100302934D01*
X165450597Y-100126061D01*
X165450000Y-100113907D01*
X165450000Y-75526092D01*
X165450597Y-75513938D01*
X165468017Y-75337065D01*
X165472759Y-75313224D01*
X165522575Y-75149001D01*
X165531878Y-75126543D01*
X165612772Y-74975201D01*
X165626277Y-74954989D01*
X165735145Y-74822333D01*
X165752333Y-74805145D01*
X165884989Y-74696277D01*
X165905201Y-74682772D01*
X166056543Y-74601878D01*
X166079001Y-74592575D01*
X166243224Y-74542759D01*
X166267065Y-74538017D01*
X166443939Y-74520597D01*
X166456093Y-74520000D01*
X170943907Y-74520000D01*
X170956061Y-74520597D01*
G37*
G36*
X114056061Y-91020597D02*
G01*
X114232934Y-91038017D01*
X114256775Y-91042759D01*
X114420998Y-91092575D01*
X114443456Y-91101878D01*
X114594798Y-91182772D01*
X114615010Y-91196277D01*
X114747666Y-91305145D01*
X114764854Y-91322333D01*
X114873722Y-91454989D01*
X114887227Y-91475201D01*
X114968121Y-91626543D01*
X114977424Y-91649001D01*
X115027240Y-91813224D01*
X115031982Y-91837065D01*
X115049403Y-92013938D01*
X115050000Y-92026092D01*
X115050000Y-102013907D01*
X115049403Y-102026061D01*
X115031982Y-102202934D01*
X115027240Y-102226775D01*
X114977424Y-102390998D01*
X114968121Y-102413456D01*
X114887227Y-102564798D01*
X114873722Y-102585010D01*
X114764854Y-102717666D01*
X114747666Y-102734854D01*
X114615010Y-102843722D01*
X114594798Y-102857227D01*
X114443456Y-102938121D01*
X114420998Y-102947424D01*
X114256775Y-102997240D01*
X114232934Y-103001982D01*
X114056061Y-103019403D01*
X114043907Y-103020000D01*
X97556093Y-103020000D01*
X97543939Y-103019403D01*
X97367065Y-103001982D01*
X97343224Y-102997240D01*
X97179001Y-102947424D01*
X97156543Y-102938121D01*
X97005201Y-102857227D01*
X96984989Y-102843722D01*
X96852333Y-102734854D01*
X96835145Y-102717666D01*
X96726277Y-102585010D01*
X96712772Y-102564798D01*
X96631878Y-102413456D01*
X96622575Y-102390998D01*
X96572759Y-102226775D01*
X96568017Y-102202934D01*
X96550597Y-102026061D01*
X96550000Y-102013907D01*
X96550000Y-92026092D01*
X96550597Y-92013938D01*
X96568017Y-91837065D01*
X96572759Y-91813224D01*
X96622575Y-91649001D01*
X96631878Y-91626543D01*
X96712772Y-91475201D01*
X96726277Y-91454989D01*
X96835145Y-91322333D01*
X96852333Y-91305145D01*
X96984989Y-91196277D01*
X97005201Y-91182772D01*
X97156543Y-91101878D01*
X97179001Y-91092575D01*
X97343224Y-91042759D01*
X97367065Y-91038017D01*
X97543939Y-91020597D01*
X97556093Y-91020000D01*
X114043907Y-91020000D01*
X114056061Y-91020597D01*
G37*
G36*
X153006061Y-90995597D02*
G01*
X153182934Y-91013017D01*
X153206775Y-91017759D01*
X153370998Y-91067575D01*
X153393456Y-91076878D01*
X153544798Y-91157772D01*
X153565010Y-91171277D01*
X153697666Y-91280145D01*
X153714854Y-91297333D01*
X153823722Y-91429989D01*
X153837227Y-91450201D01*
X153918121Y-91601543D01*
X153927424Y-91624001D01*
X153977240Y-91788224D01*
X153981982Y-91812065D01*
X153999403Y-91988938D01*
X154000000Y-92001092D01*
X154000000Y-101988907D01*
X153999403Y-102001061D01*
X153981982Y-102177934D01*
X153977240Y-102201775D01*
X153927424Y-102365998D01*
X153918121Y-102388456D01*
X153837227Y-102539798D01*
X153823722Y-102560010D01*
X153714854Y-102692666D01*
X153697666Y-102709854D01*
X153565010Y-102818722D01*
X153544798Y-102832227D01*
X153393456Y-102913121D01*
X153370998Y-102922424D01*
X153206775Y-102972240D01*
X153182934Y-102976982D01*
X153006061Y-102994403D01*
X152993907Y-102995000D01*
X136506093Y-102995000D01*
X136493939Y-102994403D01*
X136317065Y-102976982D01*
X136293224Y-102972240D01*
X136129001Y-102922424D01*
X136106543Y-102913121D01*
X135955201Y-102832227D01*
X135934989Y-102818722D01*
X135802333Y-102709854D01*
X135785145Y-102692666D01*
X135676277Y-102560010D01*
X135662772Y-102539798D01*
X135581878Y-102388456D01*
X135572575Y-102365998D01*
X135522759Y-102201775D01*
X135518017Y-102177934D01*
X135500597Y-102001061D01*
X135500000Y-101988907D01*
X135500000Y-92001092D01*
X135500597Y-91988938D01*
X135518017Y-91812065D01*
X135522759Y-91788224D01*
X135572575Y-91624001D01*
X135581878Y-91601543D01*
X135662772Y-91450201D01*
X135676277Y-91429989D01*
X135785145Y-91297333D01*
X135802333Y-91280145D01*
X135934989Y-91171277D01*
X135955201Y-91157772D01*
X136106543Y-91076878D01*
X136129001Y-91067575D01*
X136293224Y-91017759D01*
X136317065Y-91013017D01*
X136493939Y-90995597D01*
X136506093Y-90995000D01*
X152993907Y-90995000D01*
X153006061Y-90995597D01*
G37*
G36*
X183006061Y-91000597D02*
G01*
X183182934Y-91018017D01*
X183206775Y-91022759D01*
X183370998Y-91072575D01*
X183393456Y-91081878D01*
X183544798Y-91162772D01*
X183565010Y-91176277D01*
X183697666Y-91285145D01*
X183714854Y-91302333D01*
X183823722Y-91434989D01*
X183837227Y-91455201D01*
X183918121Y-91606543D01*
X183927424Y-91629001D01*
X183977240Y-91793224D01*
X183981982Y-91817065D01*
X183999403Y-91993938D01*
X184000000Y-92006092D01*
X184000000Y-110313907D01*
X183999403Y-110326061D01*
X183981982Y-110502934D01*
X183977240Y-110526775D01*
X183927424Y-110690998D01*
X183918121Y-110713456D01*
X183837227Y-110864798D01*
X183823722Y-110885010D01*
X183714854Y-111017666D01*
X183697666Y-111034854D01*
X183565010Y-111143722D01*
X183544798Y-111157227D01*
X183393456Y-111238121D01*
X183370998Y-111247424D01*
X183206775Y-111297240D01*
X183182934Y-111301982D01*
X183006061Y-111319403D01*
X182993907Y-111320000D01*
X175606093Y-111320000D01*
X175593939Y-111319403D01*
X175417065Y-111301982D01*
X175393224Y-111297240D01*
X175229001Y-111247424D01*
X175206543Y-111238121D01*
X175055201Y-111157227D01*
X175034989Y-111143722D01*
X174902333Y-111034854D01*
X174885145Y-111017666D01*
X174776277Y-110885010D01*
X174762772Y-110864798D01*
X174681878Y-110713456D01*
X174672575Y-110690998D01*
X174622759Y-110526775D01*
X174618017Y-110502934D01*
X174600597Y-110326061D01*
X174600000Y-110313907D01*
X174600000Y-92006092D01*
X174600597Y-91993938D01*
X174618017Y-91817065D01*
X174622759Y-91793224D01*
X174672575Y-91629001D01*
X174681878Y-91606543D01*
X174762772Y-91455201D01*
X174776277Y-91434989D01*
X174885145Y-91302333D01*
X174902333Y-91285145D01*
X175034989Y-91176277D01*
X175055201Y-91162772D01*
X175206543Y-91081878D01*
X175229001Y-91072575D01*
X175393224Y-91022759D01*
X175417065Y-91018017D01*
X175593939Y-91000597D01*
X175606093Y-91000000D01*
X182993907Y-91000000D01*
X183006061Y-91000597D01*
G37*
G36*
X132006061Y-74495597D02*
G01*
X132182934Y-74513017D01*
X132206775Y-74517759D01*
X132370998Y-74567575D01*
X132393456Y-74576878D01*
X132544798Y-74657772D01*
X132565010Y-74671277D01*
X132697666Y-74780145D01*
X132714854Y-74797333D01*
X132823722Y-74929989D01*
X132837227Y-74950201D01*
X132918121Y-75101543D01*
X132927424Y-75124001D01*
X132977240Y-75288224D01*
X132981982Y-75312065D01*
X132999403Y-75488938D01*
X133000000Y-75501092D01*
X133000000Y-102088907D01*
X132999403Y-102101061D01*
X132981982Y-102277934D01*
X132977240Y-102301775D01*
X132927424Y-102465998D01*
X132918121Y-102488456D01*
X132837227Y-102639798D01*
X132823722Y-102660010D01*
X132714854Y-102792666D01*
X132697666Y-102809854D01*
X132565010Y-102918722D01*
X132544798Y-102932227D01*
X132393456Y-103013121D01*
X132370998Y-103022424D01*
X132206775Y-103072240D01*
X132182934Y-103076982D01*
X132006061Y-103094403D01*
X131993907Y-103095000D01*
X127506093Y-103095000D01*
X127493939Y-103094403D01*
X127317065Y-103076982D01*
X127293224Y-103072240D01*
X127129001Y-103022424D01*
X127106543Y-103013121D01*
X126955201Y-102932227D01*
X126934989Y-102918722D01*
X126802333Y-102809854D01*
X126785145Y-102792666D01*
X126676277Y-102660010D01*
X126662772Y-102639798D01*
X126581878Y-102488456D01*
X126572575Y-102465998D01*
X126522759Y-102301775D01*
X126518017Y-102277934D01*
X126500597Y-102101061D01*
X126500000Y-102088907D01*
X126500000Y-75501092D01*
X126500597Y-75488938D01*
X126518017Y-75312065D01*
X126522759Y-75288224D01*
X126572575Y-75124001D01*
X126581878Y-75101543D01*
X126662772Y-74950201D01*
X126676277Y-74929989D01*
X126785145Y-74797333D01*
X126802333Y-74780145D01*
X126934989Y-74671277D01*
X126955201Y-74657772D01*
X127106543Y-74576878D01*
X127129001Y-74567575D01*
X127293224Y-74517759D01*
X127317065Y-74513017D01*
X127493939Y-74495597D01*
X127506093Y-74495000D01*
X131993907Y-74495000D01*
X132006061Y-74495597D01*
G37*
M02*
