%TF.GenerationSoftware,KiCad,Pcbnew,8.0.8*%
%TF.CreationDate,2025-01-30T11:26:57+01:00*%
%TF.ProjectId,BMU_switch_mosfet,424d555f-7377-4697-9463-685f6d6f7366,rev?*%
%TF.SameCoordinates,Original*%
%TF.FileFunction,Soldermask,Bot*%
%TF.FilePolarity,Negative*%
%FSLAX46Y46*%
G04 Gerber Fmt 4.6, Leading zero omitted, Abs format (unit mm)*
G04 Created by KiCad (PCBNEW 8.0.8) date 2025-01-30 11:26:57*
%MOMM*%
%LPD*%
G01*
G04 APERTURE LIST*
%ADD10C,0.100000*%
%ADD11C,0.500000*%
%ADD12C,2.700000*%
%ADD13R,1.800000X1.800000*%
%ADD14C,1.800000*%
%ADD15R,1.500000X1.500000*%
%ADD16C,1.500000*%
G04 APERTURE END LIST*
D10*
X135424600Y-129425000D02*
X149750000Y-129425000D01*
X149750000Y-148475000D01*
X135424600Y-148475000D01*
X135424600Y-129425000D01*
G36*
X135424600Y-129425000D02*
G01*
X149750000Y-129425000D01*
X149750000Y-148475000D01*
X135424600Y-148475000D01*
X135424600Y-129425000D01*
G37*
D11*
X151450000Y-116531250D02*
X137450000Y-116531250D01*
X137450000Y-66531250D01*
X151450000Y-66531250D01*
X151450000Y-116531250D01*
G36*
X151450000Y-116531250D02*
G01*
X137450000Y-116531250D01*
X137450000Y-66531250D01*
X151450000Y-66531250D01*
X151450000Y-116531250D01*
G37*
D12*
%TO.C,H2*%
X129175566Y-137024810D03*
%TD*%
%TO.C,H1*%
X144250000Y-78250000D03*
%TD*%
%TO.C,H1*%
X144250000Y-103250000D03*
%TD*%
%TO.C,H2*%
X158106752Y-137024810D03*
%TD*%
D13*
%TO.C,U1*%
X132920000Y-144631250D03*
D14*
X130380000Y-144631250D03*
%TD*%
D15*
%TO.C,U3*%
X140710000Y-124071250D03*
D16*
X140710000Y-121531250D03*
X138170000Y-124071250D03*
X138170000Y-121531250D03*
X135630000Y-124071250D03*
X135630000Y-121531250D03*
X133090000Y-124071250D03*
X133090000Y-121531250D03*
X130550000Y-124071250D03*
X130550000Y-121531250D03*
%TD*%
D15*
%TO.C,U2*%
X137742941Y-145154944D03*
D16*
X140282941Y-145154944D03*
X137742941Y-142614944D03*
X140282941Y-142614944D03*
X137742941Y-140074944D03*
X140282941Y-140074944D03*
X137742941Y-137534944D03*
X140282941Y-137534944D03*
X137742941Y-134994944D03*
X140282941Y-134994944D03*
%TD*%
G36*
X151006061Y-66031847D02*
G01*
X151182934Y-66049267D01*
X151206775Y-66054009D01*
X151370998Y-66103825D01*
X151393456Y-66113128D01*
X151544798Y-66194022D01*
X151565010Y-66207527D01*
X151697666Y-66316395D01*
X151714854Y-66333583D01*
X151823722Y-66466239D01*
X151837227Y-66486451D01*
X151918121Y-66637793D01*
X151927424Y-66660251D01*
X151977240Y-66824474D01*
X151981982Y-66848315D01*
X151999403Y-67025188D01*
X152000000Y-67037342D01*
X152000000Y-116025157D01*
X151999403Y-116037311D01*
X151981982Y-116214184D01*
X151977240Y-116238025D01*
X151927424Y-116402248D01*
X151918121Y-116424706D01*
X151837227Y-116576048D01*
X151823722Y-116596260D01*
X151714854Y-116728916D01*
X151697666Y-116746104D01*
X151565010Y-116854972D01*
X151544798Y-116868477D01*
X151393456Y-116949371D01*
X151370998Y-116958674D01*
X151206775Y-117008490D01*
X151182934Y-117013232D01*
X151006061Y-117030653D01*
X150993907Y-117031250D01*
X138006093Y-117031250D01*
X137993939Y-117030653D01*
X137817065Y-117013232D01*
X137793224Y-117008490D01*
X137629001Y-116958674D01*
X137606543Y-116949371D01*
X137455201Y-116868477D01*
X137434989Y-116854972D01*
X137302333Y-116746104D01*
X137285145Y-116728916D01*
X137176277Y-116596260D01*
X137162772Y-116576048D01*
X137081878Y-116424706D01*
X137072575Y-116402248D01*
X137022759Y-116238025D01*
X137018017Y-116214184D01*
X137000597Y-116037311D01*
X137000000Y-116025157D01*
X137000000Y-67037342D01*
X137000597Y-67025188D01*
X137018017Y-66848315D01*
X137022759Y-66824474D01*
X137072575Y-66660251D01*
X137081878Y-66637793D01*
X137162772Y-66486451D01*
X137176277Y-66466239D01*
X137285145Y-66333583D01*
X137302333Y-66316395D01*
X137434989Y-66207527D01*
X137455201Y-66194022D01*
X137606543Y-66113128D01*
X137629001Y-66103825D01*
X137793224Y-66054009D01*
X137817065Y-66049267D01*
X137993939Y-66031847D01*
X138006093Y-66031250D01*
X150993907Y-66031250D01*
X151006061Y-66031847D01*
G37*
G36*
X132556061Y-70100597D02*
G01*
X132732934Y-70118017D01*
X132756775Y-70122759D01*
X132920998Y-70172575D01*
X132943456Y-70181878D01*
X133094798Y-70262772D01*
X133115010Y-70276277D01*
X133247666Y-70385145D01*
X133264854Y-70402333D01*
X133373722Y-70534989D01*
X133387227Y-70555201D01*
X133468121Y-70706543D01*
X133477424Y-70729001D01*
X133527240Y-70893224D01*
X133531982Y-70917065D01*
X133549403Y-71093938D01*
X133550000Y-71106092D01*
X133550000Y-109949993D01*
X133550001Y-109950009D01*
X133567036Y-110079408D01*
X133567038Y-110079413D01*
X133616984Y-110199995D01*
X133616984Y-110199996D01*
X133696448Y-110303554D01*
X133751486Y-110345786D01*
X133792689Y-110402214D01*
X133800000Y-110444162D01*
X133800000Y-126676000D01*
X133780315Y-126743039D01*
X133727511Y-126788794D01*
X133676000Y-126800000D01*
X126956093Y-126800000D01*
X126943939Y-126799403D01*
X126767065Y-126781982D01*
X126743224Y-126777240D01*
X126579001Y-126727424D01*
X126556543Y-126718121D01*
X126405201Y-126637227D01*
X126384989Y-126623722D01*
X126252333Y-126514854D01*
X126235145Y-126497666D01*
X126126277Y-126365010D01*
X126112772Y-126344798D01*
X126031878Y-126193456D01*
X126022575Y-126170998D01*
X125972759Y-126006775D01*
X125968017Y-125982934D01*
X125950597Y-125806061D01*
X125950000Y-125793907D01*
X125950000Y-110563920D01*
X125969685Y-110496881D01*
X126022489Y-110451126D01*
X126026547Y-110449359D01*
X126078032Y-110428032D01*
X126099999Y-110375001D01*
X126100000Y-110374998D01*
X126100000Y-71106092D01*
X126100597Y-71093938D01*
X126118017Y-70917065D01*
X126122759Y-70893224D01*
X126172575Y-70729001D01*
X126181878Y-70706543D01*
X126262772Y-70555201D01*
X126276277Y-70534989D01*
X126385145Y-70402333D01*
X126402333Y-70385145D01*
X126534989Y-70276277D01*
X126555201Y-70262772D01*
X126706543Y-70181878D01*
X126729001Y-70172575D01*
X126893224Y-70122759D01*
X126917065Y-70118017D01*
X127093939Y-70100597D01*
X127106093Y-70100000D01*
X132543907Y-70100000D01*
X132556061Y-70100597D01*
G37*
G36*
X149761980Y-129252383D02*
G01*
X149821480Y-129264218D01*
X149866179Y-129282732D01*
X149906268Y-129309518D01*
X149940481Y-129343731D01*
X149967267Y-129383820D01*
X149985781Y-129428517D01*
X149997617Y-129488017D01*
X150000000Y-129512210D01*
X150000000Y-139339532D01*
X149980315Y-139406571D01*
X149975287Y-139413815D01*
X149897774Y-139517418D01*
X149897770Y-139517424D01*
X149816607Y-139681734D01*
X149766792Y-139858100D01*
X149750000Y-140040589D01*
X149750000Y-147543907D01*
X149749403Y-147556061D01*
X149731982Y-147732934D01*
X149727240Y-147756775D01*
X149677424Y-147920998D01*
X149668121Y-147943456D01*
X149587227Y-148094798D01*
X149573722Y-148115010D01*
X149464854Y-148247666D01*
X149447666Y-148264854D01*
X149315010Y-148373722D01*
X149294798Y-148387227D01*
X149143456Y-148468121D01*
X149120998Y-148477424D01*
X148956775Y-148527240D01*
X148932934Y-148531982D01*
X148756061Y-148549403D01*
X148743907Y-148550000D01*
X136430693Y-148550000D01*
X136418539Y-148549403D01*
X136241665Y-148531982D01*
X136217824Y-148527240D01*
X136053601Y-148477424D01*
X136031143Y-148468121D01*
X135879801Y-148387227D01*
X135859589Y-148373722D01*
X135726933Y-148264854D01*
X135709745Y-148247666D01*
X135600877Y-148115010D01*
X135587372Y-148094798D01*
X135506478Y-147943456D01*
X135497175Y-147920998D01*
X135447359Y-147756775D01*
X135442617Y-147732934D01*
X135425197Y-147556061D01*
X135424600Y-147543907D01*
X135424600Y-130506092D01*
X135425197Y-130493938D01*
X135442617Y-130317065D01*
X135447359Y-130293224D01*
X135497175Y-130129001D01*
X135506478Y-130106543D01*
X135587372Y-129955201D01*
X135600877Y-129934989D01*
X135709745Y-129802333D01*
X135726933Y-129785145D01*
X135859589Y-129676277D01*
X135879801Y-129662772D01*
X136031143Y-129581878D01*
X136053601Y-129572575D01*
X136217824Y-129522759D01*
X136241665Y-129518017D01*
X136418539Y-129500597D01*
X136430693Y-129500000D01*
X144940864Y-129500000D01*
X144940866Y-129499999D01*
X145170387Y-129473304D01*
X145387649Y-129394645D01*
X145578019Y-129270207D01*
X145644904Y-129250004D01*
X145645865Y-129250000D01*
X149737789Y-129250000D01*
X149761980Y-129252383D01*
G37*
G36*
X159556061Y-65950597D02*
G01*
X159732934Y-65968017D01*
X159756775Y-65972759D01*
X159920998Y-66022575D01*
X159943456Y-66031878D01*
X160094798Y-66112772D01*
X160115010Y-66126277D01*
X160247666Y-66235145D01*
X160264854Y-66252333D01*
X160373722Y-66384989D01*
X160387227Y-66405201D01*
X160468121Y-66556543D01*
X160477424Y-66579001D01*
X160527240Y-66743224D01*
X160531982Y-66767065D01*
X160549403Y-66943938D01*
X160550000Y-66956092D01*
X160550000Y-130782329D01*
X160549478Y-130793692D01*
X160534252Y-130959149D01*
X160530105Y-130981492D01*
X160486493Y-131135896D01*
X160478338Y-131157107D01*
X160407282Y-131300957D01*
X160395393Y-131320324D01*
X160299276Y-131448793D01*
X160284053Y-131465664D01*
X160161906Y-131578309D01*
X160153199Y-131585629D01*
X150142284Y-139246437D01*
X150142282Y-139246439D01*
X150007558Y-139370682D01*
X149897770Y-139517424D01*
X149816609Y-139681730D01*
X149781434Y-139806260D01*
X149744267Y-139865424D01*
X149737460Y-139871028D01*
X144611628Y-143793550D01*
X144590968Y-143806360D01*
X144536523Y-143833120D01*
X144489775Y-143845580D01*
X144441659Y-143848671D01*
X144393696Y-143842293D01*
X144348059Y-143826734D01*
X144306193Y-143802489D01*
X144269985Y-143770652D01*
X144240580Y-143732227D01*
X144217445Y-143685157D01*
X144205780Y-143646563D01*
X144201050Y-143610448D01*
X144200000Y-143594345D01*
X144200000Y-130222979D01*
X144202383Y-130198788D01*
X144214218Y-130139288D01*
X144232733Y-130094588D01*
X144264855Y-130046514D01*
X144284336Y-130023843D01*
X144287876Y-130020610D01*
X144292114Y-130016913D01*
X144879422Y-129527490D01*
X144943525Y-129499694D01*
X144944480Y-129499579D01*
X145170387Y-129473304D01*
X145387649Y-129394645D01*
X145581064Y-129268215D01*
X145581065Y-129268215D01*
X153215416Y-122906255D01*
X153268320Y-122858869D01*
X153268332Y-122858858D01*
X153317717Y-122807821D01*
X153317726Y-122807811D01*
X153361112Y-122752123D01*
X153396145Y-122690803D01*
X153422090Y-122625133D01*
X153422092Y-122625125D01*
X153438426Y-122556435D01*
X153449127Y-122490982D01*
X153449724Y-122486188D01*
X153449953Y-122481394D01*
X153449987Y-122476641D01*
X153450000Y-122471614D01*
X153450000Y-66956092D01*
X153450597Y-66943938D01*
X153468017Y-66767065D01*
X153472759Y-66743224D01*
X153522575Y-66579001D01*
X153531878Y-66556543D01*
X153612772Y-66405201D01*
X153626277Y-66384989D01*
X153735145Y-66252333D01*
X153752333Y-66235145D01*
X153884989Y-66126277D01*
X153905201Y-66112772D01*
X154056543Y-66031878D01*
X154079001Y-66022575D01*
X154243224Y-65972759D01*
X154267065Y-65968017D01*
X154443939Y-65950597D01*
X154456093Y-65950000D01*
X159543907Y-65950000D01*
X159556061Y-65950597D01*
G37*
G36*
X133622876Y-110219685D02*
G01*
X133654212Y-110248513D01*
X133696444Y-110303550D01*
X133800004Y-110383015D01*
X133920586Y-110432961D01*
X133920591Y-110432963D01*
X134050000Y-110450000D01*
X134163223Y-110464906D01*
X134194491Y-110473284D01*
X134284918Y-110510740D01*
X134312951Y-110526925D01*
X134390601Y-110586508D01*
X134413491Y-110609398D01*
X134473074Y-110687048D01*
X134489259Y-110715081D01*
X134526715Y-110805508D01*
X134535093Y-110836775D01*
X134548939Y-110941939D01*
X134550000Y-110958125D01*
X134550000Y-118628842D01*
X134552534Y-118699808D01*
X134552536Y-118699835D01*
X134560127Y-118770434D01*
X134575136Y-118839429D01*
X134575138Y-118839437D01*
X134606244Y-118922837D01*
X134613858Y-118931314D01*
X134633650Y-118967564D01*
X134675970Y-119024095D01*
X134675973Y-119024099D01*
X134725890Y-119074017D01*
X134725904Y-119074029D01*
X134762682Y-119101560D01*
X134769738Y-119109415D01*
X134844401Y-119150185D01*
X134910558Y-119174859D01*
X134910575Y-119174865D01*
X134944606Y-119184858D01*
X134944621Y-119184862D01*
X134979180Y-119193028D01*
X135014429Y-119197456D01*
X135014431Y-119197457D01*
X135050021Y-119199364D01*
X135085653Y-119200000D01*
X143793907Y-119200000D01*
X143806061Y-119200597D01*
X143982934Y-119218017D01*
X144006775Y-119222759D01*
X144170998Y-119272575D01*
X144193456Y-119281878D01*
X144344798Y-119362772D01*
X144365010Y-119376277D01*
X144497666Y-119485145D01*
X144514854Y-119502333D01*
X144623722Y-119634989D01*
X144637227Y-119655201D01*
X144718121Y-119806543D01*
X144727424Y-119829001D01*
X144777240Y-119993224D01*
X144781982Y-120017065D01*
X144799403Y-120193938D01*
X144800000Y-120206092D01*
X144800000Y-125793907D01*
X144799403Y-125806061D01*
X144781982Y-125982934D01*
X144777240Y-126006775D01*
X144727424Y-126170998D01*
X144718121Y-126193456D01*
X144637227Y-126344798D01*
X144623722Y-126365010D01*
X144514854Y-126497666D01*
X144497666Y-126514854D01*
X144365010Y-126623722D01*
X144344798Y-126637227D01*
X144193456Y-126718121D01*
X144170998Y-126727424D01*
X144006775Y-126777240D01*
X143982934Y-126781982D01*
X143806061Y-126799403D01*
X143793907Y-126800000D01*
X126956093Y-126800000D01*
X126943939Y-126799403D01*
X126767065Y-126781982D01*
X126743224Y-126777240D01*
X126579001Y-126727424D01*
X126556543Y-126718121D01*
X126405201Y-126637227D01*
X126384989Y-126623722D01*
X126252333Y-126514854D01*
X126235145Y-126497666D01*
X126126277Y-126365010D01*
X126112772Y-126344798D01*
X126031878Y-126193456D01*
X126022575Y-126170998D01*
X125972759Y-126006775D01*
X125968017Y-125982934D01*
X125950597Y-125806061D01*
X125950000Y-125793907D01*
X125950000Y-110563920D01*
X125969685Y-110496881D01*
X126022489Y-110451126D01*
X126026547Y-110449359D01*
X126078032Y-110428032D01*
X126099999Y-110375001D01*
X126100000Y-110374998D01*
X126100000Y-110324000D01*
X126119685Y-110256961D01*
X126172489Y-110211206D01*
X126224000Y-110200000D01*
X133555837Y-110200000D01*
X133622876Y-110219685D01*
G37*
M02*
