%TF.GenerationSoftware,KiCad,Pcbnew,8.0.8*%
%TF.CreationDate,2025-01-30T11:26:57+01:00*%
%TF.ProjectId,BMU_switch_mosfet,424d555f-7377-4697-9463-685f6d6f7366,rev?*%
%TF.SameCoordinates,Original*%
%TF.FileFunction,Copper,L1,Top*%
%TF.FilePolarity,Positive*%
%FSLAX46Y46*%
G04 Gerber Fmt 4.6, Leading zero omitted, Abs format (unit mm)*
G04 Created by KiCad (PCBNEW 8.0.8) date 2025-01-30 11:26:57*
%MOMM*%
%LPD*%
G01*
G04 APERTURE LIST*
G04 Aperture macros list*
%AMRoundRect*
0 Rectangle with rounded corners*
0 $1 Rounding radius*
0 $2 $3 $4 $5 $6 $7 $8 $9 X,Y pos of 4 corners*
0 Add a 4 corners polygon primitive as box body*
4,1,4,$2,$3,$4,$5,$6,$7,$8,$9,$2,$3,0*
0 Add four circle primitives for the rounded corners*
1,1,$1+$1,$2,$3*
1,1,$1+$1,$4,$5*
1,1,$1+$1,$6,$7*
1,1,$1+$1,$8,$9*
0 Add four rect primitives between the rounded corners*
20,1,$1+$1,$2,$3,$4,$5,0*
20,1,$1+$1,$4,$5,$6,$7,0*
20,1,$1+$1,$6,$7,$8,$9,0*
20,1,$1+$1,$8,$9,$2,$3,0*%
G04 Aperture macros list end*
%TA.AperFunction,SMDPad,CuDef*%
%ADD10R,3.360000X1.130000*%
%TD*%
%TA.AperFunction,SMDPad,CuDef*%
%ADD11R,7.180000X10.570000*%
%TD*%
%TA.AperFunction,SMDPad,CuDef*%
%ADD12RoundRect,0.200000X0.275000X-0.200000X0.275000X0.200000X-0.275000X0.200000X-0.275000X-0.200000X0*%
%TD*%
%TA.AperFunction,SMDPad,CuDef*%
%ADD13R,1.070000X0.600000*%
%TD*%
%TA.AperFunction,SMDPad,CuDef*%
%ADD14RoundRect,0.200000X0.200000X0.275000X-0.200000X0.275000X-0.200000X-0.275000X0.200000X-0.275000X0*%
%TD*%
%TA.AperFunction,SMDPad,CuDef*%
%ADD15RoundRect,0.200000X-0.200000X-0.275000X0.200000X-0.275000X0.200000X0.275000X-0.200000X0.275000X0*%
%TD*%
%TA.AperFunction,ComponentPad*%
%ADD16R,1.800000X1.800000*%
%TD*%
%TA.AperFunction,ComponentPad*%
%ADD17C,1.800000*%
%TD*%
%TA.AperFunction,ComponentPad*%
%ADD18R,1.500000X1.500000*%
%TD*%
%TA.AperFunction,ComponentPad*%
%ADD19C,1.500000*%
%TD*%
%TA.AperFunction,ViaPad*%
%ADD20C,0.600000*%
%TD*%
%TA.AperFunction,Conductor*%
%ADD21C,0.200000*%
%TD*%
G04 APERTURE END LIST*
D10*
%TO.P,Q7,1,G*%
%TO.N,Net-(Q10-G)*%
X129630000Y-68991250D03*
%TO.P,Q7,3,S*%
%TO.N,/+BATT OUT*%
X129630000Y-74071250D03*
D11*
%TO.P,Q7,4,D*%
%TO.N,/Drain*%
X140210000Y-71531250D03*
%TD*%
D10*
%TO.P,Q5,1,G*%
%TO.N,Net-(Q1-C)*%
X158790000Y-74071250D03*
%TO.P,Q5,3,S*%
%TO.N,/+BATT_IN*%
X158790000Y-68991250D03*
D11*
%TO.P,Q5,4,D*%
%TO.N,/Drain*%
X148210000Y-71531250D03*
%TD*%
D12*
%TO.P,R1,1*%
%TO.N,/CMD_Switch_bat*%
X157000000Y-149106250D03*
%TO.P,R1,2*%
%TO.N,GND*%
X157000000Y-147456250D03*
%TD*%
D10*
%TO.P,Q9,1,G*%
%TO.N,Net-(Q10-G)*%
X129630000Y-93710000D03*
%TO.P,Q9,3,S*%
%TO.N,/+BATT OUT*%
X129630000Y-98790000D03*
D11*
%TO.P,Q9,4,D*%
%TO.N,/Drain*%
X140210000Y-96250000D03*
%TD*%
D13*
%TO.P,Q1,1,B*%
%TO.N,Net-(Q1-B)*%
X158960000Y-145950000D03*
%TO.P,Q1,2,E*%
%TO.N,GND*%
X158960000Y-147850000D03*
%TO.P,Q1,3,C*%
%TO.N,Net-(Q1-C)*%
X161440000Y-146900000D03*
%TD*%
D14*
%TO.P,R2,1*%
%TO.N,Net-(Q1-C)*%
X161575000Y-132000000D03*
%TO.P,R2,2*%
%TO.N,/+BATT_IN*%
X159925000Y-132000000D03*
%TD*%
D10*
%TO.P,Q2,1,G*%
%TO.N,Net-(Q1-C)*%
X158790000Y-113281250D03*
%TO.P,Q2,3,S*%
%TO.N,/+BATT_IN*%
X158790000Y-108201250D03*
D11*
%TO.P,Q2,4,D*%
%TO.N,/Drain*%
X148210000Y-110741250D03*
%TD*%
D13*
%TO.P,Q11,1,B*%
%TO.N,Net-(Q11-B)*%
X152820000Y-145850000D03*
%TO.P,Q11,2,E*%
%TO.N,GND*%
X152820000Y-147750000D03*
%TO.P,Q11,3,C*%
%TO.N,Net-(Q10-G)*%
X155300000Y-146800000D03*
%TD*%
D12*
%TO.P,R5,1*%
%TO.N,Net-(Q10-G)*%
X126200000Y-128681250D03*
%TO.P,R5,2*%
%TO.N,/+BATT OUT*%
X126200000Y-127031250D03*
%TD*%
D10*
%TO.P,Q8,1,G*%
%TO.N,Net-(Q10-G)*%
X129630000Y-82561250D03*
%TO.P,Q8,3,S*%
%TO.N,/+BATT OUT*%
X129630000Y-87641250D03*
D11*
%TO.P,Q8,4,D*%
%TO.N,/Drain*%
X140210000Y-85101250D03*
%TD*%
D10*
%TO.P,Q3,1,G*%
%TO.N,Net-(Q1-C)*%
X158790000Y-98790000D03*
%TO.P,Q3,3,S*%
%TO.N,/+BATT_IN*%
X158790000Y-93710000D03*
D11*
%TO.P,Q3,4,D*%
%TO.N,/Drain*%
X148210000Y-96250000D03*
%TD*%
D15*
%TO.P,R3,1*%
%TO.N,Net-(Q1-B)*%
X158675000Y-141781250D03*
%TO.P,R3,2*%
%TO.N,/CMD_Switch_bat*%
X160325000Y-141781250D03*
%TD*%
D10*
%TO.P,Q4,1,G*%
%TO.N,Net-(Q1-C)*%
X158790000Y-87641250D03*
%TO.P,Q4,3,S*%
%TO.N,/+BATT_IN*%
X158790000Y-82561250D03*
D11*
%TO.P,Q4,4,D*%
%TO.N,/Drain*%
X148210000Y-85101250D03*
%TD*%
D15*
%TO.P,R4,1*%
%TO.N,Net-(Q11-B)*%
X158675000Y-143781250D03*
%TO.P,R4,2*%
%TO.N,/CMD_Switch_bat*%
X160325000Y-143781250D03*
%TD*%
D10*
%TO.P,Q10,1,G*%
%TO.N,Net-(Q10-G)*%
X129630000Y-108201250D03*
%TO.P,Q10,3,S*%
%TO.N,/+BATT OUT*%
X129630000Y-113281250D03*
D11*
%TO.P,Q10,4,D*%
%TO.N,/Drain*%
X140210000Y-110741250D03*
%TD*%
D16*
%TO.P,U1,1,1*%
%TO.N,GND*%
X132920000Y-144631250D03*
D17*
%TO.P,U1,2,2*%
%TO.N,/CMD_Switch_bat*%
X130380000Y-144631250D03*
%TD*%
D18*
%TO.P,U3,1,1*%
%TO.N,/+BATT OUT*%
X140710000Y-124071250D03*
D19*
%TO.P,U3,2,2*%
X140710000Y-121531250D03*
%TO.P,U3,3,3*%
X138170000Y-124071250D03*
%TO.P,U3,4,4*%
X138170000Y-121531250D03*
%TO.P,U3,5,5*%
X135630000Y-124071250D03*
%TO.P,U3,6,6*%
X135630000Y-121531250D03*
%TO.P,U3,7,7*%
X133090000Y-124071250D03*
%TO.P,U3,8,8*%
X133090000Y-121531250D03*
%TO.P,U3,9,9*%
X130550000Y-124071250D03*
%TO.P,U3,10,10*%
X130550000Y-121531250D03*
%TD*%
D18*
%TO.P,U2,1,1*%
%TO.N,/+BATT_IN*%
X137742941Y-145154944D03*
D19*
%TO.P,U2,2,2*%
X140282941Y-145154944D03*
%TO.P,U2,3,3*%
X137742941Y-142614944D03*
%TO.P,U2,4,4*%
X140282941Y-142614944D03*
%TO.P,U2,5,5*%
X137742941Y-140074944D03*
%TO.P,U2,6,6*%
X140282941Y-140074944D03*
%TO.P,U2,7,7*%
X137742941Y-137534944D03*
%TO.P,U2,8,8*%
X140282941Y-137534944D03*
%TO.P,U2,9,9*%
X137742941Y-134994944D03*
%TO.P,U2,10,10*%
X140282941Y-134994944D03*
%TD*%
D20*
%TO.N,Net-(Q1-C)*%
X161000000Y-99781250D03*
X161000000Y-113781250D03*
X161000000Y-88281250D03*
X161500000Y-74500000D03*
%TO.N,/+BATT_IN*%
X145000000Y-138000000D03*
X159000000Y-95531250D03*
X159500000Y-96531250D03*
X155500000Y-94531250D03*
X154000000Y-69531250D03*
X158500000Y-110531250D03*
X159000000Y-78031250D03*
X157500000Y-110531250D03*
X148000000Y-141000000D03*
X145000000Y-146000000D03*
X158000000Y-67531250D03*
X157000000Y-71531250D03*
X148000000Y-131000000D03*
X155500000Y-96531250D03*
X147000000Y-142000000D03*
X156500000Y-110531250D03*
X149000000Y-132000000D03*
X156500000Y-92531250D03*
X146000000Y-131000000D03*
X146000000Y-133000000D03*
X147000000Y-136000000D03*
X157000000Y-109531250D03*
X147000000Y-130000000D03*
X146000000Y-137000000D03*
X147000000Y-138000000D03*
X158500000Y-92531250D03*
X145000000Y-132000000D03*
X145000000Y-134000000D03*
X156000000Y-69531250D03*
X146000000Y-143000000D03*
X157500000Y-85031250D03*
X159000000Y-91531250D03*
X154500000Y-106531250D03*
X153500000Y-108531250D03*
X149000000Y-134000000D03*
X148000000Y-147000000D03*
X158500000Y-96531250D03*
X145000000Y-140000000D03*
X159000000Y-71531250D03*
X156000000Y-95531250D03*
X155500000Y-68531250D03*
X157500000Y-96531250D03*
X154500000Y-83031250D03*
X155500000Y-92531250D03*
X156500000Y-70531250D03*
X148000000Y-145000000D03*
X156000000Y-109531250D03*
X155000000Y-109531250D03*
X149000000Y-142000000D03*
X154000000Y-95531250D03*
X156000000Y-67531250D03*
X159000000Y-105531250D03*
X149000000Y-146000000D03*
X158000000Y-84031250D03*
X156000000Y-91531250D03*
X147000000Y-144000000D03*
X157000000Y-95531250D03*
X155000000Y-69531250D03*
X145000000Y-130000000D03*
X157500000Y-79031250D03*
X154500000Y-79031250D03*
X149000000Y-140000000D03*
X148000000Y-143000000D03*
X146000000Y-135000000D03*
X149000000Y-130000000D03*
X158500000Y-106531250D03*
X156000000Y-84031250D03*
X154000000Y-107531250D03*
X155000000Y-95531250D03*
X159500000Y-110531250D03*
X159500000Y-66531250D03*
X156000000Y-78031250D03*
X157500000Y-92531250D03*
X159000000Y-84031250D03*
X158000000Y-109531250D03*
X155000000Y-67531250D03*
X160000000Y-71531250D03*
X157500000Y-70531250D03*
X157000000Y-91531250D03*
X145000000Y-136000000D03*
X154500000Y-94531250D03*
X156000000Y-82031250D03*
X157500000Y-106531250D03*
X154500000Y-68531250D03*
X156500000Y-66531250D03*
X147000000Y-148000000D03*
X158000000Y-95531250D03*
X154500000Y-70531250D03*
X158000000Y-105531250D03*
X159500000Y-70531250D03*
X146000000Y-139000000D03*
X146000000Y-141000000D03*
X154000000Y-109531250D03*
X156500000Y-96531250D03*
X159000000Y-67531250D03*
X154500000Y-85031250D03*
X159500000Y-85031250D03*
X153500000Y-94531250D03*
X155500000Y-70531250D03*
X154000000Y-82031250D03*
X158000000Y-78031250D03*
X155000000Y-71531250D03*
X155500000Y-108531250D03*
X149000000Y-138000000D03*
X156500000Y-68531250D03*
X146000000Y-147000000D03*
X158500000Y-70531250D03*
X154000000Y-84031250D03*
X155000000Y-107531250D03*
X156000000Y-71531250D03*
X155500000Y-85031250D03*
X156500000Y-106531250D03*
X157000000Y-105531250D03*
X156000000Y-107531250D03*
X149000000Y-136000000D03*
X145000000Y-142000000D03*
X155500000Y-110531250D03*
X154500000Y-96531250D03*
X157000000Y-67531250D03*
X148000000Y-135000000D03*
X147000000Y-146000000D03*
X154500000Y-110531250D03*
X157000000Y-84031250D03*
X155000000Y-105531250D03*
X154000000Y-93531250D03*
X158000000Y-91531250D03*
X156000000Y-93531250D03*
X154500000Y-92531250D03*
X147000000Y-132000000D03*
X146000000Y-145000000D03*
X156500000Y-79031250D03*
X153500000Y-83031250D03*
X157000000Y-78031250D03*
X155500000Y-79031250D03*
X145000000Y-148000000D03*
X149000000Y-144000000D03*
X155000000Y-93531250D03*
X147000000Y-134000000D03*
X156000000Y-105531250D03*
X155000000Y-84031250D03*
X148000000Y-137000000D03*
X158000000Y-71531250D03*
X147000000Y-140000000D03*
X155500000Y-83031250D03*
X158500000Y-79031250D03*
X159000000Y-109531250D03*
X155000000Y-82031250D03*
X148000000Y-139000000D03*
X149000000Y-148000000D03*
X155500000Y-106531250D03*
X154500000Y-108531250D03*
X155500000Y-66531250D03*
X145000000Y-144000000D03*
X155000000Y-91531250D03*
X157500000Y-66531250D03*
X156500000Y-85031250D03*
X158500000Y-85031250D03*
X155000000Y-78031250D03*
X158500000Y-66531250D03*
X148000000Y-133000000D03*
%TO.N,/Drain*%
X140500000Y-90531250D03*
X150000000Y-111031250D03*
X138500000Y-70531250D03*
X148000000Y-68531250D03*
X140000000Y-75531250D03*
X146500000Y-83531250D03*
X145000000Y-109031250D03*
X145000000Y-68531250D03*
X141000000Y-81531250D03*
X142000000Y-112031250D03*
X140500000Y-88531250D03*
X149500000Y-114031250D03*
X150000000Y-76531250D03*
X140500000Y-86531250D03*
X138000000Y-87531250D03*
X142000000Y-110031250D03*
X138500000Y-98531250D03*
X143000000Y-87531250D03*
X139500000Y-84531250D03*
X151000000Y-66531250D03*
X137619976Y-114911275D03*
X137500000Y-70531250D03*
X138000000Y-73531250D03*
X143000000Y-69531250D03*
X145500000Y-89531250D03*
X149500000Y-83531250D03*
X149000000Y-94531250D03*
X147000000Y-68531250D03*
X151000000Y-84531250D03*
X143500000Y-68531250D03*
X149500000Y-87531250D03*
X138000000Y-69531250D03*
X147000000Y-107031250D03*
X143500000Y-115031250D03*
X137500000Y-98531250D03*
X146500000Y-73531250D03*
X139500000Y-94531250D03*
X147000000Y-74531250D03*
X142000000Y-71531250D03*
X150500000Y-93531250D03*
X147500000Y-81531250D03*
X148500000Y-97531250D03*
X147000000Y-92531250D03*
X139500000Y-70531250D03*
X150000000Y-98531250D03*
X139000000Y-85531250D03*
X146000000Y-96531250D03*
X142500000Y-109031250D03*
X147000000Y-72531250D03*
X138000000Y-95531250D03*
X141000000Y-97531250D03*
X147500000Y-85531250D03*
X142500000Y-84531250D03*
X148000000Y-98531250D03*
X151000000Y-107031250D03*
X148000000Y-100531250D03*
X149500000Y-93531250D03*
X138500000Y-78531250D03*
X151000000Y-76531250D03*
X149500000Y-91531250D03*
X147500000Y-99531250D03*
X145500000Y-73531250D03*
X149000000Y-88531250D03*
X145500000Y-112031250D03*
X149000000Y-68531250D03*
X139500000Y-96531250D03*
X142500000Y-90531250D03*
X150000000Y-92531250D03*
X139000000Y-97531250D03*
X149500000Y-97531250D03*
X140500000Y-84531250D03*
X146500000Y-81531250D03*
X143000000Y-95531250D03*
X148500000Y-81531250D03*
X150500000Y-91531250D03*
X150500000Y-108031250D03*
X139000000Y-112031250D03*
X141500000Y-98531250D03*
X151000000Y-90531250D03*
X147000000Y-98531250D03*
X140500000Y-109031250D03*
X151000000Y-74531250D03*
X147500000Y-93531250D03*
X142000000Y-99531250D03*
X138500000Y-107031250D03*
X151000000Y-82531250D03*
X140000000Y-87531250D03*
X141000000Y-116031250D03*
X138500000Y-113031250D03*
X138000000Y-85531250D03*
X145000000Y-115031250D03*
X138500000Y-105031250D03*
X150500000Y-89531250D03*
X139500000Y-105031250D03*
X142500000Y-74531250D03*
X137500000Y-109031250D03*
X139500000Y-92531250D03*
X141500000Y-100531250D03*
X142500000Y-66531250D03*
X138500000Y-94531250D03*
X143500000Y-72531250D03*
X150500000Y-106031250D03*
X146500000Y-112031250D03*
X149000000Y-107031250D03*
X139500000Y-111031250D03*
X150500000Y-69531250D03*
X139000000Y-71531250D03*
X142000000Y-97531250D03*
X140000000Y-97531250D03*
X142000000Y-106031250D03*
X148000000Y-74531250D03*
X138500000Y-74531250D03*
X138000000Y-91531250D03*
X147500000Y-116031250D03*
X145000000Y-96531250D03*
X147000000Y-86531250D03*
X151000000Y-100531250D03*
X147000000Y-66531250D03*
X150000000Y-68531250D03*
X149500000Y-108031250D03*
X150000000Y-96531250D03*
X146500000Y-89531250D03*
X149000000Y-98531250D03*
X150500000Y-101531250D03*
X142500000Y-115031250D03*
X146000000Y-90531250D03*
X145500000Y-69531250D03*
X149500000Y-71531250D03*
X151000000Y-92531250D03*
X149500000Y-85531250D03*
X147500000Y-67531250D03*
X141000000Y-99531250D03*
X137500000Y-92531250D03*
X146500000Y-116031250D03*
X147500000Y-95531250D03*
X147500000Y-75531250D03*
X140000000Y-83531250D03*
X149000000Y-82531250D03*
X146000000Y-88531250D03*
X145500000Y-83531250D03*
X137500000Y-90531250D03*
X146500000Y-99531250D03*
X147500000Y-71531250D03*
X141500000Y-113031250D03*
X142000000Y-87531250D03*
X143000000Y-110031250D03*
X145000000Y-90531250D03*
X140500000Y-70531250D03*
X139000000Y-99531250D03*
X142000000Y-116031250D03*
X147500000Y-114031250D03*
X140000000Y-81531250D03*
X146500000Y-110031250D03*
X138000000Y-112031250D03*
X141000000Y-85531250D03*
X142000000Y-81531250D03*
X149500000Y-69531250D03*
X149000000Y-86531250D03*
X138000000Y-101531250D03*
X137500000Y-72531250D03*
X148500000Y-85531250D03*
X148500000Y-91531250D03*
X149000000Y-74531250D03*
X140500000Y-96531250D03*
X149500000Y-81531250D03*
X143500000Y-94531250D03*
X137500000Y-78531250D03*
X149500000Y-110031250D03*
X140500000Y-72531250D03*
X145500000Y-93531250D03*
X139500000Y-78531250D03*
X141500000Y-88531250D03*
X150500000Y-81531250D03*
X147500000Y-112031250D03*
X138000000Y-83531250D03*
X147000000Y-100531250D03*
X141500000Y-82531250D03*
X140500000Y-92531250D03*
X147000000Y-70531250D03*
X149000000Y-96531250D03*
X139000000Y-108031250D03*
X139000000Y-110031250D03*
X138000000Y-75531250D03*
X138500000Y-88531250D03*
X142500000Y-82531250D03*
X138500000Y-92531250D03*
X140000000Y-77531250D03*
X148500000Y-95531250D03*
X143500000Y-90531250D03*
X138000000Y-67531250D03*
X141500000Y-84531250D03*
X139000000Y-93531250D03*
X141000000Y-73531250D03*
X137500000Y-100531250D03*
X149500000Y-95531250D03*
X150000000Y-107031250D03*
X137500000Y-74531250D03*
X139500000Y-74531250D03*
X147000000Y-90531250D03*
X141500000Y-68531250D03*
X149500000Y-67531250D03*
X147500000Y-106031250D03*
X150000000Y-105031250D03*
X148500000Y-77531250D03*
X137500000Y-86531250D03*
X138000000Y-97531250D03*
X148500000Y-116031250D03*
X145000000Y-84531250D03*
X142000000Y-73531250D03*
X139500000Y-100531250D03*
X137500000Y-82531250D03*
X143500000Y-107031250D03*
X149000000Y-90531250D03*
X137500000Y-113031250D03*
X145500000Y-95531250D03*
X142000000Y-89531250D03*
X151000000Y-94531250D03*
X148500000Y-71531250D03*
X141000000Y-89531250D03*
X146000000Y-107031250D03*
X147000000Y-113031250D03*
X138500000Y-68531250D03*
X140500000Y-74531250D03*
X143000000Y-112031250D03*
X150000000Y-66531250D03*
X141000000Y-110031250D03*
X141000000Y-93531250D03*
X140500000Y-115031250D03*
X148500000Y-83531250D03*
X139000000Y-83531250D03*
X146000000Y-115031250D03*
X141500000Y-90531250D03*
X141000000Y-101531250D03*
X145000000Y-86531250D03*
X145000000Y-94531250D03*
X146500000Y-114031250D03*
X150000000Y-90531250D03*
X139000000Y-73531250D03*
X151000000Y-98531250D03*
X145000000Y-98531250D03*
X145500000Y-116031250D03*
X145000000Y-72531250D03*
X138500000Y-90531250D03*
X143000000Y-116031250D03*
X148000000Y-115031250D03*
X138000000Y-106031250D03*
X141000000Y-83531250D03*
X140000000Y-67531250D03*
X146000000Y-94531250D03*
X149500000Y-99531250D03*
X137500000Y-111031250D03*
X141500000Y-115031250D03*
X138500000Y-96531250D03*
X140500000Y-82531250D03*
X139000000Y-91531250D03*
X143500000Y-98531250D03*
X145500000Y-91531250D03*
X145000000Y-88531250D03*
X151000000Y-86531250D03*
X143500000Y-82531250D03*
X149000000Y-105031250D03*
X139500000Y-72531250D03*
X150000000Y-109031250D03*
X143500000Y-96531250D03*
X141000000Y-112031250D03*
X149000000Y-92531250D03*
X143000000Y-91531250D03*
X138000000Y-81531250D03*
X149000000Y-84531250D03*
X143500000Y-70531250D03*
X143000000Y-83531250D03*
X142500000Y-92531250D03*
X149500000Y-73531250D03*
X145500000Y-114031250D03*
X148000000Y-111031250D03*
X147500000Y-108031250D03*
X142500000Y-111031250D03*
X143500000Y-88531250D03*
X150500000Y-67531250D03*
X149500000Y-106031250D03*
X146500000Y-69531250D03*
X149000000Y-115031250D03*
X142000000Y-83531250D03*
X142000000Y-108031250D03*
X139500000Y-109031250D03*
X140000000Y-99531250D03*
X141000000Y-95531250D03*
X148000000Y-94531250D03*
X148500000Y-110031250D03*
X150500000Y-97531250D03*
X150500000Y-114031250D03*
X145500000Y-108031250D03*
X146000000Y-86531250D03*
X147000000Y-111031250D03*
X142000000Y-67531250D03*
X150000000Y-86531250D03*
X138000000Y-114031250D03*
X139000000Y-89531250D03*
X150500000Y-71531250D03*
X151000000Y-78531250D03*
X139500000Y-76531250D03*
X143000000Y-81531250D03*
X143000000Y-73531250D03*
X137500000Y-76531250D03*
X140000000Y-95531250D03*
X147000000Y-82531250D03*
X141500000Y-72531250D03*
X150500000Y-85531250D03*
X148500000Y-114031250D03*
X139000000Y-75531250D03*
X143000000Y-71531250D03*
X146500000Y-71531250D03*
X150500000Y-110031250D03*
X140500000Y-113031250D03*
X142500000Y-94531250D03*
X140000000Y-91531250D03*
X139500000Y-98531250D03*
X145000000Y-92531250D03*
X142000000Y-93531250D03*
X138500000Y-66531250D03*
X140000000Y-112031250D03*
X150000000Y-88531250D03*
X147000000Y-115031250D03*
X138500000Y-86531250D03*
X143000000Y-85531250D03*
X150500000Y-87531250D03*
X150500000Y-112031250D03*
X139500000Y-90531250D03*
X143000000Y-89531250D03*
X150500000Y-116031250D03*
X146000000Y-111031250D03*
X140000000Y-110031250D03*
X143500000Y-84531250D03*
X148000000Y-86531250D03*
X143000000Y-67531250D03*
X138500000Y-84531250D03*
X149000000Y-109031250D03*
X137500000Y-88531250D03*
X147500000Y-89531250D03*
X148000000Y-82531250D03*
X151000000Y-88531250D03*
X148000000Y-105031250D03*
X150000000Y-72531250D03*
X140000000Y-114031250D03*
X146500000Y-95531250D03*
X140500000Y-105031250D03*
X149500000Y-116031250D03*
X143500000Y-86531250D03*
X140500000Y-94531250D03*
X137500000Y-105031250D03*
X148500000Y-87531250D03*
X151000000Y-96531250D03*
X148500000Y-93531250D03*
X145000000Y-82531250D03*
X138000000Y-108031250D03*
X138500000Y-115031250D03*
X148500000Y-75531250D03*
X148500000Y-73531250D03*
X145500000Y-85531250D03*
X148000000Y-90531250D03*
X150000000Y-113031250D03*
X138000000Y-89531250D03*
X141500000Y-92531250D03*
X143500000Y-66531250D03*
X140000000Y-106031250D03*
X150500000Y-99531250D03*
X146000000Y-74531250D03*
X142500000Y-88531250D03*
X141500000Y-74531250D03*
X146000000Y-72531250D03*
X138500000Y-76531250D03*
X151000000Y-109031250D03*
X146500000Y-75531250D03*
X141000000Y-71531250D03*
X143000000Y-99531250D03*
X140500000Y-107031250D03*
X141000000Y-91531250D03*
X139500000Y-86531250D03*
X147500000Y-91531250D03*
X141500000Y-70531250D03*
X140000000Y-85531250D03*
X142500000Y-70531250D03*
X149500000Y-75531250D03*
X145000000Y-70531250D03*
X151000000Y-105031250D03*
X138500000Y-100531250D03*
X149000000Y-111031250D03*
X141500000Y-96531250D03*
X141000000Y-114031250D03*
X142000000Y-114031250D03*
X150000000Y-84531250D03*
X146000000Y-92531250D03*
X147000000Y-109031250D03*
X145500000Y-81531250D03*
X149500000Y-101531250D03*
X138000000Y-77531250D03*
X151000000Y-115031250D03*
X148000000Y-92531250D03*
X151000000Y-72531250D03*
X141500000Y-109031250D03*
X138000000Y-93531250D03*
X139500000Y-88531250D03*
X142000000Y-85531250D03*
X146500000Y-91531250D03*
X141000000Y-106031250D03*
X140000000Y-108031250D03*
X140000000Y-73531250D03*
X146500000Y-85531250D03*
X145500000Y-67531250D03*
X140000000Y-89531250D03*
X140000000Y-71531250D03*
X140000000Y-93531250D03*
X142500000Y-107031250D03*
X140500000Y-100531250D03*
X137500000Y-94531250D03*
X148000000Y-107031250D03*
X141500000Y-86531250D03*
X145500000Y-87531250D03*
X139500000Y-107031250D03*
X142500000Y-98531250D03*
X140500000Y-68531250D03*
X150500000Y-77531250D03*
X138000000Y-99531250D03*
X149000000Y-72531250D03*
X142500000Y-86531250D03*
X147000000Y-96531250D03*
X139000000Y-67531250D03*
X141000000Y-87531250D03*
X139500000Y-68531250D03*
X148000000Y-66531250D03*
X150000000Y-70531250D03*
X140000000Y-101531250D03*
X150000000Y-78531250D03*
X145000000Y-66531250D03*
X149000000Y-66531250D03*
X148000000Y-96531250D03*
X149000000Y-70531250D03*
X145500000Y-99531250D03*
X146000000Y-66531250D03*
X149000000Y-113031250D03*
X139000000Y-106031250D03*
X148500000Y-108031250D03*
X151000000Y-68531250D03*
X145500000Y-97531250D03*
X148500000Y-101531250D03*
X148500000Y-106031250D03*
X146000000Y-68531250D03*
X137500000Y-84531250D03*
X142000000Y-95531250D03*
X147000000Y-84531250D03*
X145500000Y-110031250D03*
X139000000Y-101531250D03*
X142500000Y-72531250D03*
X146500000Y-67531250D03*
X139000000Y-69531250D03*
X139500000Y-115031250D03*
X149500000Y-112031250D03*
X146000000Y-113031250D03*
X142000000Y-69531250D03*
X138500000Y-111031250D03*
X141500000Y-66531250D03*
X137500000Y-107031250D03*
X148500000Y-69531250D03*
X143500000Y-92531250D03*
X148000000Y-113031250D03*
X137500000Y-66531250D03*
X145000000Y-107031250D03*
X146500000Y-87531250D03*
X146000000Y-70531250D03*
X148000000Y-109031250D03*
X150000000Y-82531250D03*
X142500000Y-113031250D03*
X151000000Y-113031250D03*
X150000000Y-100531250D03*
X139500000Y-66531250D03*
X149000000Y-76531250D03*
X140000000Y-69531250D03*
X141000000Y-69531250D03*
X148000000Y-72531250D03*
X148500000Y-67531250D03*
X147500000Y-83531250D03*
X151000000Y-70531250D03*
X138000000Y-110031250D03*
X138000000Y-71531250D03*
X150000000Y-115031250D03*
X147500000Y-101531250D03*
X143500000Y-113031250D03*
X150500000Y-75531250D03*
X140500000Y-78531250D03*
X139500000Y-82531250D03*
X148500000Y-89531250D03*
X141000000Y-75531250D03*
X138500000Y-82531250D03*
X146500000Y-108031250D03*
X147500000Y-87531250D03*
X148500000Y-99531250D03*
X139000000Y-77531250D03*
X148000000Y-88531250D03*
X139000000Y-114031250D03*
X142000000Y-91531250D03*
X138500000Y-72531250D03*
X146000000Y-84531250D03*
X140500000Y-76531250D03*
X137500000Y-68531250D03*
X146000000Y-98531250D03*
X142500000Y-96531250D03*
X148000000Y-84531250D03*
X138369976Y-115661275D03*
X140500000Y-98531250D03*
X147500000Y-73531250D03*
X148000000Y-76531250D03*
X141500000Y-111031250D03*
X147500000Y-97531250D03*
X140500000Y-66531250D03*
X145000000Y-113031250D03*
X150000000Y-74531250D03*
X139000000Y-81531250D03*
X141500000Y-94531250D03*
X150000000Y-94531250D03*
X143500000Y-109031250D03*
X141000000Y-108031250D03*
X137500000Y-96531250D03*
X151000000Y-111031250D03*
X149000000Y-78531250D03*
X147000000Y-94531250D03*
X147000000Y-88531250D03*
X146500000Y-93531250D03*
X139500000Y-113031250D03*
X143500000Y-111031250D03*
X148000000Y-70531250D03*
X139000000Y-95531250D03*
X149500000Y-89531250D03*
X141000000Y-67531250D03*
X147500000Y-110031250D03*
X145000000Y-111031250D03*
X145000000Y-74531250D03*
X139000000Y-116031250D03*
X141500000Y-107031250D03*
X150500000Y-83531250D03*
X145500000Y-71531250D03*
X143000000Y-114031250D03*
X146000000Y-109031250D03*
X138500000Y-109031250D03*
X143000000Y-97531250D03*
X150500000Y-95531250D03*
X146500000Y-97531250D03*
X150500000Y-73531250D03*
X140500000Y-111031250D03*
X147500000Y-69531250D03*
X143000000Y-108031250D03*
X149000000Y-100531250D03*
X143000000Y-93531250D03*
X148000000Y-78531250D03*
X140000000Y-116031250D03*
X139000000Y-87531250D03*
X148500000Y-112031250D03*
X146000000Y-82531250D03*
X142500000Y-68531250D03*
X149500000Y-77531250D03*
%TO.N,Net-(Q10-G)*%
X155529243Y-149431250D03*
X156250000Y-146031250D03*
X136000000Y-108281250D03*
X136000000Y-82531250D03*
X135750000Y-66250000D03*
X136000000Y-94031250D03*
%TO.N,/+BATT OUT*%
X130000000Y-97531250D03*
X127000000Y-101531250D03*
X128250000Y-110531250D03*
X126500000Y-73531250D03*
X126000000Y-90531250D03*
X126000000Y-76531250D03*
X129500000Y-96531250D03*
X130500000Y-71531250D03*
X130750000Y-115531250D03*
X128500000Y-85531250D03*
X127500000Y-75531250D03*
X127000000Y-90531250D03*
X129250000Y-110531250D03*
X126000000Y-72531250D03*
X128500000Y-96531250D03*
X127500000Y-87531250D03*
X127500000Y-71531250D03*
X131000000Y-76531250D03*
X129000000Y-101531250D03*
X126000000Y-86531250D03*
X126500000Y-75531250D03*
X126250000Y-110531250D03*
X126000000Y-74531250D03*
X126000000Y-97531250D03*
X126750000Y-113531250D03*
X128500000Y-100531250D03*
X126500000Y-89531250D03*
X128000000Y-76531250D03*
X126500000Y-71531250D03*
X128000000Y-72531250D03*
X125750000Y-115531250D03*
X129500000Y-89531250D03*
X130000000Y-72531250D03*
X130500000Y-89531250D03*
X127500000Y-73531250D03*
X125750000Y-111531250D03*
X129000000Y-76531250D03*
X128000000Y-86531250D03*
X130500000Y-75531250D03*
X130000000Y-90531250D03*
X130500000Y-85531250D03*
X126750000Y-111531250D03*
X127000000Y-88531250D03*
X127000000Y-97531250D03*
X129250000Y-114531250D03*
X131000000Y-101531250D03*
X128500000Y-71531250D03*
X128500000Y-75531250D03*
X131000000Y-90531250D03*
X128750000Y-115531250D03*
X127000000Y-86531250D03*
X128750000Y-111531250D03*
X127500000Y-89531250D03*
X126250000Y-114531250D03*
X130000000Y-101531250D03*
X128000000Y-97531250D03*
X130500000Y-100531250D03*
X126500000Y-100531250D03*
X129750000Y-111531250D03*
X127500000Y-98531250D03*
X130250000Y-110531250D03*
X129000000Y-90531250D03*
X126250000Y-112531250D03*
X126000000Y-101531250D03*
X126500000Y-87531250D03*
X128500000Y-89531250D03*
X125750000Y-113531250D03*
X126000000Y-88531250D03*
X130250000Y-114531250D03*
X127500000Y-85531250D03*
X127250000Y-112531250D03*
X127000000Y-74531250D03*
X127000000Y-76531250D03*
X127000000Y-72531250D03*
X129750000Y-115531250D03*
X129000000Y-72531250D03*
X126500000Y-96531250D03*
X127750000Y-115531250D03*
X128250000Y-114531250D03*
X130500000Y-96531250D03*
X127750000Y-111531250D03*
X127500000Y-96531250D03*
X127000000Y-99531250D03*
X126500000Y-85531250D03*
X129500000Y-75531250D03*
X126000000Y-99531250D03*
X128000000Y-101531250D03*
X127250000Y-114531250D03*
X127500000Y-100531250D03*
X129500000Y-85531250D03*
X129000000Y-86531250D03*
X128000000Y-90531250D03*
X127250000Y-110531250D03*
X130000000Y-86531250D03*
X126750000Y-115531250D03*
X129000000Y-97531250D03*
X126500000Y-98531250D03*
X129500000Y-100531250D03*
X129500000Y-71531250D03*
X130000000Y-76531250D03*
%TD*%
D21*
%TO.N,Net-(Q1-B)*%
X158675000Y-141781250D02*
X159625000Y-142731250D01*
X159625000Y-142731250D02*
X159625000Y-145285000D01*
X159625000Y-145285000D02*
X158960000Y-145950000D01*
%TO.N,GND*%
X154418750Y-147750000D02*
X152820000Y-147750000D01*
X132910000Y-144671250D02*
X132910000Y-147691250D01*
X157256250Y-147456250D02*
X157650000Y-147850000D01*
X154712500Y-147456250D02*
X157000000Y-147456250D01*
X132910000Y-147691250D02*
X134250000Y-149031250D01*
X153137500Y-149031250D02*
X153300000Y-148868750D01*
X157000000Y-147456250D02*
X157256250Y-147456250D01*
X153300000Y-148868750D02*
X153300000Y-148230000D01*
X134250000Y-149031250D02*
X153137500Y-149031250D01*
X157650000Y-147850000D02*
X158960000Y-147850000D01*
X154712500Y-147456250D02*
X154418750Y-147750000D01*
X153300000Y-148230000D02*
X152820000Y-147750000D01*
%TO.N,Net-(Q1-C)*%
X160820000Y-88101250D02*
X161000000Y-88281250D01*
X161575000Y-132000000D02*
X162000000Y-132425000D01*
X161000000Y-113781250D02*
X161575000Y-114356250D01*
X160500000Y-74531250D02*
X161468750Y-74531250D01*
X160540000Y-113781250D02*
X161000000Y-113781250D01*
X162000000Y-144593750D02*
X161440000Y-145153750D01*
X161440000Y-145153750D02*
X161440000Y-146900000D01*
X161468750Y-74531250D02*
X161500000Y-74500000D01*
X161000000Y-99781250D02*
X160008750Y-98790000D01*
X160500000Y-113741250D02*
X160540000Y-113781250D01*
X162000000Y-132425000D02*
X162000000Y-144593750D01*
X161575000Y-114356250D02*
X161575000Y-132000000D01*
X160500000Y-88101250D02*
X160820000Y-88101250D01*
%TO.N,Net-(Q10-G)*%
X130301250Y-94131250D02*
X135900000Y-94131250D01*
X129630000Y-108201250D02*
X135920000Y-108201250D01*
X135970000Y-82561250D02*
X136000000Y-82531250D01*
X146000000Y-118131250D02*
X145650000Y-117781250D01*
X155481250Y-146800000D02*
X156250000Y-146031250D01*
X130031250Y-66250000D02*
X129630000Y-66651250D01*
X135900000Y-94131250D02*
X136000000Y-94031250D01*
X155129243Y-149831250D02*
X155529243Y-149431250D01*
X136000000Y-117031250D02*
X136000000Y-108281250D01*
X145650000Y-127981250D02*
X146000000Y-127631250D01*
X126033359Y-149314609D02*
X126550000Y-149831250D01*
X155300000Y-146800000D02*
X155481250Y-146800000D01*
X126200000Y-128681250D02*
X126900000Y-127981250D01*
X126033359Y-128972891D02*
X126033359Y-149314609D01*
X129630000Y-82561250D02*
X135970000Y-82561250D01*
X136750000Y-117781250D02*
X136000000Y-117031250D01*
X135750000Y-66250000D02*
X130031250Y-66250000D01*
X129630000Y-66651250D02*
X129630000Y-68991250D01*
X146000000Y-127631250D02*
X146000000Y-118131250D01*
X126550000Y-149831250D02*
X155129243Y-149831250D01*
X126900000Y-127981250D02*
X145650000Y-127981250D01*
X135920000Y-108201250D02*
X136000000Y-108281250D01*
X145650000Y-117781250D02*
X136750000Y-117781250D01*
%TO.N,/CMD_Switch_bat*%
X154100000Y-149431250D02*
X154962500Y-148568750D01*
X160090552Y-149131250D02*
X160350000Y-148871802D01*
X157000000Y-149106250D02*
X158000000Y-149106250D01*
X158025000Y-149131250D02*
X160090552Y-149131250D01*
X160350000Y-148871802D02*
X160350000Y-146846802D01*
X160350000Y-146846802D02*
X160100000Y-146596802D01*
X130370000Y-145716936D02*
X134084314Y-149431250D01*
X130370000Y-144671250D02*
X130370000Y-145716936D01*
X160100000Y-146596802D02*
X160100000Y-144006250D01*
X158000000Y-149106250D02*
X158025000Y-149131250D01*
X134084314Y-149431250D02*
X154100000Y-149431250D01*
X156462500Y-148568750D02*
X157000000Y-149106250D01*
X160325000Y-143781250D02*
X160325000Y-141781250D01*
X154962500Y-148568750D02*
X156462500Y-148568750D01*
%TO.N,Net-(Q11-B)*%
X157675000Y-144781250D02*
X154162500Y-144781250D01*
X153093750Y-145850000D02*
X154162500Y-144781250D01*
X152820000Y-145850000D02*
X153093750Y-145850000D01*
X158675000Y-143781250D02*
X157675000Y-144781250D01*
%TD*%
%TA.AperFunction,Conductor*%
%TO.N,/Drain*%
G36*
X144426680Y-75273434D02*
G01*
X144749076Y-75311117D01*
X144763261Y-75313618D01*
X145079103Y-75388474D01*
X145092908Y-75392607D01*
X145325059Y-75477103D01*
X145397923Y-75503624D01*
X145411151Y-75509329D01*
X145701234Y-75655014D01*
X145713692Y-75662208D01*
X145848979Y-75751188D01*
X145984873Y-75840567D01*
X145996440Y-75849178D01*
X146245094Y-76057824D01*
X146255582Y-76067719D01*
X146478315Y-76303802D01*
X146487584Y-76314848D01*
X146681411Y-76575202D01*
X146689335Y-76587250D01*
X146851622Y-76868340D01*
X146858094Y-76881226D01*
X146986653Y-77179261D01*
X146991585Y-77192811D01*
X147084678Y-77503760D01*
X147088003Y-77517792D01*
X147144364Y-77837434D01*
X147146038Y-77851756D01*
X147164911Y-78175786D01*
X147164911Y-78190206D01*
X147146038Y-78514235D01*
X147144364Y-78528557D01*
X147088003Y-78848199D01*
X147084678Y-78862231D01*
X146991585Y-79173180D01*
X146986653Y-79186730D01*
X146858094Y-79484765D01*
X146851622Y-79497651D01*
X146689335Y-79778741D01*
X146681411Y-79790789D01*
X146487584Y-80051143D01*
X146478315Y-80062189D01*
X146255582Y-80298272D01*
X146245094Y-80308167D01*
X145996440Y-80516813D01*
X145984873Y-80525424D01*
X145713700Y-80703778D01*
X145701221Y-80710983D01*
X145490832Y-80816645D01*
X145411163Y-80856656D01*
X145397923Y-80862367D01*
X145092913Y-80973382D01*
X145079098Y-80977518D01*
X144763269Y-81052371D01*
X144749069Y-81054875D01*
X144521092Y-81081521D01*
X144426679Y-81092557D01*
X144412286Y-81093395D01*
X144087714Y-81093395D01*
X144073320Y-81092557D01*
X143954240Y-81078638D01*
X143750930Y-81054875D01*
X143736730Y-81052371D01*
X143420901Y-80977518D01*
X143407086Y-80973382D01*
X143102076Y-80862367D01*
X143088840Y-80856658D01*
X142798771Y-80710979D01*
X142786299Y-80703778D01*
X142515126Y-80525424D01*
X142503559Y-80516813D01*
X142254905Y-80308167D01*
X142244417Y-80298272D01*
X142021684Y-80062189D01*
X142012415Y-80051143D01*
X141818588Y-79790789D01*
X141810664Y-79778741D01*
X141784395Y-79733241D01*
X141648373Y-79497644D01*
X141641908Y-79484772D01*
X141513346Y-79186730D01*
X141508414Y-79173180D01*
X141483166Y-79088848D01*
X141415318Y-78862221D01*
X141411998Y-78848210D01*
X141355634Y-78528556D01*
X141353961Y-78514235D01*
X141335088Y-78190190D01*
X141335088Y-78175801D01*
X141338103Y-78124038D01*
X142649500Y-78124038D01*
X142649500Y-78375962D01*
X142672542Y-78521445D01*
X142688910Y-78624785D01*
X142766760Y-78864383D01*
X142881132Y-79088848D01*
X143029201Y-79292649D01*
X143029205Y-79292654D01*
X143207345Y-79470794D01*
X143207350Y-79470798D01*
X143385117Y-79599952D01*
X143411155Y-79618870D01*
X143554184Y-79691747D01*
X143635616Y-79733239D01*
X143635618Y-79733239D01*
X143635621Y-79733241D01*
X143875215Y-79811090D01*
X144124038Y-79850500D01*
X144124039Y-79850500D01*
X144375961Y-79850500D01*
X144375962Y-79850500D01*
X144624785Y-79811090D01*
X144864379Y-79733241D01*
X145088845Y-79618870D01*
X145292656Y-79470793D01*
X145470793Y-79292656D01*
X145618870Y-79088845D01*
X145733241Y-78864379D01*
X145811090Y-78624785D01*
X145850500Y-78375962D01*
X145850500Y-78124038D01*
X145811090Y-77875215D01*
X145733241Y-77635621D01*
X145733239Y-77635618D01*
X145733239Y-77635616D01*
X145669577Y-77510674D01*
X145618870Y-77411155D01*
X145599952Y-77385117D01*
X145470798Y-77207350D01*
X145470794Y-77207345D01*
X145292654Y-77029205D01*
X145292649Y-77029201D01*
X145088848Y-76881132D01*
X145088847Y-76881131D01*
X145088845Y-76881130D01*
X144995256Y-76833444D01*
X144864383Y-76766760D01*
X144624785Y-76688910D01*
X144375962Y-76649500D01*
X144124038Y-76649500D01*
X143999626Y-76669205D01*
X143875214Y-76688910D01*
X143635616Y-76766760D01*
X143411151Y-76881132D01*
X143207350Y-77029201D01*
X143207345Y-77029205D01*
X143029205Y-77207345D01*
X143029201Y-77207350D01*
X142881132Y-77411151D01*
X142766760Y-77635616D01*
X142696532Y-77851756D01*
X142688910Y-77875215D01*
X142649500Y-78124038D01*
X141338103Y-78124038D01*
X141353961Y-77851753D01*
X141355635Y-77837434D01*
X141391221Y-77635616D01*
X141411999Y-77517777D01*
X141415317Y-77503774D01*
X141508415Y-77192808D01*
X141513346Y-77179261D01*
X141578073Y-77029207D01*
X141641911Y-76881212D01*
X141648370Y-76868353D01*
X141810669Y-76587241D01*
X141818582Y-76575210D01*
X142012421Y-76314840D01*
X142021677Y-76303809D01*
X142244420Y-76067716D01*
X142254905Y-76057824D01*
X142503559Y-75849178D01*
X142515117Y-75840573D01*
X142786315Y-75662203D01*
X142798757Y-75655018D01*
X143088854Y-75509326D01*
X143102071Y-75503625D01*
X143407095Y-75392606D01*
X143420891Y-75388475D01*
X143736741Y-75313618D01*
X143750920Y-75311117D01*
X144073319Y-75273434D01*
X144087714Y-75272597D01*
X144412286Y-75272597D01*
X144426680Y-75273434D01*
G37*
%TD.AperFunction*%
%TA.AperFunction,Conductor*%
G36*
X152443039Y-65551435D02*
G01*
X152488794Y-65604239D01*
X152500000Y-65655750D01*
X152500000Y-117407250D01*
X152480315Y-117474289D01*
X152427511Y-117520044D01*
X152376000Y-117531250D01*
X146300598Y-117531250D01*
X146233559Y-117511565D01*
X146212917Y-117494931D01*
X146018717Y-117300731D01*
X146018716Y-117300730D01*
X145931904Y-117250610D01*
X145931904Y-117250609D01*
X145931900Y-117250608D01*
X145881785Y-117221673D01*
X145729057Y-117180749D01*
X145570943Y-117180749D01*
X145563347Y-117180749D01*
X145563331Y-117180750D01*
X137050097Y-117180750D01*
X136983058Y-117161065D01*
X136962416Y-117144431D01*
X136636819Y-116818834D01*
X136603334Y-116757511D01*
X136600500Y-116731153D01*
X136600500Y-108863662D01*
X136620185Y-108796623D01*
X136627555Y-108786347D01*
X136629810Y-108783517D01*
X136629816Y-108783512D01*
X136725789Y-108630772D01*
X136785368Y-108460505D01*
X136785369Y-108460499D01*
X136805565Y-108281253D01*
X136805565Y-108281246D01*
X136785369Y-108102000D01*
X136785368Y-108101995D01*
X136725788Y-107931726D01*
X136629815Y-107778987D01*
X136536319Y-107685491D01*
X136502834Y-107624168D01*
X136500000Y-107597810D01*
X136500000Y-103124038D01*
X142649500Y-103124038D01*
X142649500Y-103375961D01*
X142688910Y-103624785D01*
X142766760Y-103864383D01*
X142881132Y-104088848D01*
X143029201Y-104292649D01*
X143029205Y-104292654D01*
X143207345Y-104470794D01*
X143207350Y-104470798D01*
X143385117Y-104599952D01*
X143411155Y-104618870D01*
X143554184Y-104691747D01*
X143635616Y-104733239D01*
X143635618Y-104733239D01*
X143635621Y-104733241D01*
X143875215Y-104811090D01*
X144124038Y-104850500D01*
X144124039Y-104850500D01*
X144375961Y-104850500D01*
X144375962Y-104850500D01*
X144624785Y-104811090D01*
X144864379Y-104733241D01*
X145088845Y-104618870D01*
X145292656Y-104470793D01*
X145470793Y-104292656D01*
X145618870Y-104088845D01*
X145733241Y-103864379D01*
X145811090Y-103624785D01*
X145850500Y-103375962D01*
X145850500Y-103124038D01*
X145811090Y-102875215D01*
X145733241Y-102635621D01*
X145733239Y-102635618D01*
X145733239Y-102635616D01*
X145691747Y-102554184D01*
X145618870Y-102411155D01*
X145599952Y-102385117D01*
X145470798Y-102207350D01*
X145470794Y-102207345D01*
X145292654Y-102029205D01*
X145292649Y-102029201D01*
X145088848Y-101881132D01*
X145088847Y-101881131D01*
X145088845Y-101881130D01*
X145018747Y-101845413D01*
X144864383Y-101766760D01*
X144624785Y-101688910D01*
X144375962Y-101649500D01*
X144124038Y-101649500D01*
X143999626Y-101669205D01*
X143875214Y-101688910D01*
X143635616Y-101766760D01*
X143411151Y-101881132D01*
X143207350Y-102029201D01*
X143207345Y-102029205D01*
X143029205Y-102207345D01*
X143029201Y-102207350D01*
X142881132Y-102411151D01*
X142766760Y-102635616D01*
X142688910Y-102875214D01*
X142649500Y-103124038D01*
X136500000Y-103124038D01*
X136500000Y-94714690D01*
X136519685Y-94647651D01*
X136536319Y-94627009D01*
X136551558Y-94611770D01*
X136629816Y-94533512D01*
X136725789Y-94380772D01*
X136785368Y-94210505D01*
X136785369Y-94210499D01*
X136805565Y-94031253D01*
X136805565Y-94031246D01*
X136785369Y-93852000D01*
X136785368Y-93851995D01*
X136725788Y-93681726D01*
X136629815Y-93528987D01*
X136536319Y-93435491D01*
X136502834Y-93374168D01*
X136500000Y-93347810D01*
X136500000Y-83214690D01*
X136519685Y-83147651D01*
X136536319Y-83127009D01*
X136542501Y-83120827D01*
X136629816Y-83033512D01*
X136725789Y-82880772D01*
X136785368Y-82710505D01*
X136785369Y-82710499D01*
X136805565Y-82531253D01*
X136805565Y-82531246D01*
X136785369Y-82352000D01*
X136785368Y-82351995D01*
X136725788Y-82181726D01*
X136629815Y-82028987D01*
X136536319Y-81935491D01*
X136502834Y-81874168D01*
X136500000Y-81847810D01*
X136500000Y-78182996D01*
X141139601Y-78182996D01*
X141159158Y-78531245D01*
X141159160Y-78531257D01*
X141217584Y-78875121D01*
X141217586Y-78875130D01*
X141314144Y-79210290D01*
X141447623Y-79532541D01*
X141447625Y-79532545D01*
X141616350Y-79837828D01*
X141818196Y-80122304D01*
X142050614Y-80382378D01*
X142050617Y-80382381D01*
X142310691Y-80614799D01*
X142310697Y-80614803D01*
X142310698Y-80614804D01*
X142595168Y-80816646D01*
X142677894Y-80862367D01*
X142900450Y-80985370D01*
X142900454Y-80985372D01*
X143005051Y-81028697D01*
X143222700Y-81118850D01*
X143557871Y-81215411D01*
X143901746Y-81273837D01*
X144250000Y-81293395D01*
X144598254Y-81273837D01*
X144942129Y-81215411D01*
X145277300Y-81118850D01*
X145599552Y-80985369D01*
X145904832Y-80816646D01*
X146189302Y-80614804D01*
X146449384Y-80382380D01*
X146681808Y-80122298D01*
X146883650Y-79837828D01*
X147052373Y-79532548D01*
X147185854Y-79210296D01*
X147282415Y-78875125D01*
X147340841Y-78531250D01*
X147360399Y-78182996D01*
X147340841Y-77834742D01*
X147282415Y-77490867D01*
X147185854Y-77155696D01*
X147069420Y-76874598D01*
X147052376Y-76833450D01*
X147052374Y-76833446D01*
X147015517Y-76766759D01*
X146883650Y-76528164D01*
X146681808Y-76243694D01*
X146681807Y-76243693D01*
X146681803Y-76243687D01*
X146449385Y-75983613D01*
X146449382Y-75983610D01*
X146189308Y-75751192D01*
X145904832Y-75549346D01*
X145599549Y-75380621D01*
X145599545Y-75380619D01*
X145340777Y-75273435D01*
X145277300Y-75247142D01*
X145277296Y-75247140D01*
X145277294Y-75247140D01*
X144942134Y-75150582D01*
X144942125Y-75150580D01*
X144598261Y-75092156D01*
X144598249Y-75092154D01*
X144250000Y-75072597D01*
X143901750Y-75092154D01*
X143901738Y-75092156D01*
X143557874Y-75150580D01*
X143557865Y-75150582D01*
X143222705Y-75247140D01*
X142900454Y-75380619D01*
X142900450Y-75380621D01*
X142595167Y-75549346D01*
X142310691Y-75751192D01*
X142050617Y-75983610D01*
X142050614Y-75983613D01*
X141818196Y-76243687D01*
X141616350Y-76528163D01*
X141447625Y-76833446D01*
X141447623Y-76833450D01*
X141314144Y-77155701D01*
X141217586Y-77490861D01*
X141217584Y-77490870D01*
X141159160Y-77834734D01*
X141159158Y-77834746D01*
X141139601Y-78182996D01*
X136500000Y-78182996D01*
X136500000Y-66551397D01*
X136506959Y-66510442D01*
X136535368Y-66429255D01*
X136555565Y-66250000D01*
X136535368Y-66070745D01*
X136535367Y-66070742D01*
X136506958Y-65989552D01*
X136500000Y-65948598D01*
X136500000Y-65655750D01*
X136519685Y-65588711D01*
X136572489Y-65542956D01*
X136624000Y-65531750D01*
X152376000Y-65531750D01*
X152443039Y-65551435D01*
G37*
%TD.AperFunction*%
%TD*%
%TA.AperFunction,Conductor*%
%TO.N,/+BATT_IN*%
G36*
X158761409Y-65532066D02*
G01*
X159025790Y-65550974D01*
X159043291Y-65553491D01*
X159304803Y-65610379D01*
X159321762Y-65615358D01*
X159572524Y-65708888D01*
X159588616Y-65716237D01*
X159823501Y-65844494D01*
X159838375Y-65854052D01*
X160052624Y-66014438D01*
X160065994Y-66026024D01*
X160255225Y-66215255D01*
X160266811Y-66228625D01*
X160427193Y-66442869D01*
X160436758Y-66457753D01*
X160565011Y-66692632D01*
X160572361Y-66708725D01*
X160665888Y-66959479D01*
X160670872Y-66976455D01*
X160727757Y-67237952D01*
X160730275Y-67255464D01*
X160749684Y-67526831D01*
X160750000Y-67535677D01*
X160750000Y-72897910D01*
X160730315Y-72964949D01*
X160677511Y-73010704D01*
X160608353Y-73020648D01*
X160582669Y-73014093D01*
X160577481Y-73012158D01*
X160577483Y-73012158D01*
X160517883Y-73005751D01*
X160517881Y-73005750D01*
X160517873Y-73005750D01*
X160517864Y-73005750D01*
X157062129Y-73005750D01*
X157062123Y-73005751D01*
X157002516Y-73012158D01*
X156867671Y-73062452D01*
X156867664Y-73062456D01*
X156752455Y-73148702D01*
X156752452Y-73148705D01*
X156666206Y-73263914D01*
X156666202Y-73263921D01*
X156615908Y-73398767D01*
X156609501Y-73458366D01*
X156609500Y-73458385D01*
X156609500Y-74684120D01*
X156609501Y-74684126D01*
X156615908Y-74743733D01*
X156666202Y-74878578D01*
X156666206Y-74878585D01*
X156752452Y-74993794D01*
X156752455Y-74993797D01*
X156867664Y-75080043D01*
X156867671Y-75080047D01*
X157002517Y-75130341D01*
X157002516Y-75130341D01*
X157009444Y-75131085D01*
X157062127Y-75136750D01*
X160517872Y-75136749D01*
X160557772Y-75132459D01*
X160571024Y-75131750D01*
X160626000Y-75131750D01*
X160693039Y-75151435D01*
X160738794Y-75204239D01*
X160750000Y-75255750D01*
X160750000Y-86467910D01*
X160730315Y-86534949D01*
X160677511Y-86580704D01*
X160608353Y-86590648D01*
X160582669Y-86584093D01*
X160577481Y-86582158D01*
X160577483Y-86582158D01*
X160517883Y-86575751D01*
X160517881Y-86575750D01*
X160517873Y-86575750D01*
X160517864Y-86575750D01*
X157062129Y-86575750D01*
X157062123Y-86575751D01*
X157002516Y-86582158D01*
X156867671Y-86632452D01*
X156867664Y-86632456D01*
X156752455Y-86718702D01*
X156752452Y-86718705D01*
X156666206Y-86833914D01*
X156666202Y-86833921D01*
X156615908Y-86968767D01*
X156609501Y-87028366D01*
X156609500Y-87028385D01*
X156609500Y-88254120D01*
X156609501Y-88254126D01*
X156615908Y-88313733D01*
X156666202Y-88448578D01*
X156666206Y-88448585D01*
X156752452Y-88563794D01*
X156752455Y-88563797D01*
X156867664Y-88650043D01*
X156867671Y-88650047D01*
X157002517Y-88700341D01*
X157002516Y-88700341D01*
X157009444Y-88701085D01*
X157062127Y-88706750D01*
X160253417Y-88706749D01*
X160320456Y-88726434D01*
X160358409Y-88764775D01*
X160370178Y-88783505D01*
X160370182Y-88783510D01*
X160370184Y-88783512D01*
X160497738Y-88911066D01*
X160650478Y-89007039D01*
X160666954Y-89012804D01*
X160723730Y-89053525D01*
X160749478Y-89118478D01*
X160750000Y-89129846D01*
X160750000Y-97616660D01*
X160730315Y-97683699D01*
X160677511Y-97729454D01*
X160608353Y-97739398D01*
X160582669Y-97732843D01*
X160577481Y-97730908D01*
X160577483Y-97730908D01*
X160517883Y-97724501D01*
X160517881Y-97724500D01*
X160517873Y-97724500D01*
X160517864Y-97724500D01*
X157062129Y-97724500D01*
X157062123Y-97724501D01*
X157002516Y-97730908D01*
X156867671Y-97781202D01*
X156867664Y-97781206D01*
X156752455Y-97867452D01*
X156752452Y-97867455D01*
X156666206Y-97982664D01*
X156666202Y-97982671D01*
X156615908Y-98117517D01*
X156609501Y-98177116D01*
X156609500Y-98177135D01*
X156609500Y-99402870D01*
X156609501Y-99402876D01*
X156615908Y-99462483D01*
X156666202Y-99597328D01*
X156666206Y-99597335D01*
X156752452Y-99712544D01*
X156752455Y-99712547D01*
X156867664Y-99798793D01*
X156867671Y-99798797D01*
X157002517Y-99849091D01*
X157002516Y-99849091D01*
X157009444Y-99849835D01*
X157062127Y-99855500D01*
X160091987Y-99855499D01*
X160159026Y-99875184D01*
X160204781Y-99927988D01*
X160211978Y-99953960D01*
X160213080Y-99953709D01*
X160214629Y-99960496D01*
X160274210Y-100130771D01*
X160274211Y-100130772D01*
X160370184Y-100283512D01*
X160497738Y-100411066D01*
X160650478Y-100507039D01*
X160666954Y-100512804D01*
X160723730Y-100553525D01*
X160749478Y-100618478D01*
X160750000Y-100629846D01*
X160750000Y-112107910D01*
X160730315Y-112174949D01*
X160677511Y-112220704D01*
X160608353Y-112230648D01*
X160582669Y-112224093D01*
X160577481Y-112222158D01*
X160577483Y-112222158D01*
X160517883Y-112215751D01*
X160517881Y-112215750D01*
X160517873Y-112215750D01*
X160517864Y-112215750D01*
X157062129Y-112215750D01*
X157062123Y-112215751D01*
X157002516Y-112222158D01*
X156867671Y-112272452D01*
X156867664Y-112272456D01*
X156752455Y-112358702D01*
X156752452Y-112358705D01*
X156666206Y-112473914D01*
X156666202Y-112473921D01*
X156615908Y-112608767D01*
X156609501Y-112668366D01*
X156609500Y-112668385D01*
X156609500Y-113894120D01*
X156609501Y-113894126D01*
X156615908Y-113953733D01*
X156666202Y-114088578D01*
X156666206Y-114088585D01*
X156752452Y-114203794D01*
X156752455Y-114203797D01*
X156867664Y-114290043D01*
X156867671Y-114290047D01*
X157002517Y-114340341D01*
X157002516Y-114340341D01*
X157009444Y-114341085D01*
X157062127Y-114346750D01*
X160313989Y-114346749D01*
X160346082Y-114350974D01*
X160406023Y-114367034D01*
X160439067Y-114375889D01*
X160494655Y-114407983D01*
X160497738Y-114411066D01*
X160650478Y-114507039D01*
X160666954Y-114512804D01*
X160723730Y-114553525D01*
X160749478Y-114618478D01*
X160750000Y-114629846D01*
X160750000Y-130981035D01*
X160749721Y-130989347D01*
X160732587Y-131244389D01*
X160730364Y-131260863D01*
X160680101Y-131507250D01*
X160675694Y-131523277D01*
X160592933Y-131760712D01*
X160586422Y-131776008D01*
X160472637Y-132000257D01*
X160464138Y-132014543D01*
X160321389Y-132221546D01*
X160311056Y-132234567D01*
X160141904Y-132420615D01*
X160129922Y-132432138D01*
X159934204Y-132596578D01*
X159927661Y-132601711D01*
X157959398Y-134041903D01*
X157893671Y-134065604D01*
X157893129Y-134065636D01*
X157826688Y-134069367D01*
X157482818Y-134127793D01*
X157482809Y-134127795D01*
X157147649Y-134224353D01*
X156825398Y-134357832D01*
X156825394Y-134357834D01*
X156520111Y-134526559D01*
X156235635Y-134728405D01*
X155975561Y-134960823D01*
X155975558Y-134960826D01*
X155743140Y-135220900D01*
X155541294Y-135505376D01*
X155372570Y-135810658D01*
X155312139Y-135956550D01*
X155270801Y-136009169D01*
X151318990Y-138900737D01*
X151318971Y-138900752D01*
X150500000Y-139500000D01*
X150500000Y-140514789D01*
X150500000Y-148306750D01*
X150480315Y-148373789D01*
X150427511Y-148419544D01*
X150376000Y-148430750D01*
X134848765Y-148430750D01*
X134781726Y-148411065D01*
X134735971Y-148358261D01*
X134724773Y-148308157D01*
X134584613Y-135956550D01*
X134523084Y-130534323D01*
X134523304Y-130525426D01*
X134539973Y-130251289D01*
X134542337Y-130233591D01*
X134597302Y-129969080D01*
X134602186Y-129951901D01*
X134694574Y-129698045D01*
X134701871Y-129681752D01*
X134829778Y-129443780D01*
X134839337Y-129428711D01*
X135000106Y-129211579D01*
X135011724Y-129198046D01*
X135107460Y-129101561D01*
X135202013Y-129006269D01*
X135215472Y-128994531D01*
X135350722Y-128892745D01*
X135431330Y-128832081D01*
X135446320Y-128822407D01*
X135683289Y-128692645D01*
X135699513Y-128685225D01*
X135952671Y-128590849D01*
X135969802Y-128585836D01*
X135975805Y-128584539D01*
X136001961Y-128581750D01*
X145563331Y-128581750D01*
X145563347Y-128581751D01*
X145570943Y-128581751D01*
X145729054Y-128581751D01*
X145729057Y-128581751D01*
X145881785Y-128540827D01*
X145931904Y-128511889D01*
X146018716Y-128461770D01*
X146130520Y-128349966D01*
X146130521Y-128349964D01*
X146480520Y-127999966D01*
X146559577Y-127863034D01*
X146561959Y-127854142D01*
X146598320Y-127794483D01*
X146602643Y-127790732D01*
X153000000Y-122500000D01*
X153000000Y-117454372D01*
X153001262Y-117436725D01*
X153005500Y-117407250D01*
X153005500Y-67458776D01*
X153005816Y-67449930D01*
X153019724Y-67255464D01*
X153022240Y-67237960D01*
X153079130Y-66976442D01*
X153084107Y-66959491D01*
X153177640Y-66708720D01*
X153184985Y-66692638D01*
X153313248Y-66457741D01*
X153322798Y-66442880D01*
X153483195Y-66228616D01*
X153494767Y-66215262D01*
X153684012Y-66026017D01*
X153697366Y-66014445D01*
X153911630Y-65854048D01*
X153926491Y-65844498D01*
X154161388Y-65716235D01*
X154177470Y-65708890D01*
X154428241Y-65615357D01*
X154445192Y-65610380D01*
X154706710Y-65553490D01*
X154724207Y-65550974D01*
X154988591Y-65532066D01*
X154997437Y-65531750D01*
X158752563Y-65531750D01*
X158761409Y-65532066D01*
G37*
%TD.AperFunction*%
%TD*%
%TA.AperFunction,Conductor*%
%TO.N,/+BATT OUT*%
G36*
X129678559Y-65551435D02*
G01*
X129724314Y-65604239D01*
X129734258Y-65673397D01*
X129705233Y-65736953D01*
X129673519Y-65763138D01*
X129662535Y-65769479D01*
X129662532Y-65769481D01*
X129149481Y-66282532D01*
X129149477Y-66282537D01*
X129122621Y-66329056D01*
X129122620Y-66329058D01*
X129070423Y-66419465D01*
X129029499Y-66572193D01*
X129029499Y-66572195D01*
X129029499Y-66740296D01*
X129029500Y-66740309D01*
X129029500Y-67801750D01*
X129009815Y-67868789D01*
X128957011Y-67914544D01*
X128905500Y-67925750D01*
X127902129Y-67925750D01*
X127902123Y-67925751D01*
X127842516Y-67932158D01*
X127707671Y-67982452D01*
X127707664Y-67982456D01*
X127592455Y-68068702D01*
X127592452Y-68068705D01*
X127506206Y-68183914D01*
X127506202Y-68183921D01*
X127455908Y-68318767D01*
X127449501Y-68378366D01*
X127449501Y-68378373D01*
X127449500Y-68378385D01*
X127449500Y-69604120D01*
X127449501Y-69604126D01*
X127455908Y-69663733D01*
X127506202Y-69798578D01*
X127506206Y-69798585D01*
X127592452Y-69913794D01*
X127592455Y-69913797D01*
X127707664Y-70000043D01*
X127707671Y-70000047D01*
X127842517Y-70050341D01*
X127842516Y-70050341D01*
X127849444Y-70051085D01*
X127902127Y-70056750D01*
X131357872Y-70056749D01*
X131417483Y-70050341D01*
X131552331Y-70000046D01*
X131667546Y-69913796D01*
X131753796Y-69798581D01*
X131804091Y-69663733D01*
X131810500Y-69604123D01*
X131810499Y-68378378D01*
X131804091Y-68318767D01*
X131753796Y-68183919D01*
X131753795Y-68183918D01*
X131753793Y-68183914D01*
X131667547Y-68068705D01*
X131667544Y-68068702D01*
X131552335Y-67982456D01*
X131552328Y-67982452D01*
X131417482Y-67932158D01*
X131417483Y-67932158D01*
X131357883Y-67925751D01*
X131357881Y-67925750D01*
X131357873Y-67925750D01*
X131357865Y-67925750D01*
X130354500Y-67925750D01*
X130287461Y-67906065D01*
X130241706Y-67853261D01*
X130230500Y-67801750D01*
X130230500Y-66974500D01*
X130250185Y-66907461D01*
X130302989Y-66861706D01*
X130354500Y-66850500D01*
X135167588Y-66850500D01*
X135234627Y-66870185D01*
X135244903Y-66877555D01*
X135247736Y-66879814D01*
X135247738Y-66879816D01*
X135291735Y-66907461D01*
X135398426Y-66974500D01*
X135400478Y-66975789D01*
X135505498Y-67012537D01*
X135570745Y-67035368D01*
X135570750Y-67035369D01*
X135749996Y-67055565D01*
X135750000Y-67055565D01*
X135750002Y-67055565D01*
X135790116Y-67051045D01*
X135856617Y-67043552D01*
X135925438Y-67055606D01*
X135976817Y-67102955D01*
X135994500Y-67166772D01*
X135994500Y-81615490D01*
X135974815Y-81682529D01*
X135922011Y-81728284D01*
X135884385Y-81738710D01*
X135820750Y-81745880D01*
X135650478Y-81805460D01*
X135497737Y-81901434D01*
X135474741Y-81924431D01*
X135413418Y-81957916D01*
X135387060Y-81960750D01*
X131917034Y-81960750D01*
X131849995Y-81941065D01*
X131804240Y-81888261D01*
X131800852Y-81880083D01*
X131753797Y-81753921D01*
X131753793Y-81753914D01*
X131667547Y-81638705D01*
X131667544Y-81638702D01*
X131552335Y-81552456D01*
X131552328Y-81552452D01*
X131417482Y-81502158D01*
X131417483Y-81502158D01*
X131357883Y-81495751D01*
X131357881Y-81495750D01*
X131357873Y-81495750D01*
X131357864Y-81495750D01*
X127902129Y-81495750D01*
X127902123Y-81495751D01*
X127842516Y-81502158D01*
X127707671Y-81552452D01*
X127707664Y-81552456D01*
X127592455Y-81638702D01*
X127592452Y-81638705D01*
X127506206Y-81753914D01*
X127506202Y-81753921D01*
X127455908Y-81888767D01*
X127449501Y-81948366D01*
X127449500Y-81948385D01*
X127449500Y-83174120D01*
X127449501Y-83174126D01*
X127455908Y-83233733D01*
X127506202Y-83368578D01*
X127506206Y-83368585D01*
X127592452Y-83483794D01*
X127592455Y-83483797D01*
X127707664Y-83570043D01*
X127707671Y-83570047D01*
X127842517Y-83620341D01*
X127842516Y-83620341D01*
X127849444Y-83621085D01*
X127902127Y-83626750D01*
X131357872Y-83626749D01*
X131417483Y-83620341D01*
X131552331Y-83570046D01*
X131667546Y-83483796D01*
X131753796Y-83368581D01*
X131800852Y-83242416D01*
X131842723Y-83186483D01*
X131908187Y-83162066D01*
X131917034Y-83161750D01*
X135463103Y-83161750D01*
X135529074Y-83180755D01*
X135650478Y-83257039D01*
X135820745Y-83316618D01*
X135884385Y-83323788D01*
X135948796Y-83350853D01*
X135988352Y-83408448D01*
X135994500Y-83447008D01*
X135994500Y-93115490D01*
X135974815Y-93182529D01*
X135922011Y-93228284D01*
X135884385Y-93238710D01*
X135820750Y-93245880D01*
X135650478Y-93305460D01*
X135497739Y-93401433D01*
X135404740Y-93494432D01*
X135343416Y-93527916D01*
X135317059Y-93530750D01*
X131934499Y-93530750D01*
X131867460Y-93511065D01*
X131821705Y-93458261D01*
X131810499Y-93406750D01*
X131810499Y-93097129D01*
X131810498Y-93097123D01*
X131810497Y-93097116D01*
X131804091Y-93037517D01*
X131753796Y-92902669D01*
X131753795Y-92902668D01*
X131753793Y-92902664D01*
X131667547Y-92787455D01*
X131667544Y-92787452D01*
X131552335Y-92701206D01*
X131552328Y-92701202D01*
X131417482Y-92650908D01*
X131417483Y-92650908D01*
X131357883Y-92644501D01*
X131357881Y-92644500D01*
X131357873Y-92644500D01*
X131357864Y-92644500D01*
X127902129Y-92644500D01*
X127902123Y-92644501D01*
X127842516Y-92650908D01*
X127707671Y-92701202D01*
X127707664Y-92701206D01*
X127592455Y-92787452D01*
X127592452Y-92787455D01*
X127506206Y-92902664D01*
X127506202Y-92902671D01*
X127455908Y-93037517D01*
X127449501Y-93097116D01*
X127449501Y-93097123D01*
X127449500Y-93097135D01*
X127449500Y-94322870D01*
X127449501Y-94322876D01*
X127455908Y-94382483D01*
X127506202Y-94517328D01*
X127506206Y-94517335D01*
X127592452Y-94632544D01*
X127592455Y-94632547D01*
X127707664Y-94718793D01*
X127707671Y-94718797D01*
X127842517Y-94769091D01*
X127842516Y-94769091D01*
X127849444Y-94769835D01*
X127902127Y-94775500D01*
X131357872Y-94775499D01*
X131417483Y-94769091D01*
X131449801Y-94757037D01*
X131496638Y-94739568D01*
X131539971Y-94731750D01*
X135574506Y-94731750D01*
X135640477Y-94750756D01*
X135650474Y-94757037D01*
X135650475Y-94757037D01*
X135650478Y-94757039D01*
X135820745Y-94816618D01*
X135884385Y-94823788D01*
X135948796Y-94850853D01*
X135988352Y-94908448D01*
X135994500Y-94947008D01*
X135994500Y-107365490D01*
X135974815Y-107432529D01*
X135922011Y-107478284D01*
X135884385Y-107488710D01*
X135820750Y-107495880D01*
X135650476Y-107555461D01*
X135608650Y-107581743D01*
X135542677Y-107600750D01*
X131917034Y-107600750D01*
X131849995Y-107581065D01*
X131804240Y-107528261D01*
X131800852Y-107520083D01*
X131753797Y-107393921D01*
X131753793Y-107393914D01*
X131667547Y-107278705D01*
X131667544Y-107278702D01*
X131552335Y-107192456D01*
X131552328Y-107192452D01*
X131417482Y-107142158D01*
X131417483Y-107142158D01*
X131357883Y-107135751D01*
X131357881Y-107135750D01*
X131357873Y-107135750D01*
X131357864Y-107135750D01*
X127902129Y-107135750D01*
X127902123Y-107135751D01*
X127842516Y-107142158D01*
X127707671Y-107192452D01*
X127707664Y-107192456D01*
X127592455Y-107278702D01*
X127592452Y-107278705D01*
X127506206Y-107393914D01*
X127506202Y-107393921D01*
X127455908Y-107528767D01*
X127449501Y-107588366D01*
X127449500Y-107588385D01*
X127449500Y-108814120D01*
X127449501Y-108814126D01*
X127455908Y-108873733D01*
X127506202Y-109008578D01*
X127506206Y-109008585D01*
X127592452Y-109123794D01*
X127592455Y-109123797D01*
X127707664Y-109210043D01*
X127707671Y-109210047D01*
X127842517Y-109260341D01*
X127842516Y-109260341D01*
X127849444Y-109261085D01*
X127902127Y-109266750D01*
X131357872Y-109266749D01*
X131417483Y-109260341D01*
X131552331Y-109210046D01*
X131667546Y-109123796D01*
X131753796Y-109008581D01*
X131800852Y-108882416D01*
X131842723Y-108826483D01*
X131908187Y-108802066D01*
X131917034Y-108801750D01*
X135275500Y-108801750D01*
X135342539Y-108821435D01*
X135388294Y-108874239D01*
X135399500Y-108925750D01*
X135399500Y-116944580D01*
X135399499Y-116944598D01*
X135399499Y-117110304D01*
X135399498Y-117110304D01*
X135440424Y-117263039D01*
X135440425Y-117263040D01*
X135462186Y-117300730D01*
X135462187Y-117300732D01*
X135519475Y-117399959D01*
X135519481Y-117399967D01*
X135638349Y-117518835D01*
X135638355Y-117518840D01*
X136265139Y-118145624D01*
X136265149Y-118145635D01*
X136269479Y-118149965D01*
X136269480Y-118149966D01*
X136381284Y-118261770D01*
X136468095Y-118311889D01*
X136468097Y-118311891D01*
X136506151Y-118333861D01*
X136518215Y-118340827D01*
X136670943Y-118381750D01*
X145275500Y-118381750D01*
X145342539Y-118401435D01*
X145388294Y-118454239D01*
X145399500Y-118505750D01*
X145399500Y-127256750D01*
X145379815Y-127323789D01*
X145327011Y-127369544D01*
X145275500Y-127380750D01*
X126820940Y-127380750D01*
X126780019Y-127391714D01*
X126780019Y-127391715D01*
X126742751Y-127401701D01*
X126668214Y-127421673D01*
X126668209Y-127421676D01*
X126531289Y-127500725D01*
X126524908Y-127505623D01*
X126459740Y-127530820D01*
X126449418Y-127531250D01*
X125374500Y-127531250D01*
X125307461Y-127511565D01*
X125261706Y-127458761D01*
X125250500Y-127407250D01*
X125250500Y-65655750D01*
X125270185Y-65588711D01*
X125322989Y-65542956D01*
X125374500Y-65531750D01*
X129611520Y-65531750D01*
X129678559Y-65551435D01*
G37*
%TD.AperFunction*%
%TD*%
M02*
