%TF.GenerationSoftware,KiCad,Pcbnew,8.0.3*%
%TF.CreationDate,2024-11-12T13:20:17+01:00*%
%TF.ProjectId,BMU v1,424d5520-7631-42e6-9b69-6361645f7063,rev?*%
%TF.SameCoordinates,Original*%
%TF.FileFunction,Other,Comment*%
%FSLAX46Y46*%
G04 Gerber Fmt 4.6, Leading zero omitted, Abs format (unit mm)*
G04 Created by KiCad (PCBNEW 8.0.3) date 2024-11-12 13:20:17*
%MOMM*%
%LPD*%
G01*
G04 APERTURE LIST*
%ADD10C,0.150000*%
%ADD11C,0.600000*%
%ADD12C,1.600000*%
%ADD13C,0.200000*%
%ADD14C,0.300000*%
G04 APERTURE END LIST*
D10*
%TO.C,H8*%
X182280000Y-94029000D02*
G75*
G02*
X172280000Y-94029000I-5000000J0D01*
G01*
X172280000Y-94029000D02*
G75*
G02*
X182280000Y-94029000I5000000J0D01*
G01*
%TO.C,H11*%
X177800000Y-122000000D02*
G75*
G02*
X171400000Y-122000000I-3200000J0D01*
G01*
X171400000Y-122000000D02*
G75*
G02*
X177800000Y-122000000I3200000J0D01*
G01*
%TO.C,H4*%
X182280000Y-109754000D02*
G75*
G02*
X172280000Y-109754000I-5000000J0D01*
G01*
X172280000Y-109754000D02*
G75*
G02*
X182280000Y-109754000I5000000J0D01*
G01*
%TO.C,H14*%
X167800000Y-122000000D02*
G75*
G02*
X162200000Y-122000000I-2800000J0D01*
G01*
X162200000Y-122000000D02*
G75*
G02*
X167800000Y-122000000I2800000J0D01*
G01*
%TO.C,H1*%
X62900000Y-109500000D02*
G75*
G02*
X52900000Y-109500000I-5000000J0D01*
G01*
X52900000Y-109500000D02*
G75*
G02*
X62900000Y-109500000I5000000J0D01*
G01*
D11*
%TO.C,R47*%
X186540000Y-84430000D02*
G75*
G02*
X185940000Y-84430000I-300000J0D01*
G01*
X185940000Y-84430000D02*
G75*
G02*
X186540000Y-84430000I300000J0D01*
G01*
D10*
%TO.C,H9*%
X27800000Y-94000000D02*
G75*
G02*
X22200000Y-94000000I-2800000J0D01*
G01*
X22200000Y-94000000D02*
G75*
G02*
X27800000Y-94000000I2800000J0D01*
G01*
D12*
%TO.C,J1*%
X18226000Y-30988000D02*
G75*
G02*
X16626000Y-30988000I-800000J0D01*
G01*
X16626000Y-30988000D02*
G75*
G02*
X18226000Y-30988000I800000J0D01*
G01*
X31026000Y-30988000D02*
G75*
G02*
X29426000Y-30988000I-800000J0D01*
G01*
X29426000Y-30988000D02*
G75*
G02*
X31026000Y-30988000I800000J0D01*
G01*
D10*
%TO.C,H13*%
X167800000Y-57000000D02*
G75*
G02*
X162200000Y-57000000I-2800000J0D01*
G01*
X162200000Y-57000000D02*
G75*
G02*
X167800000Y-57000000I2800000J0D01*
G01*
%TO.C,H10*%
X27800000Y-57000000D02*
G75*
G02*
X22200000Y-57000000I-2800000J0D01*
G01*
X22200000Y-57000000D02*
G75*
G02*
X27800000Y-57000000I2800000J0D01*
G01*
D12*
%TO.C,J2*%
X37597000Y-30988000D02*
G75*
G02*
X35997000Y-30988000I-800000J0D01*
G01*
X35997000Y-30988000D02*
G75*
G02*
X37597000Y-30988000I800000J0D01*
G01*
X50397000Y-30988000D02*
G75*
G02*
X48797000Y-30988000I-800000J0D01*
G01*
X48797000Y-30988000D02*
G75*
G02*
X50397000Y-30988000I800000J0D01*
G01*
D10*
%TO.C,H3*%
X142910000Y-109754000D02*
G75*
G02*
X132910000Y-109754000I-5000000J0D01*
G01*
X132910000Y-109754000D02*
G75*
G02*
X142910000Y-109754000I5000000J0D01*
G01*
D13*
%TO.C,U8*%
X36624652Y-47482102D02*
G75*
G02*
X36424652Y-47482102I-100000J0D01*
G01*
X36424652Y-47482102D02*
G75*
G02*
X36624652Y-47482102I100000J0D01*
G01*
D14*
%TO.C,U4*%
X24170000Y-45690000D02*
G75*
G02*
X23870000Y-45690000I-150000J0D01*
G01*
X23870000Y-45690000D02*
G75*
G02*
X24170000Y-45690000I150000J0D01*
G01*
D10*
%TO.C,H13*%
X167800000Y-30000000D02*
G75*
G02*
X162200000Y-30000000I-2800000J0D01*
G01*
X162200000Y-30000000D02*
G75*
G02*
X167800000Y-30000000I2800000J0D01*
G01*
D11*
%TO.C,R46*%
X147790000Y-84430000D02*
G75*
G02*
X147190000Y-84430000I-300000J0D01*
G01*
X147190000Y-84430000D02*
G75*
G02*
X147790000Y-84430000I300000J0D01*
G01*
%TO.C,R1*%
X67340000Y-84005000D02*
G75*
G02*
X66740000Y-84005000I-300000J0D01*
G01*
X66740000Y-84005000D02*
G75*
G02*
X67340000Y-84005000I300000J0D01*
G01*
D10*
%TO.C,H5*%
X62900000Y-93775000D02*
G75*
G02*
X52900000Y-93775000I-5000000J0D01*
G01*
X52900000Y-93775000D02*
G75*
G02*
X62900000Y-93775000I5000000J0D01*
G01*
%TO.C,H12*%
X177800000Y-65000000D02*
G75*
G02*
X171400000Y-65000000I-3200000J0D01*
G01*
X171400000Y-65000000D02*
G75*
G02*
X177800000Y-65000000I3200000J0D01*
G01*
D11*
%TO.C,R8*%
X107790000Y-84180000D02*
G75*
G02*
X107190000Y-84180000I-300000J0D01*
G01*
X107190000Y-84180000D02*
G75*
G02*
X107790000Y-84180000I300000J0D01*
G01*
D10*
%TO.C,H7*%
X142910000Y-94029000D02*
G75*
G02*
X132910000Y-94029000I-5000000J0D01*
G01*
X132910000Y-94029000D02*
G75*
G02*
X142910000Y-94029000I5000000J0D01*
G01*
%TO.C,H6*%
X103762000Y-94029000D02*
G75*
G02*
X93762000Y-94029000I-5000000J0D01*
G01*
X93762000Y-94029000D02*
G75*
G02*
X103762000Y-94029000I5000000J0D01*
G01*
%TO.C,H2*%
X103762000Y-109754000D02*
G75*
G02*
X93762000Y-109754000I-5000000J0D01*
G01*
X93762000Y-109754000D02*
G75*
G02*
X103762000Y-109754000I5000000J0D01*
G01*
%TD*%
M02*
