%TF.GenerationSoftware,KiCad,Pcbnew,8.0.3*%
%TF.CreationDate,2024-11-12T13:20:17+01:00*%
%TF.ProjectId,BMU v1,424d5520-7631-42e6-9b69-6361645f7063,rev?*%
%TF.SameCoordinates,Original*%
%TF.FileFunction,Profile,NP*%
%FSLAX46Y46*%
G04 Gerber Fmt 4.6, Leading zero omitted, Abs format (unit mm)*
G04 Created by KiCad (PCBNEW 8.0.3) date 2024-11-12 13:20:17*
%MOMM*%
%LPD*%
G01*
G04 APERTURE LIST*
%TA.AperFunction,Profile*%
%ADD10C,0.100000*%
%TD*%
%ADD11C,0.150000*%
G04 APERTURE END LIST*
D10*
X12000000Y-24500000D02*
X205500000Y-24500000D01*
X205500000Y-129500000D01*
X12000000Y-129500000D01*
X12000000Y-24500000D01*
D11*
X236304819Y-81523809D02*
X236304819Y-82095237D01*
X236304819Y-81809523D02*
X235304819Y-81809523D01*
X235304819Y-81809523D02*
X235447676Y-81904761D01*
X235447676Y-81904761D02*
X235542914Y-81999999D01*
X235542914Y-81999999D02*
X235590533Y-82095237D01*
X235304819Y-80904761D02*
X235304819Y-80809523D01*
X235304819Y-80809523D02*
X235352438Y-80714285D01*
X235352438Y-80714285D02*
X235400057Y-80666666D01*
X235400057Y-80666666D02*
X235495295Y-80619047D01*
X235495295Y-80619047D02*
X235685771Y-80571428D01*
X235685771Y-80571428D02*
X235923866Y-80571428D01*
X235923866Y-80571428D02*
X236114342Y-80619047D01*
X236114342Y-80619047D02*
X236209580Y-80666666D01*
X236209580Y-80666666D02*
X236257200Y-80714285D01*
X236257200Y-80714285D02*
X236304819Y-80809523D01*
X236304819Y-80809523D02*
X236304819Y-80904761D01*
X236304819Y-80904761D02*
X236257200Y-80999999D01*
X236257200Y-80999999D02*
X236209580Y-81047618D01*
X236209580Y-81047618D02*
X236114342Y-81095237D01*
X236114342Y-81095237D02*
X235923866Y-81142856D01*
X235923866Y-81142856D02*
X235685771Y-81142856D01*
X235685771Y-81142856D02*
X235495295Y-81095237D01*
X235495295Y-81095237D02*
X235400057Y-81047618D01*
X235400057Y-81047618D02*
X235352438Y-80999999D01*
X235352438Y-80999999D02*
X235304819Y-80904761D01*
X235304819Y-79666666D02*
X235304819Y-80142856D01*
X235304819Y-80142856D02*
X235781009Y-80190475D01*
X235781009Y-80190475D02*
X235733390Y-80142856D01*
X235733390Y-80142856D02*
X235685771Y-80047618D01*
X235685771Y-80047618D02*
X235685771Y-79809523D01*
X235685771Y-79809523D02*
X235733390Y-79714285D01*
X235733390Y-79714285D02*
X235781009Y-79666666D01*
X235781009Y-79666666D02*
X235876247Y-79619047D01*
X235876247Y-79619047D02*
X236114342Y-79619047D01*
X236114342Y-79619047D02*
X236209580Y-79666666D01*
X236209580Y-79666666D02*
X236257200Y-79714285D01*
X236257200Y-79714285D02*
X236304819Y-79809523D01*
X236304819Y-79809523D02*
X236304819Y-80047618D01*
X236304819Y-80047618D02*
X236257200Y-80142856D01*
X236257200Y-80142856D02*
X236209580Y-80190475D01*
X236209580Y-79190475D02*
X236257200Y-79142856D01*
X236257200Y-79142856D02*
X236304819Y-79190475D01*
X236304819Y-79190475D02*
X236257200Y-79238094D01*
X236257200Y-79238094D02*
X236209580Y-79190475D01*
X236209580Y-79190475D02*
X236304819Y-79190475D01*
X235304819Y-78523809D02*
X235304819Y-78428571D01*
X235304819Y-78428571D02*
X235352438Y-78333333D01*
X235352438Y-78333333D02*
X235400057Y-78285714D01*
X235400057Y-78285714D02*
X235495295Y-78238095D01*
X235495295Y-78238095D02*
X235685771Y-78190476D01*
X235685771Y-78190476D02*
X235923866Y-78190476D01*
X235923866Y-78190476D02*
X236114342Y-78238095D01*
X236114342Y-78238095D02*
X236209580Y-78285714D01*
X236209580Y-78285714D02*
X236257200Y-78333333D01*
X236257200Y-78333333D02*
X236304819Y-78428571D01*
X236304819Y-78428571D02*
X236304819Y-78523809D01*
X236304819Y-78523809D02*
X236257200Y-78619047D01*
X236257200Y-78619047D02*
X236209580Y-78666666D01*
X236209580Y-78666666D02*
X236114342Y-78714285D01*
X236114342Y-78714285D02*
X235923866Y-78761904D01*
X235923866Y-78761904D02*
X235685771Y-78761904D01*
X235685771Y-78761904D02*
X235495295Y-78714285D01*
X235495295Y-78714285D02*
X235400057Y-78666666D01*
X235400057Y-78666666D02*
X235352438Y-78619047D01*
X235352438Y-78619047D02*
X235304819Y-78523809D01*
X235304819Y-77571428D02*
X235304819Y-77476190D01*
X235304819Y-77476190D02*
X235352438Y-77380952D01*
X235352438Y-77380952D02*
X235400057Y-77333333D01*
X235400057Y-77333333D02*
X235495295Y-77285714D01*
X235495295Y-77285714D02*
X235685771Y-77238095D01*
X235685771Y-77238095D02*
X235923866Y-77238095D01*
X235923866Y-77238095D02*
X236114342Y-77285714D01*
X236114342Y-77285714D02*
X236209580Y-77333333D01*
X236209580Y-77333333D02*
X236257200Y-77380952D01*
X236257200Y-77380952D02*
X236304819Y-77476190D01*
X236304819Y-77476190D02*
X236304819Y-77571428D01*
X236304819Y-77571428D02*
X236257200Y-77666666D01*
X236257200Y-77666666D02*
X236209580Y-77714285D01*
X236209580Y-77714285D02*
X236114342Y-77761904D01*
X236114342Y-77761904D02*
X235923866Y-77809523D01*
X235923866Y-77809523D02*
X235685771Y-77809523D01*
X235685771Y-77809523D02*
X235495295Y-77761904D01*
X235495295Y-77761904D02*
X235400057Y-77714285D01*
X235400057Y-77714285D02*
X235352438Y-77666666D01*
X235352438Y-77666666D02*
X235304819Y-77571428D01*
X235304819Y-76619047D02*
X235304819Y-76523809D01*
X235304819Y-76523809D02*
X235352438Y-76428571D01*
X235352438Y-76428571D02*
X235400057Y-76380952D01*
X235400057Y-76380952D02*
X235495295Y-76333333D01*
X235495295Y-76333333D02*
X235685771Y-76285714D01*
X235685771Y-76285714D02*
X235923866Y-76285714D01*
X235923866Y-76285714D02*
X236114342Y-76333333D01*
X236114342Y-76333333D02*
X236209580Y-76380952D01*
X236209580Y-76380952D02*
X236257200Y-76428571D01*
X236257200Y-76428571D02*
X236304819Y-76523809D01*
X236304819Y-76523809D02*
X236304819Y-76619047D01*
X236304819Y-76619047D02*
X236257200Y-76714285D01*
X236257200Y-76714285D02*
X236209580Y-76761904D01*
X236209580Y-76761904D02*
X236114342Y-76809523D01*
X236114342Y-76809523D02*
X235923866Y-76857142D01*
X235923866Y-76857142D02*
X235685771Y-76857142D01*
X235685771Y-76857142D02*
X235495295Y-76809523D01*
X235495295Y-76809523D02*
X235400057Y-76761904D01*
X235400057Y-76761904D02*
X235352438Y-76714285D01*
X235352438Y-76714285D02*
X235304819Y-76619047D01*
X235304819Y-75666666D02*
X235304819Y-75571428D01*
X235304819Y-75571428D02*
X235352438Y-75476190D01*
X235352438Y-75476190D02*
X235400057Y-75428571D01*
X235400057Y-75428571D02*
X235495295Y-75380952D01*
X235495295Y-75380952D02*
X235685771Y-75333333D01*
X235685771Y-75333333D02*
X235923866Y-75333333D01*
X235923866Y-75333333D02*
X236114342Y-75380952D01*
X236114342Y-75380952D02*
X236209580Y-75428571D01*
X236209580Y-75428571D02*
X236257200Y-75476190D01*
X236257200Y-75476190D02*
X236304819Y-75571428D01*
X236304819Y-75571428D02*
X236304819Y-75666666D01*
X236304819Y-75666666D02*
X236257200Y-75761904D01*
X236257200Y-75761904D02*
X236209580Y-75809523D01*
X236209580Y-75809523D02*
X236114342Y-75857142D01*
X236114342Y-75857142D02*
X235923866Y-75904761D01*
X235923866Y-75904761D02*
X235685771Y-75904761D01*
X235685771Y-75904761D02*
X235495295Y-75857142D01*
X235495295Y-75857142D02*
X235400057Y-75809523D01*
X235400057Y-75809523D02*
X235352438Y-75761904D01*
X235352438Y-75761904D02*
X235304819Y-75666666D01*
X236304819Y-74142856D02*
X235638152Y-74142856D01*
X235733390Y-74142856D02*
X235685771Y-74095237D01*
X235685771Y-74095237D02*
X235638152Y-73999999D01*
X235638152Y-73999999D02*
X235638152Y-73857142D01*
X235638152Y-73857142D02*
X235685771Y-73761904D01*
X235685771Y-73761904D02*
X235781009Y-73714285D01*
X235781009Y-73714285D02*
X236304819Y-73714285D01*
X235781009Y-73714285D02*
X235685771Y-73666666D01*
X235685771Y-73666666D02*
X235638152Y-73571428D01*
X235638152Y-73571428D02*
X235638152Y-73428571D01*
X235638152Y-73428571D02*
X235685771Y-73333332D01*
X235685771Y-73333332D02*
X235781009Y-73285713D01*
X235781009Y-73285713D02*
X236304819Y-73285713D01*
X236304819Y-72809523D02*
X235638152Y-72809523D01*
X235733390Y-72809523D02*
X235685771Y-72761904D01*
X235685771Y-72761904D02*
X235638152Y-72666666D01*
X235638152Y-72666666D02*
X235638152Y-72523809D01*
X235638152Y-72523809D02*
X235685771Y-72428571D01*
X235685771Y-72428571D02*
X235781009Y-72380952D01*
X235781009Y-72380952D02*
X236304819Y-72380952D01*
X235781009Y-72380952D02*
X235685771Y-72333333D01*
X235685771Y-72333333D02*
X235638152Y-72238095D01*
X235638152Y-72238095D02*
X235638152Y-72095238D01*
X235638152Y-72095238D02*
X235685771Y-71999999D01*
X235685771Y-71999999D02*
X235781009Y-71952380D01*
X235781009Y-71952380D02*
X236304819Y-71952380D01*
D10*
X206000000Y-24500000D02*
X237586420Y-24500000D01*
X206000000Y-129500000D02*
X237586420Y-129500000D01*
X237000000Y-24500000D02*
X237000000Y-129500000D01*
X237000000Y-24500000D02*
X237000000Y-129500000D01*
X237000000Y-24500000D02*
X237586421Y-25626504D01*
X237000000Y-24500000D02*
X236413579Y-25626504D01*
X237000000Y-129500000D02*
X236413579Y-128373496D01*
X237000000Y-129500000D02*
X237586421Y-128373496D01*
D11*
X104226190Y-142804819D02*
X103654762Y-142804819D01*
X103940476Y-142804819D02*
X103940476Y-141804819D01*
X103940476Y-141804819D02*
X103845238Y-141947676D01*
X103845238Y-141947676D02*
X103750000Y-142042914D01*
X103750000Y-142042914D02*
X103654762Y-142090533D01*
X104702381Y-142804819D02*
X104892857Y-142804819D01*
X104892857Y-142804819D02*
X104988095Y-142757200D01*
X104988095Y-142757200D02*
X105035714Y-142709580D01*
X105035714Y-142709580D02*
X105130952Y-142566723D01*
X105130952Y-142566723D02*
X105178571Y-142376247D01*
X105178571Y-142376247D02*
X105178571Y-141995295D01*
X105178571Y-141995295D02*
X105130952Y-141900057D01*
X105130952Y-141900057D02*
X105083333Y-141852438D01*
X105083333Y-141852438D02*
X104988095Y-141804819D01*
X104988095Y-141804819D02*
X104797619Y-141804819D01*
X104797619Y-141804819D02*
X104702381Y-141852438D01*
X104702381Y-141852438D02*
X104654762Y-141900057D01*
X104654762Y-141900057D02*
X104607143Y-141995295D01*
X104607143Y-141995295D02*
X104607143Y-142233390D01*
X104607143Y-142233390D02*
X104654762Y-142328628D01*
X104654762Y-142328628D02*
X104702381Y-142376247D01*
X104702381Y-142376247D02*
X104797619Y-142423866D01*
X104797619Y-142423866D02*
X104988095Y-142423866D01*
X104988095Y-142423866D02*
X105083333Y-142376247D01*
X105083333Y-142376247D02*
X105130952Y-142328628D01*
X105130952Y-142328628D02*
X105178571Y-142233390D01*
X105511905Y-141804819D02*
X106130952Y-141804819D01*
X106130952Y-141804819D02*
X105797619Y-142185771D01*
X105797619Y-142185771D02*
X105940476Y-142185771D01*
X105940476Y-142185771D02*
X106035714Y-142233390D01*
X106035714Y-142233390D02*
X106083333Y-142281009D01*
X106083333Y-142281009D02*
X106130952Y-142376247D01*
X106130952Y-142376247D02*
X106130952Y-142614342D01*
X106130952Y-142614342D02*
X106083333Y-142709580D01*
X106083333Y-142709580D02*
X106035714Y-142757200D01*
X106035714Y-142757200D02*
X105940476Y-142804819D01*
X105940476Y-142804819D02*
X105654762Y-142804819D01*
X105654762Y-142804819D02*
X105559524Y-142757200D01*
X105559524Y-142757200D02*
X105511905Y-142709580D01*
X106559524Y-142709580D02*
X106607143Y-142757200D01*
X106607143Y-142757200D02*
X106559524Y-142804819D01*
X106559524Y-142804819D02*
X106511905Y-142757200D01*
X106511905Y-142757200D02*
X106559524Y-142709580D01*
X106559524Y-142709580D02*
X106559524Y-142804819D01*
X107511904Y-141804819D02*
X107035714Y-141804819D01*
X107035714Y-141804819D02*
X106988095Y-142281009D01*
X106988095Y-142281009D02*
X107035714Y-142233390D01*
X107035714Y-142233390D02*
X107130952Y-142185771D01*
X107130952Y-142185771D02*
X107369047Y-142185771D01*
X107369047Y-142185771D02*
X107464285Y-142233390D01*
X107464285Y-142233390D02*
X107511904Y-142281009D01*
X107511904Y-142281009D02*
X107559523Y-142376247D01*
X107559523Y-142376247D02*
X107559523Y-142614342D01*
X107559523Y-142614342D02*
X107511904Y-142709580D01*
X107511904Y-142709580D02*
X107464285Y-142757200D01*
X107464285Y-142757200D02*
X107369047Y-142804819D01*
X107369047Y-142804819D02*
X107130952Y-142804819D01*
X107130952Y-142804819D02*
X107035714Y-142757200D01*
X107035714Y-142757200D02*
X106988095Y-142709580D01*
X108178571Y-141804819D02*
X108273809Y-141804819D01*
X108273809Y-141804819D02*
X108369047Y-141852438D01*
X108369047Y-141852438D02*
X108416666Y-141900057D01*
X108416666Y-141900057D02*
X108464285Y-141995295D01*
X108464285Y-141995295D02*
X108511904Y-142185771D01*
X108511904Y-142185771D02*
X108511904Y-142423866D01*
X108511904Y-142423866D02*
X108464285Y-142614342D01*
X108464285Y-142614342D02*
X108416666Y-142709580D01*
X108416666Y-142709580D02*
X108369047Y-142757200D01*
X108369047Y-142757200D02*
X108273809Y-142804819D01*
X108273809Y-142804819D02*
X108178571Y-142804819D01*
X108178571Y-142804819D02*
X108083333Y-142757200D01*
X108083333Y-142757200D02*
X108035714Y-142709580D01*
X108035714Y-142709580D02*
X107988095Y-142614342D01*
X107988095Y-142614342D02*
X107940476Y-142423866D01*
X107940476Y-142423866D02*
X107940476Y-142185771D01*
X107940476Y-142185771D02*
X107988095Y-141995295D01*
X107988095Y-141995295D02*
X108035714Y-141900057D01*
X108035714Y-141900057D02*
X108083333Y-141852438D01*
X108083333Y-141852438D02*
X108178571Y-141804819D01*
X109130952Y-141804819D02*
X109226190Y-141804819D01*
X109226190Y-141804819D02*
X109321428Y-141852438D01*
X109321428Y-141852438D02*
X109369047Y-141900057D01*
X109369047Y-141900057D02*
X109416666Y-141995295D01*
X109416666Y-141995295D02*
X109464285Y-142185771D01*
X109464285Y-142185771D02*
X109464285Y-142423866D01*
X109464285Y-142423866D02*
X109416666Y-142614342D01*
X109416666Y-142614342D02*
X109369047Y-142709580D01*
X109369047Y-142709580D02*
X109321428Y-142757200D01*
X109321428Y-142757200D02*
X109226190Y-142804819D01*
X109226190Y-142804819D02*
X109130952Y-142804819D01*
X109130952Y-142804819D02*
X109035714Y-142757200D01*
X109035714Y-142757200D02*
X108988095Y-142709580D01*
X108988095Y-142709580D02*
X108940476Y-142614342D01*
X108940476Y-142614342D02*
X108892857Y-142423866D01*
X108892857Y-142423866D02*
X108892857Y-142185771D01*
X108892857Y-142185771D02*
X108940476Y-141995295D01*
X108940476Y-141995295D02*
X108988095Y-141900057D01*
X108988095Y-141900057D02*
X109035714Y-141852438D01*
X109035714Y-141852438D02*
X109130952Y-141804819D01*
X110083333Y-141804819D02*
X110178571Y-141804819D01*
X110178571Y-141804819D02*
X110273809Y-141852438D01*
X110273809Y-141852438D02*
X110321428Y-141900057D01*
X110321428Y-141900057D02*
X110369047Y-141995295D01*
X110369047Y-141995295D02*
X110416666Y-142185771D01*
X110416666Y-142185771D02*
X110416666Y-142423866D01*
X110416666Y-142423866D02*
X110369047Y-142614342D01*
X110369047Y-142614342D02*
X110321428Y-142709580D01*
X110321428Y-142709580D02*
X110273809Y-142757200D01*
X110273809Y-142757200D02*
X110178571Y-142804819D01*
X110178571Y-142804819D02*
X110083333Y-142804819D01*
X110083333Y-142804819D02*
X109988095Y-142757200D01*
X109988095Y-142757200D02*
X109940476Y-142709580D01*
X109940476Y-142709580D02*
X109892857Y-142614342D01*
X109892857Y-142614342D02*
X109845238Y-142423866D01*
X109845238Y-142423866D02*
X109845238Y-142185771D01*
X109845238Y-142185771D02*
X109892857Y-141995295D01*
X109892857Y-141995295D02*
X109940476Y-141900057D01*
X109940476Y-141900057D02*
X109988095Y-141852438D01*
X109988095Y-141852438D02*
X110083333Y-141804819D01*
X111607143Y-142804819D02*
X111607143Y-142138152D01*
X111607143Y-142233390D02*
X111654762Y-142185771D01*
X111654762Y-142185771D02*
X111750000Y-142138152D01*
X111750000Y-142138152D02*
X111892857Y-142138152D01*
X111892857Y-142138152D02*
X111988095Y-142185771D01*
X111988095Y-142185771D02*
X112035714Y-142281009D01*
X112035714Y-142281009D02*
X112035714Y-142804819D01*
X112035714Y-142281009D02*
X112083333Y-142185771D01*
X112083333Y-142185771D02*
X112178571Y-142138152D01*
X112178571Y-142138152D02*
X112321428Y-142138152D01*
X112321428Y-142138152D02*
X112416667Y-142185771D01*
X112416667Y-142185771D02*
X112464286Y-142281009D01*
X112464286Y-142281009D02*
X112464286Y-142804819D01*
X112940476Y-142804819D02*
X112940476Y-142138152D01*
X112940476Y-142233390D02*
X112988095Y-142185771D01*
X112988095Y-142185771D02*
X113083333Y-142138152D01*
X113083333Y-142138152D02*
X113226190Y-142138152D01*
X113226190Y-142138152D02*
X113321428Y-142185771D01*
X113321428Y-142185771D02*
X113369047Y-142281009D01*
X113369047Y-142281009D02*
X113369047Y-142804819D01*
X113369047Y-142281009D02*
X113416666Y-142185771D01*
X113416666Y-142185771D02*
X113511904Y-142138152D01*
X113511904Y-142138152D02*
X113654761Y-142138152D01*
X113654761Y-142138152D02*
X113750000Y-142185771D01*
X113750000Y-142185771D02*
X113797619Y-142281009D01*
X113797619Y-142281009D02*
X113797619Y-142804819D01*
D10*
X12000000Y-130000000D02*
X12000000Y-144086420D01*
X205500000Y-130000000D02*
X205500000Y-144086420D01*
X12000000Y-143500000D02*
X205500000Y-143500000D01*
X12000000Y-143500000D02*
X205500000Y-143500000D01*
X12000000Y-143500000D02*
X13126504Y-142913579D01*
X12000000Y-143500000D02*
X13126504Y-144086421D01*
X205500000Y-143500000D02*
X204373496Y-144086421D01*
X205500000Y-143500000D02*
X204373496Y-142913579D01*
M02*
