M48
; DRILL file {KiCad 8.0.3} date 2024-11-12T13:20:17+0100
; FORMAT={-:-/ absolute / inch / decimal}
; #@! TF.CreationDate,2024-11-12T13:20:17+01:00
; #@! TF.GenerationSoftware,Kicad,Pcbnew,8.0.3
; #@! TF.FileFunction,Plated,1,4,PTH
FMAT,2
INCH
; #@! TA.AperFunction,Plated,PTH,ViaDrill
T1C0.0157
; #@! TA.AperFunction,Plated,PTH,ComponentDrill
T2C0.0197
; #@! TA.AperFunction,Plated,PTH,ComponentDrill
T3C0.0276
; #@! TA.AperFunction,Plated,PTH,ComponentDrill
T4C0.0394
; #@! TA.AperFunction,Plated,PTH,ComponentDrill
T5C0.0394
; #@! TA.AperFunction,Plated,PTH,ComponentDrill
T6C0.0433
; #@! TA.AperFunction,Plated,PTH,ComponentDrill
T7C0.0650
; #@! TA.AperFunction,Plated,PTH,ComponentDrill
T8C0.1260
; #@! TA.AperFunction,Plated,PTH,ComponentDrill
T9C0.1280
; #@! TA.AperFunction,Plated,PTH,ComponentDrill
T10C0.1654
; #@! TA.AperFunction,Plated,PTH,ComponentDrill
T11C0.1969
%
G90
G05
T1
X1.68Y-1.59
X1.75Y-2.4
X1.75Y-2.5
X1.75Y-2.6
X1.75Y-2.7
X1.8Y-4.65
X1.8Y-4.75
X1.8Y-4.85
X1.8Y-4.95
X1.85Y-2.45
X1.85Y-2.55
X1.85Y-2.65
X1.9Y-4.7
X1.9Y-4.8
X1.9Y-4.9
X1.95Y-2.4
X1.95Y-2.5
X1.95Y-2.6
X1.95Y-2.7
X2.0Y-4.65
X2.0Y-4.75
X2.0Y-4.85
X2.0Y-4.95
X2.01Y-1.67
X2.05Y-2.45
X2.05Y-2.55
X2.05Y-2.65
X2.1Y-4.7
X2.1Y-4.8
X2.1Y-4.9
X2.15Y-2.4
X2.15Y-2.5
X2.15Y-2.6
X2.15Y-2.7
X2.2Y-4.65
X2.2Y-4.75
X2.2Y-4.85
X2.2Y-4.95
X2.25Y-2.45
X2.25Y-2.55
X2.25Y-2.65
X2.3Y-4.7
X2.3Y-4.8
X2.3Y-4.9
X2.35Y-2.4
X2.35Y-2.5
X2.35Y-2.6
X2.35Y-2.7
X2.3768Y-1.6314
X2.3782Y-1.2685
X2.38Y-1.67
X2.3819Y-1.1811
X2.386Y-1.2294
X2.3894Y-1.3021
X2.39Y-1.373
X2.39Y-1.4439
X2.39Y-1.4084
X2.3902Y-1.3376
X2.4Y-4.65
X2.4Y-4.75
X2.4Y-4.85
X2.4Y-4.95
X2.41Y-1.99
X2.43Y-2.1
X2.45Y-2.45
X2.45Y-2.55
X2.45Y-2.65
X2.5Y-4.7
X2.5Y-4.8
X2.5Y-4.9
X2.5399Y-1.5801
X2.55Y-2.4
X2.55Y-2.5
X2.55Y-2.6
X2.55Y-2.7
X2.55Y-3.45
X2.55Y-3.55
X2.55Y-3.65
X2.55Y-3.75
X2.55Y-3.85
X2.6Y-3.5
X2.6Y-3.6
X2.6Y-3.7
X2.6Y-3.8
X2.6043Y-1.3031
X2.6289Y-1.3396
X2.65Y-2.45
X2.65Y-2.55
X2.65Y-2.65
X2.65Y-3.45
X2.65Y-3.55
X2.65Y-3.65
X2.65Y-3.75
X2.65Y-3.85
X2.6585Y-1.263
X2.68Y-1.23
X2.75Y-2.4
X2.75Y-2.5
X2.75Y-2.6
X2.75Y-2.7
X2.75Y-3.45
X2.75Y-3.55
X2.75Y-3.65
X2.75Y-3.75
X2.75Y-3.85
X2.8Y-3.5
X2.8Y-3.6
X2.8Y-3.7
X2.8Y-3.8
X2.8362Y-1.8764
X2.85Y-2.45
X2.85Y-2.55
X2.85Y-2.65
X2.85Y-3.45
X2.85Y-3.55
X2.85Y-3.65
X2.85Y-3.75
X2.85Y-3.85
X2.8524Y-2.0157
X2.95Y-2.4
X2.95Y-2.5
X2.95Y-2.6
X2.95Y-2.7
X3.044Y-3.826
X3.05Y-2.45
X3.05Y-2.55
X3.05Y-2.65
X3.098Y-3.266
X3.1Y-4.65
X3.1Y-4.75
X3.1Y-4.85
X3.1Y-4.95
X3.1016Y-3.6187
X3.104Y-3.408
X3.1302Y-3.2874
X3.15Y-2.4
X3.15Y-2.5
X3.15Y-2.6
X3.15Y-2.7
X3.185Y-2.1841
X3.2Y-4.7
X3.2Y-4.8
X3.2Y-4.9
X3.204Y-3.6187
X3.236Y-4.028
X3.248Y-3.324
X3.25Y-2.45
X3.25Y-2.55
X3.25Y-2.65
X3.262Y-3.054
X3.288Y-3.108
X3.3Y-4.65
X3.3Y-4.75
X3.3Y-4.85
X3.3Y-4.95
X3.3071Y-4.0315
X3.35Y-1.9
X3.3543Y-2.151
X3.3661Y-1.811
X3.378Y-2.1146
X3.4Y-4.7
X3.4Y-4.8
X3.4Y-4.9
X3.4016Y-2.0698
X3.4134Y-2.02
X3.4213Y-1.7539
X3.5Y-2.4
X3.5Y-2.5
X3.5Y-2.6
X3.5Y-2.7
X3.6Y-2.45
X3.6Y-2.55
X3.6Y-2.65
X3.7087Y-4.71
X3.7087Y-4.81
X3.7087Y-4.91
X3.737Y-2.4165
X3.737Y-2.5165
X3.737Y-2.6165
X3.737Y-2.7165
X3.8087Y-4.66
X3.8087Y-4.76
X3.8087Y-4.86
X3.837Y-2.4665
X3.837Y-2.5665
X3.837Y-2.6665
X3.9087Y-4.71
X3.9087Y-4.81
X3.9087Y-4.91
X3.937Y-2.4165
X3.937Y-2.5165
X3.937Y-2.6165
X3.937Y-2.7165
X4.0087Y-4.66
X4.0087Y-4.76
X4.0087Y-4.86
X4.052Y-2.4165
X4.052Y-2.5165
X4.052Y-2.6165
X4.052Y-2.7165
X4.1087Y-4.71
X4.1087Y-4.81
X4.1087Y-4.91
X4.152Y-2.4665
X4.152Y-2.5665
X4.152Y-2.6665
X4.1587Y-3.46
X4.1587Y-3.56
X4.1587Y-3.66
X4.1587Y-3.76
X4.1587Y-3.86
X4.2087Y-3.51
X4.2087Y-3.61
X4.2087Y-3.71
X4.2087Y-3.81
X4.252Y-2.4165
X4.252Y-2.5165
X4.252Y-2.6165
X4.252Y-2.7165
X4.2587Y-3.46
X4.2587Y-3.56
X4.2587Y-3.66
X4.2587Y-3.76
X4.2587Y-3.86
X4.3587Y-3.46
X4.3587Y-3.56
X4.3587Y-3.66
X4.3587Y-3.76
X4.3587Y-3.86
X4.3669Y-2.4165
X4.3669Y-2.5165
X4.3669Y-2.6165
X4.3669Y-2.7165
X4.4087Y-3.51
X4.4087Y-3.61
X4.4087Y-3.71
X4.4087Y-3.81
X4.4587Y-3.46
X4.4587Y-3.56
X4.4587Y-3.66
X4.4587Y-3.76
X4.4587Y-3.86
X4.4669Y-2.4665
X4.4669Y-2.5665
X4.4669Y-2.6665
X4.5669Y-2.4165
X4.5669Y-2.5165
X4.5669Y-2.6165
X4.5669Y-2.7165
X4.6425Y-2.4165
X4.6425Y-2.5165
X4.6425Y-2.6165
X4.6425Y-2.7165
X4.6614Y-3.748
X4.7008Y-3.4173
X4.7067Y-3.276
X4.7087Y-4.66
X4.7087Y-4.76
X4.7087Y-4.86
X4.7104Y-3.6287
X4.7389Y-3.2974
X4.7425Y-2.4665
X4.7425Y-2.5665
X4.7425Y-2.6665
X4.8087Y-4.71
X4.8087Y-4.81
X4.8087Y-4.91
X4.8127Y-3.6287
X4.8228Y-1.752
X4.8425Y-2.4165
X4.8425Y-2.5165
X4.8425Y-2.6165
X4.8425Y-2.7165
X4.8425Y-4.0354
X4.8567Y-3.334
X4.8707Y-3.064
X4.8819Y-1.8646
X4.8967Y-3.118
X4.9087Y-4.66
X4.9087Y-4.76
X4.9087Y-4.86
X4.9409Y-4.0157
X4.9791Y-2.156
X4.981Y-2.1104
X4.9846Y-1.9446
X4.9968Y-2.0613
X4.9991Y-2.026
X5.1543Y-2.4165
X5.1543Y-2.5165
X5.1543Y-2.6165
X5.1543Y-2.7165
X5.25Y-4.71
X5.25Y-4.81
X5.25Y-4.91
X5.2543Y-2.4665
X5.2543Y-2.5665
X5.2543Y-2.6665
X5.35Y-4.66
X5.35Y-4.76
X5.35Y-4.86
X5.3543Y-2.4165
X5.3543Y-2.5165
X5.3543Y-2.6165
X5.3543Y-2.7165
X5.4299Y-2.4165
X5.4299Y-2.5165
X5.4299Y-2.6165
X5.4299Y-2.7165
X5.45Y-4.71
X5.45Y-4.81
X5.45Y-4.91
X5.5299Y-2.4665
X5.5299Y-2.5665
X5.5299Y-2.6665
X5.55Y-4.66
X5.55Y-4.76
X5.55Y-4.86
X5.6299Y-2.4165
X5.6299Y-2.5165
X5.6299Y-2.6165
X5.6299Y-2.7165
X5.65Y-4.71
X5.65Y-4.81
X5.65Y-4.91
X5.7Y-3.46
X5.7Y-3.56
X5.7Y-3.66
X5.7Y-3.76
X5.7Y-3.86
X5.7449Y-2.4165
X5.7449Y-2.5165
X5.7449Y-2.6165
X5.7449Y-2.7165
X5.75Y-3.51
X5.75Y-3.61
X5.75Y-3.71
X5.75Y-3.81
X5.8Y-3.46
X5.8Y-3.56
X5.8Y-3.66
X5.8Y-3.76
X5.8Y-3.86
X5.8449Y-2.4665
X5.8449Y-2.5665
X5.8449Y-2.6665
X5.9Y-3.46
X5.9Y-3.56
X5.9Y-3.66
X5.9Y-3.76
X5.9Y-3.86
X5.9449Y-2.4165
X5.9449Y-2.5165
X5.9449Y-2.6165
X5.9449Y-2.7165
X5.95Y-3.51
X5.95Y-3.61
X5.95Y-3.71
X5.95Y-3.81
X6.0Y-3.46
X6.0Y-3.56
X6.0Y-3.66
X6.0Y-3.76
X6.0Y-3.86
X6.0598Y-2.4165
X6.0598Y-2.5165
X6.0598Y-2.6165
X6.0598Y-2.7165
X6.1598Y-2.4665
X6.1598Y-2.5665
X6.1598Y-2.6665
X6.2126Y-3.748
X6.2203Y-3.4173
X6.2402Y-2.0669
X6.2415Y-2.1145
X6.2454Y-2.1557
X6.248Y-3.276
X6.25Y-4.66
X6.25Y-4.76
X6.25Y-4.86
X6.2516Y-3.6287
X6.28Y-1.86
X6.2802Y-3.2974
X6.354Y-3.6287
X6.377Y-3.3868
X6.386Y-4.038
X6.4024Y-2.006
X6.4086Y-3.1672
X6.4094Y-3.1043
X6.4764Y-4.0157
X6.4867Y-1.9634
X6.5354Y-1.752
X6.622Y-1.8504
X6.6504Y-2.4165
X6.6504Y-2.5165
X6.6504Y-2.6165
X6.6504Y-2.7165
X7.0654Y-2.4665
X7.0654Y-2.5665
X7.0654Y-2.6665
X7.1Y-4.66
X7.1Y-4.76
X7.1Y-4.86
X7.1654Y-2.4165
X7.1654Y-2.5165
X7.1654Y-2.6165
X7.1654Y-2.7165
X7.2Y-4.71
X7.2Y-4.81
X7.2Y-4.91
X7.25Y-3.46
X7.25Y-3.56
X7.25Y-3.66
X7.25Y-3.76
X7.25Y-3.86
X7.3Y-3.51
X7.3Y-3.61
X7.3Y-3.71
X7.3Y-3.81
X7.3197Y-2.4165
X7.3197Y-2.5165
X7.3197Y-2.6165
X7.3197Y-2.7165
X7.3425Y-1.752
X7.35Y-3.46
X7.35Y-3.56
X7.35Y-3.66
X7.35Y-3.76
X7.35Y-3.86
X7.4197Y-2.4665
X7.4197Y-2.5665
X7.4197Y-2.6665
X7.45Y-3.46
X7.45Y-3.56
X7.45Y-3.66
X7.45Y-3.76
X7.45Y-3.86
X7.5Y-3.51
X7.5Y-3.61
X7.5Y-3.71
X7.5Y-3.81
X7.5197Y-2.4165
X7.5197Y-2.5165
X7.5197Y-2.6165
X7.5197Y-2.7165
X7.55Y-3.46
X7.55Y-3.56
X7.55Y-3.66
X7.55Y-3.76
X7.55Y-3.86
X7.6167Y-2.1465
X7.6426Y-2.0255
X7.6457Y-2.1023
X7.7019Y-2.0442
X7.7573Y-2.0459
X7.7638Y-3.748
X7.7953Y-3.4173
X7.798Y-3.276
X7.8Y-4.66
X7.8Y-4.76
X7.8Y-4.86
X7.8016Y-3.6287
X7.8302Y-3.2974
X7.9Y-4.71
X7.9Y-4.81
X7.9Y-4.91
X7.904Y-3.6287
X7.9213Y-3.0157
X7.936Y-4.038
X7.948Y-3.334
X7.9528Y-3.189
X7.9705Y-4.2338
X8.0Y-4.66
X8.0Y-4.76
X8.0Y-4.86
T2
X6.7795Y-2.5591
X6.7795Y-4.8031
X6.8072Y-2.4922
X6.8072Y-2.6259
X6.8072Y-4.7363
X6.8072Y-4.87
X6.874Y-2.4646
X6.874Y-2.6535
X6.874Y-4.7087
X6.874Y-4.8976
X6.9408Y-2.4922
X6.9408Y-2.6259
X6.9408Y-4.7363
X6.9408Y-4.87
X6.9685Y-2.5591
X6.9685Y-4.8031
T3
X3.084Y-4.006
X3.084Y-4.206
X3.084Y-4.3047
X3.084Y-4.5047
X4.6927Y-4.016
X4.6927Y-4.216
X4.6927Y-4.3147
X4.6927Y-4.5147
X6.234Y-4.016
X6.234Y-4.216
X6.234Y-4.3147
X6.234Y-4.5147
X7.784Y-4.016
X7.784Y-4.216
X7.784Y-4.3147
X7.784Y-4.5147
T4
X0.668Y-1.5826
X0.7581Y-1.5826
X0.7975Y-1.3243
X0.8376Y-1.3944
X0.8778Y-1.3243
X0.918Y-1.3944
X0.9581Y-1.3243
X0.9983Y-1.3944
X1.0384Y-1.3243
X1.0786Y-1.3944
X1.118Y-1.5826
X1.2081Y-1.5826
X1.4306Y-1.5826
X1.5207Y-1.5826
X1.5601Y-1.3243
X1.6003Y-1.3944
X1.6404Y-1.3243
X1.6806Y-1.3944
X1.7207Y-1.3243
X1.7609Y-1.3944
X1.8011Y-1.3243
X1.8412Y-1.3944
X1.8806Y-1.5826
X1.9707Y-1.5826
T5
X7.9724Y-1.6126
X7.9724Y-1.7126
T6
X2.7Y-4.1466
X2.8Y-4.1466
X2.9Y-4.1466
X4.3087Y-4.1566
X4.4087Y-4.1566
X4.5087Y-4.1566
X5.85Y-4.1566
X5.95Y-4.1566
X6.05Y-4.1566
X7.4Y-4.1566
X7.5Y-4.1566
X7.6Y-4.1566
T7
X0.6207Y-1.3594
X1.2546Y-1.3598
X1.3833Y-1.3594
X2.0172Y-1.3598
T8
X6.874Y-2.5591
X6.874Y-4.8031
T9
X0.6861Y-1.22
X1.19Y-1.22
X1.4487Y-1.22
X1.9526Y-1.22
T10
X0.8071Y-2.6575
X0.8071Y-3.2087
X0.8146Y-4.2
X0.8146Y-4.7512
X1.0276Y-2.6575
X1.0276Y-3.2087
X1.0351Y-4.2
X1.0351Y-4.7512
X1.252Y-2.6575
X1.252Y-3.2087
X1.2595Y-4.2
X1.2595Y-4.7512
X1.4724Y-2.6575
X1.4724Y-3.2087
X1.48Y-4.2
X1.48Y-4.7512
T11
X2.2795Y-3.6919
X2.2795Y-4.311
X3.8883Y-3.7019
X3.8883Y-4.321
X5.4295Y-3.7019
X5.4295Y-4.321
X6.9795Y-3.7019
X6.9795Y-4.321
M30
