%TF.GenerationSoftware,KiCad,Pcbnew,8.0.7*%
%TF.CreationDate,2025-01-06T13:09:21+01:00*%
%TF.ProjectId,BMU_switch_mosfet,424d555f-7377-4697-9463-685f6d6f7366,rev?*%
%TF.SameCoordinates,Original*%
%TF.FileFunction,Soldermask,Bot*%
%TF.FilePolarity,Negative*%
%FSLAX46Y46*%
G04 Gerber Fmt 4.6, Leading zero omitted, Abs format (unit mm)*
G04 Created by KiCad (PCBNEW 8.0.7) date 2025-01-06 13:09:21*
%MOMM*%
%LPD*%
G01*
G04 APERTURE LIST*
%ADD10C,0.100000*%
%ADD11C,0.500000*%
%ADD12C,2.700000*%
%ADD13R,1.800000X1.800000*%
%ADD14C,1.800000*%
%ADD15R,1.500000X1.500000*%
%ADD16C,1.500000*%
G04 APERTURE END LIST*
D10*
X159700000Y-128450000D02*
X159850000Y-133412700D01*
X153250000Y-133412700D01*
X150700000Y-143400000D01*
X149750000Y-150475000D01*
X135424600Y-150475000D01*
X135424600Y-128425000D01*
X159700000Y-128450000D01*
G36*
X159700000Y-128450000D02*
G01*
X159850000Y-133412700D01*
X153250000Y-133412700D01*
X150700000Y-143400000D01*
X149750000Y-150475000D01*
X135424600Y-150475000D01*
X135424600Y-128425000D01*
X159700000Y-128450000D01*
G37*
X135424600Y-129425000D02*
X149750000Y-129425000D01*
X149750000Y-148475000D01*
X135424600Y-148475000D01*
X135424600Y-129425000D01*
G36*
X135424600Y-129425000D02*
G01*
X149750000Y-129425000D01*
X149750000Y-148475000D01*
X135424600Y-148475000D01*
X135424600Y-129425000D01*
G37*
X153250000Y-65787300D02*
X159950000Y-65787300D01*
X159950000Y-133412700D01*
X153250000Y-133412700D01*
X153250000Y-65787300D01*
G36*
X153250000Y-65787300D02*
G01*
X159950000Y-65787300D01*
X159950000Y-133412700D01*
X153250000Y-133412700D01*
X153250000Y-65787300D01*
G37*
X125650000Y-65650000D02*
X134000000Y-65650000D01*
X134000000Y-127175400D01*
X125650000Y-127175400D01*
X125650000Y-65650000D01*
G36*
X125650000Y-65650000D02*
G01*
X134000000Y-65650000D01*
X134000000Y-127175400D01*
X125650000Y-127175400D01*
X125650000Y-65650000D01*
G37*
D11*
X151450000Y-116531250D02*
X137450000Y-116531250D01*
X137450000Y-66531250D01*
X151450000Y-66531250D01*
X151450000Y-116531250D01*
G36*
X151450000Y-116531250D02*
G01*
X137450000Y-116531250D01*
X137450000Y-66531250D01*
X151450000Y-66531250D01*
X151450000Y-116531250D01*
G37*
D12*
%TO.C,H2*%
X129175566Y-137024810D03*
%TD*%
%TO.C,H2*%
X158106752Y-137024810D03*
%TD*%
D13*
%TO.C,U1*%
X132920000Y-144631250D03*
D14*
X130380000Y-144631250D03*
%TD*%
D12*
%TO.C,H1*%
X144401746Y-103358928D03*
%TD*%
D15*
%TO.C,U3*%
X140710000Y-124071250D03*
D16*
X140710000Y-121531250D03*
X138170000Y-124071250D03*
X138170000Y-121531250D03*
X135630000Y-124071250D03*
X135630000Y-121531250D03*
X133090000Y-124071250D03*
X133090000Y-121531250D03*
X130550000Y-124071250D03*
X130550000Y-121531250D03*
%TD*%
D15*
%TO.C,U2*%
X137742941Y-145154944D03*
D16*
X140282941Y-145154944D03*
X137742941Y-142614944D03*
X140282941Y-142614944D03*
X137742941Y-140074944D03*
X140282941Y-140074944D03*
X137742941Y-137534944D03*
X140282941Y-137534944D03*
X137742941Y-134994944D03*
X140282941Y-134994944D03*
%TD*%
D12*
%TO.C,H1*%
X144159159Y-78182996D03*
%TD*%
M02*
