%TF.GenerationSoftware,KiCad,Pcbnew,8.0.7*%
%TF.CreationDate,2025-01-06T13:09:21+01:00*%
%TF.ProjectId,BMU_switch_mosfet,424d555f-7377-4697-9463-685f6d6f7366,rev?*%
%TF.SameCoordinates,Original*%
%TF.FileFunction,Copper,L2,Bot*%
%TF.FilePolarity,Positive*%
%FSLAX46Y46*%
G04 Gerber Fmt 4.6, Leading zero omitted, Abs format (unit mm)*
G04 Created by KiCad (PCBNEW 8.0.7) date 2025-01-06 13:09:21*
%MOMM*%
%LPD*%
G01*
G04 APERTURE LIST*
%TA.AperFunction,ComponentPad*%
%ADD10R,1.800000X1.800000*%
%TD*%
%TA.AperFunction,ComponentPad*%
%ADD11C,1.800000*%
%TD*%
%TA.AperFunction,ComponentPad*%
%ADD12R,1.500000X1.500000*%
%TD*%
%TA.AperFunction,ComponentPad*%
%ADD13C,1.500000*%
%TD*%
%TA.AperFunction,ViaPad*%
%ADD14C,0.600000*%
%TD*%
%TA.AperFunction,Conductor*%
%ADD15C,0.200000*%
%TD*%
G04 APERTURE END LIST*
D10*
%TO.P,U1,1,1*%
%TO.N,GND*%
X132920000Y-144631250D03*
D11*
%TO.P,U1,2,2*%
%TO.N,/CMD_Switch_bat*%
X130380000Y-144631250D03*
%TD*%
D12*
%TO.P,U3,1,1*%
%TO.N,/+BATT OUT*%
X140710000Y-124071250D03*
D13*
%TO.P,U3,2,2*%
X140710000Y-121531250D03*
%TO.P,U3,3,3*%
X138170000Y-124071250D03*
%TO.P,U3,4,4*%
X138170000Y-121531250D03*
%TO.P,U3,5,5*%
X135630000Y-124071250D03*
%TO.P,U3,6,6*%
X135630000Y-121531250D03*
%TO.P,U3,7,7*%
X133090000Y-124071250D03*
%TO.P,U3,8,8*%
X133090000Y-121531250D03*
%TO.P,U3,9,9*%
X130550000Y-124071250D03*
%TO.P,U3,10,10*%
X130550000Y-121531250D03*
%TD*%
D12*
%TO.P,U2,1,1*%
%TO.N,/+BATT_IN*%
X137742941Y-145154944D03*
D13*
%TO.P,U2,2,2*%
X140282941Y-145154944D03*
%TO.P,U2,3,3*%
X137742941Y-142614944D03*
%TO.P,U2,4,4*%
X140282941Y-142614944D03*
%TO.P,U2,5,5*%
X137742941Y-140074944D03*
%TO.P,U2,6,6*%
X140282941Y-140074944D03*
%TO.P,U2,7,7*%
X137742941Y-137534944D03*
%TO.P,U2,8,8*%
X140282941Y-137534944D03*
%TO.P,U2,9,9*%
X137742941Y-134994944D03*
%TO.P,U2,10,10*%
X140282941Y-134994944D03*
%TD*%
D14*
%TO.N,/+BATT_IN*%
X149000000Y-148000000D03*
X145000000Y-148000000D03*
X147000000Y-148000000D03*
X149000000Y-146000000D03*
X145000000Y-146000000D03*
X148000000Y-147000000D03*
X147000000Y-146000000D03*
X146000000Y-147000000D03*
X149000000Y-144000000D03*
X145000000Y-144000000D03*
X148000000Y-145000000D03*
X147000000Y-144000000D03*
X146000000Y-145000000D03*
X149000000Y-142000000D03*
X145000000Y-142000000D03*
X148000000Y-143000000D03*
X147000000Y-142000000D03*
X146000000Y-143000000D03*
X149000000Y-140000000D03*
X145000000Y-140000000D03*
X148000000Y-141000000D03*
X147000000Y-140000000D03*
X146000000Y-141000000D03*
X149000000Y-138000000D03*
X145000000Y-138000000D03*
X148000000Y-139000000D03*
X147000000Y-138000000D03*
X146000000Y-139000000D03*
X149000000Y-136000000D03*
X145000000Y-136000000D03*
X148000000Y-137000000D03*
X147000000Y-136000000D03*
X146000000Y-137000000D03*
X149000000Y-134000000D03*
X145000000Y-134000000D03*
X148000000Y-135000000D03*
X147000000Y-134000000D03*
X146000000Y-135000000D03*
X149000000Y-132000000D03*
X145000000Y-132000000D03*
X148000000Y-133000000D03*
X147000000Y-132000000D03*
X146000000Y-133000000D03*
X148000000Y-131000000D03*
X146000000Y-131000000D03*
X149000000Y-130000000D03*
X147000000Y-130000000D03*
X145000000Y-130000000D03*
%TO.N,Net-(Q1-C)*%
X161000000Y-99781250D03*
X161000000Y-113781250D03*
X161000000Y-88281250D03*
X161500000Y-74500000D03*
%TO.N,/+BATT_IN*%
X159000000Y-95531250D03*
X159500000Y-96531250D03*
X155500000Y-94531250D03*
X154000000Y-69531250D03*
X158500000Y-110531250D03*
X159000000Y-78031250D03*
X157500000Y-110531250D03*
X158000000Y-67531250D03*
X157000000Y-71531250D03*
X155500000Y-96531250D03*
X156500000Y-110531250D03*
X156500000Y-92531250D03*
X157000000Y-109531250D03*
X158500000Y-92531250D03*
X156000000Y-69531250D03*
X157500000Y-85031250D03*
X159000000Y-91531250D03*
X154500000Y-106531250D03*
X153500000Y-108531250D03*
X158500000Y-96531250D03*
X159000000Y-71531250D03*
X156000000Y-95531250D03*
X155500000Y-68531250D03*
X157500000Y-96531250D03*
X154500000Y-83031250D03*
X155500000Y-92531250D03*
X156500000Y-70531250D03*
X156000000Y-109531250D03*
X155000000Y-109531250D03*
X154000000Y-95531250D03*
X156000000Y-67531250D03*
X159000000Y-105531250D03*
X158000000Y-84031250D03*
X156000000Y-91531250D03*
X157000000Y-95531250D03*
X155000000Y-69531250D03*
X157500000Y-79031250D03*
X154500000Y-79031250D03*
X158500000Y-106531250D03*
X156000000Y-84031250D03*
X154000000Y-107531250D03*
X155000000Y-95531250D03*
X159500000Y-110531250D03*
X159500000Y-66531250D03*
X156000000Y-78031250D03*
X157500000Y-92531250D03*
X159000000Y-84031250D03*
X158000000Y-109531250D03*
X155000000Y-67531250D03*
X160000000Y-71531250D03*
X157500000Y-70531250D03*
X157000000Y-91531250D03*
X154500000Y-94531250D03*
X156000000Y-82031250D03*
X157500000Y-106531250D03*
X154500000Y-68531250D03*
X156500000Y-66531250D03*
X158000000Y-95531250D03*
X154500000Y-70531250D03*
X158000000Y-105531250D03*
X159500000Y-70531250D03*
X154000000Y-109531250D03*
X156500000Y-96531250D03*
X159000000Y-67531250D03*
X154500000Y-85031250D03*
X159500000Y-85031250D03*
X153500000Y-94531250D03*
X155500000Y-70531250D03*
X154000000Y-82031250D03*
X158000000Y-78031250D03*
X155000000Y-71531250D03*
X155500000Y-108531250D03*
X156500000Y-68531250D03*
X158500000Y-70531250D03*
X154000000Y-84031250D03*
X155000000Y-107531250D03*
X156000000Y-71531250D03*
X155500000Y-85031250D03*
X156500000Y-106531250D03*
X157000000Y-105531250D03*
X156000000Y-107531250D03*
X155500000Y-110531250D03*
X154500000Y-96531250D03*
X157000000Y-67531250D03*
X154500000Y-110531250D03*
X157000000Y-84031250D03*
X155000000Y-105531250D03*
X154000000Y-93531250D03*
X158000000Y-91531250D03*
X156000000Y-93531250D03*
X154500000Y-92531250D03*
X156500000Y-79031250D03*
X153500000Y-83031250D03*
X157000000Y-78031250D03*
X155500000Y-79031250D03*
X155000000Y-93531250D03*
X156000000Y-105531250D03*
X155000000Y-84031250D03*
X158000000Y-71531250D03*
X155500000Y-83031250D03*
X158500000Y-79031250D03*
X159000000Y-109531250D03*
X155000000Y-82031250D03*
X155500000Y-106531250D03*
X154500000Y-108531250D03*
X155500000Y-66531250D03*
X155000000Y-91531250D03*
X157500000Y-66531250D03*
X156500000Y-85031250D03*
X158500000Y-85031250D03*
X155000000Y-78031250D03*
X158500000Y-66531250D03*
%TO.N,/Drain*%
X140500000Y-90531250D03*
X150000000Y-111031250D03*
X138500000Y-70531250D03*
X148000000Y-68531250D03*
X140000000Y-75531250D03*
X146500000Y-83531250D03*
X145000000Y-109031250D03*
X145000000Y-68531250D03*
X141000000Y-81531250D03*
X142000000Y-112031250D03*
X140500000Y-88531250D03*
X149500000Y-114031250D03*
X150000000Y-76531250D03*
X140500000Y-86531250D03*
X138000000Y-87531250D03*
X142000000Y-110031250D03*
X138500000Y-98531250D03*
X143000000Y-87531250D03*
X139500000Y-84531250D03*
X151000000Y-66531250D03*
X137619976Y-114911275D03*
X137500000Y-70531250D03*
X138000000Y-73531250D03*
X143000000Y-69531250D03*
X145500000Y-89531250D03*
X149500000Y-83531250D03*
X149000000Y-94531250D03*
X147000000Y-68531250D03*
X151000000Y-84531250D03*
X143500000Y-68531250D03*
X149500000Y-87531250D03*
X138000000Y-69531250D03*
X147000000Y-107031250D03*
X143500000Y-115031250D03*
X137500000Y-98531250D03*
X146500000Y-73531250D03*
X139500000Y-94531250D03*
X147000000Y-74531250D03*
X142000000Y-71531250D03*
X150500000Y-93531250D03*
X147500000Y-81531250D03*
X148500000Y-97531250D03*
X147000000Y-92531250D03*
X139500000Y-70531250D03*
X150000000Y-98531250D03*
X139000000Y-85531250D03*
X146000000Y-96531250D03*
X142500000Y-109031250D03*
X147000000Y-72531250D03*
X138000000Y-95531250D03*
X141000000Y-97531250D03*
X147500000Y-85531250D03*
X142500000Y-84531250D03*
X148000000Y-98531250D03*
X151000000Y-107031250D03*
X148000000Y-100531250D03*
X149500000Y-93531250D03*
X138500000Y-78531250D03*
X151000000Y-76531250D03*
X149500000Y-91531250D03*
X147500000Y-99531250D03*
X145500000Y-73531250D03*
X149000000Y-88531250D03*
X145500000Y-112031250D03*
X149000000Y-68531250D03*
X139500000Y-96531250D03*
X142500000Y-90531250D03*
X150000000Y-92531250D03*
X139000000Y-97531250D03*
X149500000Y-97531250D03*
X140500000Y-84531250D03*
X146500000Y-81531250D03*
X143000000Y-95531250D03*
X148500000Y-81531250D03*
X150500000Y-91531250D03*
X150500000Y-108031250D03*
X139000000Y-112031250D03*
X141500000Y-98531250D03*
X151000000Y-90531250D03*
X147000000Y-98531250D03*
X140500000Y-109031250D03*
X151000000Y-74531250D03*
X147500000Y-93531250D03*
X142000000Y-99531250D03*
X138500000Y-107031250D03*
X151000000Y-82531250D03*
X140000000Y-87531250D03*
X141000000Y-116031250D03*
X138500000Y-113031250D03*
X138000000Y-85531250D03*
X145000000Y-115031250D03*
X138500000Y-105031250D03*
X150500000Y-89531250D03*
X139500000Y-105031250D03*
X142500000Y-74531250D03*
X137500000Y-109031250D03*
X139500000Y-92531250D03*
X141500000Y-100531250D03*
X142500000Y-66531250D03*
X138500000Y-94531250D03*
X143500000Y-72531250D03*
X150500000Y-106031250D03*
X146500000Y-112031250D03*
X149000000Y-107031250D03*
X139500000Y-111031250D03*
X150500000Y-69531250D03*
X139000000Y-71531250D03*
X142000000Y-97531250D03*
X140000000Y-97531250D03*
X142000000Y-106031250D03*
X148000000Y-74531250D03*
X138500000Y-74531250D03*
X138000000Y-91531250D03*
X147500000Y-116031250D03*
X145000000Y-96531250D03*
X147000000Y-86531250D03*
X151000000Y-100531250D03*
X147000000Y-66531250D03*
X150000000Y-68531250D03*
X149500000Y-108031250D03*
X150000000Y-96531250D03*
X146500000Y-89531250D03*
X149000000Y-98531250D03*
X150500000Y-101531250D03*
X142500000Y-115031250D03*
X146000000Y-90531250D03*
X145500000Y-69531250D03*
X149500000Y-71531250D03*
X151000000Y-92531250D03*
X149500000Y-85531250D03*
X147500000Y-67531250D03*
X141000000Y-99531250D03*
X137500000Y-92531250D03*
X146500000Y-116031250D03*
X147500000Y-95531250D03*
X147500000Y-75531250D03*
X140000000Y-83531250D03*
X149000000Y-82531250D03*
X146000000Y-88531250D03*
X145500000Y-83531250D03*
X137500000Y-90531250D03*
X146500000Y-99531250D03*
X147500000Y-71531250D03*
X141500000Y-113031250D03*
X142000000Y-87531250D03*
X143000000Y-110031250D03*
X145000000Y-90531250D03*
X140500000Y-70531250D03*
X139000000Y-99531250D03*
X142000000Y-116031250D03*
X147500000Y-114031250D03*
X140000000Y-81531250D03*
X146500000Y-110031250D03*
X138000000Y-112031250D03*
X141000000Y-85531250D03*
X142000000Y-81531250D03*
X149500000Y-69531250D03*
X149000000Y-86531250D03*
X138000000Y-101531250D03*
X137500000Y-72531250D03*
X148500000Y-85531250D03*
X148500000Y-91531250D03*
X149000000Y-74531250D03*
X140500000Y-96531250D03*
X149500000Y-81531250D03*
X143500000Y-94531250D03*
X137500000Y-78531250D03*
X149500000Y-110031250D03*
X140500000Y-72531250D03*
X145500000Y-93531250D03*
X139500000Y-78531250D03*
X141500000Y-88531250D03*
X150500000Y-81531250D03*
X147500000Y-112031250D03*
X138000000Y-83531250D03*
X147000000Y-100531250D03*
X141500000Y-82531250D03*
X140500000Y-92531250D03*
X147000000Y-70531250D03*
X149000000Y-96531250D03*
X139000000Y-108031250D03*
X139000000Y-110031250D03*
X138000000Y-75531250D03*
X138500000Y-88531250D03*
X142500000Y-82531250D03*
X138500000Y-92531250D03*
X140000000Y-77531250D03*
X148500000Y-95531250D03*
X143500000Y-90531250D03*
X138000000Y-67531250D03*
X141500000Y-84531250D03*
X139000000Y-93531250D03*
X141000000Y-73531250D03*
X137500000Y-100531250D03*
X149500000Y-95531250D03*
X150000000Y-107031250D03*
X137500000Y-74531250D03*
X139500000Y-74531250D03*
X147000000Y-90531250D03*
X141500000Y-68531250D03*
X149500000Y-67531250D03*
X147500000Y-106031250D03*
X150000000Y-105031250D03*
X148500000Y-77531250D03*
X137500000Y-86531250D03*
X138000000Y-97531250D03*
X148500000Y-116031250D03*
X145000000Y-84531250D03*
X142000000Y-73531250D03*
X139500000Y-100531250D03*
X137500000Y-82531250D03*
X143500000Y-107031250D03*
X149000000Y-90531250D03*
X137500000Y-113031250D03*
X145500000Y-95531250D03*
X142000000Y-89531250D03*
X151000000Y-94531250D03*
X148500000Y-71531250D03*
X141000000Y-89531250D03*
X146000000Y-107031250D03*
X147000000Y-113031250D03*
X138500000Y-68531250D03*
X140500000Y-74531250D03*
X143000000Y-112031250D03*
X150000000Y-66531250D03*
X141000000Y-110031250D03*
X141000000Y-93531250D03*
X140500000Y-115031250D03*
X148500000Y-83531250D03*
X139000000Y-83531250D03*
X146000000Y-115031250D03*
X141500000Y-90531250D03*
X141000000Y-101531250D03*
X145000000Y-86531250D03*
X145000000Y-94531250D03*
X146500000Y-114031250D03*
X150000000Y-90531250D03*
X139000000Y-73531250D03*
X151000000Y-98531250D03*
X145000000Y-98531250D03*
X145500000Y-116031250D03*
X145000000Y-72531250D03*
X138500000Y-90531250D03*
X143000000Y-116031250D03*
X148000000Y-115031250D03*
X138000000Y-106031250D03*
X141000000Y-83531250D03*
X140000000Y-67531250D03*
X146000000Y-94531250D03*
X149500000Y-99531250D03*
X137500000Y-111031250D03*
X141500000Y-115031250D03*
X138500000Y-96531250D03*
X140500000Y-82531250D03*
X139000000Y-91531250D03*
X143500000Y-98531250D03*
X145500000Y-91531250D03*
X145000000Y-88531250D03*
X151000000Y-86531250D03*
X143500000Y-82531250D03*
X149000000Y-105031250D03*
X139500000Y-72531250D03*
X150000000Y-109031250D03*
X143500000Y-96531250D03*
X141000000Y-112031250D03*
X149000000Y-92531250D03*
X143000000Y-91531250D03*
X138000000Y-81531250D03*
X149000000Y-84531250D03*
X143500000Y-70531250D03*
X143000000Y-83531250D03*
X142500000Y-92531250D03*
X149500000Y-73531250D03*
X145500000Y-114031250D03*
X148000000Y-111031250D03*
X147500000Y-108031250D03*
X142500000Y-111031250D03*
X143500000Y-88531250D03*
X150500000Y-67531250D03*
X149500000Y-106031250D03*
X146500000Y-69531250D03*
X149000000Y-115031250D03*
X142000000Y-83531250D03*
X142000000Y-108031250D03*
X139500000Y-109031250D03*
X140000000Y-99531250D03*
X141000000Y-95531250D03*
X148000000Y-94531250D03*
X148500000Y-110031250D03*
X150500000Y-97531250D03*
X150500000Y-114031250D03*
X145500000Y-108031250D03*
X146000000Y-86531250D03*
X147000000Y-111031250D03*
X142000000Y-67531250D03*
X150000000Y-86531250D03*
X138000000Y-114031250D03*
X139000000Y-89531250D03*
X150500000Y-71531250D03*
X151000000Y-78531250D03*
X139500000Y-76531250D03*
X143000000Y-81531250D03*
X143000000Y-73531250D03*
X137500000Y-76531250D03*
X140000000Y-95531250D03*
X147000000Y-82531250D03*
X141500000Y-72531250D03*
X150500000Y-85531250D03*
X148500000Y-114031250D03*
X139000000Y-75531250D03*
X143000000Y-71531250D03*
X146500000Y-71531250D03*
X150500000Y-110031250D03*
X140500000Y-113031250D03*
X142500000Y-94531250D03*
X140000000Y-91531250D03*
X139500000Y-98531250D03*
X145000000Y-92531250D03*
X142000000Y-93531250D03*
X138500000Y-66531250D03*
X140000000Y-112031250D03*
X150000000Y-88531250D03*
X147000000Y-115031250D03*
X138500000Y-86531250D03*
X143000000Y-85531250D03*
X150500000Y-87531250D03*
X150500000Y-112031250D03*
X139500000Y-90531250D03*
X143000000Y-89531250D03*
X150500000Y-116031250D03*
X146000000Y-111031250D03*
X140000000Y-110031250D03*
X143500000Y-84531250D03*
X148000000Y-86531250D03*
X143000000Y-67531250D03*
X138500000Y-84531250D03*
X149000000Y-109031250D03*
X137500000Y-88531250D03*
X147500000Y-89531250D03*
X148000000Y-82531250D03*
X151000000Y-88531250D03*
X148000000Y-105031250D03*
X150000000Y-72531250D03*
X140000000Y-114031250D03*
X146500000Y-95531250D03*
X140500000Y-105031250D03*
X149500000Y-116031250D03*
X143500000Y-86531250D03*
X140500000Y-94531250D03*
X137500000Y-105031250D03*
X148500000Y-87531250D03*
X151000000Y-96531250D03*
X148500000Y-93531250D03*
X145000000Y-82531250D03*
X138000000Y-108031250D03*
X138500000Y-115031250D03*
X148500000Y-75531250D03*
X148500000Y-73531250D03*
X145500000Y-85531250D03*
X148000000Y-90531250D03*
X150000000Y-113031250D03*
X138000000Y-89531250D03*
X141500000Y-92531250D03*
X143500000Y-66531250D03*
X140000000Y-106031250D03*
X150500000Y-99531250D03*
X146000000Y-74531250D03*
X142500000Y-88531250D03*
X141500000Y-74531250D03*
X146000000Y-72531250D03*
X138500000Y-76531250D03*
X151000000Y-109031250D03*
X146500000Y-75531250D03*
X141000000Y-71531250D03*
X143000000Y-99531250D03*
X140500000Y-107031250D03*
X141000000Y-91531250D03*
X139500000Y-86531250D03*
X147500000Y-91531250D03*
X141500000Y-70531250D03*
X140000000Y-85531250D03*
X142500000Y-70531250D03*
X149500000Y-75531250D03*
X145000000Y-70531250D03*
X151000000Y-105031250D03*
X138500000Y-100531250D03*
X149000000Y-111031250D03*
X141500000Y-96531250D03*
X141000000Y-114031250D03*
X142000000Y-114031250D03*
X150000000Y-84531250D03*
X146000000Y-92531250D03*
X147000000Y-109031250D03*
X145500000Y-81531250D03*
X149500000Y-101531250D03*
X138000000Y-77531250D03*
X151000000Y-115031250D03*
X148000000Y-92531250D03*
X151000000Y-72531250D03*
X141500000Y-109031250D03*
X138000000Y-93531250D03*
X139500000Y-88531250D03*
X142000000Y-85531250D03*
X146500000Y-91531250D03*
X141000000Y-106031250D03*
X140000000Y-108031250D03*
X140000000Y-73531250D03*
X146500000Y-85531250D03*
X145500000Y-67531250D03*
X140000000Y-89531250D03*
X140000000Y-71531250D03*
X140000000Y-93531250D03*
X142500000Y-107031250D03*
X140500000Y-100531250D03*
X137500000Y-94531250D03*
X148000000Y-107031250D03*
X141500000Y-86531250D03*
X145500000Y-87531250D03*
X139500000Y-107031250D03*
X142500000Y-98531250D03*
X140500000Y-68531250D03*
X150500000Y-77531250D03*
X138000000Y-99531250D03*
X149000000Y-72531250D03*
X142500000Y-86531250D03*
X147000000Y-96531250D03*
X139000000Y-67531250D03*
X141000000Y-87531250D03*
X139500000Y-68531250D03*
X148000000Y-66531250D03*
X150000000Y-70531250D03*
X140000000Y-101531250D03*
X150000000Y-78531250D03*
X145000000Y-66531250D03*
X149000000Y-66531250D03*
X148000000Y-96531250D03*
X149000000Y-70531250D03*
X145500000Y-99531250D03*
X146000000Y-66531250D03*
X149000000Y-113031250D03*
X139000000Y-106031250D03*
X148500000Y-108031250D03*
X151000000Y-68531250D03*
X145500000Y-97531250D03*
X148500000Y-101531250D03*
X148500000Y-106031250D03*
X146000000Y-68531250D03*
X137500000Y-84531250D03*
X142000000Y-95531250D03*
X147000000Y-84531250D03*
X145500000Y-110031250D03*
X139000000Y-101531250D03*
X142500000Y-72531250D03*
X146500000Y-67531250D03*
X139000000Y-69531250D03*
X139500000Y-115031250D03*
X149500000Y-112031250D03*
X146000000Y-113031250D03*
X142000000Y-69531250D03*
X138500000Y-111031250D03*
X141500000Y-66531250D03*
X137500000Y-107031250D03*
X148500000Y-69531250D03*
X143500000Y-92531250D03*
X148000000Y-113031250D03*
X137500000Y-66531250D03*
X145000000Y-107031250D03*
X146500000Y-87531250D03*
X146000000Y-70531250D03*
X148000000Y-109031250D03*
X150000000Y-82531250D03*
X142500000Y-113031250D03*
X151000000Y-113031250D03*
X150000000Y-100531250D03*
X139500000Y-66531250D03*
X149000000Y-76531250D03*
X140000000Y-69531250D03*
X141000000Y-69531250D03*
X148000000Y-72531250D03*
X148500000Y-67531250D03*
X147500000Y-83531250D03*
X151000000Y-70531250D03*
X138000000Y-110031250D03*
X138000000Y-71531250D03*
X150000000Y-115031250D03*
X147500000Y-101531250D03*
X143500000Y-113031250D03*
X150500000Y-75531250D03*
X140500000Y-78531250D03*
X139500000Y-82531250D03*
X148500000Y-89531250D03*
X141000000Y-75531250D03*
X138500000Y-82531250D03*
X146500000Y-108031250D03*
X147500000Y-87531250D03*
X148500000Y-99531250D03*
X139000000Y-77531250D03*
X148000000Y-88531250D03*
X139000000Y-114031250D03*
X142000000Y-91531250D03*
X138500000Y-72531250D03*
X146000000Y-84531250D03*
X140500000Y-76531250D03*
X137500000Y-68531250D03*
X146000000Y-98531250D03*
X142500000Y-96531250D03*
X148000000Y-84531250D03*
X138369976Y-115661275D03*
X140500000Y-98531250D03*
X147500000Y-73531250D03*
X148000000Y-76531250D03*
X141500000Y-111031250D03*
X147500000Y-97531250D03*
X140500000Y-66531250D03*
X145000000Y-113031250D03*
X150000000Y-74531250D03*
X139000000Y-81531250D03*
X141500000Y-94531250D03*
X150000000Y-94531250D03*
X143500000Y-109031250D03*
X141000000Y-108031250D03*
X137500000Y-96531250D03*
X151000000Y-111031250D03*
X149000000Y-78531250D03*
X147000000Y-94531250D03*
X147000000Y-88531250D03*
X146500000Y-93531250D03*
X139500000Y-113031250D03*
X143500000Y-111031250D03*
X148000000Y-70531250D03*
X139000000Y-95531250D03*
X149500000Y-89531250D03*
X141000000Y-67531250D03*
X147500000Y-110031250D03*
X145000000Y-111031250D03*
X145000000Y-74531250D03*
X139000000Y-116031250D03*
X141500000Y-107031250D03*
X150500000Y-83531250D03*
X145500000Y-71531250D03*
X143000000Y-114031250D03*
X146000000Y-109031250D03*
X138500000Y-109031250D03*
X143000000Y-97531250D03*
X150500000Y-95531250D03*
X146500000Y-97531250D03*
X150500000Y-73531250D03*
X140500000Y-111031250D03*
X147500000Y-69531250D03*
X143000000Y-108031250D03*
X149000000Y-100531250D03*
X143000000Y-93531250D03*
X148000000Y-78531250D03*
X140000000Y-116031250D03*
X139000000Y-87531250D03*
X148500000Y-112031250D03*
X146000000Y-82531250D03*
X142500000Y-68531250D03*
X149500000Y-77531250D03*
%TO.N,Net-(Q10-G)*%
X155529243Y-149431250D03*
X156250000Y-146031250D03*
X136000000Y-108281250D03*
X136000000Y-82531250D03*
X135750000Y-66250000D03*
X136000000Y-94031250D03*
%TO.N,/+BATT OUT*%
X130000000Y-97531250D03*
X127000000Y-101531250D03*
X128250000Y-110531250D03*
X126500000Y-73531250D03*
X126000000Y-90531250D03*
X126000000Y-76531250D03*
X129500000Y-96531250D03*
X130500000Y-71531250D03*
X130750000Y-115531250D03*
X128500000Y-85531250D03*
X127500000Y-75531250D03*
X127000000Y-90531250D03*
X129250000Y-110531250D03*
X126000000Y-72531250D03*
X128500000Y-96531250D03*
X127500000Y-87531250D03*
X127500000Y-71531250D03*
X131000000Y-76531250D03*
X129000000Y-101531250D03*
X126000000Y-86531250D03*
X126500000Y-75531250D03*
X126250000Y-110531250D03*
X126000000Y-74531250D03*
X126000000Y-97531250D03*
X126750000Y-113531250D03*
X128500000Y-100531250D03*
X126500000Y-89531250D03*
X128000000Y-76531250D03*
X126500000Y-71531250D03*
X128000000Y-72531250D03*
X125750000Y-115531250D03*
X129500000Y-89531250D03*
X130000000Y-72531250D03*
X130500000Y-89531250D03*
X127500000Y-73531250D03*
X125750000Y-111531250D03*
X129000000Y-76531250D03*
X128000000Y-86531250D03*
X130500000Y-75531250D03*
X130000000Y-90531250D03*
X130500000Y-85531250D03*
X126750000Y-111531250D03*
X127000000Y-88531250D03*
X127000000Y-97531250D03*
X129250000Y-114531250D03*
X131000000Y-101531250D03*
X128500000Y-71531250D03*
X128500000Y-75531250D03*
X131000000Y-90531250D03*
X128750000Y-115531250D03*
X127000000Y-86531250D03*
X128750000Y-111531250D03*
X127500000Y-89531250D03*
X126250000Y-114531250D03*
X130000000Y-101531250D03*
X128000000Y-97531250D03*
X130500000Y-100531250D03*
X126500000Y-100531250D03*
X129750000Y-111531250D03*
X127500000Y-98531250D03*
X130250000Y-110531250D03*
X129000000Y-90531250D03*
X126250000Y-112531250D03*
X126000000Y-101531250D03*
X126500000Y-87531250D03*
X128500000Y-89531250D03*
X125750000Y-113531250D03*
X126000000Y-88531250D03*
X130250000Y-114531250D03*
X127500000Y-85531250D03*
X127250000Y-112531250D03*
X127000000Y-74531250D03*
X127000000Y-76531250D03*
X127000000Y-72531250D03*
X129750000Y-115531250D03*
X129000000Y-72531250D03*
X126500000Y-96531250D03*
X127750000Y-115531250D03*
X128250000Y-114531250D03*
X130500000Y-96531250D03*
X127750000Y-111531250D03*
X127500000Y-96531250D03*
X127000000Y-99531250D03*
X126500000Y-85531250D03*
X129500000Y-75531250D03*
X126000000Y-99531250D03*
X128000000Y-101531250D03*
X127250000Y-114531250D03*
X127500000Y-100531250D03*
X129500000Y-85531250D03*
X129000000Y-86531250D03*
X128000000Y-90531250D03*
X127250000Y-110531250D03*
X130000000Y-86531250D03*
X126750000Y-115531250D03*
X129000000Y-97531250D03*
X126500000Y-98531250D03*
X129500000Y-100531250D03*
X129500000Y-71531250D03*
X130000000Y-76531250D03*
%TD*%
D15*
%TO.N,Net-(Q1-C)*%
X161000000Y-99781250D02*
X162000000Y-100781250D01*
X162000000Y-112781250D02*
X161000000Y-113781250D01*
X162000000Y-100781250D02*
X162000000Y-112781250D01*
X161000000Y-88281250D02*
X162000000Y-89281250D01*
X162000000Y-89281250D02*
X162000000Y-98781250D01*
X162000000Y-98781250D02*
X161000000Y-99781250D01*
X161000000Y-88281250D02*
X162000000Y-87281250D01*
X162000000Y-87281250D02*
X162000000Y-75000000D01*
X162000000Y-75000000D02*
X161500000Y-74500000D01*
%TO.N,Net-(Q10-G)*%
X135750000Y-66250000D02*
X136000000Y-66500000D01*
X136000000Y-66500000D02*
X136000000Y-82531250D01*
X136000000Y-94031250D02*
X136000000Y-82531250D01*
X155529243Y-146752007D02*
X155529243Y-149431250D01*
X136000000Y-94031250D02*
X136000000Y-108281250D01*
X156250000Y-146031250D02*
X155529243Y-146752007D01*
%TD*%
%TA.AperFunction,Conductor*%
%TO.N,/Drain*%
G36*
X152443039Y-65551435D02*
G01*
X152488794Y-65604239D01*
X152500000Y-65655750D01*
X152500000Y-117407250D01*
X152480315Y-117474289D01*
X152427511Y-117520044D01*
X152376000Y-117531250D01*
X136624000Y-117531250D01*
X136556961Y-117511565D01*
X136511206Y-117458761D01*
X136500000Y-117407250D01*
X136500000Y-108964690D01*
X136519685Y-108897651D01*
X136536319Y-108877009D01*
X136629816Y-108783512D01*
X136725789Y-108630772D01*
X136785368Y-108460505D01*
X136805565Y-108281250D01*
X136785368Y-108101995D01*
X136725789Y-107931728D01*
X136629816Y-107778988D01*
X136629814Y-107778986D01*
X136629813Y-107778984D01*
X136627550Y-107776146D01*
X136626659Y-107773965D01*
X136626111Y-107773092D01*
X136626264Y-107772995D01*
X136601144Y-107711459D01*
X136600500Y-107698837D01*
X136600500Y-103358928D01*
X141291347Y-103358928D01*
X141310904Y-103707177D01*
X141310906Y-103707189D01*
X141369330Y-104051053D01*
X141369332Y-104051062D01*
X141465890Y-104386222D01*
X141599369Y-104708473D01*
X141599371Y-104708477D01*
X141768096Y-105013760D01*
X141969942Y-105298236D01*
X142202360Y-105558310D01*
X142202363Y-105558313D01*
X142462437Y-105790731D01*
X142462443Y-105790735D01*
X142462444Y-105790736D01*
X142746914Y-105992578D01*
X142829640Y-106038299D01*
X143052196Y-106161302D01*
X143052200Y-106161304D01*
X143156797Y-106204629D01*
X143374446Y-106294782D01*
X143709617Y-106391343D01*
X144053492Y-106449769D01*
X144401746Y-106469327D01*
X144750000Y-106449769D01*
X145093875Y-106391343D01*
X145429046Y-106294782D01*
X145751298Y-106161301D01*
X146056578Y-105992578D01*
X146341048Y-105790736D01*
X146601130Y-105558312D01*
X146833554Y-105298230D01*
X147035396Y-105013760D01*
X147204119Y-104708480D01*
X147337600Y-104386228D01*
X147434161Y-104051057D01*
X147492587Y-103707182D01*
X147512145Y-103358928D01*
X147492587Y-103010674D01*
X147434161Y-102666799D01*
X147337600Y-102331628D01*
X147221166Y-102050530D01*
X147204122Y-102009382D01*
X147204120Y-102009378D01*
X147130231Y-101875687D01*
X147035396Y-101704096D01*
X146833554Y-101419626D01*
X146833553Y-101419625D01*
X146833549Y-101419619D01*
X146601131Y-101159545D01*
X146601128Y-101159542D01*
X146341054Y-100927124D01*
X146056578Y-100725278D01*
X145751295Y-100556553D01*
X145751291Y-100556551D01*
X145492523Y-100449367D01*
X145429046Y-100423074D01*
X145429042Y-100423072D01*
X145429040Y-100423072D01*
X145093880Y-100326514D01*
X145093871Y-100326512D01*
X144750007Y-100268088D01*
X144749995Y-100268086D01*
X144401746Y-100248529D01*
X144053496Y-100268086D01*
X144053484Y-100268088D01*
X143709620Y-100326512D01*
X143709611Y-100326514D01*
X143374451Y-100423072D01*
X143052200Y-100556551D01*
X143052196Y-100556553D01*
X142746913Y-100725278D01*
X142462437Y-100927124D01*
X142202363Y-101159542D01*
X142202360Y-101159545D01*
X141969942Y-101419619D01*
X141768096Y-101704095D01*
X141599371Y-102009378D01*
X141599369Y-102009382D01*
X141465890Y-102331633D01*
X141369332Y-102666793D01*
X141369330Y-102666802D01*
X141310906Y-103010666D01*
X141310904Y-103010678D01*
X141291347Y-103358928D01*
X136600500Y-103358928D01*
X136600500Y-94613662D01*
X136620185Y-94546623D01*
X136627555Y-94536347D01*
X136629810Y-94533517D01*
X136629816Y-94533512D01*
X136725789Y-94380772D01*
X136785368Y-94210505D01*
X136805565Y-94031250D01*
X136785368Y-93851995D01*
X136725789Y-93681728D01*
X136629816Y-93528988D01*
X136629814Y-93528986D01*
X136629813Y-93528984D01*
X136627550Y-93526146D01*
X136626659Y-93523965D01*
X136626111Y-93523092D01*
X136626264Y-93522995D01*
X136601144Y-93461459D01*
X136600500Y-93448837D01*
X136600500Y-83113662D01*
X136620185Y-83046623D01*
X136627555Y-83036347D01*
X136629810Y-83033517D01*
X136629816Y-83033512D01*
X136725789Y-82880772D01*
X136785368Y-82710505D01*
X136805565Y-82531250D01*
X136785368Y-82351995D01*
X136725789Y-82181728D01*
X136629816Y-82028988D01*
X136629814Y-82028986D01*
X136629813Y-82028984D01*
X136627550Y-82026146D01*
X136626659Y-82023965D01*
X136626111Y-82023092D01*
X136626264Y-82022995D01*
X136601144Y-81961459D01*
X136600500Y-81948837D01*
X136600500Y-78182996D01*
X141048760Y-78182996D01*
X141068317Y-78531245D01*
X141068319Y-78531257D01*
X141126743Y-78875121D01*
X141126745Y-78875130D01*
X141223303Y-79210290D01*
X141356782Y-79532541D01*
X141356784Y-79532545D01*
X141525509Y-79837828D01*
X141727355Y-80122304D01*
X141959773Y-80382378D01*
X141959776Y-80382381D01*
X142219850Y-80614799D01*
X142219856Y-80614803D01*
X142219857Y-80614804D01*
X142504327Y-80816646D01*
X142587053Y-80862367D01*
X142809609Y-80985370D01*
X142809613Y-80985372D01*
X142914210Y-81028697D01*
X143131859Y-81118850D01*
X143467030Y-81215411D01*
X143810905Y-81273837D01*
X144159159Y-81293395D01*
X144507413Y-81273837D01*
X144851288Y-81215411D01*
X145186459Y-81118850D01*
X145508711Y-80985369D01*
X145813991Y-80816646D01*
X146098461Y-80614804D01*
X146358543Y-80382380D01*
X146590967Y-80122298D01*
X146792809Y-79837828D01*
X146961532Y-79532548D01*
X147095013Y-79210296D01*
X147191574Y-78875125D01*
X147250000Y-78531250D01*
X147269558Y-78182996D01*
X147250000Y-77834742D01*
X147191574Y-77490867D01*
X147095013Y-77155696D01*
X146978579Y-76874598D01*
X146961535Y-76833450D01*
X146961533Y-76833446D01*
X146887644Y-76699755D01*
X146792809Y-76528164D01*
X146590967Y-76243694D01*
X146590966Y-76243693D01*
X146590962Y-76243687D01*
X146358544Y-75983613D01*
X146358541Y-75983610D01*
X146098467Y-75751192D01*
X145813991Y-75549346D01*
X145508708Y-75380621D01*
X145508704Y-75380619D01*
X145249936Y-75273435D01*
X145186459Y-75247142D01*
X145186455Y-75247140D01*
X145186453Y-75247140D01*
X144851293Y-75150582D01*
X144851284Y-75150580D01*
X144507420Y-75092156D01*
X144507408Y-75092154D01*
X144159159Y-75072597D01*
X143810909Y-75092154D01*
X143810897Y-75092156D01*
X143467033Y-75150580D01*
X143467024Y-75150582D01*
X143131864Y-75247140D01*
X142809613Y-75380619D01*
X142809609Y-75380621D01*
X142504326Y-75549346D01*
X142219850Y-75751192D01*
X141959776Y-75983610D01*
X141959773Y-75983613D01*
X141727355Y-76243687D01*
X141525509Y-76528163D01*
X141356784Y-76833446D01*
X141356782Y-76833450D01*
X141223303Y-77155701D01*
X141126745Y-77490861D01*
X141126743Y-77490870D01*
X141068319Y-77834734D01*
X141068317Y-77834746D01*
X141048760Y-78182996D01*
X136600500Y-78182996D01*
X136600500Y-66420945D01*
X136600500Y-66420943D01*
X136559577Y-66268216D01*
X136559575Y-66268213D01*
X136558599Y-66264569D01*
X136555155Y-66246366D01*
X136544438Y-66151251D01*
X136535369Y-66070749D01*
X136535367Y-66070742D01*
X136506958Y-65989552D01*
X136500000Y-65948598D01*
X136500000Y-65655750D01*
X136519685Y-65588711D01*
X136572489Y-65542956D01*
X136624000Y-65531750D01*
X152376000Y-65531750D01*
X152443039Y-65551435D01*
G37*
%TD.AperFunction*%
%TD*%
%TA.AperFunction,NonConductor*%
G36*
X144335839Y-75273434D02*
G01*
X144658235Y-75311117D01*
X144672420Y-75313618D01*
X144988262Y-75388474D01*
X145002067Y-75392607D01*
X145234218Y-75477103D01*
X145307082Y-75503624D01*
X145320310Y-75509329D01*
X145610393Y-75655014D01*
X145622851Y-75662208D01*
X145758138Y-75751188D01*
X145894032Y-75840567D01*
X145905599Y-75849178D01*
X146154253Y-76057824D01*
X146164741Y-76067719D01*
X146387474Y-76303802D01*
X146396743Y-76314848D01*
X146590570Y-76575202D01*
X146598494Y-76587250D01*
X146760781Y-76868340D01*
X146767253Y-76881226D01*
X146895812Y-77179261D01*
X146900744Y-77192811D01*
X146993837Y-77503760D01*
X146997162Y-77517792D01*
X147053523Y-77837434D01*
X147055197Y-77851756D01*
X147074070Y-78175786D01*
X147074070Y-78190206D01*
X147055197Y-78514235D01*
X147053523Y-78528557D01*
X146997162Y-78848199D01*
X146993837Y-78862231D01*
X146900744Y-79173180D01*
X146895812Y-79186730D01*
X146767253Y-79484765D01*
X146760781Y-79497651D01*
X146598494Y-79778741D01*
X146590570Y-79790789D01*
X146396743Y-80051143D01*
X146387474Y-80062189D01*
X146164741Y-80298272D01*
X146154253Y-80308167D01*
X145905599Y-80516813D01*
X145894032Y-80525424D01*
X145622859Y-80703778D01*
X145610380Y-80710983D01*
X145399991Y-80816645D01*
X145320322Y-80856656D01*
X145307082Y-80862367D01*
X145002072Y-80973382D01*
X144988257Y-80977518D01*
X144672428Y-81052371D01*
X144658228Y-81054875D01*
X144430251Y-81081521D01*
X144335838Y-81092557D01*
X144321445Y-81093395D01*
X143996873Y-81093395D01*
X143982479Y-81092557D01*
X143863399Y-81078638D01*
X143660089Y-81054875D01*
X143645889Y-81052371D01*
X143330060Y-80977518D01*
X143316245Y-80973382D01*
X143011235Y-80862367D01*
X142997999Y-80856658D01*
X142707930Y-80710979D01*
X142695458Y-80703778D01*
X142424285Y-80525424D01*
X142412718Y-80516813D01*
X142164064Y-80308167D01*
X142153576Y-80298272D01*
X141930843Y-80062189D01*
X141921574Y-80051143D01*
X141727747Y-79790789D01*
X141719823Y-79778741D01*
X141699815Y-79744086D01*
X141557532Y-79497644D01*
X141551067Y-79484772D01*
X141422505Y-79186730D01*
X141417573Y-79173180D01*
X141402660Y-79123368D01*
X141324477Y-78862221D01*
X141321157Y-78848210D01*
X141264793Y-78528556D01*
X141263120Y-78514235D01*
X141251164Y-78308957D01*
X141244247Y-78190190D01*
X141244247Y-78175801D01*
X141251164Y-78057034D01*
X142558659Y-78057034D01*
X142558659Y-78308957D01*
X142598069Y-78557781D01*
X142675919Y-78797379D01*
X142790291Y-79021844D01*
X142938360Y-79225645D01*
X142938364Y-79225650D01*
X143116504Y-79403790D01*
X143116509Y-79403794D01*
X143227957Y-79484765D01*
X143320314Y-79551866D01*
X143463343Y-79624743D01*
X143544775Y-79666235D01*
X143544777Y-79666235D01*
X143544780Y-79666237D01*
X143784374Y-79744086D01*
X144033197Y-79783496D01*
X144033198Y-79783496D01*
X144285120Y-79783496D01*
X144285121Y-79783496D01*
X144533944Y-79744086D01*
X144773538Y-79666237D01*
X144998004Y-79551866D01*
X145201815Y-79403789D01*
X145379952Y-79225652D01*
X145528029Y-79021841D01*
X145642400Y-78797375D01*
X145720249Y-78557781D01*
X145759659Y-78308958D01*
X145759659Y-78057034D01*
X145720249Y-77808211D01*
X145642400Y-77568617D01*
X145642398Y-77568614D01*
X145642398Y-77568612D01*
X145600906Y-77487180D01*
X145528029Y-77344151D01*
X145509111Y-77318113D01*
X145379957Y-77140346D01*
X145379953Y-77140341D01*
X145201813Y-76962201D01*
X145201808Y-76962197D01*
X144998007Y-76814128D01*
X144998006Y-76814127D01*
X144998004Y-76814126D01*
X144927906Y-76778409D01*
X144773542Y-76699756D01*
X144533944Y-76621906D01*
X144285121Y-76582496D01*
X144033197Y-76582496D01*
X144003182Y-76587250D01*
X143784373Y-76621906D01*
X143544775Y-76699756D01*
X143320310Y-76814128D01*
X143116509Y-76962197D01*
X143116504Y-76962201D01*
X142938364Y-77140341D01*
X142938360Y-77140346D01*
X142790291Y-77344147D01*
X142675919Y-77568612D01*
X142598069Y-77808210D01*
X142558659Y-78057034D01*
X141251164Y-78057034D01*
X141263120Y-77851753D01*
X141264794Y-77837434D01*
X141269947Y-77808210D01*
X141321158Y-77517777D01*
X141324476Y-77503774D01*
X141417574Y-77192808D01*
X141422505Y-77179261D01*
X141439291Y-77140346D01*
X141551070Y-76881212D01*
X141557529Y-76868353D01*
X141719828Y-76587241D01*
X141727741Y-76575210D01*
X141921580Y-76314840D01*
X141930836Y-76303809D01*
X142153579Y-76067716D01*
X142164064Y-76057824D01*
X142412718Y-75849178D01*
X142424276Y-75840573D01*
X142695474Y-75662203D01*
X142707916Y-75655018D01*
X142998013Y-75509326D01*
X143011230Y-75503625D01*
X143316254Y-75392606D01*
X143330050Y-75388475D01*
X143645900Y-75313618D01*
X143660079Y-75311117D01*
X143982478Y-75273434D01*
X143996873Y-75272597D01*
X144321445Y-75272597D01*
X144335839Y-75273434D01*
G37*
%TD.AperFunction*%
%TA.AperFunction,NonConductor*%
G36*
X144578426Y-100449366D02*
G01*
X144900822Y-100487049D01*
X144915007Y-100489550D01*
X145230849Y-100564406D01*
X145244654Y-100568539D01*
X145476805Y-100653035D01*
X145549669Y-100679556D01*
X145562897Y-100685261D01*
X145852980Y-100830946D01*
X145865438Y-100838140D01*
X146000725Y-100927120D01*
X146136619Y-101016499D01*
X146148186Y-101025110D01*
X146396840Y-101233756D01*
X146407328Y-101243651D01*
X146630061Y-101479734D01*
X146639330Y-101490780D01*
X146833157Y-101751134D01*
X146841081Y-101763182D01*
X147003368Y-102044272D01*
X147009840Y-102057158D01*
X147138399Y-102355193D01*
X147143331Y-102368743D01*
X147236424Y-102679692D01*
X147239749Y-102693724D01*
X147296110Y-103013366D01*
X147297784Y-103027688D01*
X147316657Y-103351718D01*
X147316657Y-103366138D01*
X147297784Y-103690167D01*
X147296110Y-103704489D01*
X147239749Y-104024131D01*
X147236424Y-104038163D01*
X147143331Y-104349112D01*
X147138399Y-104362662D01*
X147009840Y-104660697D01*
X147003368Y-104673583D01*
X146841081Y-104954673D01*
X146833157Y-104966721D01*
X146639330Y-105227075D01*
X146630061Y-105238121D01*
X146407328Y-105474204D01*
X146396840Y-105484099D01*
X146148186Y-105692745D01*
X146136619Y-105701356D01*
X145865446Y-105879710D01*
X145852967Y-105886915D01*
X145642578Y-105992577D01*
X145562909Y-106032588D01*
X145549669Y-106038299D01*
X145244659Y-106149314D01*
X145230844Y-106153450D01*
X144915015Y-106228303D01*
X144900815Y-106230807D01*
X144672838Y-106257453D01*
X144578425Y-106268489D01*
X144564032Y-106269327D01*
X144239460Y-106269327D01*
X144225066Y-106268489D01*
X144105986Y-106254570D01*
X143902676Y-106230807D01*
X143888476Y-106228303D01*
X143572647Y-106153450D01*
X143558832Y-106149314D01*
X143253822Y-106038299D01*
X143240586Y-106032590D01*
X142950517Y-105886911D01*
X142938045Y-105879710D01*
X142666872Y-105701356D01*
X142655305Y-105692745D01*
X142406651Y-105484099D01*
X142396163Y-105474204D01*
X142173430Y-105238121D01*
X142164161Y-105227075D01*
X141970334Y-104966721D01*
X141962410Y-104954673D01*
X141942402Y-104920018D01*
X141800119Y-104673576D01*
X141793654Y-104660704D01*
X141665092Y-104362662D01*
X141660160Y-104349112D01*
X141645247Y-104299300D01*
X141567064Y-104038153D01*
X141563744Y-104024142D01*
X141507380Y-103704488D01*
X141505707Y-103690167D01*
X141493751Y-103484889D01*
X141486834Y-103366122D01*
X141486834Y-103351733D01*
X141493751Y-103232966D01*
X142801246Y-103232966D01*
X142801246Y-103484889D01*
X142840656Y-103733713D01*
X142918506Y-103973311D01*
X143032878Y-104197776D01*
X143180947Y-104401577D01*
X143180951Y-104401582D01*
X143359091Y-104579722D01*
X143359096Y-104579726D01*
X143470544Y-104660697D01*
X143562901Y-104727798D01*
X143705930Y-104800675D01*
X143787362Y-104842167D01*
X143787364Y-104842167D01*
X143787367Y-104842169D01*
X144026961Y-104920018D01*
X144275784Y-104959428D01*
X144275785Y-104959428D01*
X144527707Y-104959428D01*
X144527708Y-104959428D01*
X144776531Y-104920018D01*
X145016125Y-104842169D01*
X145240591Y-104727798D01*
X145444402Y-104579721D01*
X145622539Y-104401584D01*
X145770616Y-104197773D01*
X145884987Y-103973307D01*
X145962836Y-103733713D01*
X146002246Y-103484890D01*
X146002246Y-103232966D01*
X145962836Y-102984143D01*
X145884987Y-102744549D01*
X145884985Y-102744546D01*
X145884985Y-102744544D01*
X145843493Y-102663112D01*
X145770616Y-102520083D01*
X145751698Y-102494045D01*
X145622544Y-102316278D01*
X145622540Y-102316273D01*
X145444400Y-102138133D01*
X145444395Y-102138129D01*
X145240594Y-101990060D01*
X145240593Y-101990059D01*
X145240591Y-101990058D01*
X145170493Y-101954341D01*
X145016129Y-101875688D01*
X144776531Y-101797838D01*
X144527708Y-101758428D01*
X144275784Y-101758428D01*
X144245769Y-101763182D01*
X144026960Y-101797838D01*
X143787362Y-101875688D01*
X143562897Y-101990060D01*
X143359096Y-102138129D01*
X143359091Y-102138133D01*
X143180951Y-102316273D01*
X143180947Y-102316278D01*
X143032878Y-102520079D01*
X142918506Y-102744544D01*
X142840656Y-102984142D01*
X142801246Y-103232966D01*
X141493751Y-103232966D01*
X141505707Y-103027685D01*
X141507381Y-103013366D01*
X141512534Y-102984142D01*
X141563745Y-102693709D01*
X141567063Y-102679706D01*
X141660161Y-102368740D01*
X141665092Y-102355193D01*
X141681878Y-102316278D01*
X141793657Y-102057144D01*
X141800116Y-102044285D01*
X141962415Y-101763173D01*
X141970328Y-101751142D01*
X142164167Y-101490772D01*
X142173423Y-101479741D01*
X142396166Y-101243648D01*
X142406651Y-101233756D01*
X142655305Y-101025110D01*
X142666863Y-101016505D01*
X142938061Y-100838135D01*
X142950503Y-100830950D01*
X143240600Y-100685258D01*
X143253817Y-100679557D01*
X143558841Y-100568538D01*
X143572637Y-100564407D01*
X143888487Y-100489550D01*
X143902666Y-100487049D01*
X144225065Y-100449366D01*
X144239460Y-100448529D01*
X144564032Y-100448529D01*
X144578426Y-100449366D01*
G37*
%TD.AperFunction*%
%TA.AperFunction,Conductor*%
%TO.N,/+BATT_IN*%
G36*
X159761409Y-65532066D02*
G01*
X160025790Y-65550974D01*
X160043291Y-65553491D01*
X160304803Y-65610379D01*
X160321762Y-65615358D01*
X160572524Y-65708888D01*
X160588616Y-65716237D01*
X160823501Y-65844494D01*
X160838375Y-65854052D01*
X161052624Y-66014438D01*
X161065994Y-66026024D01*
X161255225Y-66215255D01*
X161266811Y-66228625D01*
X161427193Y-66442869D01*
X161436758Y-66457753D01*
X161565011Y-66692632D01*
X161572361Y-66708725D01*
X161665888Y-66959479D01*
X161670872Y-66976455D01*
X161727757Y-67237952D01*
X161730275Y-67255464D01*
X161749684Y-67526831D01*
X161750000Y-67535677D01*
X161750000Y-73583846D01*
X161730315Y-73650885D01*
X161677511Y-73696640D01*
X161612118Y-73707066D01*
X161500005Y-73694435D01*
X161499996Y-73694435D01*
X161320750Y-73714630D01*
X161320745Y-73714631D01*
X161150476Y-73774211D01*
X160997737Y-73870184D01*
X160870184Y-73997737D01*
X160774211Y-74150476D01*
X160714631Y-74320745D01*
X160714630Y-74320750D01*
X160694435Y-74499996D01*
X160694435Y-74500003D01*
X160714630Y-74679249D01*
X160714631Y-74679254D01*
X160774211Y-74849523D01*
X160870184Y-75002262D01*
X160997738Y-75129816D01*
X161150478Y-75225789D01*
X161316455Y-75283867D01*
X161373230Y-75324588D01*
X161398978Y-75389540D01*
X161399500Y-75400908D01*
X161399500Y-86981152D01*
X161379815Y-87048191D01*
X161363181Y-87068833D01*
X160981465Y-87450548D01*
X160920142Y-87484033D01*
X160907668Y-87486087D01*
X160820750Y-87495880D01*
X160650478Y-87555460D01*
X160497737Y-87651434D01*
X160370184Y-87778987D01*
X160274211Y-87931726D01*
X160214631Y-88101995D01*
X160214630Y-88102000D01*
X160194435Y-88281246D01*
X160194435Y-88281253D01*
X160214630Y-88460499D01*
X160214631Y-88460504D01*
X160274211Y-88630773D01*
X160306094Y-88681514D01*
X160370184Y-88783512D01*
X160497738Y-88911066D01*
X160650478Y-89007039D01*
X160820745Y-89066618D01*
X160907669Y-89076411D01*
X160972080Y-89103476D01*
X160981465Y-89111950D01*
X161363181Y-89493666D01*
X161396666Y-89554989D01*
X161399500Y-89581347D01*
X161399500Y-98481152D01*
X161379815Y-98548191D01*
X161363181Y-98568833D01*
X160981465Y-98950548D01*
X160920142Y-98984033D01*
X160907668Y-98986087D01*
X160820750Y-98995880D01*
X160650478Y-99055460D01*
X160497737Y-99151434D01*
X160370184Y-99278987D01*
X160274211Y-99431726D01*
X160214631Y-99601995D01*
X160214630Y-99602000D01*
X160194435Y-99781246D01*
X160194435Y-99781253D01*
X160214630Y-99960499D01*
X160214631Y-99960504D01*
X160274211Y-100130773D01*
X160306094Y-100181514D01*
X160370184Y-100283512D01*
X160497738Y-100411066D01*
X160650478Y-100507039D01*
X160820745Y-100566618D01*
X160907669Y-100576411D01*
X160972080Y-100603476D01*
X160981465Y-100611950D01*
X161363181Y-100993666D01*
X161396666Y-101054989D01*
X161399500Y-101081347D01*
X161399500Y-112481152D01*
X161379815Y-112548191D01*
X161363181Y-112568833D01*
X160981465Y-112950548D01*
X160920142Y-112984033D01*
X160907668Y-112986087D01*
X160820750Y-112995880D01*
X160650478Y-113055460D01*
X160497737Y-113151434D01*
X160370184Y-113278987D01*
X160274211Y-113431726D01*
X160214631Y-113601995D01*
X160214630Y-113602000D01*
X160194435Y-113781246D01*
X160194435Y-113781253D01*
X160214630Y-113960499D01*
X160214631Y-113960504D01*
X160274211Y-114130773D01*
X160370184Y-114283512D01*
X160497738Y-114411066D01*
X160650478Y-114507039D01*
X160820745Y-114566618D01*
X160820750Y-114566619D01*
X160999996Y-114586815D01*
X161000000Y-114586815D01*
X161000004Y-114586815D01*
X161179249Y-114566619D01*
X161179252Y-114566618D01*
X161179255Y-114566618D01*
X161349522Y-114507039D01*
X161502262Y-114411066D01*
X161538319Y-114375009D01*
X161599642Y-114341524D01*
X161669334Y-114346508D01*
X161725267Y-114388380D01*
X161749684Y-114453844D01*
X161750000Y-114462690D01*
X161750000Y-137526822D01*
X161749684Y-137535668D01*
X161730275Y-137807035D01*
X161727757Y-137824547D01*
X161670872Y-138086044D01*
X161665888Y-138103020D01*
X161572361Y-138353774D01*
X161565011Y-138369867D01*
X161436758Y-138604746D01*
X161427193Y-138619630D01*
X161266811Y-138833874D01*
X161255225Y-138847244D01*
X161065994Y-139036475D01*
X161052624Y-139048061D01*
X160838380Y-139208443D01*
X160823494Y-139218009D01*
X160803687Y-139228824D01*
X160735414Y-139243675D01*
X160669950Y-139219257D01*
X160628079Y-139163323D01*
X160623096Y-139093631D01*
X160643130Y-139048239D01*
X160808594Y-138815041D01*
X160977317Y-138509761D01*
X161110798Y-138187509D01*
X161207359Y-137852338D01*
X161265785Y-137508463D01*
X161285343Y-137160209D01*
X161265785Y-136811955D01*
X161207359Y-136468080D01*
X161110798Y-136132909D01*
X160994364Y-135851811D01*
X160977320Y-135810663D01*
X160977318Y-135810659D01*
X160973644Y-135804011D01*
X160808594Y-135505377D01*
X160606752Y-135220907D01*
X160606751Y-135220906D01*
X160606747Y-135220900D01*
X160374329Y-134960826D01*
X160374326Y-134960823D01*
X160114252Y-134728405D01*
X159829776Y-134526559D01*
X159524493Y-134357834D01*
X159524489Y-134357832D01*
X159265721Y-134250648D01*
X159202244Y-134224355D01*
X159202240Y-134224353D01*
X159202238Y-134224353D01*
X158867078Y-134127795D01*
X158867069Y-134127793D01*
X158523205Y-134069369D01*
X158523193Y-134069367D01*
X158174944Y-134049810D01*
X157826694Y-134069367D01*
X157826682Y-134069369D01*
X157482818Y-134127793D01*
X157482809Y-134127795D01*
X157147649Y-134224353D01*
X156825398Y-134357832D01*
X156825394Y-134357834D01*
X156520111Y-134526559D01*
X156235635Y-134728405D01*
X155975561Y-134960823D01*
X155975558Y-134960826D01*
X155743140Y-135220900D01*
X155541294Y-135505376D01*
X155372569Y-135810659D01*
X155372567Y-135810663D01*
X155239088Y-136132914D01*
X155142530Y-136468074D01*
X155142528Y-136468083D01*
X155084104Y-136811947D01*
X155084102Y-136811959D01*
X155064545Y-137160209D01*
X155084102Y-137508458D01*
X155084104Y-137508470D01*
X155142528Y-137852334D01*
X155142530Y-137852343D01*
X155239088Y-138187503D01*
X155239090Y-138187509D01*
X155279934Y-138286117D01*
X155372567Y-138509754D01*
X155372569Y-138509758D01*
X155541294Y-138815041D01*
X155743140Y-139099517D01*
X155975558Y-139359591D01*
X155975561Y-139359594D01*
X156235635Y-139592012D01*
X156235641Y-139592016D01*
X156235642Y-139592017D01*
X156520112Y-139793859D01*
X156803703Y-139950595D01*
X156825394Y-139962583D01*
X156825398Y-139962585D01*
X156929995Y-140005910D01*
X157147644Y-140096063D01*
X157250000Y-140125551D01*
X157250000Y-141531247D01*
X157250000Y-141776822D01*
X157249684Y-141785668D01*
X157230275Y-142057035D01*
X157227757Y-142074547D01*
X157170872Y-142336044D01*
X157165888Y-142353020D01*
X157072361Y-142603774D01*
X157065011Y-142619867D01*
X156936758Y-142854746D01*
X156927193Y-142869630D01*
X156766811Y-143083874D01*
X156755225Y-143097244D01*
X156565994Y-143286475D01*
X156552624Y-143298061D01*
X156338380Y-143458443D01*
X156323496Y-143468008D01*
X156088617Y-143596261D01*
X156072524Y-143603611D01*
X155821770Y-143697138D01*
X155804794Y-143702122D01*
X155543297Y-143759007D01*
X155525785Y-143761525D01*
X155254418Y-143780934D01*
X155245572Y-143781250D01*
X150500000Y-143781250D01*
X150500000Y-145781247D01*
X150500000Y-148526822D01*
X150499684Y-148535668D01*
X150480275Y-148807035D01*
X150477757Y-148824547D01*
X150420872Y-149086044D01*
X150415888Y-149103020D01*
X150322361Y-149353774D01*
X150315011Y-149369867D01*
X150186758Y-149604746D01*
X150177193Y-149619630D01*
X150016811Y-149833874D01*
X150005226Y-149847244D01*
X149858037Y-149994432D01*
X149796717Y-150027916D01*
X149770358Y-150030750D01*
X125479642Y-150030750D01*
X125412603Y-150011065D01*
X125391961Y-149994431D01*
X125286819Y-149889289D01*
X125253334Y-149827966D01*
X125250500Y-149801608D01*
X125250500Y-144631243D01*
X128974700Y-144631243D01*
X128974700Y-144631256D01*
X128993864Y-144862547D01*
X128993866Y-144862558D01*
X129050842Y-145087550D01*
X129144075Y-145300098D01*
X129271016Y-145494397D01*
X129271019Y-145494401D01*
X129271021Y-145494403D01*
X129428216Y-145665163D01*
X129428219Y-145665165D01*
X129428222Y-145665168D01*
X129611365Y-145807714D01*
X129611371Y-145807718D01*
X129611374Y-145807720D01*
X129815497Y-145918186D01*
X129929487Y-145957318D01*
X130035015Y-145993547D01*
X130035017Y-145993547D01*
X130035019Y-145993548D01*
X130263951Y-146031750D01*
X130263952Y-146031750D01*
X130496048Y-146031750D01*
X130496049Y-146031750D01*
X130724981Y-145993548D01*
X130944503Y-145918186D01*
X131148626Y-145807720D01*
X131331784Y-145665163D01*
X131340130Y-145656096D01*
X131400010Y-145620104D01*
X131469849Y-145622199D01*
X131527468Y-145661719D01*
X131547544Y-145696741D01*
X131576203Y-145773580D01*
X131576206Y-145773585D01*
X131662452Y-145888794D01*
X131662455Y-145888797D01*
X131777664Y-145975043D01*
X131777671Y-145975047D01*
X131912517Y-146025341D01*
X131912516Y-146025341D01*
X131919444Y-146026085D01*
X131972127Y-146031750D01*
X133867872Y-146031749D01*
X133927483Y-146025341D01*
X134062331Y-145975046D01*
X134177546Y-145888796D01*
X134263796Y-145773581D01*
X134314091Y-145638733D01*
X134320500Y-145579123D01*
X134320499Y-143683378D01*
X134314091Y-143623767D01*
X134306573Y-143603611D01*
X134263797Y-143488921D01*
X134263793Y-143488914D01*
X134177547Y-143373705D01*
X134177544Y-143373702D01*
X134062335Y-143287456D01*
X134062328Y-143287452D01*
X133927482Y-143237158D01*
X133927483Y-143237158D01*
X133867883Y-143230751D01*
X133867881Y-143230750D01*
X133867873Y-143230750D01*
X133867864Y-143230750D01*
X131972129Y-143230750D01*
X131972123Y-143230751D01*
X131912516Y-143237158D01*
X131777671Y-143287452D01*
X131777664Y-143287456D01*
X131662455Y-143373702D01*
X131662452Y-143373705D01*
X131576206Y-143488914D01*
X131576203Y-143488920D01*
X131547544Y-143565758D01*
X131505672Y-143621691D01*
X131440208Y-143646108D01*
X131371935Y-143631256D01*
X131340135Y-143606408D01*
X131331784Y-143597337D01*
X131331778Y-143597332D01*
X131331777Y-143597331D01*
X131148634Y-143454785D01*
X131148628Y-143454781D01*
X130944504Y-143344314D01*
X130944495Y-143344311D01*
X130724984Y-143268952D01*
X130534450Y-143237158D01*
X130496049Y-143230750D01*
X130263951Y-143230750D01*
X130225550Y-143237158D01*
X130035015Y-143268952D01*
X129815504Y-143344311D01*
X129815495Y-143344314D01*
X129611371Y-143454781D01*
X129611365Y-143454785D01*
X129428222Y-143597331D01*
X129428219Y-143597334D01*
X129428216Y-143597336D01*
X129428216Y-143597337D01*
X129383319Y-143646108D01*
X129271016Y-143768102D01*
X129144075Y-143962401D01*
X129050842Y-144174949D01*
X128993866Y-144399941D01*
X128993864Y-144399952D01*
X128974700Y-144631243D01*
X125250500Y-144631243D01*
X125250500Y-137160209D01*
X126133359Y-137160209D01*
X126152916Y-137508458D01*
X126152918Y-137508470D01*
X126211342Y-137852334D01*
X126211344Y-137852343D01*
X126307902Y-138187503D01*
X126307904Y-138187509D01*
X126348748Y-138286117D01*
X126441381Y-138509754D01*
X126441383Y-138509758D01*
X126610108Y-138815041D01*
X126811954Y-139099517D01*
X127044372Y-139359591D01*
X127044375Y-139359594D01*
X127304449Y-139592012D01*
X127304455Y-139592016D01*
X127304456Y-139592017D01*
X127588926Y-139793859D01*
X127872517Y-139950595D01*
X127894208Y-139962583D01*
X127894212Y-139962585D01*
X127998809Y-140005910D01*
X128216458Y-140096063D01*
X128551629Y-140192624D01*
X128895504Y-140251050D01*
X129243758Y-140270608D01*
X129592012Y-140251050D01*
X129935887Y-140192624D01*
X130271058Y-140096063D01*
X130593310Y-139962582D01*
X130898590Y-139793859D01*
X131183060Y-139592017D01*
X131443142Y-139359593D01*
X131675566Y-139099511D01*
X131877408Y-138815041D01*
X132046131Y-138509761D01*
X132179612Y-138187509D01*
X132276173Y-137852338D01*
X132334599Y-137508463D01*
X132354157Y-137160209D01*
X132334599Y-136811955D01*
X132276173Y-136468080D01*
X132179612Y-136132909D01*
X132063178Y-135851811D01*
X132046134Y-135810663D01*
X132046132Y-135810659D01*
X132042458Y-135804011D01*
X131877408Y-135505377D01*
X131675566Y-135220907D01*
X131675565Y-135220906D01*
X131675561Y-135220900D01*
X131443143Y-134960826D01*
X131443140Y-134960823D01*
X131183066Y-134728405D01*
X130898590Y-134526559D01*
X130593307Y-134357834D01*
X130593303Y-134357832D01*
X130334535Y-134250648D01*
X130271058Y-134224355D01*
X130271054Y-134224353D01*
X130271052Y-134224353D01*
X129935892Y-134127795D01*
X129935883Y-134127793D01*
X129592019Y-134069369D01*
X129592007Y-134069367D01*
X129243758Y-134049810D01*
X128895508Y-134069367D01*
X128895496Y-134069369D01*
X128551632Y-134127793D01*
X128551623Y-134127795D01*
X128216463Y-134224353D01*
X127894212Y-134357832D01*
X127894208Y-134357834D01*
X127588925Y-134526559D01*
X127304449Y-134728405D01*
X127044375Y-134960823D01*
X127044372Y-134960826D01*
X126811954Y-135220900D01*
X126610108Y-135505376D01*
X126441383Y-135810659D01*
X126441381Y-135810663D01*
X126307902Y-136132914D01*
X126211344Y-136468074D01*
X126211342Y-136468083D01*
X126152918Y-136811947D01*
X126152916Y-136811959D01*
X126133359Y-137160209D01*
X125250500Y-137160209D01*
X125250500Y-128160750D01*
X125270185Y-128093711D01*
X125322989Y-128047956D01*
X125374500Y-128036750D01*
X145625990Y-128036750D01*
X145626000Y-128036750D01*
X145733456Y-128025197D01*
X145784967Y-128013991D01*
X145819197Y-128002597D01*
X145887497Y-127979866D01*
X145887501Y-127979863D01*
X145887504Y-127979863D01*
X146008543Y-127902075D01*
X146061347Y-127856320D01*
X146155567Y-127747586D01*
X146215338Y-127616709D01*
X146235023Y-127549670D01*
X146235024Y-127549666D01*
X146255500Y-127407250D01*
X146255500Y-118160750D01*
X146275185Y-118093711D01*
X146327989Y-118047956D01*
X146379500Y-118036750D01*
X152375990Y-118036750D01*
X152376000Y-118036750D01*
X152483456Y-118025197D01*
X152534967Y-118013991D01*
X152569197Y-118002597D01*
X152637497Y-117979866D01*
X152637501Y-117979863D01*
X152637504Y-117979863D01*
X152758543Y-117902075D01*
X152811347Y-117856320D01*
X152905567Y-117747586D01*
X152965338Y-117616709D01*
X152985023Y-117549670D01*
X152985024Y-117549666D01*
X153005500Y-117407250D01*
X153005500Y-65655750D01*
X153025185Y-65588711D01*
X153077989Y-65542956D01*
X153129500Y-65531750D01*
X159752563Y-65531750D01*
X159761409Y-65532066D01*
G37*
%TD.AperFunction*%
%TD*%
%TA.AperFunction,Conductor*%
%TO.N,/+BATT OUT*%
G36*
X135103849Y-65551435D02*
G01*
X135149604Y-65604239D01*
X135159548Y-65673397D01*
X135130523Y-65736953D01*
X135124491Y-65743431D01*
X135120184Y-65747737D01*
X135024211Y-65900476D01*
X134964631Y-66070745D01*
X134964630Y-66070750D01*
X134944435Y-66249996D01*
X134944435Y-66250003D01*
X134964630Y-66429249D01*
X134964631Y-66429254D01*
X135024211Y-66599523D01*
X135120184Y-66752262D01*
X135247740Y-66879818D01*
X135341471Y-66938712D01*
X135387763Y-66991046D01*
X135399500Y-67043706D01*
X135399500Y-81948837D01*
X135379815Y-82015876D01*
X135372450Y-82026146D01*
X135370186Y-82028984D01*
X135274211Y-82181726D01*
X135214631Y-82351995D01*
X135214630Y-82352000D01*
X135194435Y-82531246D01*
X135194435Y-82531253D01*
X135214630Y-82710499D01*
X135214631Y-82710504D01*
X135274211Y-82880773D01*
X135370185Y-83033513D01*
X135372445Y-83036347D01*
X135373334Y-83038525D01*
X135373889Y-83039408D01*
X135373734Y-83039505D01*
X135398855Y-83101033D01*
X135399500Y-83113662D01*
X135399500Y-93448837D01*
X135379815Y-93515876D01*
X135372450Y-93526146D01*
X135370186Y-93528984D01*
X135274211Y-93681726D01*
X135214631Y-93851995D01*
X135214630Y-93852000D01*
X135194435Y-94031246D01*
X135194435Y-94031253D01*
X135214630Y-94210499D01*
X135214631Y-94210504D01*
X135274211Y-94380773D01*
X135370185Y-94533513D01*
X135372445Y-94536347D01*
X135373334Y-94538525D01*
X135373889Y-94539408D01*
X135373734Y-94539505D01*
X135398855Y-94601033D01*
X135399500Y-94613662D01*
X135399500Y-107698837D01*
X135379815Y-107765876D01*
X135372450Y-107776146D01*
X135370186Y-107778984D01*
X135274211Y-107931726D01*
X135214631Y-108101995D01*
X135214630Y-108102000D01*
X135194435Y-108281246D01*
X135194435Y-108281253D01*
X135214630Y-108460499D01*
X135214631Y-108460504D01*
X135274211Y-108630773D01*
X135370184Y-108783512D01*
X135497738Y-108911066D01*
X135650478Y-109007039D01*
X135820745Y-109066618D01*
X135884385Y-109073788D01*
X135948796Y-109100853D01*
X135988352Y-109158448D01*
X135994500Y-109197008D01*
X135994500Y-117407250D01*
X135994501Y-117407259D01*
X136006052Y-117514700D01*
X136006054Y-117514712D01*
X136017260Y-117566222D01*
X136051383Y-117668747D01*
X136051386Y-117668753D01*
X136129171Y-117789787D01*
X136129179Y-117789798D01*
X136174923Y-117842590D01*
X136174926Y-117842593D01*
X136174930Y-117842597D01*
X136283664Y-117936817D01*
X136414541Y-117996588D01*
X136481580Y-118016273D01*
X136481584Y-118016274D01*
X136624000Y-118036750D01*
X136624003Y-118036750D01*
X145626000Y-118036750D01*
X145693039Y-118056435D01*
X145738794Y-118109239D01*
X145750000Y-118160750D01*
X145750000Y-127407250D01*
X145730315Y-127474289D01*
X145677511Y-127520044D01*
X145626000Y-127531250D01*
X125374500Y-127531250D01*
X125307461Y-127511565D01*
X125261706Y-127458761D01*
X125250500Y-127407250D01*
X125250500Y-65655750D01*
X125270185Y-65588711D01*
X125322989Y-65542956D01*
X125374500Y-65531750D01*
X135036810Y-65531750D01*
X135103849Y-65551435D01*
G37*
%TD.AperFunction*%
%TD*%
M02*
