%TF.GenerationSoftware,KiCad,Pcbnew,8.0.7*%
%TF.CreationDate,2025-01-06T13:09:21+01:00*%
%TF.ProjectId,BMU_switch_mosfet,424d555f-7377-4697-9463-685f6d6f7366,rev?*%
%TF.SameCoordinates,Original*%
%TF.FileFunction,Other,Comment*%
%FSLAX46Y46*%
G04 Gerber Fmt 4.6, Leading zero omitted, Abs format (unit mm)*
G04 Created by KiCad (PCBNEW 8.0.7) date 2025-01-06 13:09:21*
%MOMM*%
%LPD*%
G01*
G04 APERTURE LIST*
%ADD10C,0.300000*%
%ADD11C,0.150000*%
G04 APERTURE END LIST*
D10*
%TO.C,Q7*%
X129320000Y-69031250D02*
G75*
G02*
X129020000Y-69031250I-150000J0D01*
G01*
X129020000Y-69031250D02*
G75*
G02*
X129320000Y-69031250I150000J0D01*
G01*
D11*
%TO.C,H2*%
X131875566Y-137024810D02*
G75*
G02*
X126475566Y-137024810I-2700000J0D01*
G01*
X126475566Y-137024810D02*
G75*
G02*
X131875566Y-137024810I2700000J0D01*
G01*
D10*
%TO.C,Q5*%
X159400000Y-74031250D02*
G75*
G02*
X159100000Y-74031250I-150000J0D01*
G01*
X159100000Y-74031250D02*
G75*
G02*
X159400000Y-74031250I150000J0D01*
G01*
%TO.C,Q9*%
X129320000Y-94171250D02*
G75*
G02*
X129020000Y-94171250I-150000J0D01*
G01*
X129020000Y-94171250D02*
G75*
G02*
X129320000Y-94171250I150000J0D01*
G01*
%TO.C,Q2*%
X159400000Y-113241250D02*
G75*
G02*
X159100000Y-113241250I-150000J0D01*
G01*
X159100000Y-113241250D02*
G75*
G02*
X159400000Y-113241250I150000J0D01*
G01*
%TO.C,Q8*%
X129320000Y-82601250D02*
G75*
G02*
X129020000Y-82601250I-150000J0D01*
G01*
X129020000Y-82601250D02*
G75*
G02*
X129320000Y-82601250I150000J0D01*
G01*
%TO.C,Q3*%
X159400000Y-99171250D02*
G75*
G02*
X159100000Y-99171250I-150000J0D01*
G01*
X159100000Y-99171250D02*
G75*
G02*
X159400000Y-99171250I150000J0D01*
G01*
D11*
%TO.C,H2*%
X160806752Y-137024810D02*
G75*
G02*
X155406752Y-137024810I-2700000J0D01*
G01*
X155406752Y-137024810D02*
G75*
G02*
X160806752Y-137024810I2700000J0D01*
G01*
D10*
%TO.C,Q4*%
X159400000Y-87601250D02*
G75*
G02*
X159100000Y-87601250I-150000J0D01*
G01*
X159100000Y-87601250D02*
G75*
G02*
X159400000Y-87601250I150000J0D01*
G01*
%TO.C,Q10*%
X129320000Y-108241250D02*
G75*
G02*
X129020000Y-108241250I-150000J0D01*
G01*
X129020000Y-108241250D02*
G75*
G02*
X129320000Y-108241250I150000J0D01*
G01*
D11*
%TO.C,H1*%
X147101746Y-103358928D02*
G75*
G02*
X141701746Y-103358928I-2700000J0D01*
G01*
X141701746Y-103358928D02*
G75*
G02*
X147101746Y-103358928I2700000J0D01*
G01*
X146859159Y-78182996D02*
G75*
G02*
X141459159Y-78182996I-2700000J0D01*
G01*
X141459159Y-78182996D02*
G75*
G02*
X146859159Y-78182996I2700000J0D01*
G01*
%TD*%
M02*
