%TF.GenerationSoftware,KiCad,Pcbnew,8.0.7*%
%TF.CreationDate,2025-01-06T13:09:21+01:00*%
%TF.ProjectId,BMU_switch_mosfet,424d555f-7377-4697-9463-685f6d6f7366,rev?*%
%TF.SameCoordinates,Original*%
%TF.FileFunction,Paste,Top*%
%TF.FilePolarity,Positive*%
%FSLAX46Y46*%
G04 Gerber Fmt 4.6, Leading zero omitted, Abs format (unit mm)*
G04 Created by KiCad (PCBNEW 8.0.7) date 2025-01-06 13:09:21*
%MOMM*%
%LPD*%
G01*
G04 APERTURE LIST*
G04 Aperture macros list*
%AMRoundRect*
0 Rectangle with rounded corners*
0 $1 Rounding radius*
0 $2 $3 $4 $5 $6 $7 $8 $9 X,Y pos of 4 corners*
0 Add a 4 corners polygon primitive as box body*
4,1,4,$2,$3,$4,$5,$6,$7,$8,$9,$2,$3,0*
0 Add four circle primitives for the rounded corners*
1,1,$1+$1,$2,$3*
1,1,$1+$1,$4,$5*
1,1,$1+$1,$6,$7*
1,1,$1+$1,$8,$9*
0 Add four rect primitives between the rounded corners*
20,1,$1+$1,$2,$3,$4,$5,0*
20,1,$1+$1,$4,$5,$6,$7,0*
20,1,$1+$1,$6,$7,$8,$9,0*
20,1,$1+$1,$8,$9,$2,$3,0*%
G04 Aperture macros list end*
%ADD10R,3.360000X1.130000*%
%ADD11R,7.180000X10.570000*%
%ADD12RoundRect,0.200000X0.275000X-0.200000X0.275000X0.200000X-0.275000X0.200000X-0.275000X-0.200000X0*%
%ADD13RoundRect,0.150000X-0.150000X0.512500X-0.150000X-0.512500X0.150000X-0.512500X0.150000X0.512500X0*%
%ADD14RoundRect,0.200000X0.200000X0.275000X-0.200000X0.275000X-0.200000X-0.275000X0.200000X-0.275000X0*%
%ADD15RoundRect,0.200000X-0.200000X-0.275000X0.200000X-0.275000X0.200000X0.275000X-0.200000X0.275000X0*%
G04 APERTURE END LIST*
D10*
%TO.C,Q7*%
X129630000Y-68991250D03*
X129630000Y-74071250D03*
D11*
X140210000Y-71531250D03*
%TD*%
D10*
%TO.C,Q5*%
X158790000Y-74071250D03*
X158790000Y-68991250D03*
D11*
X148210000Y-71531250D03*
%TD*%
D12*
%TO.C,R1*%
X157000000Y-149106250D03*
X157000000Y-147456250D03*
%TD*%
D10*
%TO.C,Q9*%
X129630000Y-94131250D03*
X129630000Y-99211250D03*
D11*
X140210000Y-96671250D03*
%TD*%
D13*
%TO.C,Q1*%
X160700000Y-145893750D03*
X158800000Y-145893750D03*
X159750000Y-148168750D03*
%TD*%
D14*
%TO.C,R2*%
X161575000Y-116781250D03*
X159925000Y-116781250D03*
%TD*%
D10*
%TO.C,Q2*%
X158790000Y-113281250D03*
X158790000Y-108201250D03*
D11*
X148210000Y-110741250D03*
%TD*%
D13*
%TO.C,Q6*%
X154950000Y-145893750D03*
X153050000Y-145893750D03*
X154000000Y-148168750D03*
%TD*%
D12*
%TO.C,R5*%
X126200000Y-128681250D03*
X126200000Y-127031250D03*
%TD*%
D10*
%TO.C,Q8*%
X129630000Y-82561250D03*
X129630000Y-87641250D03*
D11*
X140210000Y-85101250D03*
%TD*%
D10*
%TO.C,Q3*%
X158790000Y-99211250D03*
X158790000Y-94131250D03*
D11*
X148210000Y-96671250D03*
%TD*%
D15*
%TO.C,R3*%
X158675000Y-141781250D03*
X160325000Y-141781250D03*
%TD*%
D10*
%TO.C,Q4*%
X158790000Y-87641250D03*
X158790000Y-82561250D03*
D11*
X148210000Y-85101250D03*
%TD*%
D15*
%TO.C,R4*%
X158675000Y-143781250D03*
X160325000Y-143781250D03*
%TD*%
D10*
%TO.C,Q10*%
X129630000Y-108201250D03*
X129630000Y-113281250D03*
D11*
X140210000Y-110741250D03*
%TD*%
M02*
