%TF.GenerationSoftware,KiCad,Pcbnew,8.0.7*%
%TF.CreationDate,2025-01-06T13:09:21+01:00*%
%TF.ProjectId,BMU_switch_mosfet,424d555f-7377-4697-9463-685f6d6f7366,rev?*%
%TF.SameCoordinates,Original*%
%TF.FileFunction,Legend,Bot*%
%TF.FilePolarity,Positive*%
%FSLAX46Y46*%
G04 Gerber Fmt 4.6, Leading zero omitted, Abs format (unit mm)*
G04 Created by KiCad (PCBNEW 8.0.7) date 2025-01-06 13:09:21*
%MOMM*%
%LPD*%
G01*
G04 APERTURE LIST*
%ADD10C,0.150000*%
%ADD11C,0.200000*%
%ADD12C,0.250000*%
%ADD13C,0.100000*%
%ADD14C,0.500000*%
%ADD15C,2.700000*%
%ADD16R,1.800000X1.800000*%
%ADD17C,1.800000*%
%ADD18R,1.500000X1.500000*%
%ADD19C,1.500000*%
G04 APERTURE END LIST*
D10*
X132411904Y-140086069D02*
X132411904Y-140895592D01*
X132411904Y-140895592D02*
X132364285Y-140990830D01*
X132364285Y-140990830D02*
X132316666Y-141038450D01*
X132316666Y-141038450D02*
X132221428Y-141086069D01*
X132221428Y-141086069D02*
X132030952Y-141086069D01*
X132030952Y-141086069D02*
X131935714Y-141038450D01*
X131935714Y-141038450D02*
X131888095Y-140990830D01*
X131888095Y-140990830D02*
X131840476Y-140895592D01*
X131840476Y-140895592D02*
X131840476Y-140086069D01*
X130840476Y-141086069D02*
X131411904Y-141086069D01*
X131126190Y-141086069D02*
X131126190Y-140086069D01*
X131126190Y-140086069D02*
X131221428Y-140228926D01*
X131221428Y-140228926D02*
X131316666Y-140324164D01*
X131316666Y-140324164D02*
X131411904Y-140371783D01*
X145163650Y-100113747D02*
X145163650Y-99113747D01*
X145163650Y-99589937D02*
X144592222Y-99589937D01*
X144592222Y-100113747D02*
X144592222Y-99113747D01*
X143592222Y-100113747D02*
X144163650Y-100113747D01*
X143877936Y-100113747D02*
X143877936Y-99113747D01*
X143877936Y-99113747D02*
X143973174Y-99256604D01*
X143973174Y-99256604D02*
X144068412Y-99351842D01*
X144068412Y-99351842D02*
X144163650Y-99399461D01*
X136391904Y-116986069D02*
X136391904Y-117795592D01*
X136391904Y-117795592D02*
X136344285Y-117890830D01*
X136344285Y-117890830D02*
X136296666Y-117938450D01*
X136296666Y-117938450D02*
X136201428Y-117986069D01*
X136201428Y-117986069D02*
X136010952Y-117986069D01*
X136010952Y-117986069D02*
X135915714Y-117938450D01*
X135915714Y-117938450D02*
X135868095Y-117890830D01*
X135868095Y-117890830D02*
X135820476Y-117795592D01*
X135820476Y-117795592D02*
X135820476Y-116986069D01*
X135439523Y-116986069D02*
X134820476Y-116986069D01*
X134820476Y-116986069D02*
X135153809Y-117367021D01*
X135153809Y-117367021D02*
X135010952Y-117367021D01*
X135010952Y-117367021D02*
X134915714Y-117414640D01*
X134915714Y-117414640D02*
X134868095Y-117462259D01*
X134868095Y-117462259D02*
X134820476Y-117557497D01*
X134820476Y-117557497D02*
X134820476Y-117795592D01*
X134820476Y-117795592D02*
X134868095Y-117890830D01*
X134868095Y-117890830D02*
X134915714Y-117938450D01*
X134915714Y-117938450D02*
X135010952Y-117986069D01*
X135010952Y-117986069D02*
X135296666Y-117986069D01*
X135296666Y-117986069D02*
X135391904Y-117938450D01*
X135391904Y-117938450D02*
X135439523Y-117890830D01*
X143737760Y-139313039D02*
X144547283Y-139313039D01*
X144547283Y-139313039D02*
X144642521Y-139360658D01*
X144642521Y-139360658D02*
X144690141Y-139408277D01*
X144690141Y-139408277D02*
X144737760Y-139503515D01*
X144737760Y-139503515D02*
X144737760Y-139693991D01*
X144737760Y-139693991D02*
X144690141Y-139789229D01*
X144690141Y-139789229D02*
X144642521Y-139836848D01*
X144642521Y-139836848D02*
X144547283Y-139884467D01*
X144547283Y-139884467D02*
X143737760Y-139884467D01*
X143832998Y-140313039D02*
X143785379Y-140360658D01*
X143785379Y-140360658D02*
X143737760Y-140455896D01*
X143737760Y-140455896D02*
X143737760Y-140693991D01*
X143737760Y-140693991D02*
X143785379Y-140789229D01*
X143785379Y-140789229D02*
X143832998Y-140836848D01*
X143832998Y-140836848D02*
X143928236Y-140884467D01*
X143928236Y-140884467D02*
X144023474Y-140884467D01*
X144023474Y-140884467D02*
X144166331Y-140836848D01*
X144166331Y-140836848D02*
X144737760Y-140265420D01*
X144737760Y-140265420D02*
X144737760Y-140884467D01*
X144921063Y-74937815D02*
X144921063Y-73937815D01*
X144921063Y-74414005D02*
X144349635Y-74414005D01*
X144349635Y-74937815D02*
X144349635Y-73937815D01*
X143349635Y-74937815D02*
X143921063Y-74937815D01*
X143635349Y-74937815D02*
X143635349Y-73937815D01*
X143635349Y-73937815D02*
X143730587Y-74080672D01*
X143730587Y-74080672D02*
X143825825Y-74175910D01*
X143825825Y-74175910D02*
X143921063Y-74223529D01*
D11*
%TO.C,U1*%
X129110000Y-145901250D02*
X129110000Y-143361250D01*
X132290000Y-143361250D02*
X129110000Y-143361250D01*
X132290000Y-143361250D02*
X134190000Y-143361250D01*
X134190000Y-143361250D02*
X134190000Y-145901250D01*
X134190000Y-145901250D02*
X129110000Y-145901250D01*
D12*
%TO.C,U3*%
X125480000Y-118401250D02*
X145780000Y-118401250D01*
X125480000Y-127201250D02*
X125480000Y-118401250D01*
X125480000Y-127201250D02*
X145780000Y-127201250D01*
X126360000Y-119241250D02*
X144900000Y-119241250D01*
X126360000Y-126351250D02*
X126360000Y-119241250D01*
X133270000Y-125771250D02*
X137790000Y-125771250D01*
X133270000Y-126351250D02*
X126360000Y-126351250D01*
X133270000Y-127201250D02*
X133270000Y-125771250D01*
X137790000Y-125771250D02*
X137790000Y-127121250D01*
X144900000Y-119241250D02*
X144900000Y-126381250D01*
X144900000Y-126381250D02*
X137790000Y-126381250D01*
X145780000Y-127201250D02*
X145780000Y-118401250D01*
%TO.C,U2*%
X134612941Y-129924944D02*
X134612941Y-150224944D01*
X134612941Y-129924944D02*
X143412941Y-129924944D01*
X134612941Y-137714944D02*
X136042941Y-137714944D01*
X134612941Y-150224944D02*
X143412941Y-150224944D01*
X135432941Y-149344944D02*
X135432941Y-142234944D01*
X135462941Y-130804944D02*
X142572941Y-130804944D01*
X135462941Y-137714944D02*
X135462941Y-130804944D01*
X136042941Y-137714944D02*
X136042941Y-142234944D01*
X136042941Y-142234944D02*
X134692941Y-142234944D01*
X142572941Y-130804944D02*
X142572941Y-149344944D01*
X142572941Y-149344944D02*
X135432941Y-149344944D01*
X143412941Y-129924944D02*
X143412941Y-150224944D01*
%TD*%
%LPC*%
D13*
X159700000Y-128450000D02*
X159850000Y-133412700D01*
X153250000Y-133412700D01*
X150700000Y-143400000D01*
X149750000Y-150475000D01*
X135424600Y-150475000D01*
X135424600Y-128425000D01*
X159700000Y-128450000D01*
G36*
X159700000Y-128450000D02*
G01*
X159850000Y-133412700D01*
X153250000Y-133412700D01*
X150700000Y-143400000D01*
X149750000Y-150475000D01*
X135424600Y-150475000D01*
X135424600Y-128425000D01*
X159700000Y-128450000D01*
G37*
X135424600Y-129425000D02*
X149750000Y-129425000D01*
X149750000Y-148475000D01*
X135424600Y-148475000D01*
X135424600Y-129425000D01*
G36*
X135424600Y-129425000D02*
G01*
X149750000Y-129425000D01*
X149750000Y-148475000D01*
X135424600Y-148475000D01*
X135424600Y-129425000D01*
G37*
X153250000Y-65787300D02*
X159950000Y-65787300D01*
X159950000Y-133412700D01*
X153250000Y-133412700D01*
X153250000Y-65787300D01*
G36*
X153250000Y-65787300D02*
G01*
X159950000Y-65787300D01*
X159950000Y-133412700D01*
X153250000Y-133412700D01*
X153250000Y-65787300D01*
G37*
X125650000Y-65650000D02*
X134000000Y-65650000D01*
X134000000Y-127175400D01*
X125650000Y-127175400D01*
X125650000Y-65650000D01*
G36*
X125650000Y-65650000D02*
G01*
X134000000Y-65650000D01*
X134000000Y-127175400D01*
X125650000Y-127175400D01*
X125650000Y-65650000D01*
G37*
D14*
X151450000Y-116531250D02*
X137450000Y-116531250D01*
X137450000Y-66531250D01*
X151450000Y-66531250D01*
X151450000Y-116531250D01*
G36*
X151450000Y-116531250D02*
G01*
X137450000Y-116531250D01*
X137450000Y-66531250D01*
X151450000Y-66531250D01*
X151450000Y-116531250D01*
G37*
D15*
%TO.C,H2*%
X129175566Y-137024810D03*
%TD*%
%TO.C,H2*%
X158106752Y-137024810D03*
%TD*%
D16*
%TO.C,U1*%
X132920000Y-144631250D03*
D17*
X130380000Y-144631250D03*
%TD*%
D15*
%TO.C,H1*%
X144401746Y-103358928D03*
%TD*%
D18*
%TO.C,U3*%
X140710000Y-124071250D03*
D19*
X140710000Y-121531250D03*
X138170000Y-124071250D03*
X138170000Y-121531250D03*
X135630000Y-124071250D03*
X135630000Y-121531250D03*
X133090000Y-124071250D03*
X133090000Y-121531250D03*
X130550000Y-124071250D03*
X130550000Y-121531250D03*
%TD*%
D18*
%TO.C,U2*%
X137742941Y-145154944D03*
D19*
X140282941Y-145154944D03*
X137742941Y-142614944D03*
X140282941Y-142614944D03*
X137742941Y-140074944D03*
X140282941Y-140074944D03*
X137742941Y-137534944D03*
X140282941Y-137534944D03*
X137742941Y-134994944D03*
X140282941Y-134994944D03*
%TD*%
D15*
%TO.C,H1*%
X144159159Y-78182996D03*
%TD*%
%LPD*%
M02*
